999
dxfrw 0.5.11
0
SECTION
2
HEADER
9
$ACADVER
1
AC1021
9
$HANDSEED
5
20000
9
$DWGCODEPAGE
3
ANSI_1252
9
$INSBASE
10
0
20
0
30
0
9
$EXTMIN
10
5
20
1
30
0
9
$EXTMAX
10
390
20
250
30
0
9
$LIMMIN
10
0
20
0
9
$LIMMAX
10
420
20
297
9
$ORTHOMODE
70
0
9
$LTSCALE
40
1
9
$TEXTSTYLE
7
STANDARD
9
$CLAYER
8
0
9
$DIMASZ
40
2.5
9
$DIMLFAC
40
1
9
$DIMSCALE
40
1
9
$DIMEXO
40
0.625
9
$DIMEXE
40
1.25
9
$DIMTXT
40
2.5
9
$DIMTSZ
40
0
9
$DIMAUNIT
70
0
9
$DIMADEC
70
0
9
$DIMLUNIT
70
2
9
$DIMSTYLE
2
STANDARD
9
$DIMGAP
40
0.625
9
$DIMTIH
70
0
9
$LUNITS
70
2
9
$LUPREC
70
4
9
$AUNITS
70
0
9
$AUPREC
70
2
9
$SPLINESEGS
70
8
9
$GRIDMODE
70
1
9
$SNAPSTYLE
70
0
9
$PINSBASE
10
12.5
20
13.2884615385
30
0
9
$PLIMMIN
10
0
20
0
9
$PLIMMAX
10
420
20
297
9
$INSUNITS
70
4
9
$PSVPSCALE
40
1.01282
0
ENDSEC
0
SECTION
2
CLASSES
0
ENDSEC
0
SECTION
2
TABLES
0
TABLE
2
VPORT
5
8
330
0
100
AcDbSymbolTable
70
1
0
VPORT
5
31
330
2
100
AcDbSymbolTableRecord
100
AcDbViewportTableRecord
2
*ACTIVE
70
0
10
0
20
0
11
1
21
1
12
398.772138965
22
104.58106267
13
0
23
0
14
10
24
10
15
10
25
10
16
0
26
0
36
1
17
0
27
0
37
0
40
342.84400545
41
2.08620689655
42
50
43
0
44
0
50
0
51
0
71
0
72
100
73
1
74
3
75
0
76
1
77
0
78
0
281
0
65
1
110
0
120
0
130
0
111
1
121
0
131
0
112
0
122
1
132
0
79
0
146
0
348
10020
60
7
61
5
292
1
282
1
141
0
142
0
63
250
421
3358443
0
ENDTAB
0
TABLE
2
LTYPE
5
5
330
0
100
AcDbSymbolTable
70
4
0
LTYPE
5
14
330
5
100
AcDbSymbolTableRecord
100
AcDbLinetypeTableRecord
2
ByBlock
70
0
3

72
65
73
0
40
0
0
LTYPE
5
15
330
5
100
AcDbSymbolTableRecord
100
AcDbLinetypeTableRecord
2
ByLayer
70
0
3

72
65
73
0
40
0
0
LTYPE
5
16
330
5
100
AcDbSymbolTableRecord
100
AcDbLinetypeTableRecord
2
Continuous
70
0
3
Solid line
72
65
73
0
40
0
0
LTYPE
5
32
330
5
100
AcDbSymbolTableRecord
100
AcDbLinetypeTableRecord
2
DOT
70
0
3
Dot . . . . . . . . . . . . . . . . . . . . . .
72
65
73
2
40
6.35
49
0
74
0
49
-6.35
74
0
0
LTYPE
5
33
330
5
100
AcDbSymbolTableRecord
100
AcDbLinetypeTableRecord
2
DOT2
70
0
3
Dot (.5x) .....................................
72
65
73
2
40
3.175
49
0
74
0
49
-3.175
74
0
0
LTYPE
5
34
330
5
100
AcDbSymbolTableRecord
100
AcDbLinetypeTableRecord
2
DOTX2
70
0
3
Dot (2x) .  .  .  .  .  .  .  .  .  .  .  .  .
72
65
73
2
40
12.7
49
0
74
0
49
-12.7
74
0
0
LTYPE
5
35
330
5
100
AcDbSymbolTableRecord
100
AcDbLinetypeTableRecord
2
DASHED
70
0
3
Dot . . . . . . . . . . . . . . . . . . . . . .
72
65
73
2
40
19.05
49
12.7
74
0
49
-6.35
74
0
0
LTYPE
5
36
330
5
100
AcDbSymbolTableRecord
100
AcDbLinetypeTableRecord
2
DASHED2
70
0
3
Dashed (.5x) _ _ _ _ _ _ _ _ _ _ _ _ _ _ _ _ _
72
65
73
2
40
9.525
49
6.35
74
0
49
-3.175
74
0
0
LTYPE
5
37
330
5
100
AcDbSymbolTableRecord
100
AcDbLinetypeTableRecord
2
DASHEDX2
70
0
3
Dashed (2x) ____  ____  ____  ____  ____  ___
72
65
73
2
40
38.1
49
25.4
74
0
49
-12.7
74
0
0
LTYPE
5
38
330
5
100
AcDbSymbolTableRecord
100
AcDbLinetypeTableRecord
2
DASHDOT
70
0
3
Dash dot __ . __ . __ . __ . __ . __ . __ . __
72
65
73
4
40
25.4
49
12.7
74
0
49
-6.35
74
0
49
0
74
0
49
-6.35
74
0
0
LTYPE
5
39
330
5
100
AcDbSymbolTableRecord
100
AcDbLinetypeTableRecord
2
DASHDOT2
70
0
3
Dash dot (.5x) _._._._._._._._._._._._._._._.
72
65
73
4
40
12.7
49
6.35
74
0
49
-3.175
74
0
49
0
74
0
49
-3.175
74
0
0
LTYPE
5
3A
330
5
100
AcDbSymbolTableRecord
100
AcDbLinetypeTableRecord
2
DASHDOTX2
70
0
3
Dash dot (2x) ____  .  ____  .  ____  .  ___
72
65
73
4
40
50.8
49
25.4
74
0
49
-12.7
74
0
49
0
74
0
49
-12.7
74
0
0
LTYPE
5
3B
330
5
100
AcDbSymbolTableRecord
100
AcDbLinetypeTableRecord
2
DIVIDE
70
0
3
Divide ____ . . ____ . . ____ . . ____ . . ____
72
65
73
6
40
31.75
49
12.7
74
0
49
-6.35
74
0
49
0
74
0
49
-6.35
74
0
49
0
74
0
49
-6.35
74
0
0
LTYPE
5
3C
330
5
100
AcDbSymbolTableRecord
100
AcDbLinetypeTableRecord
2
DIVIDE2
70
0
3
Divide (.5x) __..__..__..__..__..__..__..__.._
72
65
73
6
40
15.875
49
6.35
74
0
49
-3.175
74
0
49
0
74
0
49
-3.175
74
0
49
0
74
0
49
-3.175
74
0
0
LTYPE
5
3D
330
5
100
AcDbSymbolTableRecord
100
AcDbLinetypeTableRecord
2
DIVIDEX2
70
0
3
Divide (2x) ________  .  .  ________  .  .  _
72
65
73
6
40
63.5
49
25.4
74
0
49
-12.7
74
0
49
0
74
0
49
-12.7
74
0
49
0
74
0
49
-12.7
74
0
0
LTYPE
5
3E
330
5
100
AcDbSymbolTableRecord
100
AcDbLinetypeTableRecord
2
BORDER
70
0
3
Border __ __ . __ __ . __ __ . __ __ . __ __ .
72
65
73
6
40
44.45
49
12.7
74
0
49
-6.35
74
0
49
12.7
74
0
49
-6.35
74
0
49
0
74
0
49
-6.35
74
0
0
LTYPE
5
3F
330
5
100
AcDbSymbolTableRecord
100
AcDbLinetypeTableRecord
2
BORDER2
70
0
3
Border (.5x) __.__.__.__.__.__.__.__.__.__.__.
72
65
73
6
40
22.225
49
6.35
74
0
49
-3.175
74
0
49
6.35
74
0
49
-3.175
74
0
49
0
74
0
49
-3.175
74
0
0
LTYPE
5
40
330
5
100
AcDbSymbolTableRecord
100
AcDbLinetypeTableRecord
2
BORDERX2
70
0
3
Border (2x) ____  ____  .  ____  ____  .  ___
72
65
73
6
40
88.9
49
25.4
74
0
49
-12.7
74
0
49
25.4
74
0
49
-12.7
74
0
49
0
74
0
49
-12.7
74
0
0
LTYPE
5
41
330
5
100
AcDbSymbolTableRecord
100
AcDbLinetypeTableRecord
2
CENTER
70
0
3
Center ____ _ ____ _ ____ _ ____ _ ____ _ ____
72
65
73
4
40
50.8
49
31.75
74
0
49
-6.35
74
0
49
6.35
74
0
49
-6.35
74
0
0
LTYPE
5
42
330
5
100
AcDbSymbolTableRecord
100
AcDbLinetypeTableRecord
2
CENTER2
70
0
3
Center (.5x) ___ _ ___ _ ___ _ ___ _ ___ _ ___
72
65
73
4
40
28.575
49
19.05
74
0
49
-3.175
74
0
49
3.175
74
0
49
-3.175
74
0
0
LTYPE
5
43
330
5
100
AcDbSymbolTableRecord
100
AcDbLinetypeTableRecord
2
CENTERX2
70
0
3
Center (2x) ________  __  ________  __  _____
72
65
73
4
40
101.6
49
63.5
74
0
49
-12.7
74
0
49
12.7
74
0
49
-12.7
74
0
0
ENDTAB
0
TABLE
2
LAYER
5
2
330
0
100
AcDbSymbolTable
70
1
0
LAYER
5
10
330
2
100
AcDbSymbolTableRecord
100
AcDbLayerTableRecord
2
0
70
0
62
7
6
CONTINUOUS
370
0
390
F
0
ENDTAB
0
TABLE
2
STYLE
5
3
330
0
100
AcDbSymbolTable
70
3
0
STYLE
5
44
330
2
100
AcDbSymbolTableRecord
100
AcDbTextStyleTableRecord
2
standard
70
0
40
0
41
1
50
0
71
0
42
1
3
standard
4

0
ENDTAB
0
TABLE
2
VIEW
5
6
330
0
100
AcDbSymbolTable
70
0
0
ENDTAB
0
TABLE
2
UCS
5
7
330
0
100
AcDbSymbolTable
70
0
0
ENDTAB
0
TABLE
2
APPID
5
9
330
0
100
AcDbSymbolTable
70
1
0
APPID
5
12
330
9
100
AcDbSymbolTableRecord
100
AcDbRegAppTableRecord
2
ACAD
70
0
0
ENDTAB
0
TABLE
2
DIMSTYLE
5
A
330
0
100
AcDbSymbolTable
70
1
100
AcDbDimStyleTable
71
1
0
DIMSTYLE
105
45
330
A
100
AcDbSymbolTableRecord
100
AcDbDimStyleTableRecord
2
Standard
70
0
40
1
41
2.5
42
0.625
43
0.38
44
1.25
45
0
46
0
47
0
48
0
140
2.5
141
0.09
142
0
143
25.4
144
1
145
0
146
1
147
0.625
148
0
71
0
72
0
73
0
74
1
75
0
76
0
77
0
78
0
79
0
170
0
171
2
172
0
173
0
174
0
175
0
176
0
177
0
178
0
179
0
271
4
272
4
273
2
274
2
275
0
276
0
277
2
278
46
279
0
280
0
281
0
282
0
283
1
284
0
285
0
286
0
288
0
289
3
340
Standard
341

371
-2
372
-2
0
ENDTAB
0
TABLE
2
BLOCK_RECORD
5
1
330
0
100
AcDbSymbolTable
70
2
0
BLOCK_RECORD
5
1F
330
1
100
AcDbSymbolTableRecord
100
AcDbBlockTableRecord
2
*Model_Space
70
0
280
1
281
0
0
BLOCK_RECORD
5
1E
330
1
100
AcDbSymbolTableRecord
100
AcDbBlockTableRecord
2
*Paper_Space
70
0
280
1
281
0
0
BLOCK_RECORD
5
46
330
1
100
AcDbSymbolTableRecord
100
AcDbBlockTableRecord
2
*D13
70
0
280
1
281
0
0
BLOCK_RECORD
5
49
330
1
100
AcDbSymbolTableRecord
100
AcDbBlockTableRecord
2
*D5
70
0
280
1
281
0
0
BLOCK_RECORD
5
4C
330
1
100
AcDbSymbolTableRecord
100
AcDbBlockTableRecord
2
*D3
70
0
280
1
281
0
0
BLOCK_RECORD
5
4F
330
1
100
AcDbSymbolTableRecord
100
AcDbBlockTableRecord
2
*D2
70
0
280
1
281
0
0
BLOCK_RECORD
5
52
330
1
100
AcDbSymbolTableRecord
100
AcDbBlockTableRecord
2
*D6
70
0
280
1
281
0
0
BLOCK_RECORD
5
55
330
1
100
AcDbSymbolTableRecord
100
AcDbBlockTableRecord
2
*D14
70
0
280
1
281
0
0
BLOCK_RECORD
5
58
330
1
100
AcDbSymbolTableRecord
100
AcDbBlockTableRecord
2
*D12
70
0
280
1
281
0
0
BLOCK_RECORD
5
5B
330
1
100
AcDbSymbolTableRecord
100
AcDbBlockTableRecord
2
*D4
70
0
280
1
281
0
0
BLOCK_RECORD
5
5E
330
1
100
AcDbSymbolTableRecord
100
AcDbBlockTableRecord
2
*D1
70
0
280
1
281
0
0
BLOCK_RECORD
5
61
330
1
100
AcDbSymbolTableRecord
100
AcDbBlockTableRecord
2
*D11
70
0
280
1
281
0
0
BLOCK_RECORD
5
64
330
1
100
AcDbSymbolTableRecord
100
AcDbBlockTableRecord
2
*D21
70
0
280
1
281
0
0
BLOCK_RECORD
5
67
330
1
100
AcDbSymbolTableRecord
100
AcDbBlockTableRecord
2
*D17
70
0
280
1
281
0
0
BLOCK_RECORD
5
6A
330
1
100
AcDbSymbolTableRecord
100
AcDbBlockTableRecord
2
*D20
70
0
280
1
281
0
0
BLOCK_RECORD
5
6D
330
1
100
AcDbSymbolTableRecord
100
AcDbBlockTableRecord
2
*D18
70
0
280
1
281
0
0
BLOCK_RECORD
5
70
330
1
100
AcDbSymbolTableRecord
100
AcDbBlockTableRecord
2
*D8
70
0
280
1
281
0
0
BLOCK_RECORD
5
73
330
1
100
AcDbSymbolTableRecord
100
AcDbBlockTableRecord
2
*D9
70
0
280
1
281
0
0
BLOCK_RECORD
5
76
330
1
100
AcDbSymbolTableRecord
100
AcDbBlockTableRecord
2
*D16
70
0
280
1
281
0
0
BLOCK_RECORD
5
79
330
1
100
AcDbSymbolTableRecord
100
AcDbBlockTableRecord
2
*D10
70
0
280
1
281
0
0
BLOCK_RECORD
5
7C
330
1
100
AcDbSymbolTableRecord
100
AcDbBlockTableRecord
2
*D19
70
0
280
1
281
0
0
BLOCK_RECORD
5
7F
330
1
100
AcDbSymbolTableRecord
100
AcDbBlockTableRecord
2
*D7
70
0
280
1
281
0
0
BLOCK_RECORD
5
82
330
1
100
AcDbSymbolTableRecord
100
AcDbBlockTableRecord
2
*D22
70
0
280
1
281
0
0
BLOCK_RECORD
5
85
330
1
100
AcDbSymbolTableRecord
100
AcDbBlockTableRecord
2
*D15
70
0
280
1
281
0
0
BLOCK_RECORD
5
88
330
1
100
AcDbSymbolTableRecord
100
AcDbBlockTableRecord
2
Sheet-A3
70
0
280
1
281
0
0
BLOCK_RECORD
5
8B
330
1
100
AcDbSymbolTableRecord
100
AcDbBlockTableRecord
2
Seitenansicht-Fahrgestell
70
0
280
1
281
0
0
BLOCK_RECORD
5
8E
330
1
100
AcDbSymbolTableRecord
100
AcDbBlockTableRecord
2
Seitenansicht-Spanten
70
0
280
1
281
0
0
BLOCK_RECORD
5
91
330
1
100
AcDbSymbolTableRecord
100
AcDbBlockTableRecord
2
Seitenansicht-Tor
70
0
280
1
281
0
0
BLOCK_RECORD
5
94
330
1
100
AcDbSymbolTableRecord
100
AcDbBlockTableRecord
2
Tor-Stringer
70
0
280
1
281
0
0
BLOCK_RECORD
5
97
330
1
100
AcDbSymbolTableRecord
100
AcDbBlockTableRecord
2
Schiene
70
0
280
1
281
0
0
BLOCK_RECORD
5
9A
330
1
100
AcDbSymbolTableRecord
100
AcDbBlockTableRecord
2
Schiene-0
70
0
280
1
281
0
0
ENDTAB
0
ENDSEC
0
SECTION
2
BLOCKS
0
BLOCK
5
20
330
1F
100
AcDbEntity
8
0
100
AcDbBlockBegin
2
*Model_Space
70
0
10
0
20
0
30
0
3
*Model_Space
1

0
ENDBLK
5
21
330
1F
100
AcDbEntity
8
0
100
AcDbBlockEnd
0
BLOCK
5
1C
330
1B
100
AcDbEntity
8
0
100
AcDbBlockBegin
2
*Paper_Space
70
0
10
0
20
0
30
0
3
*Paper_Space
1

0
ENDBLK
5
1D
330
1F
100
AcDbEntity
8
0
100
AcDbBlockEnd
0
BLOCK
5
47
330
46
100
AcDbEntity
8
0
100
AcDbBlockBegin
2
*D13
70
1
10
0
20
0
3
*D13
1

0
LINE
5
9D
100
AcDbEntity
8
0
6
CONTINUOUS
62
7
370
0
100
AcDbLine
10
220
20
191
11
220
21
220
0
SOLID
5
9E
100
AcDbEntity
8
0
6
CONTINUOUS
62
7
370
0
100
AcDbTrace
10
220
20
191
30
0
11
219.583715342
21
193.5
31
0
12
220.416284658
22
193.5
32
0
13
220.416284658
23
193.5
33
0
0
ENDBLK
5
48
330
46
100
AcDbEntity
8
0
100
AcDbBlockEnd
0
BLOCK
5
4A
330
49
100
AcDbEntity
8
0
100
AcDbBlockBegin
2
*D5
70
1
10
0
20
0
3
*D5
1

0
LINE
5
9F
100
AcDbEntity
8
0
6
CONTINUOUS
62
7
370
0
100
AcDbLine
10
7
20
152
11
7
21
220
0
SOLID
5
A0
100
AcDbEntity
8
0
6
CONTINUOUS
62
7
370
0
100
AcDbTrace
10
7
20
152
30
0
11
6.58371534223
21
154.5
31
0
12
7.41628465777
22
154.5
32
0
13
7.41628465777
23
154.5
33
0
0
ENDBLK
5
4B
330
49
100
AcDbEntity
8
0
100
AcDbBlockEnd
0
BLOCK
5
4D
330
4C
100
AcDbEntity
8
0
100
AcDbBlockBegin
2
*D3
70
1
10
0
20
0
3
*D3
1

0
LINE
5
A1
100
AcDbEntity
8
0
6
CONTINUOUS
62
7
370
0
100
AcDbLine
10
9
20
60
11
29
21
60
0
SOLID
5
A2
100
AcDbEntity
8
0
6
CONTINUOUS
62
7
370
0
100
AcDbTrace
10
9
20
60
30
0
11
11.5
21
60.4162846578
31
0
12
11.5
22
59.5837153422
32
0
13
11.5
23
59.5837153422
33
0
0
SOLID
5
A3
100
AcDbEntity
8
0
6
CONTINUOUS
62
7
370
0
100
AcDbTrace
10
29
20
60
30
0
11
26.5
21
59.5837153422
31
0
12
26.5
22
60.4162846578
32
0
13
26.5
23
60.4162846578
33
0
0
MTEXT
5
A4
100
AcDbEntity
8
0
6
CONTINUOUS
62
7
370
0
100
AcDbMText
10
19
20
61.875
30
0
40
2.5
41
3.05555555556
71
5
72
1
1
20
7
standard
210
0
220
0
230
1
50
0
73
2
44
1
0
LINE
5
A5
100
AcDbEntity
8
0
6
CONTINUOUS
62
7
370
0
100
AcDbLine
10
9
20
69.375
11
9
21
58.75
0
LINE
5
A6
100
AcDbEntity
8
0
6
CONTINUOUS
62
7
370
0
100
AcDbLine
10
29
20
69.375
11
29
21
58.75
0
ENDBLK
5
4E
330
4C
100
AcDbEntity
8
0
100
AcDbBlockEnd
0
BLOCK
5
50
330
4F
100
AcDbEntity
8
0
100
AcDbBlockBegin
2
*D2
70
1
10
0
20
0
3
*D2
1

0
LINE
5
A7
100
AcDbEntity
8
0
6
CONTINUOUS
62
7
370
0
100
AcDbLine
10
5
20
40
11
340.98
21
40
0
SOLID
5
A8
100
AcDbEntity
8
0
6
CONTINUOUS
62
7
370
0
100
AcDbTrace
10
5
20
40
30
0
11
7.5
21
40.4162846578
31
0
12
7.5
22
39.5837153422
32
0
13
7.5
23
39.5837153422
33
0
0
SOLID
5
A9
100
AcDbEntity
8
0
6
CONTINUOUS
62
7
370
0
100
AcDbTrace
10
340.98
20
40
30
0
11
338.48
21
39.5837153422
31
0
12
338.48
22
40.4162846578
32
0
13
338.48
23
40.4162846578
33
0
0
MTEXT
5
AA
100
AcDbEntity
8
0
6
CONTINUOUS
62
7
370
0
100
AcDbMText
10
172.99
20
41.875
30
0
40
2.5
41
9.72222222222
71
5
72
1
1
335.98
7
standard
210
0
220
0
230
1
50
0
73
2
44
1
0
LINE
5
AB
100
AcDbEntity
8
0
6
CONTINUOUS
62
7
370
0
100
AcDbLine
10
5
20
69.375
11
5
21
38.75
0
LINE
5
AC
100
AcDbEntity
8
0
6
CONTINUOUS
62
7
370
0
100
AcDbLine
10
340.98
20
69.375
11
340.98
21
38.75
0
ENDBLK
5
51
330
4F
100
AcDbEntity
8
0
100
AcDbBlockEnd
0
BLOCK
5
53
330
52
100
AcDbEntity
8
0
100
AcDbBlockBegin
2
*D6
70
1
10
0
20
0
3
*D6
1

0
LINE
5
AD
100
AcDbEntity
8
0
6
CONTINUOUS
62
7
370
0
100
AcDbLine
10
31
20
191
11
31
21
220
0
SOLID
5
AE
100
AcDbEntity
8
0
6
CONTINUOUS
62
7
370
0
100
AcDbTrace
10
31
20
191
30
0
11
30.5837153422
21
193.5
31
0
12
31.4162846578
22
193.5
32
0
13
31.4162846578
23
193.5
33
0
0
ENDBLK
5
54
330
52
100
AcDbEntity
8
0
100
AcDbBlockEnd
0
BLOCK
5
56
330
55
100
AcDbEntity
8
0
100
AcDbBlockBegin
2
*D14
70
1
10
0
20
0
3
*D14
1

0
LINE
5
AF
100
AcDbEntity
8
0
6
CONTINUOUS
62
7
370
0
100
AcDbLine
10
268
20
191
11
268
21
220
0
SOLID
5
B0
100
AcDbEntity
8
0
6
CONTINUOUS
62
7
370
0
100
AcDbTrace
10
268
20
191
30
0
11
267.583715342
21
193.5
31
0
12
268.416284658
22
193.5
32
0
13
268.416284658
23
193.5
33
0
0
ENDBLK
5
57
330
55
100
AcDbEntity
8
0
100
AcDbBlockEnd
0
BLOCK
5
59
330
58
100
AcDbEntity
8
0
100
AcDbBlockBegin
2
*D12
70
1
10
0
20
0
3
*D12
1

0
LINE
5
B1
100
AcDbEntity
8
0
6
CONTINUOUS
62
7
370
0
100
AcDbLine
10
173
20
191
11
173
21
220
0
SOLID
5
B2
100
AcDbEntity
8
0
6
CONTINUOUS
62
7
370
0
100
AcDbTrace
10
173
20
191
30
0
11
172.583715342
21
193.5
31
0
12
173.416284658
22
193.5
32
0
13
173.416284658
23
193.5
33
0
0
ENDBLK
5
5A
330
58
100
AcDbEntity
8
0
100
AcDbBlockEnd
0
BLOCK
5
5C
330
5B
100
AcDbEntity
8
0
100
AcDbBlockBegin
2
*D4
70
1
10
0
20
0
3
*D4
1

0
LINE
5
B3
100
AcDbEntity
8
0
6
CONTINUOUS
62
7
370
0
100
AcDbLine
10
359.7
20
136
11
341
21
136
0
SOLID
5
B4
100
AcDbEntity
8
0
6
CONTINUOUS
62
7
370
0
100
AcDbTrace
10
359.7
20
136
30
0
11
357.2
21
135.583715342
31
0
12
357.2
22
136.416284658
32
0
13
357.2
23
136.416284658
33
0
0
SOLID
5
B5
100
AcDbEntity
8
0
6
CONTINUOUS
62
7
370
0
100
AcDbTrace
10
341
20
136
30
0
11
343.5
21
136.416284658
31
0
12
343.5
22
135.583715342
32
0
13
343.5
23
135.583715342
33
0
0
MTEXT
5
B6
100
AcDbEntity
8
0
6
CONTINUOUS
62
7
370
0
100
AcDbMText
10
350.35
20
137.875
30
0
40
2.5
41
5.27777777778
71
5
72
1
1
18.7
7
standard
210
0
220
0
230
1
50
360
73
2
44
1
0
LINE
5
B7
100
AcDbEntity
8
0
6
CONTINUOUS
62
7
370
0
100
AcDbLine
10
359.7
20
151.37500003
11
359.7
21
134.75
0
LINE
5
B8
100
AcDbEntity
8
0
6
CONTINUOUS
62
7
370
0
100
AcDbLine
10
341
20
151.375
11
341
21
134.75
0
ENDBLK
5
5D
330
5B
100
AcDbEntity
8
0
100
AcDbBlockEnd
0
BLOCK
5
5F
330
5E
100
AcDbEntity
8
0
100
AcDbBlockBegin
2
*D1
70
1
10
0
20
0
3
*D1
1

0
LINE
5
B9
100
AcDbEntity
8
0
6
CONTINUOUS
62
7
370
0
100
AcDbLine
10
33
20
50
11
312.98
21
50
0
SOLID
5
BA
100
AcDbEntity
8
0
6
CONTINUOUS
62
7
370
0
100
AcDbTrace
10
33
20
50
30
0
11
35.5
21
50.4162846578
31
0
12
35.5
22
49.5837153422
32
0
13
35.5
23
49.5837153422
33
0
0
SOLID
5
BB
100
AcDbEntity
8
0
6
CONTINUOUS
62
7
370
0
100
AcDbTrace
10
312.98
20
50
30
0
11
310.48
21
49.5837153422
31
0
12
310.48
22
50.4162846578
32
0
13
310.48
23
50.4162846578
33
0
0
MTEXT
5
BC
100
AcDbEntity
8
0
6
CONTINUOUS
62
7
370
0
100
AcDbMText
10
172.99
20
51.875
30
0
40
2.5
41
9.72222222222
71
5
72
1
1
279.98
7
standard
210
0
220
0
230
1
50
0
73
2
44
1
0
LINE
5
BD
100
AcDbEntity
8
0
6
CONTINUOUS
62
7
370
0
100
AcDbLine
10
33
20
69.375
11
33
21
48.75
0
LINE
5
BE
100
AcDbEntity
8
0
6
CONTINUOUS
62
7
370
0
100
AcDbLine
10
312.98
20
69.375
11
312.98
21
48.75
0
ENDBLK
5
60
330
5E
100
AcDbEntity
8
0
100
AcDbBlockEnd
0
BLOCK
5
62
330
61
100
AcDbEntity
8
0
100
AcDbBlockBegin
2
*D11
70
1
10
0
20
0
3
*D11
1

0
LINE
5
BF
100
AcDbEntity
8
0
6
CONTINUOUS
62
7
370
0
100
AcDbLine
10
126
20
191
11
126
21
220
0
SOLID
5
C0
100
AcDbEntity
8
0
6
CONTINUOUS
62
7
370
0
100
AcDbTrace
10
126
20
191
30
0
11
125.583715342
21
193.5
31
0
12
126.416284658
22
193.5
32
0
13
126.416284658
23
193.5
33
0
0
ENDBLK
5
63
330
61
100
AcDbEntity
8
0
100
AcDbBlockEnd
0
BLOCK
5
65
330
64
100
AcDbEntity
8
0
100
AcDbBlockBegin
2
*D21
70
1
10
0
20
0
3
*D21
1

0
LINE
5
C1
100
AcDbEntity
8
0
6
CONTINUOUS
62
7
370
0
100
AcDbLine
10
269.65
20
86.5
11
278.32
21
78
0
LINE
5
C2
100
AcDbEntity
8
0
6
CONTINUOUS
62
7
370
0
100
AcDbLine
10
278.32
20
78
11
278.32
21
60
0
SOLID
5
C3
100
AcDbEntity
8
0
6
CONTINUOUS
62
7
370
0
100
AcDbTrace
10
269.65
20
86.5
30
0
11
271.726611086
21
85.0470790402
31
0
12
271.14375311
22
84.4525639052
32
0
13
271.14375311
23
84.4525639052
33
0
0
ENDBLK
5
66
330
64
100
AcDbEntity
8
0
100
AcDbBlockEnd
0
BLOCK
5
68
330
67
100
AcDbEntity
8
0
100
AcDbBlockBegin
2
*D17
70
1
10
0
20
0
3
*D17
1

0
LINE
5
C4
100
AcDbEntity
8
0
6
CONTINUOUS
62
7
370
0
100
AcDbLine
10
310
20
187
11
310
21
200
0
SOLID
5
C5
100
AcDbEntity
8
0
6
CONTINUOUS
62
7
370
0
100
AcDbTrace
10
310
20
187
30
0
11
309.583715342
21
189.5
31
0
12
310.416284658
22
189.5
32
0
13
310.416284658
23
189.5
33
0
0
ENDBLK
5
69
330
67
100
AcDbEntity
8
0
100
AcDbBlockEnd
0
BLOCK
5
6B
330
6A
100
AcDbEntity
8
0
100
AcDbBlockBegin
2
*D20
70
1
10
0
20
0
3
*D20
1

0
LINE
5
C6
100
AcDbEntity
8
0
6
CONTINUOUS
62
7
370
0
100
AcDbLine
10
222.32
20
86.5
11
230.99
21
78
0
LINE
5
C7
100
AcDbEntity
8
0
6
CONTINUOUS
62
7
370
0
100
AcDbLine
10
230.99
20
78
11
230.99
21
60
0
SOLID
5
C8
100
AcDbEntity
8
0
6
CONTINUOUS
62
7
370
0
100
AcDbTrace
10
222.32
20
86.5
30
0
11
224.396611086
21
85.0470790402
31
0
12
223.81375311
22
84.4525639052
32
0
13
223.81375311
23
84.4525639052
33
0
0
ENDBLK
5
6C
330
6A
100
AcDbEntity
8
0
100
AcDbBlockEnd
0
BLOCK
5
6E
330
6D
100
AcDbEntity
8
0
100
AcDbBlockBegin
2
*D18
70
1
10
0
20
0
3
*D18
1

0
LINE
5
C9
100
AcDbEntity
8
0
6
CONTINUOUS
62
7
370
0
100
AcDbLine
10
127.66
20
86.5
11
136.33
21
78
0
LINE
5
CA
100
AcDbEntity
8
0
6
CONTINUOUS
62
7
370
0
100
AcDbLine
10
136.33
20
78
11
136.33
21
60
0
SOLID
5
CB
100
AcDbEntity
8
0
6
CONTINUOUS
62
7
370
0
100
AcDbTrace
10
127.66
20
86.5
30
0
11
129.736611086
21
85.0470790402
31
0
12
129.15375311
22
84.4525639052
32
0
13
129.15375311
23
84.4525639052
33
0
0
ENDBLK
5
6F
330
6D
100
AcDbEntity
8
0
100
AcDbBlockEnd
0
BLOCK
5
71
330
70
100
AcDbEntity
8
0
100
AcDbBlockBegin
2
*D8
70
1
10
0
20
0
3
*D8
1

0
ENDBLK
5
72
330
70
100
AcDbEntity
8
0
100
AcDbBlockEnd
0
BLOCK
5
74
330
73
100
AcDbEntity
8
0
100
AcDbBlockBegin
2
*D9
70
1
10
0
20
0
3
*D9
1

0
LINE
5
CC
100
AcDbEntity
8
0
6
CONTINUOUS
62
7
370
0
100
AcDbLine
10
36
20
187
11
36
21
200
0
SOLID
5
CD
100
AcDbEntity
8
0
6
CONTINUOUS
62
7
370
0
100
AcDbTrace
10
36
20
187
30
0
11
35.5837153422
21
189.5
31
0
12
36.4162846578
22
189.5
32
0
13
36.4162846578
23
189.5
33
0
0
ENDBLK
5
75
330
73
100
AcDbEntity
8
0
100
AcDbBlockEnd
0
BLOCK
5
77
330
76
100
AcDbEntity
8
0
100
AcDbBlockBegin
2
*D16
70
1
10
0
20
0
3
*D16
1

0
LINE
5
CE
100
AcDbEntity
8
0
6
CONTINUOUS
62
7
370
0
100
AcDbLine
10
339
20
152
11
339
21
220
0
SOLID
5
CF
100
AcDbEntity
8
0
6
CONTINUOUS
62
7
370
0
100
AcDbTrace
10
339
20
152
30
0
11
338.583715342
21
154.5
31
0
12
339.416284658
22
154.5
32
0
13
339.416284658
23
154.5
33
0
0
ENDBLK
5
78
330
76
100
AcDbEntity
8
0
100
AcDbBlockEnd
0
BLOCK
5
7A
330
79
100
AcDbEntity
8
0
100
AcDbBlockBegin
2
*D10
70
1
10
0
20
0
3
*D10
1

0
LINE
5
D0
100
AcDbEntity
8
0
6
CONTINUOUS
62
7
370
0
100
AcDbLine
10
80.33
20
86.5
11
89
21
78
0
LINE
5
D1
100
AcDbEntity
8
0
6
CONTINUOUS
62
7
370
0
100
AcDbLine
10
89
20
78
11
89
21
60
0
SOLID
5
D2
100
AcDbEntity
8
0
6
CONTINUOUS
62
7
370
0
100
AcDbTrace
10
80.33
20
86.5
30
0
11
82.4066110856
21
85.0470790402
31
0
12
81.8237531101
22
84.4525639052
32
0
13
81.8237531101
23
84.4525639052
33
0
0
ENDBLK
5
7B
330
79
100
AcDbEntity
8
0
100
AcDbBlockEnd
0
BLOCK
5
7D
330
7C
100
AcDbEntity
8
0
100
AcDbBlockBegin
2
*D19
70
1
10
0
20
0
3
*D19
1

0
LINE
5
D3
100
AcDbEntity
8
0
6
CONTINUOUS
62
7
370
0
100
AcDbLine
10
174.99
20
86.5
11
183.66
21
78
0
LINE
5
D4
100
AcDbEntity
8
0
6
CONTINUOUS
62
7
370
0
100
AcDbLine
10
183.66
20
78
11
183.66
21
60
0
SOLID
5
D5
100
AcDbEntity
8
0
6
CONTINUOUS
62
7
370
0
100
AcDbTrace
10
174.99
20
86.5
30
0
11
177.066611086
21
85.0470790402
31
0
12
176.48375311
22
84.4525639052
32
0
13
176.48375311
23
84.4525639052
33
0
0
ENDBLK
5
7E
330
7C
100
AcDbEntity
8
0
100
AcDbBlockEnd
0
BLOCK
5
80
330
7F
100
AcDbEntity
8
0
100
AcDbBlockBegin
2
*D7
70
1
10
0
20
0
3
*D7
1

0
LINE
5
D6
100
AcDbEntity
8
0
6
CONTINUOUS
62
7
370
0
100
AcDbLine
10
78
20
191
11
78
21
220
0
SOLID
5
D7
100
AcDbEntity
8
0
6
CONTINUOUS
62
7
370
0
100
AcDbTrace
10
78
20
191
30
0
11
77.5837153422
21
193.5
31
0
12
78.4162846578
22
193.5
32
0
13
78.4162846578
23
193.5
33
0
0
ENDBLK
5
81
330
7F
100
AcDbEntity
8
0
100
AcDbBlockEnd
0
BLOCK
5
83
330
82
100
AcDbEntity
8
0
100
AcDbBlockBegin
2
*D22
70
1
10
0
20
0
3
*D22
1

0
LINE
5
D8
100
AcDbEntity
8
0
6
CONTINUOUS
62
7
370
0
100
AcDbLine
10
220
20
247
11
180
21
247
0
SOLID
5
D9
100
AcDbEntity
8
0
6
CONTINUOUS
62
7
370
0
100
AcDbTrace
10
220
20
247
30
0
11
217.5
21
246.583715342
31
0
12
217.5
22
247.416284658
32
0
13
217.5
23
247.416284658
33
0
0
ENDBLK
5
84
330
82
100
AcDbEntity
8
0
100
AcDbBlockEnd
0
BLOCK
5
86
330
85
100
AcDbEntity
8
0
100
AcDbBlockBegin
2
*D15
70
1
10
0
20
0
3
*D15
1

0
LINE
5
DA
100
AcDbEntity
8
0
6
CONTINUOUS
62
7
370
0
100
AcDbLine
10
315
20
191
11
315
21
220
0
SOLID
5
DB
100
AcDbEntity
8
0
6
CONTINUOUS
62
7
370
0
100
AcDbTrace
10
315
20
191
30
0
11
314.583715342
21
193.5
31
0
12
315.416284658
22
193.5
32
0
13
315.416284658
23
193.5
33
0
0
ENDBLK
5
87
330
85
100
AcDbEntity
8
0
100
AcDbBlockEnd
0
BLOCK
5
89
330
88
100
AcDbEntity
8
0
100
AcDbBlockBegin
2
Sheet-A3
70
0
10
0
20
0
3
Sheet-A3
1

0
LINE
5
DC
100
AcDbEntity
8
0
6
ByLayer
62
256
370
-1
100
AcDbLine
10
0
20
0
11
390
21
0
0
LINE
5
DD
100
AcDbEntity
8
0
6
ByLayer
62
256
370
-1
100
AcDbLine
10
0
20
0
11
1.63490347686e-14
21
267
0
LINE
5
DE
100
AcDbEntity
8
0
6
ByLayer
62
256
370
-1
100
AcDbLine
10
390
20
0
11
390
21
267
0
LINE
5
DF
100
AcDbEntity
8
0
6
ByLayer
62
256
370
-1
100
AcDbLine
10
1.63490347686e-14
20
267
11
390
21
267
0
LINE
5
E0
100
AcDbEntity
8
0
6
ByLayer
62
256
370
-1
100
AcDbLine
10
210
20
15
11
390
21
15
0
LINE
5
E1
100
AcDbEntity
8
0
6
ByLayer
62
256
370
-1
100
AcDbLine
10
230
20
0
11
230
21
15
0
LINE
5
E2
100
AcDbEntity
8
0
6
ByLayer
62
256
370
-1
100
AcDbLine
10
360
20
0
11
360
21
15
0
LINE
5
E3
100
AcDbEntity
8
0
6
ByLayer
62
256
370
-1
100
AcDbLine
10
340
20
0
11
340
21
15
0
LINE
5
E4
100
AcDbEntity
8
0
6
ByLayer
62
256
370
-1
100
AcDbLine
10
340
20
7.5
11
390
21
7.5
0
LINE
5
E5
100
AcDbEntity
8
0
6
ByLayer
62
256
370
-1
100
AcDbLine
10
210
20
7.5
11
230
21
7.5
0
MTEXT
5
E6
100
AcDbEntity
8
0
6
ByLayer
62
256
370
-1
100
AcDbMText
10
217
20
14
30
0
40
5.5
41
6.11111111111
71
1
72
1
1
1:1
7
standard
210
0
220
0
230
1
50
0
73
2
44
1
0
MTEXT
5
E7
100
AcDbEntity
8
0
6
ByLayer
62
256
370
-1
100
AcDbMText
10
210.5
20
5
30
0
40
3
41
18.5833333333
71
1
72
1
1
4mm Holz
7
standard
210
0
220
0
230
1
50
0
73
2
44
1
0
MTEXT
5
E8
100
AcDbEntity
8
0
6
ByLayer
62
256
370
-1
100
AcDbMText
10
366
20
5
30
0
40
3
41
17.9166666667
71
1
72
1
1
Blatt 001
7
standard
210
0
220
0
230
1
50
0
73
2
44
1
0
MTEXT
5
E9
100
AcDbEntity
8
0
6
ByLayer
62
256
370
-1
100
AcDbMText
10
347
20
5
30
0
40
3
41
6.33333333333
71
1
72
1
1
v1.0
7
standard
210
0
220
0
230
1
50
0
73
2
44
1
0
LINE
5
EA
100
AcDbEntity
8
0
6
ByLayer
62
256
370
-1
100
AcDbLine
10
210
20
15
11
210
21
0
0
ENDBLK
5
8A
330
88
100
AcDbEntity
8
0
100
AcDbBlockEnd
0
BLOCK
5
8C
330
8B
100
AcDbEntity
8
0
100
AcDbBlockBegin
2
Seitenansicht-Fahrgestell
70
0
10
0
20
0
3
Seitenansicht-Fahrgestell
1

0
LINE
5
EB
100
AcDbEntity
8
0
6
ByLayer
62
256
370
-1
100
AcDbLine
10
-7.2
20
2.99999996964
11
-7.2
21
12.9999999696
0
LINE
5
EC
100
AcDbEntity
8
0
6
ByLayer
62
256
370
-1
100
AcDbLine
10
4
20
0
11
4
21
52.6789180667
0
LINE
5
ED
100
AcDbEntity
8
0
6
ByLayer
62
256
370
-1
100
AcDbLine
10
0
20
0
11
0
21
52.6789180667
0
LINE
5
EE
100
AcDbEntity
8
0
6
ByLayer
62
256
370
-1
100
AcDbLine
10
-4
20
0
11
-4
21
52.6789180667
0
LINE
5
EF
100
AcDbEntity
8
0
6
ByLayer
62
256
370
-1
100
AcDbLine
10
-7.2
20
7.99999996964
11
-34.2
21
7.99999996964
0
LINE
5
F0
100
AcDbEntity
8
0
6
ByLayer
62
256
370
-1
100
AcDbLine
10
-34.2
20
9.19999996964
11
-22.2
21
9.19999996964
0
LINE
5
F1
100
AcDbEntity
8
0
6
ByLayer
62
256
370
-1
100
AcDbLine
10
-22.2
20
10.9999999696
11
-34.2
21
10.9999999696
0
LINE
5
F2
100
AcDbEntity
8
0
6
ByLayer
62
256
370
-1
100
AcDbLine
10
-22.2
20
4.99999996964
11
-34.2
21
4.99999996964
0
LINE
5
F3
100
AcDbEntity
8
0
6
ByLayer
62
256
370
-1
100
AcDbLine
10
-22.2
20
4.99999996964
11
-22.2
21
10.9999999696
0
LINE
5
F4
100
AcDbEntity
8
0
6
ByLayer
62
256
370
-1
100
AcDbLine
10
-34.2
20
10.9999999696
11
-34.2
21
4.99999996964
0
LINE
5
F5
100
AcDbEntity
8
0
6
ByLayer
62
256
370
-1
100
AcDbLine
10
-4
20
52.6789180667
11
-24
21
52.6789180667
0
LINE
5
F6
100
AcDbEntity
8
0
6
ByLayer
62
256
370
-1
100
AcDbLine
10
-4
20
39.9569407697
11
-24
21
39.9569407697
0
LINE
5
F7
100
AcDbEntity
8
0
6
ByLayer
62
256
370
-1
100
AcDbLine
10
4
20
40.0355839697
11
24
21
40.0355839697
0
LINE
5
F8
100
AcDbEntity
8
0
6
ByLayer
62
256
370
-1
100
AcDbLine
10
4
20
52.6789180667
11
24
21
52.6789180667
0
LINE
5
F9
100
AcDbEntity
8
0
6
ByLayer
62
256
370
-1
100
AcDbLine
10
-24
20
52.6789180667
11
-24
21
39.9569407697
0
LINE
5
FA
100
AcDbEntity
8
0
6
ByLayer
62
256
370
-1
100
AcDbLine
10
24
20
52.6789180667
11
24
21
40.0355839697
0
ENDBLK
5
8D
330
8B
100
AcDbEntity
8
0
100
AcDbBlockEnd
0
BLOCK
5
8F
330
8E
100
AcDbEntity
8
0
100
AcDbBlockBegin
2
Seitenansicht-Spanten
70
0
10
0
20
0
3
Seitenansicht-Spanten
1

0
LINE
5
FB
100
AcDbEntity
8
0
6
ByLayer
62
256
370
-1
100
AcDbLine
10
0
20
-70
11
4
21
-70
0
LINE
5
FC
100
AcDbEntity
8
0
6
ByLayer
62
256
370
-1
100
AcDbLine
10
4
20
-70
11
4
21
12
0
LINE
5
FD
100
AcDbEntity
8
0
6
ByLayer
62
256
370
-1
100
AcDbLine
10
4
20
12
11
0
21
12
0
LINE
5
FE
100
AcDbEntity
8
0
6
ByLayer
62
256
370
-1
100
AcDbLine
10
0
20
12
11
0
21
-70
0
LINE
5
FF
100
AcDbEntity
8
0
6
ByLayer
62
256
370
-1
100
AcDbLine
10
24
20
-70
11
28
21
-70
0
LINE
5
100
100
AcDbEntity
8
0
6
ByLayer
62
256
370
-1
100
AcDbLine
10
331.98
20
-70
11
331.98
21
12
0
LINE
5
101
100
AcDbEntity
8
0
6
ByLayer
62
256
370
-1
100
AcDbLine
10
335.98
20
-70
11
335.98
21
12
0
LINE
5
102
100
AcDbEntity
8
0
6
ByLayer
62
256
370
-1
100
AcDbLine
10
75.33
20
-70
11
71.33
21
-70
0
LINE
5
103
100
AcDbEntity
8
0
6
ByLayer
62
256
370
-1
100
AcDbLine
10
122.66
20
-70
11
118.66
21
-70
0
LINE
5
104
100
AcDbEntity
8
0
6
ByLayer
62
256
370
-1
100
AcDbLine
10
169.99
20
-70
11
165.99
21
-70
0
LINE
5
105
100
AcDbEntity
8
0
6
ByLayer
62
256
370
-1
100
AcDbLine
10
217.32
20
-70
11
213.32
21
-70
0
LINE
5
106
100
AcDbEntity
8
0
6
ByLayer
62
256
370
-1
100
AcDbLine
10
264.65
20
-70
11
260.65
21
-70
0
LINE
5
107
100
AcDbEntity
8
0
6
ByLayer
62
256
370
-1
100
AcDbLine
10
311.98
20
-70
11
307.98
21
-70
0
LINE
5
108
100
AcDbEntity
8
0
6
ByLayer
62
256
370
-1
100
AcDbLine
10
335.98
20
-70
11
331.98
21
-70
0
LINE
5
109
100
AcDbEntity
8
0
6
ByLayer
62
256
370
-1
100
AcDbLine
10
335.98
20
12
11
331.98
21
12
0
LINE
5
10A
100
AcDbEntity
8
0
6
ByLayer
62
256
370
-1
100
AcDbLine
10
71.33
20
-70
11
71.33
21
51
0
LINE
5
10B
100
AcDbEntity
8
0
6
ByLayer
62
256
370
-1
100
AcDbLine
10
75.33
20
-70
11
75.33
21
51
0
LINE
5
10C
100
AcDbEntity
8
0
6
ByLayer
62
256
370
-1
100
AcDbLine
10
118.66
20
-70
11
118.66
21
51
0
LINE
5
10D
100
AcDbEntity
8
0
6
ByLayer
62
256
370
-1
100
AcDbLine
10
122.66
20
-70
11
122.66
21
51
0
LINE
5
10E
100
AcDbEntity
8
0
6
ByLayer
62
256
370
-1
100
AcDbLine
10
165.99
20
-70
11
165.99
21
51
0
LINE
5
10F
100
AcDbEntity
8
0
6
ByLayer
62
256
370
-1
100
AcDbLine
10
169.99
20
-70
11
169.99
21
51
0
LINE
5
110
100
AcDbEntity
8
0
6
ByLayer
62
256
370
-1
100
AcDbLine
10
213.32
20
-70
11
213.32
21
51
0
LINE
5
111
100
AcDbEntity
8
0
6
ByLayer
62
256
370
-1
100
AcDbLine
10
217.32
20
-70
11
217.32
21
51
0
LINE
5
112
100
AcDbEntity
8
0
6
ByLayer
62
256
370
-1
100
AcDbLine
10
260.65
20
-70
11
260.65
21
51
0
LINE
5
113
100
AcDbEntity
8
0
6
ByLayer
62
256
370
-1
100
AcDbLine
10
264.65
20
-70
11
264.65
21
51
0
LINE
5
114
100
AcDbEntity
8
0
6
ByLayer
62
256
370
-1
100
AcDbLine
10
71.33
20
51
11
75.33
21
51
0
LINE
5
115
100
AcDbEntity
8
0
6
ByLayer
62
256
370
-1
100
AcDbLine
10
118.66
20
51
11
122.66
21
51
0
LINE
5
116
100
AcDbEntity
8
0
6
ByLayer
62
256
370
-1
100
AcDbLine
10
165.99
20
51
11
169.99
21
51
0
LINE
5
117
100
AcDbEntity
8
0
6
ByLayer
62
256
370
-1
100
AcDbLine
10
213.32
20
51
11
217.32
21
51
0
LINE
5
118
100
AcDbEntity
8
0
6
ByLayer
62
256
370
-1
100
AcDbLine
10
260.65
20
51
11
264.65
21
51
0
DIMENSION
5
119
100
AcDbEntity
8
0
6
ByLayer
62
256
370
-1
100
AcDbDimension
10
118.66
20
60
30
0
11
96.995
21
61.875
31
0
70
32
71
5
3
Standard
53
0
210
0
220
0
230
1
100
AcDbAlignedDimension
13
75.33
23
51
33
0
14
118.66
24
51
34
0
100
AcDbRotatedDimension
0
DIMENSION
5
11A
100
AcDbEntity
8
0
6
ByLayer
62
256
370
-1
100
AcDbDimension
10
165.99
20
60
30
0
11
144.325
21
61.875
31
0
70
32
71
5
3
Standard
53
0
210
0
220
0
230
1
100
AcDbAlignedDimension
13
122.66
23
51
33
0
14
165.99
24
51
34
0
100
AcDbRotatedDimension
0
LINE
5
11B
100
AcDbEntity
8
0
6
ByLayer
62
256
370
-1
100
AcDbLine
10
28
20
-70
11
28
21
51
0
LINE
5
11C
100
AcDbEntity
8
0
6
ByLayer
62
256
370
-1
100
AcDbLine
10
24
20
-70
11
24
21
51
0
LINE
5
11D
100
AcDbEntity
8
0
6
ByLayer
62
256
370
-1
100
AcDbLine
10
24
20
51
11
28
21
51
0
LINE
5
11E
100
AcDbEntity
8
0
6
ByLayer
62
256
370
-1
100
AcDbLine
10
336
20
4
11
308
21
4
0
LINE
5
11F
100
AcDbEntity
8
0
6
ByLayer
62
256
370
-1
100
AcDbLine
10
336
20
0
11
308
21
0
0
LINE
5
120
100
AcDbEntity
8
0
6
ByLayer
62
256
370
-1
100
AcDbLine
10
325
20
-3
11
328
21
-3
0
LINE
5
121
100
AcDbEntity
8
0
6
ByLayer
62
256
370
-1
100
AcDbLine
10
325
20
26
11
325
21
-3
0
LINE
5
122
100
AcDbEntity
8
0
6
ByLayer
62
256
370
-1
100
AcDbLine
10
328
20
26
11
328
21
-3
0
LINE
5
123
100
AcDbEntity
8
0
6
ByLayer
62
256
370
-1
100
AcDbLine
10
325
20
26
11
328
21
26
0
LINE
5
124
100
AcDbEntity
8
0
6
ByLayer
62
256
370
-1
100
AcDbLine
10
307.98
20
-70
11
307.98
21
51
0
LINE
5
125
100
AcDbEntity
8
0
6
ByLayer
62
256
370
-1
100
AcDbLine
10
311.98
20
-70
11
311.98
21
51
0
LINE
5
126
100
AcDbEntity
8
0
6
ByLayer
62
256
370
-1
100
AcDbLine
10
307.98
20
51
11
311.98
21
51
0
ENDBLK
5
90
330
8E
100
AcDbEntity
8
0
100
AcDbBlockEnd
0
BLOCK
5
92
330
91
100
AcDbEntity
8
0
100
AcDbBlockBegin
2
Seitenansicht-Tor
70
0
10
0
20
0
3
Seitenansicht-Tor
1

0
LINE
5
127
100
AcDbEntity
8
0
6
ByLayer
62
256
370
-1
100
AcDbLine
10
416
20
42.7390659049
11
416
21
38.7390659049
0
LINE
5
128
100
AcDbEntity
8
0
6
ByLayer
62
256
370
-1
100
AcDbLine
10
112
20
42.7390659049
11
112
21
38.7390659049
0
LINE
5
129
100
AcDbEntity
8
0
6
ByLayer
62
256
370
-1
100
AcDbLine
10
112
20
42.7390659049
11
416
21
42.7390659049
0
LINE
5
12A
100
AcDbEntity
8
0
6
ByLayer
62
256
370
-1
100
AcDbLine
10
112
20
38.7390659049
11
416
21
38.7390659049
0
LINE
5
12B
100
AcDbEntity
8
0
6
ByLayer
62
256
370
-1
100
AcDbLine
10
129
20
47.2390659049
11
133
21
47.2390659049
0
LINE
5
12C
100
AcDbEntity
8
0
6
ByLayer
62
256
370
-1
100
AcDbLine
10
129
20
-52.7609340951
11
133
21
-52.7609340951
0
LINE
5
12D
100
AcDbEntity
8
0
6
ByLayer
62
256
370
-1
100
AcDbLine
10
133
20
47.2390659049
11
133
21
-52.7609340951
0
LINE
5
12E
100
AcDbEntity
8
0
6
ByLayer
62
256
370
-1
100
AcDbLine
10
129
20
47.2390659049
11
129
21
-52.7609340951
0
LINE
5
12F
100
AcDbEntity
8
0
6
ByLayer
62
256
370
-1
100
AcDbLine
10
171.33
20
47.2390659049
11
175.33
21
47.2390659049
0
LINE
5
130
100
AcDbEntity
8
0
6
ByLayer
62
256
370
-1
100
AcDbLine
10
171.33
20
-52.7609340951
11
175.33
21
-52.7609340951
0
LINE
5
131
100
AcDbEntity
8
0
6
ByLayer
62
256
370
-1
100
AcDbLine
10
175.33
20
47.2390659049
11
175.33
21
-52.7609340951
0
LINE
5
132
100
AcDbEntity
8
0
6
ByLayer
62
256
370
-1
100
AcDbLine
10
171.33
20
47.2390659049
11
171.33
21
-52.7609340951
0
LINE
5
133
100
AcDbEntity
8
0
6
ByLayer
62
256
370
-1
100
AcDbLine
10
218.66
20
47.2390659049
11
222.66
21
47.2390659049
0
LINE
5
134
100
AcDbEntity
8
0
6
ByLayer
62
256
370
-1
100
AcDbLine
10
218.66
20
-52.7609340951
11
222.66
21
-52.7609340951
0
LINE
5
135
100
AcDbEntity
8
0
6
ByLayer
62
256
370
-1
100
AcDbLine
10
222.66
20
47.2390659049
11
222.66
21
-52.7609340951
0
LINE
5
136
100
AcDbEntity
8
0
6
ByLayer
62
256
370
-1
100
AcDbLine
10
218.66
20
47.2390659049
11
218.66
21
-52.7609340951
0
LINE
5
137
100
AcDbEntity
8
0
6
ByLayer
62
256
370
-1
100
AcDbLine
10
265.99
20
47.2390659049
11
269.99
21
47.2390659049
0
LINE
5
138
100
AcDbEntity
8
0
6
ByLayer
62
256
370
-1
100
AcDbLine
10
265.99
20
-52.7609340951
11
269.99
21
-52.7609340951
0
LINE
5
139
100
AcDbEntity
8
0
6
ByLayer
62
256
370
-1
100
AcDbLine
10
269.99
20
47.2390659049
11
269.99
21
-52.7609340951
0
LINE
5
13A
100
AcDbEntity
8
0
6
ByLayer
62
256
370
-1
100
AcDbLine
10
265.99
20
47.2390659049
11
265.99
21
-52.7609340951
0
LINE
5
13B
100
AcDbEntity
8
0
6
ByLayer
62
256
370
-1
100
AcDbLine
10
313.32
20
47.2390659049
11
317.32
21
47.2390659049
0
LINE
5
13C
100
AcDbEntity
8
0
6
ByLayer
62
256
370
-1
100
AcDbLine
10
313.32
20
-52.7609340951
11
317.32
21
-52.7609340951
0
LINE
5
13D
100
AcDbEntity
8
0
6
ByLayer
62
256
370
-1
100
AcDbLine
10
317.32
20
47.2390659049
11
317.32
21
-52.7609340951
0
LINE
5
13E
100
AcDbEntity
8
0
6
ByLayer
62
256
370
-1
100
AcDbLine
10
313.32
20
47.2390659049
11
313.32
21
-52.7609340951
0
LINE
5
13F
100
AcDbEntity
8
0
6
ByLayer
62
256
370
-1
100
AcDbLine
10
360.65
20
47.2390659049
11
364.65
21
47.2390659049
0
LINE
5
140
100
AcDbEntity
8
0
6
ByLayer
62
256
370
-1
100
AcDbLine
10
360.65
20
-52.7609340951
11
364.65
21
-52.7609340951
0
LINE
5
141
100
AcDbEntity
8
0
6
ByLayer
62
256
370
-1
100
AcDbLine
10
364.65
20
47.2390659049
11
364.65
21
-52.7609340951
0
LINE
5
142
100
AcDbEntity
8
0
6
ByLayer
62
256
370
-1
100
AcDbLine
10
360.65
20
47.2390659049
11
360.65
21
-52.7609340951
0
LINE
5
143
100
AcDbEntity
8
0
6
ByLayer
62
256
370
-1
100
AcDbLine
10
402.98
20
47.2390659049
11
406.98
21
47.2390659049
0
LINE
5
144
100
AcDbEntity
8
0
6
ByLayer
62
256
370
-1
100
AcDbLine
10
402.98
20
-52.7609340951
11
406.98
21
-52.7609340951
0
LINE
5
145
100
AcDbEntity
8
0
6
ByLayer
62
256
370
-1
100
AcDbLine
10
406.98
20
47.2390659049
11
406.98
21
-52.7609340951
0
LINE
5
146
100
AcDbEntity
8
0
6
ByLayer
62
256
370
-1
100
AcDbLine
10
402.98
20
47.2390659049
11
402.98
21
-52.7609340951
0
ENDBLK
5
93
330
91
100
AcDbEntity
8
0
100
AcDbBlockEnd
0
BLOCK
5
95
330
94
100
AcDbEntity
8
0
100
AcDbBlockBegin
2
Tor-Stringer
70
0
10
0
20
0
3
Tor-Stringer
1

0
LINE
5
147
100
AcDbEntity
8
0
6
ByLayer
62
256
370
-1
100
AcDbLine
10
4
20
-14
11
42.33
21
-14
0
LINE
5
148
100
AcDbEntity
8
0
6
ByLayer
62
256
370
-1
100
AcDbLine
10
46.33
20
-14
11
89.66
21
-14
0
LINE
5
149
100
AcDbEntity
8
0
6
ByLayer
62
256
370
-1
100
AcDbLine
10
93.66
20
-14
11
136.99
21
-14
0
LINE
5
14A
100
AcDbEntity
8
0
6
ByLayer
62
256
370
-1
100
AcDbLine
10
140.99
20
-14
11
184.32
21
-14
0
LINE
5
14B
100
AcDbEntity
8
0
6
ByLayer
62
256
370
-1
100
AcDbLine
10
188.32
20
-14
11
231.65
21
-14
0
LINE
5
14C
100
AcDbEntity
8
0
6
ByLayer
62
256
370
-1
100
AcDbLine
10
235.65
20
-14
11
273.98
21
-14
0
LINE
5
14D
100
AcDbEntity
8
0
6
ByLayer
62
256
370
-1
100
AcDbLine
10
0
20
-6
11
4
21
-6
0
LINE
5
14E
100
AcDbEntity
8
0
6
ByLayer
62
256
370
-1
100
AcDbLine
10
42.33
20
-6
11
46.33
21
-6
0
LINE
5
14F
100
AcDbEntity
8
0
6
ByLayer
62
256
370
-1
100
AcDbLine
10
89.66
20
-6
11
93.66
21
-6
0
LINE
5
150
100
AcDbEntity
8
0
6
ByLayer
62
256
370
-1
100
AcDbLine
10
136.99
20
-6
11
140.99
21
-6
0
LINE
5
151
100
AcDbEntity
8
0
6
ByLayer
62
256
370
-1
100
AcDbLine
10
184.32
20
-6
11
188.32
21
-6
0
LINE
5
152
100
AcDbEntity
8
0
6
ByLayer
62
256
370
-1
100
AcDbLine
10
231.65
20
-6
11
235.65
21
-6
0
LINE
5
153
100
AcDbEntity
8
0
6
ByLayer
62
256
370
-1
100
AcDbLine
10
273.98
20
-6
11
277.98
21
-6
0
LINE
5
154
100
AcDbEntity
8
0
6
ByLayer
62
256
370
-1
100
AcDbLine
10
4
20
-14
11
4
21
-6
0
LINE
5
155
100
AcDbEntity
8
0
6
ByLayer
62
256
370
-1
100
AcDbLine
10
42.33
20
-14
11
42.33
21
-6
0
LINE
5
156
100
AcDbEntity
8
0
6
ByLayer
62
256
370
-1
100
AcDbLine
10
46.33
20
-14
11
46.33
21
-6
0
LINE
5
157
100
AcDbEntity
8
0
6
ByLayer
62
256
370
-1
100
AcDbLine
10
89.66
20
-14
11
89.66
21
-6
0
LINE
5
158
100
AcDbEntity
8
0
6
ByLayer
62
256
370
-1
100
AcDbLine
10
93.66
20
-14
11
93.66
21
-6
0
LINE
5
159
100
AcDbEntity
8
0
6
ByLayer
62
256
370
-1
100
AcDbLine
10
136.99
20
-14
11
136.99
21
-6
0
LINE
5
15A
100
AcDbEntity
8
0
6
ByLayer
62
256
370
-1
100
AcDbLine
10
140.99
20
-14
11
140.99
21
-6
0
LINE
5
15B
100
AcDbEntity
8
0
6
ByLayer
62
256
370
-1
100
AcDbLine
10
184.32
20
-14
11
184.32
21
-6
0
LINE
5
15C
100
AcDbEntity
8
0
6
ByLayer
62
256
370
-1
100
AcDbLine
10
188.32
20
-14
11
188.32
21
-6
0
LINE
5
15D
100
AcDbEntity
8
0
6
ByLayer
62
256
370
-1
100
AcDbLine
10
231.65
20
-14
11
231.65
21
-6
0
LINE
5
15E
100
AcDbEntity
8
0
6
ByLayer
62
256
370
-1
100
AcDbLine
10
235.65
20
-14
11
235.65
21
-6
0
LINE
5
15F
100
AcDbEntity
8
0
6
ByLayer
62
256
370
-1
100
AcDbLine
10
273.98
20
-14
11
273.98
21
-6
0
LINE
5
160
100
AcDbEntity
8
0
6
ByLayer
62
256
370
-1
100
AcDbLine
10
277.98
20
-6
11
277.98
21
0
0
LINE
5
161
100
AcDbEntity
8
0
6
ByLayer
62
256
370
-1
100
AcDbLine
10
0
20
0
11
277.98
21
0
0
LINE
5
162
100
AcDbEntity
8
0
6
ByLayer
62
256
370
-1
100
AcDbLine
10
0
20
0
11
0
21
-6
0
ENDBLK
5
96
330
94
100
AcDbEntity
8
0
100
AcDbBlockEnd
0
BLOCK
5
98
330
97
100
AcDbEntity
8
0
100
AcDbBlockBegin
2
Schiene
70
0
10
0
20
0
3
Schiene
1

0
CIRCLE
5
163
100
AcDbEntity
8
0
6
ByLayer
62
256
370
-1
100
AcDbCircle
10
0
20
0
40
11
0
DIMENSION
5
164
100
AcDbEntity
8
0
6
ByLayer
62
256
370
-1
100
AcDbDimension
10
11
20
0
30
0
11
1e-16
21
1.875
31
0
70
35
71
5
3
Standard
53
0
210
0
220
0
230
1
100
AcDbDiametricDimension
15
-11
25
0
35
0
40
0
0
ENDBLK
5
99
330
97
100
AcDbEntity
8
0
100
AcDbBlockEnd
0
BLOCK
5
9B
330
9A
100
AcDbEntity
8
0
100
AcDbBlockBegin
2
Schiene-0
70
0
10
0
20
0
3
Schiene-0
1

0
CIRCLE
5
165
100
AcDbEntity
8
0
6
ByLayer
62
256
370
-1
100
AcDbCircle
10
0
20
0
40
11
0
DIMENSION
5
166
100
AcDbEntity
8
0
6
ByLayer
62
256
370
-1
100
AcDbDimension
10
11
20
0
30
0
11
1e-16
21
1.875
31
0
70
35
71
5
3
Standard
53
0
210
0
220
0
230
1
100
AcDbDiametricDimension
15
-11
25
0
35
0
40
0
0
ENDBLK
5
9C
330
9A
100
AcDbEntity
8
0
100
AcDbBlockEnd
0
ENDSEC
0
SECTION
2
ENTITIES
0
INSERT
5
167
100
AcDbEntity
8
0
6
ByLayer
62
256
370
-1
100
AcDbBlockReference
2
Sheet-A3
10
0
20
0
30
0
41
1
42
1
43
0
50
0
70
1
71
1
44
0
45
0
0
DIMENSION
5
168
100
AcDbEntity
8
0
6
ByLayer
62
256
370
-1
100
AcDbDimension
2
*D1
10
312.98
20
50
30
0
11
172.99
21
51.875
31
0
70
32
71
5
3
Standard
53
0
210
0
220
0
230
1
100
AcDbAlignedDimension
13
33
23
70
33
0
14
312.98
24
70
34
0
100
AcDbRotatedDimension
0
INSERT
5
169
100
AcDbEntity
8
0
6
ByLayer
62
256
370
-1
100
AcDbBlockReference
2
Seitenansicht-Fahrgestell
10
359.7
20
152.00000003
30
0
41
1
42
1
43
0
50
0
70
1
71
1
44
0
45
0
0
INSERT
5
16A
100
AcDbEntity
8
0
6
ByLayer
62
256
370
-1
100
AcDbBlockReference
2
Seitenansicht-Spanten
10
5
20
140
30
0
41
1
42
1
43
0
50
0
70
1
71
1
44
0
45
0
0
INSERT
5
16B
100
AcDbEntity
8
0
6
ByLayer
62
256
370
-1
100
AcDbBlockReference
2
Seitenansicht-Tor
10
-95
20
139.260934095
30
0
41
1
42
1
43
0
50
0
70
1
71
1
44
0
45
0
0
DIMENSION
5
16C
100
AcDbEntity
8
0
6
ByLayer
62
256
370
-1
100
AcDbDimension
2
*D2
10
340.98
20
40
30
0
11
172.99
21
41.875
31
0
70
32
71
5
72
0
3
Standard
53
0
210
0
220
0
230
1
100
AcDbAlignedDimension
13
5
23
70
33
0
14
340.98
24
70
34
0
100
AcDbRotatedDimension
0
LINE
5
16D
100
AcDbEntity
8
0
6
ByLayer
62
256
370
-1
100
AcDbLine
10
355.7
20
204.678918097
11
363.7
21
204.678918097
0
LINE
5
16E
100
AcDbEntity
8
0
6
ByLayer
62
256
370
-1
100
AcDbLine
10
355.7
20
152.00000003
11
363.7
21
152.00000003
0
LINE
5
16F
100
AcDbEntity
8
0
6
ByLayer
62
256
370
-1
100
AcDbLine
10
352.5
20
165
11
356
21
165
0
LINE
5
170
100
AcDbEntity
8
0
6
ByLayer
62
256
370
-1
100
AcDbLine
10
356
20
165
11
356
21
155
0
LINE
5
171
100
AcDbEntity
8
0
6
ByLayer
62
256
370
-1
100
AcDbLine
10
356
20
155
11
352.5
21
155
0
LINE
5
172
100
AcDbEntity
8
0
6
ByLayer
62
256
370
-1
100
AcDbLine
10
337.5
20
157
11
353
21
158
0
LINE
5
173
100
AcDbEntity
8
0
6
ByLayer
62
256
370
-1
100
AcDbLine
10
353
20
158
11
353
21
162
0
LINE
5
174
100
AcDbEntity
8
0
6
ByLayer
62
256
370
-1
100
AcDbLine
10
353
20
162
11
337.5
21
163
0
DIMENSION
5
175
100
AcDbEntity
8
0
6
ByLayer
62
256
370
-1
100
AcDbDimension
2
*D3
10
29
20
60
30
0
11
19
21
61.875
31
0
70
32
71
5
72
0
3
Standard
53
0
210
0
220
0
230
1
100
AcDbAlignedDimension
13
9
23
70
33
0
14
29
24
70
34
0
100
AcDbRotatedDimension
0
MTEXT
5
176
100
AcDbEntity
8
0
6
ByLayer
62
256
370
-1
100
AcDbMText
10
235
20
10
30
0
40
4.5
41
98.8750036746
71
1
72
1
1
Spanten체bersicht Flaschenwagen
7
standard
210
0
220
0
230
1
50
0
73
2
44
1
0
MTEXT
5
177
100
AcDbEntity
8
0
6
ByLayer
62
256
370
-1
100
AcDbMText
10
350
20
210
30
0
40
3
41
22.3333348762
71
1
72
1
1
Drehgestell
7
standard
210
0
220
0
230
1
50
0
73
2
44
1
0
DIMENSION
5
178
100
AcDbEntity
8
0
6
ByLayer
62
256
370
-1
100
AcDbDimension
2
*D4
10
341
20
136
30
0
11
350.35
21
137.875
31
0
70
32
71
5
72
0
3
Standard
53
0
210
0
220
0
230
1
100
AcDbAlignedDimension
13
359.7
23
152.00000003
33
0
14
341
24
152
34
0
100
AcDbRotatedDimension
0
INSERT
5
179
100
AcDbEntity
8
0
6
ByLayer
62
256
370
-1
100
AcDbBlockReference
2
Schiene
10
56
20
183
30
0
41
1
42
1
43
0
50
0
70
1
71
1
44
0
45
0
0
LINE
5
17A
100
AcDbEntity
8
0
6
ByLayer
62
256
370
-1
100
AcDbLine
10
56
20
194
11
390
21
194
0
LINE
5
17B
100
AcDbEntity
8
0
6
ByLayer
62
256
370
-1
100
AcDbLine
10
67
20
183
11
390
21
183
0
LINE
5
17C
100
AcDbEntity
8
0
6
ByLayer
62
256
370
-1
100
AcDbLine
10
56
20
172
11
390
21
172
0
LEADER
5
17D
100
AcDbEntity
8
0
6
ByLayer
62
256
370
-1
100
AcDbLeader
3
Standard
71
1
72
0
73
3
74
0
75
0
40
1
41
10
76
2
76
2
10
7
20
152
30
0
10
7
20
220
30
0
0
LEADER
5
17E
100
AcDbEntity
8
0
6
ByLayer
62
256
370
-1
100
AcDbLeader
3
Standard
71
1
72
0
73
3
74
0
75
0
40
1
41
10
76
2
76
2
10
31
20
191
30
0
10
31
20
220
30
0
0
LEADER
5
17F
100
AcDbEntity
8
0
6
ByLayer
62
256
370
-1
100
AcDbLeader
3
Standard
71
1
72
0
73
3
74
0
75
0
40
1
41
10
76
2
76
2
10
78
20
191
30
0
10
78
20
220
30
0
0
LEADER
5
180
100
AcDbEntity
8
0
6
ByLayer
62
256
370
-1
100
AcDbLeader
3
Standard
71
1
72
0
73
3
74
0
75
0
40
1
41
10
76
0
76
0
0
LEADER
5
181
100
AcDbEntity
8
0
6
ByLayer
62
256
370
-1
100
AcDbLeader
3
Standard
71
1
72
0
73
3
74
0
75
0
40
1
41
10
76
2
76
2
10
36
20
187
30
0
10
36
20
200
30
0
0
LEADER
5
182
100
AcDbEntity
8
0
6
ByLayer
62
256
370
-1
100
AcDbLeader
3
Standard
71
1
72
0
73
3
74
0
75
0
40
1
41
10
76
3
76
3
10
80.33
20
86.5
30
0
10
89
20
78
30
0
10
89
20
60
30
0
0
LEADER
5
183
100
AcDbEntity
8
0
6
ByLayer
62
256
370
-1
100
AcDbLeader
3
Standard
71
1
72
0
73
3
74
0
75
0
40
1
41
10
76
2
76
2
10
126
20
191
30
0
10
126
20
220
30
0
0
LEADER
5
184
100
AcDbEntity
8
0
6
ByLayer
62
256
370
-1
100
AcDbLeader
3
Standard
71
1
72
0
73
3
74
0
75
0
40
1
41
10
76
2
76
2
10
173
20
191
30
0
10
173
20
220
30
0
0
LEADER
5
185
100
AcDbEntity
8
0
6
ByLayer
62
256
370
-1
100
AcDbLeader
3
Standard
71
1
72
0
73
3
74
0
75
0
40
1
41
10
76
2
76
2
10
220
20
191
30
0
10
220
20
220
30
0
0
LEADER
5
186
100
AcDbEntity
8
0
6
ByLayer
62
256
370
-1
100
AcDbLeader
3
Standard
71
1
72
0
73
3
74
0
75
0
40
1
41
10
76
2
76
2
10
268
20
191
30
0
10
268
20
220
30
0
0
LEADER
5
187
100
AcDbEntity
8
0
6
ByLayer
62
256
370
-1
100
AcDbLeader
3
Standard
71
1
72
0
73
3
74
0
75
0
40
1
41
10
76
2
76
2
10
315
20
191
30
0
10
315
20
220
30
0
0
LEADER
5
188
100
AcDbEntity
8
0
6
ByLayer
62
256
370
-1
100
AcDbLeader
3
Standard
71
1
72
0
73
3
74
0
75
0
40
1
41
10
76
2
76
2
10
339
20
152
30
0
10
339
20
220
30
0
0
LEADER
5
189
100
AcDbEntity
8
0
6
ByLayer
62
256
370
-1
100
AcDbLeader
3
Standard
71
1
72
0
73
3
74
0
75
0
40
1
41
10
76
2
76
2
10
310
20
187
30
0
10
310
20
200
30
0
0
LEADER
5
18A
100
AcDbEntity
8
0
6
ByLayer
62
256
370
-1
100
AcDbLeader
3
Standard
71
1
72
0
73
3
74
0
75
0
40
1
41
10
76
3
76
3
10
127.66
20
86.5
30
0
10
136.33
20
78
30
0
10
136.33
20
60
30
0
0
LEADER
5
18B
100
AcDbEntity
8
0
6
ByLayer
62
256
370
-1
100
AcDbLeader
3
Standard
71
1
72
0
73
3
74
0
75
0
40
1
41
10
76
3
76
3
10
174.99
20
86.5
30
0
10
183.66
20
78
30
0
10
183.66
20
60
30
0
0
LEADER
5
18C
100
AcDbEntity
8
0
6
ByLayer
62
256
370
-1
100
AcDbLeader
3
Standard
71
1
72
0
73
3
74
0
75
0
40
1
41
10
76
3
76
3
10
222.32
20
86.5
30
0
10
230.99
20
78
30
0
10
230.99
20
60
30
0
0
LEADER
5
18D
100
AcDbEntity
8
0
6
ByLayer
62
256
370
-1
100
AcDbLeader
3
Standard
71
1
72
0
73
3
74
0
75
0
40
1
41
10
76
3
76
3
10
269.65
20
86.5
30
0
10
278.32
20
78
30
0
10
278.32
20
60
30
0
0
MTEXT
5
18E
100
AcDbEntity
8
0
6
ByLayer
62
256
370
-1
100
AcDbMText
10
10
20
30
30
0
40
3
41
84.25
71
1
72
1
1
LEGENDE\PTyp A# = Spant\PTyp I# = Stringer\PTyp D# = Deck-채hnliches Horizontalteil\PTyp V# = Verst채rkung/Aussteiffung\PTyp E# = Montageteil f체r Elektronikteile\P
7
standard
210
0
220
0
230
1
50
0
73
2
44
1
0
MTEXT
5
18F
100
AcDbEntity
8
0
6
ByLayer
62
256
370
-1
100
AcDbMText
10
100
20
30
30
0
40
3
41
52.5
71
1
72
1
1
Prefix\PFw = Flaschenwagen\PLo = Lokomotive\PKw = Kontroll/Akkuwagen\P
7
standard
210
0
220
0
230
1
50
0
73
2
44
1
0
LEADER
5
190
100
AcDbEntity
8
0
6
ByLayer
62
0
370
-1
100
AcDbLeader
3
Standard
71
1
72
0
73
3
74
0
75
0
40
1
41
10
76
2
76
2
10
220
20
247
30
0
10
180
20
247
30
0
0
MTEXT
5
191
100
AcDbEntity
8
0
6
ByLayer
62
0
370
-1
100
AcDbMText
10
180
20
250
30
0
40
2
41
25.1111111111
71
1
72
1
1
Hauptfahrtrichtung
7
standard
210
0
220
0
230
1
50
0
73
2
44
1
0
MTEXT
5
192
100
AcDbEntity
8
0
6
ByLayer
62
0
370
-1
100
AcDbMText
10
78
20
224
30
0
40
2
41
6.44444444444
71
1
72
1
1
FwA3
7
standard
210
0
220
0
230
1
50
0
73
2
44
1
0
MTEXT
5
193
100
AcDbEntity
8
0
6
ByLayer
62
0
370
-1
100
AcDbMText
10
126
20
224
30
0
40
2
41
6.44444444444
71
1
72
1
1
FwA3
7
standard
210
0
220
0
230
1
50
0
73
2
44
1
0
MTEXT
5
194
100
AcDbEntity
8
0
6
ByLayer
62
0
370
-1
100
AcDbMText
10
268
20
224
30
0
40
2
41
6.44444444444
71
1
72
1
1
FwA3
7
standard
210
0
220
0
230
1
50
0
73
2
44
1
0
MTEXT
5
195
100
AcDbEntity
8
0
6
ByLayer
62
0
370
-1
100
AcDbMText
10
218
20
224
30
0
40
2
41
6.44444444444
71
1
72
1
1
FwA3
7
standard
210
0
220
0
230
1
50
0
73
2
44
1
0
MTEXT
5
196
100
AcDbEntity
8
0
6
ByLayer
62
0
370
-1
100
AcDbMText
10
169
20
224
30
0
40
2
41
6.44444444444
71
1
72
1
1
FwA3
7
standard
210
0
220
0
230
1
50
0
73
2
44
1
0
MTEXT
5
197
100
AcDbEntity
8
0
6
ByLayer
62
0
370
-1
100
AcDbMText
10
90
20
62
30
0
40
2
41
6.66666666667
71
1
72
1
1
FwA4
7
standard
210
0
220
0
230
1
50
0
73
2
44
1
0
MTEXT
5
198
100
AcDbEntity
8
0
6
ByLayer
62
0
370
-1
100
AcDbMText
10
137
20
62
30
0
40
2
41
6.66666666667
71
1
72
1
1
FwA4
7
standard
210
0
220
0
230
1
50
0
73
2
44
1
0
MTEXT
5
199
100
AcDbEntity
8
0
6
ByLayer
62
0
370
-1
100
AcDbMText
10
185
20
62
30
0
40
2
41
6.66666666667
71
1
72
1
1
FwA4
7
standard
210
0
220
0
230
1
50
0
73
2
44
1
0
MTEXT
5
19A
100
AcDbEntity
8
0
6
ByLayer
62
0
370
-1
100
AcDbMText
10
232
20
62
30
0
40
2
41
6.66666666667
71
1
72
1
1
FwA4
7
standard
210
0
220
0
230
1
50
0
73
2
44
1
0
MTEXT
5
19B
100
AcDbEntity
8
0
6
ByLayer
62
0
370
-1
100
AcDbMText
10
279
20
62
30
0
40
2
41
6.66666666667
71
1
72
1
1
FwA4
7
standard
210
0
220
0
230
1
50
0
73
2
44
1
0
LINE
5
19C
100
AcDbEntity
8
0
6
ByLayer
62
0
370
-1
100
AcDbLine
10
380
20
15
11
380
21
18
0
LINE
5
19D
100
AcDbEntity
8
0
6
ByLayer
62
0
370
-1
100
AcDbLine
10
370
20
15
11
370
21
18
0
LINE
5
19E
100
AcDbEntity
8
0
6
ByLayer
62
0
370
-1
100
AcDbLine
10
360
20
15
11
360
21
18
0
LINE
5
19F
100
AcDbEntity
8
0
6
ByLayer
62
0
370
-1
100
AcDbLine
10
350
20
15
11
350
21
18
0
LINE
5
1A0
100
AcDbEntity
8
0
6
ByLayer
62
0
370
-1
100
AcDbLine
10
340
20
15
11
340
21
18
0
LINE
5
1A1
100
AcDbEntity
8
0
6
ByLayer
62
0
370
-1
100
AcDbLine
10
330
20
15
11
330
21
18
0
LINE
5
1A2
100
AcDbEntity
8
0
6
ByLayer
62
0
370
-1
100
AcDbLine
10
320
20
15
11
320
21
18
0
LINE
5
1A3
100
AcDbEntity
8
0
6
ByLayer
62
0
370
-1
100
AcDbLine
10
310
20
15
11
310
21
18
0
LINE
5
1A4
100
AcDbEntity
8
0
6
ByLayer
62
0
370
-1
100
AcDbLine
10
300
20
15
11
300
21
18
0
LINE
5
1A5
100
AcDbEntity
8
0
6
ByLayer
62
0
370
-1
100
AcDbLine
10
290
20
15
11
290
21
18
0
LINE
5
1A6
100
AcDbEntity
8
0
6
ByLayer
62
0
370
-1
100
AcDbLine
10
291
20
15
11
291
21
16.8
0
LINE
5
1A7
100
AcDbEntity
8
0
6
ByLayer
62
0
370
-1
100
AcDbLine
10
292
20
15
11
292
21
16.8
0
LINE
5
1A8
100
AcDbEntity
8
0
6
ByLayer
62
0
370
-1
100
AcDbLine
10
293
20
15
11
293
21
16.8
0
LINE
5
1A9
100
AcDbEntity
8
0
6
ByLayer
62
0
370
-1
100
AcDbLine
10
294
20
15
11
294
21
16.8
0
LINE
5
1AA
100
AcDbEntity
8
0
6
ByLayer
62
0
370
-1
100
AcDbLine
10
295
20
15
11
295
21
16.8
0
LINE
5
1AB
100
AcDbEntity
8
0
6
ByLayer
62
0
370
-1
100
AcDbLine
10
296
20
15
11
296
21
16.8
0
LINE
5
1AC
100
AcDbEntity
8
0
6
ByLayer
62
0
370
-1
100
AcDbLine
10
297
20
15
11
297
21
16.8
0
LINE
5
1AD
100
AcDbEntity
8
0
6
ByLayer
62
0
370
-1
100
AcDbLine
10
298
20
15
11
298
21
16.8
0
LINE
5
1AE
100
AcDbEntity
8
0
6
ByLayer
62
0
370
-1
100
AcDbLine
10
299
20
15
11
299
21
16.8
0
LINE
5
1AF
100
AcDbEntity
8
0
6
ByLayer
62
0
370
-1
100
AcDbLine
10
301
20
15
11
301
21
16.8
0
LINE
5
1B0
100
AcDbEntity
8
0
6
ByLayer
62
0
370
-1
100
AcDbLine
10
302
20
15
11
302
21
16.8
0
LINE
5
1B1
100
AcDbEntity
8
0
6
ByLayer
62
0
370
-1
100
AcDbLine
10
303
20
15
11
303
21
16.8
0
LINE
5
1B2
100
AcDbEntity
8
0
6
ByLayer
62
0
370
-1
100
AcDbLine
10
304
20
15
11
304
21
16.8
0
LINE
5
1B3
100
AcDbEntity
8
0
6
ByLayer
62
0
370
-1
100
AcDbLine
10
305
20
15
11
305
21
16.8
0
LINE
5
1B4
100
AcDbEntity
8
0
6
ByLayer
62
0
370
-1
100
AcDbLine
10
306
20
15
11
306
21
16.8
0
LINE
5
1B5
100
AcDbEntity
8
0
6
ByLayer
62
0
370
-1
100
AcDbLine
10
307
20
15
11
307
21
16.8
0
LINE
5
1B6
100
AcDbEntity
8
0
6
ByLayer
62
0
370
-1
100
AcDbLine
10
308
20
15
11
308
21
16.8
0
LINE
5
1B7
100
AcDbEntity
8
0
6
ByLayer
62
0
370
-1
100
AcDbLine
10
309
20
15
11
309
21
16.8
0
LINE
5
1B8
100
AcDbEntity
8
0
6
ByLayer
62
0
370
-1
100
AcDbLine
10
311
20
15
11
311
21
16.8
0
LINE
5
1B9
100
AcDbEntity
8
0
6
ByLayer
62
0
370
-1
100
AcDbLine
10
312
20
15
11
312
21
16.8
0
LINE
5
1BA
100
AcDbEntity
8
0
6
ByLayer
62
0
370
-1
100
AcDbLine
10
313
20
15
11
313
21
16.8
0
LINE
5
1BB
100
AcDbEntity
8
0
6
ByLayer
62
0
370
-1
100
AcDbLine
10
314
20
15
11
314
21
16.8
0
LINE
5
1BC
100
AcDbEntity
8
0
6
ByLayer
62
0
370
-1
100
AcDbLine
10
315
20
15
11
315
21
16.8
0
LINE
5
1BD
100
AcDbEntity
8
0
6
ByLayer
62
0
370
-1
100
AcDbLine
10
316
20
15
11
316
21
16.8
0
LINE
5
1BE
100
AcDbEntity
8
0
6
ByLayer
62
0
370
-1
100
AcDbLine
10
317
20
15
11
317
21
16.8
0
LINE
5
1BF
100
AcDbEntity
8
0
6
ByLayer
62
0
370
-1
100
AcDbLine
10
318
20
15
11
318
21
16.8
0
LINE
5
1C0
100
AcDbEntity
8
0
6
ByLayer
62
0
370
-1
100
AcDbLine
10
319
20
15
11
319
21
16.8
0
LINE
5
1C1
100
AcDbEntity
8
0
6
ByLayer
62
0
370
-1
100
AcDbLine
10
321
20
15
11
321
21
16.8
0
LINE
5
1C2
100
AcDbEntity
8
0
6
ByLayer
62
0
370
-1
100
AcDbLine
10
322
20
15
11
322
21
16.8
0
LINE
5
1C3
100
AcDbEntity
8
0
6
ByLayer
62
0
370
-1
100
AcDbLine
10
323
20
15
11
323
21
16.8
0
LINE
5
1C4
100
AcDbEntity
8
0
6
ByLayer
62
0
370
-1
100
AcDbLine
10
324
20
15
11
324
21
16.8
0
LINE
5
1C5
100
AcDbEntity
8
0
6
ByLayer
62
0
370
-1
100
AcDbLine
10
325
20
15
11
325
21
16.8
0
LINE
5
1C6
100
AcDbEntity
8
0
6
ByLayer
62
0
370
-1
100
AcDbLine
10
326
20
15
11
326
21
16.8
0
LINE
5
1C7
100
AcDbEntity
8
0
6
ByLayer
62
0
370
-1
100
AcDbLine
10
327
20
15
11
327
21
16.8
0
LINE
5
1C8
100
AcDbEntity
8
0
6
ByLayer
62
0
370
-1
100
AcDbLine
10
328
20
15
11
328
21
16.8
0
LINE
5
1C9
100
AcDbEntity
8
0
6
ByLayer
62
0
370
-1
100
AcDbLine
10
329
20
15
11
329
21
16.8
0
LINE
5
1CA
100
AcDbEntity
8
0
6
ByLayer
62
0
370
-1
100
AcDbLine
10
331
20
15
11
331
21
16.8
0
LINE
5
1CB
100
AcDbEntity
8
0
6
ByLayer
62
0
370
-1
100
AcDbLine
10
332
20
15
11
332
21
16.8
0
LINE
5
1CC
100
AcDbEntity
8
0
6
ByLayer
62
0
370
-1
100
AcDbLine
10
333
20
15
11
333
21
16.8
0
LINE
5
1CD
100
AcDbEntity
8
0
6
ByLayer
62
0
370
-1
100
AcDbLine
10
334
20
15
11
334
21
16.8
0
LINE
5
1CE
100
AcDbEntity
8
0
6
ByLayer
62
0
370
-1
100
AcDbLine
10
335
20
15
11
335
21
16.8
0
LINE
5
1CF
100
AcDbEntity
8
0
6
ByLayer
62
0
370
-1
100
AcDbLine
10
336
20
15
11
336
21
16.8
0
LINE
5
1D0
100
AcDbEntity
8
0
6
ByLayer
62
0
370
-1
100
AcDbLine
10
337
20
15
11
337
21
16.8
0
LINE
5
1D1
100
AcDbEntity
8
0
6
ByLayer
62
0
370
-1
100
AcDbLine
10
338
20
15
11
338
21
16.8
0
LINE
5
1D2
100
AcDbEntity
8
0
6
ByLayer
62
0
370
-1
100
AcDbLine
10
339
20
15
11
339
21
16.8
0
LINE
5
1D3
100
AcDbEntity
8
0
6
ByLayer
62
0
370
-1
100
AcDbLine
10
341
20
15
11
341
21
16.8
0
LINE
5
1D4
100
AcDbEntity
8
0
6
ByLayer
62
0
370
-1
100
AcDbLine
10
342
20
15
11
342
21
16.8
0
LINE
5
1D5
100
AcDbEntity
8
0
6
ByLayer
62
0
370
-1
100
AcDbLine
10
343
20
15
11
343
21
16.8
0
LINE
5
1D6
100
AcDbEntity
8
0
6
ByLayer
62
0
370
-1
100
AcDbLine
10
344
20
15
11
344
21
16.8
0
LINE
5
1D7
100
AcDbEntity
8
0
6
ByLayer
62
0
370
-1
100
AcDbLine
10
345
20
15
11
345
21
16.8
0
LINE
5
1D8
100
AcDbEntity
8
0
6
ByLayer
62
0
370
-1
100
AcDbLine
10
346
20
15
11
346
21
16.8
0
LINE
5
1D9
100
AcDbEntity
8
0
6
ByLayer
62
0
370
-1
100
AcDbLine
10
347
20
15
11
347
21
16.8
0
LINE
5
1DA
100
AcDbEntity
8
0
6
ByLayer
62
0
370
-1
100
AcDbLine
10
348
20
15
11
348
21
16.8
0
LINE
5
1DB
100
AcDbEntity
8
0
6
ByLayer
62
0
370
-1
100
AcDbLine
10
349
20
15
11
349
21
16.8
0
LINE
5
1DC
100
AcDbEntity
8
0
6
ByLayer
62
0
370
-1
100
AcDbLine
10
351
20
15
11
351
21
16.8
0
LINE
5
1DD
100
AcDbEntity
8
0
6
ByLayer
62
0
370
-1
100
AcDbLine
10
352
20
15
11
352
21
16.8
0
LINE
5
1DE
100
AcDbEntity
8
0
6
ByLayer
62
0
370
-1
100
AcDbLine
10
353
20
15
11
353
21
16.8
0
LINE
5
1DF
100
AcDbEntity
8
0
6
ByLayer
62
0
370
-1
100
AcDbLine
10
354
20
15
11
354
21
16.8
0
LINE
5
1E0
100
AcDbEntity
8
0
6
ByLayer
62
0
370
-1
100
AcDbLine
10
355
20
15
11
355
21
16.8
0
LINE
5
1E1
100
AcDbEntity
8
0
6
ByLayer
62
0
370
-1
100
AcDbLine
10
356
20
15
11
356
21
16.8
0
LINE
5
1E2
100
AcDbEntity
8
0
6
ByLayer
62
0
370
-1
100
AcDbLine
10
357
20
15
11
357
21
16.8
0
LINE
5
1E3
100
AcDbEntity
8
0
6
ByLayer
62
0
370
-1
100
AcDbLine
10
358
20
15
11
358
21
16.8
0
LINE
5
1E4
100
AcDbEntity
8
0
6
ByLayer
62
0
370
-1
100
AcDbLine
10
359
20
15
11
359
21
16.8
0
LINE
5
1E5
100
AcDbEntity
8
0
6
ByLayer
62
0
370
-1
100
AcDbLine
10
361
20
15
11
361
21
16.8
0
LINE
5
1E6
100
AcDbEntity
8
0
6
ByLayer
62
0
370
-1
100
AcDbLine
10
362
20
15
11
362
21
16.8
0
LINE
5
1E7
100
AcDbEntity
8
0
6
ByLayer
62
0
370
-1
100
AcDbLine
10
363
20
15
11
363
21
16.8
0
LINE
5
1E8
100
AcDbEntity
8
0
6
ByLayer
62
0
370
-1
100
AcDbLine
10
364
20
15
11
364
21
16.8
0
LINE
5
1E9
100
AcDbEntity
8
0
6
ByLayer
62
0
370
-1
100
AcDbLine
10
365
20
15
11
365
21
16.8
0
LINE
5
1EA
100
AcDbEntity
8
0
6
ByLayer
62
0
370
-1
100
AcDbLine
10
366
20
15
11
366
21
16.8
0
LINE
5
1EB
100
AcDbEntity
8
0
6
ByLayer
62
0
370
-1
100
AcDbLine
10
367
20
15
11
367
21
16.8
0
LINE
5
1EC
100
AcDbEntity
8
0
6
ByLayer
62
0
370
-1
100
AcDbLine
10
368
20
15
11
368
21
16.8
0
LINE
5
1ED
100
AcDbEntity
8
0
6
ByLayer
62
0
370
-1
100
AcDbLine
10
369
20
15
11
369
21
16.8
0
LINE
5
1EE
100
AcDbEntity
8
0
6
ByLayer
62
0
370
-1
100
AcDbLine
10
371
20
15
11
371
21
16.8
0
LINE
5
1EF
100
AcDbEntity
8
0
6
ByLayer
62
0
370
-1
100
AcDbLine
10
372
20
15
11
372
21
16.8
0
LINE
5
1F0
100
AcDbEntity
8
0
6
ByLayer
62
0
370
-1
100
AcDbLine
10
373
20
15
11
373
21
16.8
0
LINE
5
1F1
100
AcDbEntity
8
0
6
ByLayer
62
0
370
-1
100
AcDbLine
10
374
20
15
11
374
21
16.8
0
LINE
5
1F2
100
AcDbEntity
8
0
6
ByLayer
62
0
370
-1
100
AcDbLine
10
375
20
15
11
375
21
16.8
0
LINE
5
1F3
100
AcDbEntity
8
0
6
ByLayer
62
0
370
-1
100
AcDbLine
10
376
20
15
11
376
21
16.8
0
LINE
5
1F4
100
AcDbEntity
8
0
6
ByLayer
62
0
370
-1
100
AcDbLine
10
377
20
15
11
377
21
16.8
0
LINE
5
1F5
100
AcDbEntity
8
0
6
ByLayer
62
0
370
-1
100
AcDbLine
10
378
20
15
11
378
21
16.8
0
LINE
5
1F6
100
AcDbEntity
8
0
6
ByLayer
62
0
370
-1
100
AcDbLine
10
379
20
15
11
379
21
16.8
0
LINE
5
1F7
100
AcDbEntity
8
0
6
ByLayer
62
0
370
-1
100
AcDbLine
10
381
20
15
11
381
21
16.8
0
LINE
5
1F8
100
AcDbEntity
8
0
6
ByLayer
62
0
370
-1
100
AcDbLine
10
382
20
15
11
382
21
16.8
0
LINE
5
1F9
100
AcDbEntity
8
0
6
ByLayer
62
0
370
-1
100
AcDbLine
10
383
20
15
11
383
21
16.8
0
LINE
5
1FA
100
AcDbEntity
8
0
6
ByLayer
62
0
370
-1
100
AcDbLine
10
384
20
15
11
384
21
16.8
0
LINE
5
1FB
100
AcDbEntity
8
0
6
ByLayer
62
0
370
-1
100
AcDbLine
10
385
20
15
11
385
21
16.8
0
LINE
5
1FC
100
AcDbEntity
8
0
6
ByLayer
62
0
370
-1
100
AcDbLine
10
386
20
15
11
386
21
16.8
0
LINE
5
1FD
100
AcDbEntity
8
0
6
ByLayer
62
0
370
-1
100
AcDbLine
10
387
20
15
11
387
21
16.8
0
LINE
5
1FE
100
AcDbEntity
8
0
6
ByLayer
62
0
370
-1
100
AcDbLine
10
388
20
15
11
388
21
16.8
0
LINE
5
1FF
100
AcDbEntity
8
0
6
ByLayer
62
0
370
-1
100
AcDbLine
10
389
20
15
11
389
21
16.8
0
LINE
5
200
100
AcDbEntity
8
0
6
ByLayer
62
0
370
-1
100
AcDbLine
10
295
20
16.8
11
295
21
17.4
0
LINE
5
201
100
AcDbEntity
8
0
6
ByLayer
62
0
370
-1
100
AcDbLine
10
305
20
16.8
11
305
21
17.4
0
LINE
5
202
100
AcDbEntity
8
0
6
ByLayer
62
0
370
-1
100
AcDbLine
10
315
20
16.8
11
315
21
17.4
0
LINE
5
203
100
AcDbEntity
8
0
6
ByLayer
62
0
370
-1
100
AcDbLine
10
325
20
16.8
11
325
21
17.4
0
LINE
5
204
100
AcDbEntity
8
0
6
ByLayer
62
0
370
-1
100
AcDbLine
10
335
20
16.8
11
335
21
17.4
0
LINE
5
205
100
AcDbEntity
8
0
6
ByLayer
62
0
370
-1
100
AcDbLine
10
345
20
16.8
11
345
21
17.4
0
LINE
5
206
100
AcDbEntity
8
0
6
ByLayer
62
0
370
-1
100
AcDbLine
10
355
20
16.8
11
355
21
17.4
0
LINE
5
207
100
AcDbEntity
8
0
6
ByLayer
62
0
370
-1
100
AcDbLine
10
365
20
16.8
11
365
21
17.4
0
LINE
5
208
100
AcDbEntity
8
0
6
ByLayer
62
0
370
-1
100
AcDbLine
10
375
20
16.8
11
375
21
17.4
0
LINE
5
209
100
AcDbEntity
8
0
6
ByLayer
62
0
370
-1
100
AcDbLine
10
385
20
16.8
11
385
21
17.4
0
MTEXT
5
20A
100
AcDbEntity
8
0
6
ByLayer
62
0
370
-1
100
AcDbMText
10
341
20
13
30
0
40
3
41
18.3333333333
71
1
72
1
1
Millimeter
7
standard
210
0
220
0
230
1
50
0
73
2
44
1
0
MTEXT
5
20B
100
AcDbEntity
8
0
6
ByLayer
62
256
370
-1
100
AcDbMText
10
36
20
203
30
0
40
2
41
6.44444444444
71
1
72
1
1
FwA5
7
standard
210
0
220
0
230
1
50
0
73
2
44
1
0
MTEXT
5
20C
100
AcDbEntity
8
0
6
ByLayer
62
256
370
-1
100
AcDbMText
10
310
20
203
30
0
40
2
41
6.44444444444
71
1
72
1
1
FwA5
7
standard
210
0
220
0
230
1
50
0
73
2
44
1
0
MTEXT
5
20D
100
AcDbEntity
8
0
6
ByLayer
62
256
370
-1
100
AcDbMText
10
339
20
224
30
0
40
2
41
7.55555555556
71
1
72
1
1
FwA1a
7
standard
210
0
220
0
230
1
50
0
73
2
44
1
0
MTEXT
5
20E
100
AcDbEntity
8
0
6
ByLayer
62
256
370
-1
100
AcDbMText
10
7
20
224
30
0
40
2
41
7.55555555556
71
1
72
1
1
FwA1b
7
standard
210
0
220
0
230
1
50
0
73
2
44
1
0
MTEXT
5
20F
100
AcDbEntity
8
0
6
ByLayer
62
256
370
-1
100
AcDbMText
10
315
20
224
30
0
40
2
41
8
71
1
72
1
1
FwA2a
7
standard
210
0
220
0
230
1
50
0
73
2
44
1
0
MTEXT
5
210
100
AcDbEntity
8
0
6
ByLayer
62
256
370
-1
100
AcDbMText
10
31
20
224
30
0
40
2
41
8
71
1
72
1
1
FwA2b
7
standard
210
0
220
0
230
1
50
0
73
2
44
1
0
MTEXT
5
211
100
AcDbEntity
8
0
6
ByLayer
62
256
370
-1
100
AcDbMText
10
366
20
13
30
0
40
3
41
19.3333333333
71
1
72
1
1
23.09.2014
7
standard
210
0
220
0
230
1
50
0
73
2
44
1
0
ENDSEC
0
SECTION
2
OBJECTS
0
DICTIONARY
5
C
330
0
100
AcDbDictionary
281
1
3
ACAD_GROUP
350
D
0
DICTIONARY
5
D
330
C
100
AcDbDictionary
281
1
0
ENDSEC
0
EOF
