999
dxfrw 0.5.11
0
SECTION
2
HEADER
9
$ACADVER
1
AC1021
9
$HANDSEED
5
20000
9
$DWGCODEPAGE
3
ANSI_1252
9
$INSBASE
10
0
20
0
30
0
9
$EXTMIN
10
41
20
0
30
0
9
$EXTMAX
10
668
20
375
30
0
9
$LIMMIN
10
0
20
0
9
$LIMMAX
10
420
20
297
9
$ORTHOMODE
70
0
9
$LTSCALE
40
1
9
$TEXTSTYLE
7
STANDARD
9
$CLAYER
8
0
9
$DIMASZ
40
2.5
9
$DIMLFAC
40
1
9
$DIMSCALE
40
1
9
$DIMEXO
40
0.625
9
$DIMEXE
40
1.25
9
$DIMTXT
40
2.5
9
$DIMTSZ
40
0
9
$DIMAUNIT
70
0
9
$DIMADEC
70
0
9
$DIMLUNIT
70
2
9
$DIMSTYLE
2
STANDARD
9
$DIMGAP
40
0.625
9
$DIMTIH
70
0
9
$LUNITS
70
2
9
$LUPREC
70
4
9
$AUNITS
70
0
9
$AUPREC
70
2
9
$SPLINESEGS
70
8
9
$GRIDMODE
70
1
9
$SNAPSTYLE
70
0
9
$PINSBASE
10
0
20
0
30
0
9
$PLIMMIN
10
0
20
0
9
$PLIMMAX
10
297
20
210
9
$INSUNITS
70
4
9
$PSVPSCALE
40
1
0
ENDSEC
0
SECTION
2
CLASSES
0
ENDSEC
0
SECTION
2
TABLES
0
TABLE
2
VPORT
5
8
330
0
100
AcDbSymbolTable
70
1
0
VPORT
5
31
330
2
100
AcDbSymbolTableRecord
100
AcDbViewportTableRecord
2
*ACTIVE
70
0
10
0
20
0
11
1
21
1
12
336.253406097
22
176.539509591
13
0
23
0
14
10
24
10
15
10
25
10
16
0
26
0
36
1
17
0
27
0
37
0
40
405.885558707
41
2.00637755102
42
50
43
0
44
0
50
0
51
0
71
0
72
100
73
1
74
3
75
0
76
1
77
0
78
0
281
0
65
1
110
0
120
0
130
0
111
1
121
0
131
0
112
0
122
1
132
0
79
0
146
0
348
10020
60
7
61
5
292
1
282
1
141
0
142
0
63
250
421
3358443
0
ENDTAB
0
TABLE
2
LTYPE
5
5
330
0
100
AcDbSymbolTable
70
4
0
LTYPE
5
14
330
5
100
AcDbSymbolTableRecord
100
AcDbLinetypeTableRecord
2
ByBlock
70
0
3

72
65
73
0
40
0
0
LTYPE
5
15
330
5
100
AcDbSymbolTableRecord
100
AcDbLinetypeTableRecord
2
ByLayer
70
0
3

72
65
73
0
40
0
0
LTYPE
5
16
330
5
100
AcDbSymbolTableRecord
100
AcDbLinetypeTableRecord
2
Continuous
70
0
3
Solid line
72
65
73
0
40
0
0
LTYPE
5
32
330
5
100
AcDbSymbolTableRecord
100
AcDbLinetypeTableRecord
2
DOT
70
0
3
Dot . . . . . . . . . . . . . . . . . . . . . .
72
65
73
2
40
6.35
49
0
74
0
49
-6.35
74
0
0
LTYPE
5
33
330
5
100
AcDbSymbolTableRecord
100
AcDbLinetypeTableRecord
2
DOT2
70
0
3
Dot (.5x) .....................................
72
65
73
2
40
3.175
49
0
74
0
49
-3.175
74
0
0
LTYPE
5
34
330
5
100
AcDbSymbolTableRecord
100
AcDbLinetypeTableRecord
2
DOTX2
70
0
3
Dot (2x) .  .  .  .  .  .  .  .  .  .  .  .  .
72
65
73
2
40
12.7
49
0
74
0
49
-12.7
74
0
0
LTYPE
5
35
330
5
100
AcDbSymbolTableRecord
100
AcDbLinetypeTableRecord
2
DASHED
70
0
3
Dot . . . . . . . . . . . . . . . . . . . . . .
72
65
73
2
40
19.05
49
12.7
74
0
49
-6.35
74
0
0
LTYPE
5
36
330
5
100
AcDbSymbolTableRecord
100
AcDbLinetypeTableRecord
2
DASHED2
70
0
3
Dashed (.5x) _ _ _ _ _ _ _ _ _ _ _ _ _ _ _ _ _
72
65
73
2
40
9.525
49
6.35
74
0
49
-3.175
74
0
0
LTYPE
5
37
330
5
100
AcDbSymbolTableRecord
100
AcDbLinetypeTableRecord
2
DASHEDX2
70
0
3
Dashed (2x) ____  ____  ____  ____  ____  ___
72
65
73
2
40
38.1
49
25.4
74
0
49
-12.7
74
0
0
LTYPE
5
38
330
5
100
AcDbSymbolTableRecord
100
AcDbLinetypeTableRecord
2
DASHDOT
70
0
3
Dash dot __ . __ . __ . __ . __ . __ . __ . __
72
65
73
4
40
25.4
49
12.7
74
0
49
-6.35
74
0
49
0
74
0
49
-6.35
74
0
0
LTYPE
5
39
330
5
100
AcDbSymbolTableRecord
100
AcDbLinetypeTableRecord
2
DASHDOT2
70
0
3
Dash dot (.5x) _._._._._._._._._._._._._._._.
72
65
73
4
40
12.7
49
6.35
74
0
49
-3.175
74
0
49
0
74
0
49
-3.175
74
0
0
LTYPE
5
3A
330
5
100
AcDbSymbolTableRecord
100
AcDbLinetypeTableRecord
2
DASHDOTX2
70
0
3
Dash dot (2x) ____  .  ____  .  ____  .  ___
72
65
73
4
40
50.8
49
25.4
74
0
49
-12.7
74
0
49
0
74
0
49
-12.7
74
0
0
LTYPE
5
3B
330
5
100
AcDbSymbolTableRecord
100
AcDbLinetypeTableRecord
2
DIVIDE
70
0
3
Divide ____ . . ____ . . ____ . . ____ . . ____
72
65
73
6
40
31.75
49
12.7
74
0
49
-6.35
74
0
49
0
74
0
49
-6.35
74
0
49
0
74
0
49
-6.35
74
0
0
LTYPE
5
3C
330
5
100
AcDbSymbolTableRecord
100
AcDbLinetypeTableRecord
2
DIVIDE2
70
0
3
Divide (.5x) __..__..__..__..__..__..__..__.._
72
65
73
6
40
15.875
49
6.35
74
0
49
-3.175
74
0
49
0
74
0
49
-3.175
74
0
49
0
74
0
49
-3.175
74
0
0
LTYPE
5
3D
330
5
100
AcDbSymbolTableRecord
100
AcDbLinetypeTableRecord
2
DIVIDEX2
70
0
3
Divide (2x) ________  .  .  ________  .  .  _
72
65
73
6
40
63.5
49
25.4
74
0
49
-12.7
74
0
49
0
74
0
49
-12.7
74
0
49
0
74
0
49
-12.7
74
0
0
LTYPE
5
3E
330
5
100
AcDbSymbolTableRecord
100
AcDbLinetypeTableRecord
2
BORDER
70
0
3
Border __ __ . __ __ . __ __ . __ __ . __ __ .
72
65
73
6
40
44.45
49
12.7
74
0
49
-6.35
74
0
49
12.7
74
0
49
-6.35
74
0
49
0
74
0
49
-6.35
74
0
0
LTYPE
5
3F
330
5
100
AcDbSymbolTableRecord
100
AcDbLinetypeTableRecord
2
BORDER2
70
0
3
Border (.5x) __.__.__.__.__.__.__.__.__.__.__.
72
65
73
6
40
22.225
49
6.35
74
0
49
-3.175
74
0
49
6.35
74
0
49
-3.175
74
0
49
0
74
0
49
-3.175
74
0
0
LTYPE
5
40
330
5
100
AcDbSymbolTableRecord
100
AcDbLinetypeTableRecord
2
BORDERX2
70
0
3
Border (2x) ____  ____  .  ____  ____  .  ___
72
65
73
6
40
88.9
49
25.4
74
0
49
-12.7
74
0
49
25.4
74
0
49
-12.7
74
0
49
0
74
0
49
-12.7
74
0
0
LTYPE
5
41
330
5
100
AcDbSymbolTableRecord
100
AcDbLinetypeTableRecord
2
CENTER
70
0
3
Center ____ _ ____ _ ____ _ ____ _ ____ _ ____
72
65
73
4
40
50.8
49
31.75
74
0
49
-6.35
74
0
49
6.35
74
0
49
-6.35
74
0
0
LTYPE
5
42
330
5
100
AcDbSymbolTableRecord
100
AcDbLinetypeTableRecord
2
CENTER2
70
0
3
Center (.5x) ___ _ ___ _ ___ _ ___ _ ___ _ ___
72
65
73
4
40
28.575
49
19.05
74
0
49
-3.175
74
0
49
3.175
74
0
49
-3.175
74
0
0
LTYPE
5
43
330
5
100
AcDbSymbolTableRecord
100
AcDbLinetypeTableRecord
2
CENTERX2
70
0
3
Center (2x) ________  __  ________  __  _____
72
65
73
4
40
101.6
49
63.5
74
0
49
-12.7
74
0
49
12.7
74
0
49
-12.7
74
0
0
ENDTAB
0
TABLE
2
LAYER
5
2
330
0
100
AcDbSymbolTable
70
1
0
LAYER
5
10
330
2
100
AcDbSymbolTableRecord
100
AcDbLayerTableRecord
2
0
70
0
62
7
6
CONTINUOUS
370
0
390
F
0
ENDTAB
0
TABLE
2
STYLE
5
3
330
0
100
AcDbSymbolTable
70
3
0
STYLE
5
44
330
2
100
AcDbSymbolTableRecord
100
AcDbTextStyleTableRecord
2
standard
70
0
40
0
41
1
50
0
71
0
42
1
3
standard
4

0
ENDTAB
0
TABLE
2
VIEW
5
6
330
0
100
AcDbSymbolTable
70
0
0
ENDTAB
0
TABLE
2
UCS
5
7
330
0
100
AcDbSymbolTable
70
0
0
ENDTAB
0
TABLE
2
APPID
5
9
330
0
100
AcDbSymbolTable
70
1
0
APPID
5
12
330
9
100
AcDbSymbolTableRecord
100
AcDbRegAppTableRecord
2
ACAD
70
0
0
ENDTAB
0
TABLE
2
DIMSTYLE
5
A
330
0
100
AcDbSymbolTable
70
1
100
AcDbDimStyleTable
71
1
0
DIMSTYLE
105
45
330
A
100
AcDbSymbolTableRecord
100
AcDbDimStyleTableRecord
2
Standard
70
0
40
1
41
2.5
42
0.625
43
0.38
44
1.25
45
0
46
0
47
0
48
0
140
2.5
141
0.09
142
0
143
25.4
144
1
145
0
146
1
147
0.625
148
0
71
0
72
0
73
0
74
1
75
0
76
0
77
0
78
0
79
0
170
0
171
2
172
0
173
0
174
0
175
0
176
0
177
0
178
0
179
0
271
4
272
4
273
2
274
2
275
0
276
0
277
2
278
46
279
0
280
0
281
0
282
0
283
1
284
0
285
0
286
0
288
0
289
3
340
Standard
341

371
-2
372
-2
0
ENDTAB
0
TABLE
2
BLOCK_RECORD
5
1
330
0
100
AcDbSymbolTable
70
2
0
BLOCK_RECORD
5
1F
330
1
100
AcDbSymbolTableRecord
100
AcDbBlockTableRecord
2
*Model_Space
70
0
280
1
281
0
0
BLOCK_RECORD
5
1E
330
1
100
AcDbSymbolTableRecord
100
AcDbBlockTableRecord
2
*Paper_Space
70
0
280
1
281
0
0
BLOCK_RECORD
5
46
330
1
100
AcDbSymbolTableRecord
100
AcDbBlockTableRecord
2
*D3
70
0
280
1
281
0
0
BLOCK_RECORD
5
49
330
1
100
AcDbSymbolTableRecord
100
AcDbBlockTableRecord
2
*D2
70
0
280
1
281
0
0
BLOCK_RECORD
5
4C
330
1
100
AcDbSymbolTableRecord
100
AcDbBlockTableRecord
2
*D1
70
0
280
1
281
0
0
BLOCK_RECORD
5
4F
330
1
100
AcDbSymbolTableRecord
100
AcDbBlockTableRecord
2
Sheet-A4-Horz
70
0
280
1
281
0
0
BLOCK_RECORD
5
52
330
1
100
AcDbSymbolTableRecord
100
AcDbBlockTableRecord
2
Schiene
70
0
280
1
281
0
0
BLOCK_RECORD
5
55
330
1
100
AcDbSymbolTableRecord
100
AcDbBlockTableRecord
2
Streckenprofil
70
0
280
1
281
0
0
BLOCK_RECORD
5
58
330
1
100
AcDbSymbolTableRecord
100
AcDbBlockTableRecord
2
Querträger-rechts
70
0
280
1
281
0
0
BLOCK_RECORD
5
5B
330
1
100
AcDbSymbolTableRecord
100
AcDbBlockTableRecord
2
Flaschentragspant
70
0
280
1
281
0
0
BLOCK_RECORD
5
5E
330
1
100
AcDbSymbolTableRecord
100
AcDbBlockTableRecord
2
Spant Laderaumtor
70
0
280
1
281
0
0
BLOCK_RECORD
5
61
330
1
100
AcDbSymbolTableRecord
100
AcDbBlockTableRecord
2
Sheet-A4-Horz-1
70
0
280
1
281
0
0
BLOCK_RECORD
5
64
330
1
100
AcDbSymbolTableRecord
100
AcDbBlockTableRecord
2
Schiene-0
70
0
280
1
281
0
0
BLOCK_RECORD
5
67
330
1
100
AcDbSymbolTableRecord
100
AcDbBlockTableRecord
2
Querträger-rechts-0
70
0
280
1
281
0
0
BLOCK_RECORD
5
6A
330
1
100
AcDbSymbolTableRecord
100
AcDbBlockTableRecord
2
Spant Laderaumtor-1
70
0
280
1
281
0
0
BLOCK_RECORD
5
6D
330
1
100
AcDbSymbolTableRecord
100
AcDbBlockTableRecord
2
Servo-Micro
70
0
280
1
281
0
0
BLOCK_RECORD
5
70
330
1
100
AcDbSymbolTableRecord
100
AcDbBlockTableRecord
2
Spant-Aussen
70
0
280
1
281
0
0
BLOCK_RECORD
5
73
330
1
100
AcDbSymbolTableRecord
100
AcDbBlockTableRecord
2
Kupplungsbolzen-Montageplatte
70
0
280
1
281
0
0
BLOCK_RECORD
5
76
330
1
100
AcDbSymbolTableRecord
100
AcDbBlockTableRecord
2
Querträger-rechts-0-0
70
0
280
1
281
0
0
BLOCK_RECORD
5
79
330
1
100
AcDbSymbolTableRecord
100
AcDbBlockTableRecord
2
Querträger-rechts-0-0-0
70
0
280
1
281
0
0
BLOCK_RECORD
5
7C
330
1
100
AcDbSymbolTableRecord
100
AcDbBlockTableRecord
2
Tor-Stringer
70
0
280
1
281
0
0
BLOCK_RECORD
5
7F
330
1
100
AcDbSymbolTableRecord
100
AcDbBlockTableRecord
2
Stringer-Flaschenträger
70
0
280
1
281
0
0
BLOCK_RECORD
5
82
330
1
100
AcDbSymbolTableRecord
100
AcDbBlockTableRecord
2
Stringer-Kiel
70
0
280
1
281
0
0
ENDTAB
0
ENDSEC
0
SECTION
2
BLOCKS
0
BLOCK
5
20
330
1F
100
AcDbEntity
8
0
100
AcDbBlockBegin
2
*Model_Space
70
0
10
0
20
0
30
0
3
*Model_Space
1

0
ENDBLK
5
21
330
1F
100
AcDbEntity
8
0
100
AcDbBlockEnd
0
BLOCK
5
1C
330
1B
100
AcDbEntity
8
0
100
AcDbBlockBegin
2
*Paper_Space
70
0
10
0
20
0
30
0
3
*Paper_Space
1

0
ENDBLK
5
1D
330
1F
100
AcDbEntity
8
0
100
AcDbBlockEnd
0
BLOCK
5
47
330
46
100
AcDbEntity
8
0
100
AcDbBlockBegin
2
*D3
70
1
10
0
20
0
3
*D3
1

0
LINE
5
85
100
AcDbEntity
8
0
6
CONTINUOUS
62
7
370
0
100
AcDbLine
10
609.810032645
20
8
11
609.810032645
21
0
0
SOLID
5
86
100
AcDbEntity
8
0
6
CONTINUOUS
62
7
370
0
100
AcDbTrace
10
609.810032645
20
8
30
0
11
610.226317303
21
5.5
31
0
12
609.393747987
22
5.5
32
0
13
609.393747987
23
5.5
33
0
0
SOLID
5
87
100
AcDbEntity
8
0
6
CONTINUOUS
62
7
370
0
100
AcDbTrace
10
609.810032645
20
0
30
0
11
609.393747987
21
2.5
31
0
12
610.226317303
22
2.5
32
0
13
610.226317303
23
2.5
33
0
0
MTEXT
5
88
100
AcDbEntity
8
0
6
CONTINUOUS
62
7
370
0
100
AcDbMText
10
607.935032645
20
4
30
0
40
2.5
41
1.11111111111
71
5
72
1
1
8
7
standard
210
0
220
0
230
1
50
90
73
2
44
1
0
LINE
5
89
100
AcDbEntity
8
0
6
CONTINUOUS
62
7
370
0
100
AcDbLine
10
600.605
20
8
11
611.060032645
21
8
0
LINE
5
8A
100
AcDbEntity
8
0
6
CONTINUOUS
62
7
370
0
100
AcDbLine
10
600.605
20
0
11
611.060032645
21
0
0
ENDBLK
5
48
330
46
100
AcDbEntity
8
0
100
AcDbBlockEnd
0
BLOCK
5
4A
330
49
100
AcDbEntity
8
0
100
AcDbBlockBegin
2
*D2
70
1
10
0
20
0
3
*D2
1

0
LINE
5
8B
100
AcDbEntity
8
0
6
CONTINUOUS
62
7
370
0
100
AcDbLine
10
628.605
20
129.8
11
642.894800006
21
129.8
0
LINE
5
8C
100
AcDbEntity
8
0
6
CONTINUOUS
62
7
370
0
100
AcDbLine
10
628.605
20
114
11
642.894800006
21
114
0
LINE
5
8D
100
AcDbEntity
8
0
6
CONTINUOUS
62
7
370
0
100
AcDbLine
10
641.644800006
20
129.8
11
641.644800006
21
114
0
SOLID
5
8E
100
AcDbEntity
8
0
6
CONTINUOUS
62
7
370
0
100
AcDbTrace
10
641.644800006
20
129.8
30
0
11
642.061084664
21
127.3
31
0
12
641.228515348
22
127.3
32
0
13
641.228515348
23
127.3
33
0
0
SOLID
5
8F
100
AcDbEntity
8
0
6
CONTINUOUS
62
7
370
0
100
AcDbTrace
10
641.644800006
20
114
30
0
11
641.228515348
21
116.5
31
0
12
642.061084664
22
116.5
32
0
13
642.061084664
23
116.5
33
0
0
MTEXT
5
90
100
AcDbEntity
8
0
6
CONTINUOUS
62
7
370
0
100
AcDbMText
10
639.769800006
20
121.9
30
0
40
2.5
41
5.27777777778
71
5
72
1
1
15.8
7
standard
210
0
220
0
230
1
50
90
73
2
44
1
0
ENDBLK
5
4B
330
49
100
AcDbEntity
8
0
100
AcDbBlockEnd
0
BLOCK
5
4D
330
4C
100
AcDbEntity
8
0
100
AcDbBlockBegin
2
*D1
70
1
10
0
20
0
3
*D1
1

0
LINE
5
91
100
AcDbEntity
8
0
6
CONTINUOUS
62
7
370
0
100
AcDbLine
10
324
20
8
11
324
21
0
0
SOLID
5
92
100
AcDbEntity
8
0
6
CONTINUOUS
62
7
370
0
100
AcDbTrace
10
324
20
8
30
0
11
324.416284658
21
5.5
31
0
12
323.583715342
22
5.5
32
0
13
323.583715342
23
5.5
33
0
0
SOLID
5
93
100
AcDbEntity
8
0
6
CONTINUOUS
62
7
370
0
100
AcDbTrace
10
324
20
0
30
0
11
323.583715342
21
2.5
31
0
12
324.416284658
22
2.5
32
0
13
324.416284658
23
2.5
33
0
0
MTEXT
5
94
100
AcDbEntity
8
0
6
CONTINUOUS
62
7
370
0
100
AcDbMText
10
322.125
20
4
30
0
40
2.5
41
1.11111111111
71
5
72
1
1
8
7
standard
210
0
220
0
230
1
50
90
73
2
44
1
0
LINE
5
95
100
AcDbEntity
8
0
6
CONTINUOUS
62
7
370
0
100
AcDbLine
10
329.375
20
8
11
322.75
21
8
0
LINE
5
96
100
AcDbEntity
8
0
6
CONTINUOUS
62
7
370
0
100
AcDbLine
10
329.375
20
7.65404249467e-17
11
322.75
21
1.53080849893e-16
0
ENDBLK
5
4E
330
4C
100
AcDbEntity
8
0
100
AcDbBlockEnd
0
BLOCK
5
50
330
4F
100
AcDbEntity
8
0
100
AcDbBlockBegin
2
Sheet-A4-Horz
70
0
10
0
20
0
3
Sheet-A4-Horz
1

0
LINE
5
97
100
AcDbEntity
8
0
6
ByLayer
62
256
370
-1
100
AcDbLine
10
0
20
180
11
267
21
180
0
LINE
5
98
100
AcDbEntity
8
0
6
ByLayer
62
256
370
-1
100
AcDbLine
10
0
20
180
11
0
21
0
0
LINE
5
99
100
AcDbEntity
8
0
6
ByLayer
62
256
370
-1
100
AcDbLine
10
267
20
180
11
267
21
-4.90471043059e-14
0
LINE
5
9A
100
AcDbEntity
8
0
6
ByLayer
62
256
370
-1
100
AcDbLine
10
0
20
0
11
267
21
-4.90471043059e-14
0
LINE
5
9B
100
AcDbEntity
8
0
6
ByLayer
62
256
370
-1
100
AcDbLine
10
87
20
15
11
267
21
15
0
LINE
5
9C
100
AcDbEntity
8
0
6
ByLayer
62
256
370
-1
100
AcDbLine
10
107
20
-4.90471043059e-14
11
107
21
15
0
LINE
5
9D
100
AcDbEntity
8
0
6
ByLayer
62
256
370
-1
100
AcDbLine
10
237
20
-4.90471043059e-14
11
237
21
15
0
LINE
5
9E
100
AcDbEntity
8
0
6
ByLayer
62
256
370
-1
100
AcDbLine
10
217
20
-4.90471043059e-14
11
217
21
15
0
LINE
5
9F
100
AcDbEntity
8
0
6
ByLayer
62
256
370
-1
100
AcDbLine
10
217
20
7.5
11
267
21
7.5
0
LINE
5
A0
100
AcDbEntity
8
0
6
ByLayer
62
256
370
-1
100
AcDbLine
10
87
20
7.5
11
107
21
7.5
0
MTEXT
5
A1
100
AcDbEntity
8
0
6
ByLayer
62
256
370
-1
100
AcDbMText
10
94
20
14
30
0
40
5.5
41
6.11111111111
71
1
72
1
1
1:1
7
standard
210
0
220
0
230
1
50
0
73
2
44
1
0
MTEXT
5
A2
100
AcDbEntity
8
0
6
ByLayer
62
256
370
-1
100
AcDbMText
10
87.5
20
5
30
0
40
3
41
18.5833333333
71
1
72
1
1
4mm Holz
7
standard
210
0
220
0
230
1
50
0
73
2
44
1
0
MTEXT
5
A3
100
AcDbEntity
8
0
6
ByLayer
62
256
370
-1
100
AcDbMText
10
243
20
13
30
0
40
3
41
18.6666666667
71
1
72
1
1
16.08.2014
7
standard
210
0
220
0
230
1
50
0
73
2
44
1
0
MTEXT
5
A4
100
AcDbEntity
8
0
6
ByLayer
62
256
370
-1
100
AcDbMText
10
243
20
5
30
0
40
3
41
17.9166666667
71
1
72
1
1
Blatt 001
7
standard
210
0
220
0
230
1
50
0
73
2
44
1
0
MTEXT
5
A5
100
AcDbEntity
8
0
6
ByLayer
62
256
370
-1
100
AcDbMText
10
224
20
5
30
0
40
3
41
6.33333333333
71
1
72
1
1
v1.0
7
standard
210
0
220
0
230
1
50
0
73
2
44
1
0
LINE
5
A6
100
AcDbEntity
8
0
6
ByLayer
62
256
370
-1
100
AcDbLine
10
87
20
15
11
87
21
-4.90471043059e-14
0
ENDBLK
5
51
330
4F
100
AcDbEntity
8
0
100
AcDbBlockEnd
0
BLOCK
5
53
330
52
100
AcDbEntity
8
0
100
AcDbBlockBegin
2
Schiene
70
0
10
0
20
0
3
Schiene
1

0
CIRCLE
5
A7
100
AcDbEntity
8
0
6
ByLayer
62
256
370
-1
100
AcDbCircle
10
0
20
0
40
11
0
DIMENSION
5
A8
100
AcDbEntity
8
0
6
ByLayer
62
256
370
-1
100
AcDbDimension
10
11
20
0
30
0
11
1e-16
21
1.875
31
0
70
35
71
5
72
0
3
Standard
53
0
210
0
220
0
230
1
100
AcDbDiametricDimension
15
-11
25
0
35
0
40
0
0
ENDBLK
5
54
330
52
100
AcDbEntity
8
0
100
AcDbBlockEnd
0
BLOCK
5
56
330
55
100
AcDbEntity
8
0
100
AcDbBlockBegin
2
Streckenprofil
70
0
10
0
20
0
3
Streckenprofil
1

0
CIRCLE
5
A9
100
AcDbEntity
8
0
6
ByLayer
62
256
370
-1
100
AcDbCircle
10
0
20
0
40
75
0
DIMENSION
5
AA
100
AcDbEntity
8
0
6
ByLayer
62
256
370
-1
100
AcDbDimension
10
90
20
-75
30
0
11
88.125
21
-6.9e-15
31
0
70
32
71
5
72
0
3
Standard
53
0
210
0
220
0
230
1
100
AcDbAlignedDimension
13
0
23
75
33
0
14
0
24
-75
34
0
50
90
100
AcDbRotatedDimension
0
ENDBLK
5
57
330
55
100
AcDbEntity
8
0
100
AcDbBlockEnd
0
BLOCK
5
59
330
58
100
AcDbEntity
8
0
100
AcDbBlockBegin
2
Querträger-rechts
70
0
10
0
20
0
3
Querträger-rechts
1

0
LINE
5
AB
100
AcDbEntity
8
0
6
ByLayer
62
256
370
-1
100
AcDbLine
10
29
20
-8
11
25
21
-8
0
LINE
5
AC
100
AcDbEntity
8
0
6
ByLayer
62
256
370
-1
100
AcDbLine
10
25
20
-8
11
25
21
21
0
LINE
5
AD
100
AcDbEntity
8
0
6
ByLayer
62
256
370
-1
100
AcDbLine
10
25
20
21
11
29
21
21
0
LINE
5
AE
100
AcDbEntity
8
0
6
ByLayer
62
256
370
-1
100
AcDbLine
10
29
20
21
11
29
21
-8
0
LINE
5
AF
100
AcDbEntity
8
0
6
ByLayer
62
256
370
-1
100
AcDbLine
10
48
20
8
11
29
21
8
0
LINE
5
B0
100
AcDbEntity
8
0
6
ByLayer
62
256
370
-1
100
AcDbLine
10
29
20
8
11
29
21
4
0
LINE
5
B1
100
AcDbEntity
8
0
6
ByLayer
62
256
370
-1
100
AcDbLine
10
29
20
4
11
48
21
4
0
LINE
5
B2
100
AcDbEntity
8
0
6
ByLayer
62
256
370
-1
100
AcDbLine
10
48
20
4
11
48
21
8
0
ENDBLK
5
5A
330
58
100
AcDbEntity
8
0
100
AcDbBlockEnd
0
BLOCK
5
5C
330
5B
100
AcDbEntity
8
0
100
AcDbBlockBegin
2
Flaschentragspant
70
0
10
0
20
0
3
Flaschentragspant
1

0
LINE
5
B3
100
AcDbEntity
8
0
6
ByLayer
62
256
370
-1
100
AcDbLine
10
40.6838132044
20
-30.4320344684
11
45.0980300054
21
-13.2170633791
0
LINE
5
B4
100
AcDbEntity
8
0
6
ByLayer
62
256
370
-1
100
AcDbLine
10
-32.9362093991
20
-50.283493344
11
-38.7612043374
21
-52.6567170815
0
ARC
5
B5
100
AcDbEntity
8
0
6
ByLayer
62
256
370
-1
100
AcDbCircle
10
-37.6292819115
20
-55.4349812197
40
3
100
AcDbArc
50
112.167000886
51
235.831327454
0
LINE
5
B6
100
AcDbEntity
8
0
6
ByLayer
62
256
370
-1
100
AcDbLine
10
-2
20
-66
11
2
21
-66
0
LINE
5
B7
100
AcDbEntity
8
0
6
ByLayer
62
256
370
-1
100
AcDbLine
10
-2
20
-61.9523539268
11
-2
21
-66
0
LINE
5
B8
100
AcDbEntity
8
0
6
ByLayer
62
256
370
-1
100
AcDbLine
10
2
20
-61.9523539268
11
2
21
-66
0
ARC
5
B9
100
AcDbEntity
8
0
6
ByLayer
62
256
370
-1
100
AcDbCircle
10
0
20
-20
40
42
100
AcDbArc
50
272.729402637
51
345.618224683
0
LINE
5
BA
100
AcDbEntity
8
0
6
ByLayer
62
256
370
-1
100
AcDbLine
10
-33.1801939437
20
-53.4789603515
11
-29.7160923285
21
-55.4789603515
0
LINE
5
BB
100
AcDbEntity
8
0
6
ByLayer
62
256
370
-1
100
AcDbLine
10
-31.1801939437
20
-50.0148587364
11
-33.1801939437
21
-53.4789603515
0
ARC
5
BC
100
AcDbEntity
8
0
6
ByLayer
62
256
370
-1
100
AcDbCircle
10
-31.3333771847
20
-55.019623504
40
5
100
AcDbArc
50
88.290639718
51
108.6971844
0
LINE
5
BD
100
AcDbEntity
8
0
6
ByLayer
62
256
370
-1
100
AcDbLine
10
-27.5402019891
20
-51.7102077319
11
-29.7160923285
21
-55.4789603515
0
ARC
5
BE
100
AcDbEntity
8
0
6
ByLayer
62
256
370
-1
100
AcDbCircle
10
0
20
-20
40
42
100
AcDbArc
50
229.025801943
51
267.270597363
0
LINE
5
BF
100
AcDbEntity
8
0
6
ByLayer
62
256
370
-1
100
AcDbLine
10
40.0821974552
20
-47.4109828592
11
43.0313068025
21
-44.7086220287
0
LINE
5
C0
100
AcDbEntity
8
0
6
ByLayer
62
256
370
-1
100
AcDbLine
10
61.7114451324
20
-6.87405675402
11
62.0262550741
21
-2.88646415941
0
LINE
5
C1
100
AcDbEntity
8
0
6
ByLayer
62
256
370
-1
100
AcDbLine
10
62.0262550741
20
-2.88646415941
11
69.9541441375
21
-3.5123501381
0
LINE
5
C2
100
AcDbEntity
8
0
6
ByLayer
62
256
370
-1
100
AcDbLine
10
61.7114451324
20
-6.87405675402
11
69.6393341958
21
-7.49994273271
0
LINE
5
C3
100
AcDbEntity
8
0
6
ByLayer
62
256
370
-1
100
AcDbLine
10
40.0821974552
20
-47.4109828592
11
45.4555857455
21
-53.2750071799
0
LINE
5
C4
100
AcDbEntity
8
0
6
ByLayer
62
256
370
-1
100
AcDbLine
10
43.0313068025
20
-44.7086220287
11
48.4239747241
21
-50.593686375
0
ARC
5
C5
100
AcDbEntity
8
0
6
ByLayer
62
256
370
-1
100
AcDbCircle
10
0.0260558105262
20
0.00206540850323
40
70.016345618
100
AcDbArc
50
235.814635147
51
310.454333451
0
ARC
5
C6
100
AcDbEntity
8
0
6
ByLayer
62
256
370
-1
100
AcDbCircle
10
0.0260558105262
20
0.00206540850323
40
70.016345618
100
AcDbArc
50
313.728142292
51
353.84914879
0
LINE
5
C7
100
AcDbEntity
8
0
6
ByLayer
62
256
370
-1
100
AcDbLine
10
45.2000558105
20
16.0020654085
11
45.2000558105
21
20.0020654085
0
LINE
5
C8
100
AcDbEntity
8
0
6
ByLayer
62
256
370
-1
100
AcDbLine
10
45.2000558105
20
20.0020654085
11
41.2000558105
21
20.0020654085
0
LINE
5
C9
100
AcDbEntity
8
0
6
ByLayer
62
256
370
-1
100
AcDbLine
10
41.2000558105
20
20.0020654085
11
41.2000558105
21
27.9934434375
0
LINE
5
CA
100
AcDbEntity
8
0
6
ByLayer
62
256
370
-1
100
AcDbLine
10
41.2000558105
20
27.9934434375
11
49.2000558105
21
28.0020654085
0
LINE
5
CB
100
AcDbEntity
8
0
6
ByLayer
62
256
370
-1
100
AcDbLine
10
49.2000558105
20
28.0020654085
11
49.2000558105
21
32.0020654085
0
LINE
5
CC
100
AcDbEntity
8
0
6
ByLayer
62
256
370
-1
100
AcDbLine
10
49.2000558105
20
32.0020654085
11
57.2000558105
21
32.0020654085
0
LINE
5
CD
100
AcDbEntity
8
0
6
ByLayer
62
256
370
-1
100
AcDbLine
10
57.2000558105
20
32.0020654085
11
57.2000558105
21
28.0020654085
0
LINE
5
CE
100
AcDbEntity
8
0
6
ByLayer
62
256
370
-1
100
AcDbLine
10
57.2000558105
20
28.0020654085
11
64.2000558105
21
28.0020654085
0
ARC
5
CF
100
AcDbEntity
8
0
6
ByLayer
62
256
370
-1
100
AcDbCircle
10
0.0260558105262
20
0.00206540850323
40
70.016345618
100
AcDbArc
50
357.122874294
51
23.5723408661
0
ARC
5
D0
100
AcDbEntity
8
0
6
ByLayer
62
256
370
-1
100
AcDbCircle
10
-1.85359939802
20
-4.49042766583
40
47.7557292674
100
AcDbArc
50
349.470903217
51
25.4111343825
0
LINE
5
D1
100
AcDbEntity
8
0
6
ByLayer
62
256
370
-1
100
AcDbLine
10
41.2818547605
20
16.0020654085
11
45.2000558105
21
16.0020654085
0
ENDBLK
5
5D
330
5B
100
AcDbEntity
8
0
100
AcDbBlockEnd
0
BLOCK
5
5F
330
5E
100
AcDbEntity
8
0
100
AcDbBlockBegin
2
Spant Laderaumtor
70
0
10
0
20
0
3
Spant Laderaumtor
1

0
CIRCLE
5
D2
100
AcDbEntity
8
0
6
ByLayer
62
256
370
-1
100
AcDbCircle
10
0
20
0
40
2
0
ARC
5
D3
100
AcDbEntity
8
0
6
ByLayer
62
256
370
-1
100
AcDbCircle
10
13.1225152462
20
-87.1625861755
40
3
100
AcDbArc
50
292.167000886
51
37.1291022022
0
LINE
5
D4
100
AcDbEntity
8
0
6
ByLayer
62
256
370
-1
100
AcDbLine
10
14.2544376721
20
-89.9408503137
11
6.0886437733
21
-93.2677640915
0
ARC
5
D5
100
AcDbEntity
8
0
6
ByLayer
62
256
370
-1
100
AcDbCircle
10
4.9567213474
20
-90.4894999533
40
3
100
AcDbArc
50
228.900979135
51
292.167000886
0
ARC
5
D6
100
AcDbEntity
8
0
6
ByLayer
62
256
370
-1
100
AcDbCircle
10
101.185140748
20
-33.5390958023
40
100.120106708
100
AcDbArc
50
161.953233681
51
211.165033834
0
ARC
5
D7
100
AcDbEntity
8
0
6
ByLayer
62
256
370
-1
100
AcDbCircle
10
0
20
0
40
6.5
100
AcDbArc
50
337.164431063
51
508.980962406
0
LINE
5
D8
100
AcDbEntity
8
0
6
ByLayer
62
256
370
-1
100
AcDbLine
10
-5.27407185645
20
-6.44348192936
11
-7.26992963592
21
-9.90997175686
0
LINE
5
D9
100
AcDbEntity
8
0
6
ByLayer
62
256
370
-1
100
AcDbLine
10
1.10313891061
20
-82.5319356525
11
3.85118444023
21
-85.4385222704
0
LINE
5
DA
100
AcDbEntity
8
0
6
ByLayer
62
256
370
-1
100
AcDbLine
10
-14.8425536793
20
-45.2610007236
11
-14.3897408243
21
-49.2352881463
0
LINE
5
DB
100
AcDbEntity
8
0
6
ByLayer
62
256
370
-1
100
AcDbLine
10
-14.8425536793
20
-45.2610007236
11
-20.7694240584
21
-45.9362823056
0
LINE
5
DC
100
AcDbEntity
8
0
6
ByLayer
62
256
370
-1
100
AcDbLine
10
-14.3897408243
20
-49.2352881463
11
-20.3284458087
21
-49.9119181112
0
LINE
5
DD
100
AcDbEntity
8
0
6
ByLayer
62
256
370
-1
100
AcDbLine
10
-7.26992963592
20
-9.90997175686
11
-12.4582927767
21
-6.92273237279
0
LINE
5
DE
100
AcDbEntity
8
0
6
ByLayer
62
256
370
-1
100
AcDbLine
10
-5.27407185645
20
-6.44348192936
11
-10.4352069235
21
-3.471919315
0
LINE
5
DF
100
AcDbEntity
8
0
6
ByLayer
62
256
370
-1
100
AcDbLine
10
1.10313891061
20
-82.5319356525
11
-3.24035112326
21
-86.6385080481
0
LINE
5
E0
100
AcDbEntity
8
0
6
ByLayer
62
256
370
-1
100
AcDbLine
10
3.85118444023
20
-85.4385222704
11
-0.48318866311
21
-89.5364750226
0
ARC
5
E1
100
AcDbEntity
8
0
6
ByLayer
62
256
370
-1
100
AcDbCircle
10
48.3899293873
20
-40.2773887852
40
69.390483821
100
AcDbArc
50
141.044460386
51
147.966777628
0
ARC
5
E2
100
AcDbEntity
8
0
6
ByLayer
62
256
370
-1
100
AcDbCircle
10
48.3899293873
20
-40.2773887852
40
69.390483821
100
AcDbArc
50
151.270140301
51
184.677747834
0
ARC
5
E3
100
AcDbEntity
8
0
6
ByLayer
62
256
370
-1
100
AcDbCircle
10
48.3899293873
20
-40.2773887852
40
69.390483821
100
AcDbArc
50
225.225351446
51
229.150719251
0
ARC
5
E4
100
AcDbEntity
8
0
6
ByLayer
62
256
370
-1
100
AcDbCircle
10
48.3899293873
20
-40.2773887852
40
69.390483821
100
AcDbArc
50
187.981023231
51
221.922074444
0
CIRCLE
5
E5
100
AcDbEntity
8
0
6
ByLayer
62
256
370
-1
100
AcDbCircle
10
0
20
0
40
2
0
ARC
5
E6
100
AcDbEntity
8
0
6
ByLayer
62
256
370
-1
100
AcDbCircle
10
-88.0952581876
20
2.95674145817
40
3
100
AcDbArc
50
191.683000886
51
296.645102202
0
LINE
5
E7
100
AcDbEntity
8
0
6
ByLayer
62
256
370
-1
100
AcDbLine
10
-91.0331069853
20
2.34925117728
11
-92.8186249142
21
10.984091709
0
ARC
5
E8
100
AcDbEntity
8
0
6
ByLayer
62
256
370
-1
100
AcDbCircle
10
-89.8807761164
20
11.5915819899
40
3
100
AcDbArc
50
128.416979135
51
191.683000886
0
ARC
5
E9
100
AcDbEntity
8
0
6
ByLayer
62
256
370
-1
100
AcDbCircle
10
-51.3909295624
20
-93.3931261611
40
100.120106708
100
AcDbArc
50
61.469233681
51
110.681033834
0
ARC
5
EA
100
AcDbEntity
8
0
6
ByLayer
62
256
370
-1
100
AcDbCircle
10
0
20
0
40
6.5
100
AcDbArc
50
236.680431063
51
48.496962406
0
LINE
5
EB
100
AcDbEntity
8
0
6
ByLayer
62
256
370
-1
100
AcDbLine
10
-5.37623780681
20
6.35848727022
11
-8.42168905636
21
8.95179147272
0
LINE
5
EC
100
AcDbEntity
8
0
6
ByLayer
62
256
370
-1
100
AcDbLine
10
-81.3548558223
20
13.9328658979
11
-84.7129561355
21
11.7595821412
0
LINE
5
ED
100
AcDbEntity
8
0
6
ByLayer
62
256
370
-1
100
AcDbLine
10
-41.8046376224
20
22.8305028303
11
-45.7949715865
21
23.1084144248
0
LINE
5
EE
100
AcDbEntity
8
0
6
ByLayer
62
256
370
-1
100
AcDbLine
10
-41.8046376224
20
22.8305028303
11
-41.3901869747
21
28.7813034795
0
LINE
5
EF
100
AcDbEntity
8
0
6
ByLayer
62
256
370
-1
100
AcDbLine
10
-45.7949715865
20
23.1084144248
11
-45.3796933756
21
29.0710974625
0
LINE
5
F0
100
AcDbEntity
8
0
6
ByLayer
62
256
370
-1
100
AcDbLine
10
-8.42168905636
20
8.95179147272
11
-4.54023992293
21
13.509977937
0
LINE
5
F1
100
AcDbEntity
8
0
6
ByLayer
62
256
370
-1
100
AcDbLine
10
-5.37623780681
20
6.35848727022
11
-1.51515817726
21
10.8927527726
0
LINE
5
F2
100
AcDbEntity
8
0
6
ByLayer
62
256
370
-1
100
AcDbLine
10
-81.3548558223
20
13.9328658979
11
-84.6025265713
21
18.9510804431
0
LINE
5
F3
100
AcDbEntity
8
0
6
ByLayer
62
256
370
-1
100
AcDbLine
10
-84.7129561355
20
11.7595821412
11
-87.9538100646
21
16.7672635176
0
ARC
5
F4
100
AcDbEntity
8
0
6
ByLayer
62
256
370
-1
100
AcDbCircle
10
-48.4100654753
20
-40.2531846459
40
69.390483821
100
AcDbArc
50
40.560460386
51
47.482777628
0
ARC
5
F5
100
AcDbEntity
8
0
6
ByLayer
62
256
370
-1
100
AcDbCircle
10
-48.4100654753
20
-40.2531846459
40
69.390483821
100
AcDbArc
50
50.786140301
51
84.193747834
0
ARC
5
F6
100
AcDbEntity
8
0
6
ByLayer
62
256
370
-1
100
AcDbCircle
10
-48.4100654753
20
-40.2531846459
40
69.390483821
100
AcDbArc
50
124.741351446
51
128.666719251
0
ARC
5
F7
100
AcDbEntity
8
0
6
ByLayer
62
256
370
-1
100
AcDbCircle
10
-48.4100654753
20
-40.2531846459
40
69.390483821
100
AcDbArc
50
87.497023231
51
121.438074444
0
LINE
5
F8
100
AcDbEntity
8
0
6
ByLayer
62
256
370
-1
100
AcDbLine
10
8.32667268469e-17
20
0
11
-87.95
21
-0.04
0
LINE
5
F9
100
AcDbEntity
8
0
6
ByLayer
62
256
370
-1
100
AcDbLine
10
8.32667268469e-17
20
2.49800180541e-16
11
16.1
21
-86.8
0
DIMENSION
5
FA
100
AcDbEntity
8
0
6
ByLayer
62
256
370
-1
100
AcDbDimension
10
16.1
20
-86.8
30
0
11
0
21
0
31
0
70
34
71
5
72
0
3
Standard
53
0
210
0
220
0
230
1
100
AcDb2LineAngularDimension
13
8.32667268469e-17
23
0
33
0
14
-87.95
24
-0.04
34
0
15
8.32667268469e-17
25
2.49800180541e-16
35
0
16
-10
26
-20
36
0
0
CIRCLE
5
FB
100
AcDbEntity
8
0
6
ByLayer
62
256
370
-1
100
AcDbCircle
10
0
20
0
40
6.5
0
DIMENSION
5
FC
100
AcDbEntity
8
0
6
ByLayer
62
256
370
-1
100
AcDbDimension
10
4.82180985943
20
-4.35891611292
30
0
11
1.25737964796
21
1.39090669022
31
0
70
35
71
5
72
0
3
Standard
53
0
210
0
220
0
230
1
100
AcDbDiametricDimension
15
-4.82180985943
25
4.35891611292
35
0
40
0
0
ENDBLK
5
60
330
5E
100
AcDbEntity
8
0
100
AcDbBlockEnd
0
BLOCK
5
62
330
61
100
AcDbEntity
8
0
100
AcDbBlockBegin
2
Sheet-A4-Horz-1
70
0
10
0
20
0
3
Sheet-A4-Horz-1
1

0
LINE
5
FD
100
AcDbEntity
8
0
6
ByLayer
62
256
370
-1
100
AcDbLine
10
0
20
180
11
267
21
180
0
LINE
5
FE
100
AcDbEntity
8
0
6
ByLayer
62
256
370
-1
100
AcDbLine
10
0
20
180
11
0
21
0
0
LINE
5
FF
100
AcDbEntity
8
0
6
ByLayer
62
256
370
-1
100
AcDbLine
10
267
20
180
11
267
21
-4.90471043059e-14
0
LINE
5
100
100
AcDbEntity
8
0
6
ByLayer
62
256
370
-1
100
AcDbLine
10
0
20
0
11
267
21
-4.90471043059e-14
0
LINE
5
101
100
AcDbEntity
8
0
6
ByLayer
62
256
370
-1
100
AcDbLine
10
87
20
15
11
267
21
15
0
LINE
5
102
100
AcDbEntity
8
0
6
ByLayer
62
256
370
-1
100
AcDbLine
10
107
20
-4.90471043059e-14
11
107
21
15
0
LINE
5
103
100
AcDbEntity
8
0
6
ByLayer
62
256
370
-1
100
AcDbLine
10
237
20
-4.90471043059e-14
11
237
21
15
0
LINE
5
104
100
AcDbEntity
8
0
6
ByLayer
62
256
370
-1
100
AcDbLine
10
217
20
-4.90471043059e-14
11
217
21
15
0
LINE
5
105
100
AcDbEntity
8
0
6
ByLayer
62
256
370
-1
100
AcDbLine
10
217
20
7.5
11
267
21
7.5
0
LINE
5
106
100
AcDbEntity
8
0
6
ByLayer
62
256
370
-1
100
AcDbLine
10
87
20
7.5
11
107
21
7.5
0
MTEXT
5
107
100
AcDbEntity
8
0
6
ByLayer
62
256
370
-1
100
AcDbMText
10
94
20
14
30
0
40
5.5
41
6.11111111111
71
1
72
1
1
1:1
7
standard
210
0
220
0
230
1
50
0
73
2
44
1
0
MTEXT
5
108
100
AcDbEntity
8
0
6
ByLayer
62
256
370
-1
100
AcDbMText
10
87.5
20
5
30
0
40
3
41
18.5833333333
71
1
72
1
1
4mm Holz
7
standard
210
0
220
0
230
1
50
0
73
2
44
1
0
MTEXT
5
109
100
AcDbEntity
8
0
6
ByLayer
62
256
370
-1
100
AcDbMText
10
243
20
13
30
0
40
3
41
18.6666666667
71
1
72
1
1
16.08.2014
7
standard
210
0
220
0
230
1
50
0
73
2
44
1
0
MTEXT
5
10A
100
AcDbEntity
8
0
6
ByLayer
62
256
370
-1
100
AcDbMText
10
243
20
5
30
0
40
3
41
17.9166666667
71
1
72
1
1
Blatt 001
7
standard
210
0
220
0
230
1
50
0
73
2
44
1
0
MTEXT
5
10B
100
AcDbEntity
8
0
6
ByLayer
62
256
370
-1
100
AcDbMText
10
224
20
5
30
0
40
3
41
6.33333333333
71
1
72
1
1
v1.0
7
standard
210
0
220
0
230
1
50
0
73
2
44
1
0
LINE
5
10C
100
AcDbEntity
8
0
6
ByLayer
62
256
370
-1
100
AcDbLine
10
87
20
15
11
87
21
-4.90471043059e-14
0
ENDBLK
5
63
330
61
100
AcDbEntity
8
0
100
AcDbBlockEnd
0
BLOCK
5
65
330
64
100
AcDbEntity
8
0
100
AcDbBlockBegin
2
Schiene-0
70
0
10
0
20
0
3
Schiene-0
1

0
CIRCLE
5
10D
100
AcDbEntity
8
0
6
ByLayer
62
256
370
-1
100
AcDbCircle
10
0
20
0
40
11
0
DIMENSION
5
10E
100
AcDbEntity
8
0
6
ByLayer
62
256
370
-1
100
AcDbDimension
10
11
20
0
30
0
11
1e-16
21
1.875
31
0
70
35
71
5
72
0
3
Standard
53
0
210
0
220
0
230
1
100
AcDbDiametricDimension
15
-11
25
0
35
0
40
0
0
ENDBLK
5
66
330
64
100
AcDbEntity
8
0
100
AcDbBlockEnd
0
BLOCK
5
68
330
67
100
AcDbEntity
8
0
100
AcDbBlockBegin
2
Querträger-rechts-0
70
0
10
0
20
0
3
Querträger-rechts-0
1

0
LINE
5
10F
100
AcDbEntity
8
0
6
ByLayer
62
256
370
-1
100
AcDbLine
10
29
20
-8
11
25
21
-8
0
LINE
5
110
100
AcDbEntity
8
0
6
ByLayer
62
256
370
-1
100
AcDbLine
10
25
20
-8
11
25
21
21
0
LINE
5
111
100
AcDbEntity
8
0
6
ByLayer
62
256
370
-1
100
AcDbLine
10
25
20
21
11
29
21
21
0
LINE
5
112
100
AcDbEntity
8
0
6
ByLayer
62
256
370
-1
100
AcDbLine
10
29
20
21
11
29
21
-8
0
LINE
5
113
100
AcDbEntity
8
0
6
ByLayer
62
256
370
-1
100
AcDbLine
10
48
20
8
11
29
21
8
0
LINE
5
114
100
AcDbEntity
8
0
6
ByLayer
62
256
370
-1
100
AcDbLine
10
29
20
8
11
29
21
4
0
LINE
5
115
100
AcDbEntity
8
0
6
ByLayer
62
256
370
-1
100
AcDbLine
10
29
20
4
11
48
21
4
0
LINE
5
116
100
AcDbEntity
8
0
6
ByLayer
62
256
370
-1
100
AcDbLine
10
48
20
4
11
48
21
8
0
ENDBLK
5
69
330
67
100
AcDbEntity
8
0
100
AcDbBlockEnd
0
BLOCK
5
6B
330
6A
100
AcDbEntity
8
0
100
AcDbBlockBegin
2
Spant Laderaumtor-1
70
0
10
0
20
0
3
Spant Laderaumtor-1
1

0
CIRCLE
5
117
100
AcDbEntity
8
0
6
ByLayer
62
256
370
-1
100
AcDbCircle
10
0
20
0
40
2
0
ARC
5
118
100
AcDbEntity
8
0
6
ByLayer
62
256
370
-1
100
AcDbCircle
10
13.1225152462
20
-87.1625861755
40
3
100
AcDbArc
50
292.167000886
51
37.1291022022
0
LINE
5
119
100
AcDbEntity
8
0
6
ByLayer
62
256
370
-1
100
AcDbLine
10
14.2544376721
20
-89.9408503137
11
6.0886437733
21
-93.2677640915
0
ARC
5
11A
100
AcDbEntity
8
0
6
ByLayer
62
256
370
-1
100
AcDbCircle
10
4.9567213474
20
-90.4894999533
40
3
100
AcDbArc
50
228.900979135
51
292.167000886
0
ARC
5
11B
100
AcDbEntity
8
0
6
ByLayer
62
256
370
-1
100
AcDbCircle
10
101.185140748
20
-33.5390958023
40
100.120106708
100
AcDbArc
50
161.953233681
51
211.165033834
0
ARC
5
11C
100
AcDbEntity
8
0
6
ByLayer
62
256
370
-1
100
AcDbCircle
10
0
20
0
40
6.5
100
AcDbArc
50
337.164431063
51
508.980962406
0
LINE
5
11D
100
AcDbEntity
8
0
6
ByLayer
62
256
370
-1
100
AcDbLine
10
-5.27407185645
20
-6.44348192936
11
-7.26992963592
21
-9.90997175686
0
LINE
5
11E
100
AcDbEntity
8
0
6
ByLayer
62
256
370
-1
100
AcDbLine
10
1.10313891061
20
-82.5319356525
11
3.85118444023
21
-85.4385222704
0
LINE
5
11F
100
AcDbEntity
8
0
6
ByLayer
62
256
370
-1
100
AcDbLine
10
-14.8425536793
20
-45.2610007236
11
-14.3897408243
21
-49.2352881463
0
LINE
5
120
100
AcDbEntity
8
0
6
ByLayer
62
256
370
-1
100
AcDbLine
10
-14.8425536793
20
-45.2610007236
11
-20.7694240584
21
-45.9362823056
0
LINE
5
121
100
AcDbEntity
8
0
6
ByLayer
62
256
370
-1
100
AcDbLine
10
-14.3897408243
20
-49.2352881463
11
-20.3284458087
21
-49.9119181112
0
LINE
5
122
100
AcDbEntity
8
0
6
ByLayer
62
256
370
-1
100
AcDbLine
10
-7.26992963592
20
-9.90997175686
11
-12.4582927767
21
-6.92273237279
0
LINE
5
123
100
AcDbEntity
8
0
6
ByLayer
62
256
370
-1
100
AcDbLine
10
-5.27407185645
20
-6.44348192936
11
-10.4352069235
21
-3.471919315
0
LINE
5
124
100
AcDbEntity
8
0
6
ByLayer
62
256
370
-1
100
AcDbLine
10
1.10313891061
20
-82.5319356525
11
-3.24035112326
21
-86.6385080481
0
LINE
5
125
100
AcDbEntity
8
0
6
ByLayer
62
256
370
-1
100
AcDbLine
10
3.85118444023
20
-85.4385222704
11
-0.48318866311
21
-89.5364750226
0
ARC
5
126
100
AcDbEntity
8
0
6
ByLayer
62
256
370
-1
100
AcDbCircle
10
48.3899293873
20
-40.2773887852
40
69.390483821
100
AcDbArc
50
141.044460386
51
147.966777628
0
ARC
5
127
100
AcDbEntity
8
0
6
ByLayer
62
256
370
-1
100
AcDbCircle
10
48.3899293873
20
-40.2773887852
40
69.390483821
100
AcDbArc
50
151.270140301
51
184.677747834
0
ARC
5
128
100
AcDbEntity
8
0
6
ByLayer
62
256
370
-1
100
AcDbCircle
10
48.3899293873
20
-40.2773887852
40
69.390483821
100
AcDbArc
50
225.225351446
51
229.150719251
0
ARC
5
129
100
AcDbEntity
8
0
6
ByLayer
62
256
370
-1
100
AcDbCircle
10
48.3899293873
20
-40.2773887852
40
69.390483821
100
AcDbArc
50
187.981023231
51
221.922074444
0
CIRCLE
5
12A
100
AcDbEntity
8
0
6
ByLayer
62
256
370
-1
100
AcDbCircle
10
0
20
0
40
2
0
ARC
5
12B
100
AcDbEntity
8
0
6
ByLayer
62
256
370
-1
100
AcDbCircle
10
-88.0952581876
20
2.95674145817
40
3
100
AcDbArc
50
191.683000886
51
296.645102202
0
LINE
5
12C
100
AcDbEntity
8
0
6
ByLayer
62
256
370
-1
100
AcDbLine
10
-91.0331069853
20
2.34925117728
11
-92.8186249142
21
10.984091709
0
ARC
5
12D
100
AcDbEntity
8
0
6
ByLayer
62
256
370
-1
100
AcDbCircle
10
-89.8807761164
20
11.5915819899
40
3
100
AcDbArc
50
128.416979135
51
191.683000886
0
ARC
5
12E
100
AcDbEntity
8
0
6
ByLayer
62
256
370
-1
100
AcDbCircle
10
-51.3909295624
20
-93.3931261611
40
100.120106708
100
AcDbArc
50
61.469233681
51
110.681033834
0
ARC
5
12F
100
AcDbEntity
8
0
6
ByLayer
62
256
370
-1
100
AcDbCircle
10
0
20
0
40
6.5
100
AcDbArc
50
236.680431063
51
48.496962406
0
LINE
5
130
100
AcDbEntity
8
0
6
ByLayer
62
256
370
-1
100
AcDbLine
10
-5.37623780681
20
6.35848727022
11
-8.42168905636
21
8.95179147272
0
LINE
5
131
100
AcDbEntity
8
0
6
ByLayer
62
256
370
-1
100
AcDbLine
10
-81.3548558223
20
13.9328658979
11
-84.7129561355
21
11.7595821412
0
LINE
5
132
100
AcDbEntity
8
0
6
ByLayer
62
256
370
-1
100
AcDbLine
10
-41.8046376224
20
22.8305028303
11
-45.7949715865
21
23.1084144248
0
LINE
5
133
100
AcDbEntity
8
0
6
ByLayer
62
256
370
-1
100
AcDbLine
10
-41.8046376224
20
22.8305028303
11
-41.3901869747
21
28.7813034795
0
LINE
5
134
100
AcDbEntity
8
0
6
ByLayer
62
256
370
-1
100
AcDbLine
10
-45.7949715865
20
23.1084144248
11
-45.3796933756
21
29.0710974625
0
LINE
5
135
100
AcDbEntity
8
0
6
ByLayer
62
256
370
-1
100
AcDbLine
10
-8.42168905636
20
8.95179147272
11
-4.54023992293
21
13.509977937
0
LINE
5
136
100
AcDbEntity
8
0
6
ByLayer
62
256
370
-1
100
AcDbLine
10
-5.37623780681
20
6.35848727022
11
-1.51515817726
21
10.8927527726
0
LINE
5
137
100
AcDbEntity
8
0
6
ByLayer
62
256
370
-1
100
AcDbLine
10
-81.3548558223
20
13.9328658979
11
-84.6025265713
21
18.9510804431
0
LINE
5
138
100
AcDbEntity
8
0
6
ByLayer
62
256
370
-1
100
AcDbLine
10
-84.7129561355
20
11.7595821412
11
-87.9538100646
21
16.7672635176
0
ARC
5
139
100
AcDbEntity
8
0
6
ByLayer
62
256
370
-1
100
AcDbCircle
10
-48.4100654753
20
-40.2531846459
40
69.390483821
100
AcDbArc
50
40.560460386
51
47.482777628
0
ARC
5
13A
100
AcDbEntity
8
0
6
ByLayer
62
256
370
-1
100
AcDbCircle
10
-48.4100654753
20
-40.2531846459
40
69.390483821
100
AcDbArc
50
50.786140301
51
84.193747834
0
ARC
5
13B
100
AcDbEntity
8
0
6
ByLayer
62
256
370
-1
100
AcDbCircle
10
-48.4100654753
20
-40.2531846459
40
69.390483821
100
AcDbArc
50
124.741351446
51
128.666719251
0
ARC
5
13C
100
AcDbEntity
8
0
6
ByLayer
62
256
370
-1
100
AcDbCircle
10
-48.4100654753
20
-40.2531846459
40
69.390483821
100
AcDbArc
50
87.497023231
51
121.438074444
0
LINE
5
13D
100
AcDbEntity
8
0
6
ByLayer
62
256
370
-1
100
AcDbLine
10
8.32667268469e-17
20
0
11
-87.95
21
-0.04
0
LINE
5
13E
100
AcDbEntity
8
0
6
ByLayer
62
256
370
-1
100
AcDbLine
10
8.32667268469e-17
20
2.49800180541e-16
11
16.1
21
-86.8
0
DIMENSION
5
13F
100
AcDbEntity
8
0
6
ByLayer
62
256
370
-1
100
AcDbDimension
10
16.1
20
-86.8
30
0
11
0
21
0
31
0
70
34
71
5
72
0
3
Standard
53
0
210
0
220
0
230
1
100
AcDb2LineAngularDimension
13
8.32667268469e-17
23
0
33
0
14
-87.95
24
-0.04
34
0
15
8.32667268469e-17
25
2.49800180541e-16
35
0
16
-10
26
-20
36
0
0
CIRCLE
5
140
100
AcDbEntity
8
0
6
ByLayer
62
256
370
-1
100
AcDbCircle
10
0
20
0
40
6.5
0
DIMENSION
5
141
100
AcDbEntity
8
0
6
ByLayer
62
256
370
-1
100
AcDbDimension
10
4.82180985943
20
-4.35891611292
30
0
11
1.25737964796
21
1.39090669022
31
0
70
35
71
5
72
0
3
Standard
53
0
210
0
220
0
230
1
100
AcDbDiametricDimension
15
-4.82180985943
25
4.35891611292
35
0
40
0
0
ENDBLK
5
6C
330
6A
100
AcDbEntity
8
0
100
AcDbBlockEnd
0
BLOCK
5
6E
330
6D
100
AcDbEntity
8
0
100
AcDbBlockBegin
2
Servo-Micro
70
0
10
0
20
0
3
Servo-Micro
1

0
LINE
5
142
100
AcDbEntity
8
0
6
ByLayer
62
256
370
-1
100
AcDbLine
10
23
20
0
11
0
21
0
0
LINE
5
143
100
AcDbEntity
8
0
6
ByLayer
62
256
370
-1
100
AcDbLine
10
0
20
0
11
0
21
17
0
LINE
5
144
100
AcDbEntity
8
0
6
ByLayer
62
256
370
-1
100
AcDbLine
10
23
20
0
11
23
21
17
0
LINE
5
145
100
AcDbEntity
8
0
6
ByLayer
62
256
370
-1
100
AcDbLine
10
23
20
17
11
27
21
17
0
LINE
5
146
100
AcDbEntity
8
0
6
ByLayer
62
256
370
-1
100
AcDbLine
10
-4
20
17
11
0
21
17
0
LINE
5
147
100
AcDbEntity
8
0
6
ByLayer
62
256
370
-1
100
AcDbLine
10
-4
20
15
11
0
21
15
0
LINE
5
148
100
AcDbEntity
8
0
6
ByLayer
62
256
370
-1
100
AcDbLine
10
23
20
15
11
27
21
15
0
LINE
5
149
100
AcDbEntity
8
0
6
ByLayer
62
256
370
-1
100
AcDbLine
10
23
20
21
11
23
21
17
0
LINE
5
14A
100
AcDbEntity
8
0
6
ByLayer
62
256
370
-1
100
AcDbLine
10
0
20
21
11
0
21
17
0
LINE
5
14B
100
AcDbEntity
8
0
6
ByLayer
62
256
370
-1
100
AcDbLine
10
22
20
26
11
22
21
21
0
LINE
5
14C
100
AcDbEntity
8
0
6
ByLayer
62
256
370
-1
100
AcDbLine
10
18
20
29
11
18
21
26
0
LINE
5
14D
100
AcDbEntity
8
0
6
ByLayer
62
256
370
-1
100
AcDbLine
10
14
20
29
11
14
21
26
0
LINE
5
14E
100
AcDbEntity
8
0
6
ByLayer
62
256
370
-1
100
AcDbLine
10
14
20
29
11
18
21
29
0
LINE
5
14F
100
AcDbEntity
8
0
6
ByLayer
62
256
370
-1
100
AcDbLine
10
10
20
26
11
10
21
21
0
LINE
5
150
100
AcDbEntity
8
0
6
ByLayer
62
256
370
-1
100
AcDbLine
10
0
20
21
11
10
21
21
0
LINE
5
151
100
AcDbEntity
8
0
6
ByLayer
62
256
370
-1
100
AcDbLine
10
22
20
21
11
23
21
21
0
LINE
5
152
100
AcDbEntity
8
0
6
ByLayer
62
256
370
-1
100
AcDbLine
10
10
20
26
11
14
21
26
0
LINE
5
153
100
AcDbEntity
8
0
6
ByLayer
62
256
370
-1
100
AcDbLine
10
18
20
26
11
22
21
26
0
LINE
5
154
100
AcDbEntity
8
0
6
ByLayer
62
256
370
-1
100
AcDbLine
10
27
20
17
11
27
21
15
0
LINE
5
155
100
AcDbEntity
8
0
6
ByLayer
62
256
370
-1
100
AcDbLine
10
-4
20
17
11
-4
21
15
0
LINE
5
156
100
AcDbEntity
8
0
6
ByLayer
62
256
370
-1
100
AcDbLine
10
23
20
2
11
28
21
1
0
LINE
5
157
100
AcDbEntity
8
0
6
ByLayer
62
256
370
-1
100
AcDbLine
10
28
20
1
11
28
21
-1
0
LINE
5
158
100
AcDbEntity
8
0
6
ByLayer
62
256
370
-1
100
AcDbLine
10
28
20
-1
11
23
21
0
0
LINE
5
159
100
AcDbEntity
8
0
6
ByLayer
62
256
370
-1
100
AcDbLine
10
10
20
21
11
22
21
21
0
LINE
5
15A
100
AcDbEntity
8
0
6
ByLayer
62
256
370
-1
100
AcDbLine
10
14
20
26
11
18
21
26
0
LINE
5
15B
100
AcDbEntity
8
0
6
ByLayer
62
256
370
-1
100
AcDbLine
10
22
20
28
11
6
21
28
0
LINE
5
15C
100
AcDbEntity
8
0
6
ByLayer
62
256
370
-1
100
AcDbLine
10
22
20
32
11
6
21
32
0
LINE
5
15D
100
AcDbEntity
8
0
6
ByLayer
62
256
370
-1
100
AcDbLine
10
22
20
32
11
22
21
28
0
ENDBLK
5
6F
330
6D
100
AcDbEntity
8
0
100
AcDbBlockEnd
0
BLOCK
5
71
330
70
100
AcDbEntity
8
0
100
AcDbBlockBegin
2
Spant-Aussen
70
0
10
0
20
0
3
Spant-Aussen
1

0
ARC
5
15E
100
AcDbEntity
8
0
6
ByLayer
62
256
370
-1
100
AcDbCircle
10
62.8382667365
20
5
40
7
100
AcDbArc
50
4.54173678922
51
90
0
ARC
5
15F
100
AcDbEntity
8
0
6
ByLayer
62
256
370
-1
100
AcDbCircle
10
-62.7870186072
20
5
40
7
100
AcDbArc
50
90
51
175.458263211
0
LINE
5
160
100
AcDbEntity
8
0
6
ByLayer
62
256
370
-1
100
AcDbLine
10
43.4439051979
20
12
11
62.8382667365
21
12
0
LINE
5
161
100
AcDbEntity
8
0
6
ByLayer
62
256
370
-1
100
AcDbLine
10
-62.7870179329
20
12
11
-43.3405454475
21
12
0
LINE
5
162
100
AcDbEntity
8
0
6
ByLayer
62
256
370
-1
100
AcDbLine
10
45
20
8
11
61
21
8
0
LINE
5
163
100
AcDbEntity
8
0
6
ByLayer
62
256
370
-1
100
AcDbLine
10
61
20
8
11
61
21
4
0
LINE
5
164
100
AcDbEntity
8
0
6
ByLayer
62
256
370
-1
100
AcDbLine
10
61
20
4
11
45
21
4
0
LINE
5
165
100
AcDbEntity
8
0
6
ByLayer
62
256
370
-1
100
AcDbLine
10
45
20
4
11
45
21
8
0
LINE
5
166
100
AcDbEntity
8
0
6
ByLayer
62
256
370
-1
100
AcDbLine
10
-45
20
8
11
-61
21
8
0
LINE
5
167
100
AcDbEntity
8
0
6
ByLayer
62
256
370
-1
100
AcDbLine
10
-61
20
8
11
-61
21
4
0
LINE
5
168
100
AcDbEntity
8
0
6
ByLayer
62
256
370
-1
100
AcDbLine
10
-61
20
4
11
-45
21
4
0
LINE
5
169
100
AcDbEntity
8
0
6
ByLayer
62
256
370
-1
100
AcDbLine
10
-45
20
4
11
-45
21
8
0
ARC
5
16A
100
AcDbEntity
8
0
6
ByLayer
62
256
370
-1
100
AcDbCircle
10
16.4852813742
20
6
40
6
100
AcDbArc
50
90
51
135
0
ARC
5
16B
100
AcDbEntity
8
0
6
ByLayer
62
256
370
-1
100
AcDbCircle
10
7.51471862576
20
14
40
6
100
AcDbArc
50
270
51
315
0
ARC
5
16C
100
AcDbEntity
8
0
6
ByLayer
62
256
370
-1
100
AcDbCircle
10
-7.51471862576
20
14
40
6
100
AcDbArc
50
225
51
270
0
ARC
5
16D
100
AcDbEntity
8
0
6
ByLayer
62
256
370
-1
100
AcDbCircle
10
-16.4852813742
20
6
40
6
100
AcDbArc
50
45
51
90
0
LINE
5
16E
100
AcDbEntity
8
0
6
ByLayer
62
256
370
-1
100
AcDbLine
10
-43.3405454475
20
12
11
-16.4852817114
21
12
0
LINE
5
16F
100
AcDbEntity
8
0
6
ByLayer
62
256
370
-1
100
AcDbLine
10
-12.2426406871
20
10.2426406871
11
-11.7573590209
21
9.75735902088
0
LINE
5
170
100
AcDbEntity
8
0
6
ByLayer
62
256
370
-1
100
AcDbLine
10
-7.51471871006
20
8
11
7.51471838734
21
8
0
LINE
5
171
100
AcDbEntity
8
0
6
ByLayer
62
256
370
-1
100
AcDbLine
10
12.2426408063
20
10.2426408063
11
11.7573591937
21
9.75735919367
0
LINE
5
172
100
AcDbEntity
8
0
6
ByLayer
62
256
370
-1
100
AcDbLine
10
16.4852816127
20
12
11
43.4439051979
21
12
0
LINE
5
173
100
AcDbEntity
8
0
6
ByLayer
62
256
370
-1
100
AcDbLine
10
-37
20
8
11
-21
21
8
0
LINE
5
174
100
AcDbEntity
8
0
6
ByLayer
62
256
370
-1
100
AcDbLine
10
-21
20
8
11
-21
21
4
0
LINE
5
175
100
AcDbEntity
8
0
6
ByLayer
62
256
370
-1
100
AcDbLine
10
-21
20
4
11
-37
21
4
0
LINE
5
176
100
AcDbEntity
8
0
6
ByLayer
62
256
370
-1
100
AcDbLine
10
-37
20
4
11
-37
21
8
0
LINE
5
177
100
AcDbEntity
8
0
6
ByLayer
62
256
370
-1
100
AcDbLine
10
37
20
8
11
21
21
8
0
LINE
5
178
100
AcDbEntity
8
0
6
ByLayer
62
256
370
-1
100
AcDbLine
10
21
20
8
11
21
21
4
0
LINE
5
179
100
AcDbEntity
8
0
6
ByLayer
62
256
370
-1
100
AcDbLine
10
21
20
4
11
37
21
4
0
LINE
5
17A
100
AcDbEntity
8
0
6
ByLayer
62
256
370
-1
100
AcDbLine
10
37
20
4
11
37
21
8
0
LINE
5
17B
100
AcDbEntity
8
0
6
ByLayer
62
256
370
-1
100
AcDbLine
10
2
20
-70
11
-2
21
-70
0
LINE
5
17C
100
AcDbEntity
8
0
6
ByLayer
62
256
370
-1
100
AcDbLine
10
-2
20
-62
11
2
21
-62
0
LINE
5
17D
100
AcDbEntity
8
0
6
ByLayer
62
256
370
-1
100
AcDbLine
10
-2
20
-54
11
2
21
-54
0
LINE
5
17E
100
AcDbEntity
8
0
6
ByLayer
62
256
370
-1
100
AcDbLine
10
-2
20
-62
11
-2
21
-54
0
LINE
5
17F
100
AcDbEntity
8
0
6
ByLayer
62
256
370
-1
100
AcDbLine
10
2
20
-62
11
2
21
-54
0
LINE
5
180
100
AcDbEntity
8
0
6
ByLayer
62
256
370
-1
100
AcDbLine
10
-27.1801939437
20
-43.0866555061
11
-23.7160923285
21
-45.0866555061
0
LINE
5
181
100
AcDbEntity
8
0
6
ByLayer
62
256
370
-1
100
AcDbLine
10
-23.7160923285
20
-45.0866555061
11
-27.5402019891
21
-51.7102077319
0
LINE
5
182
100
AcDbEntity
8
0
6
ByLayer
62
256
370
-1
100
AcDbLine
10
-31.1801939437
20
-50.0148587364
11
-27.7160923285
21
-52.0148587364
0
LINE
5
183
100
AcDbEntity
8
0
6
ByLayer
62
256
370
-1
100
AcDbLine
10
-27.7160923285
20
-52.0148587364
11
-27.5402019891
21
-51.7102077319
0
LINE
5
184
100
AcDbEntity
8
0
6
ByLayer
62
256
370
-1
100
AcDbLine
10
-27.1801939437
20
-43.0866555061
11
-31.1842294871
21
-50.0218485026
0
LINE
5
185
100
AcDbEntity
8
0
6
ByLayer
62
256
370
-1
100
AcDbLine
10
40.0817657094
20
-47.4025520288
11
43.0308750566
21
-44.7001911984
0
LINE
5
186
100
AcDbEntity
8
0
6
ByLayer
62
256
370
-1
100
AcDbLine
10
61.7110133866
20
-6.86562592369
11
62.0258233282
21
-2.87803332907
0
LINE
5
187
100
AcDbEntity
8
0
6
ByLayer
62
256
370
-1
100
AcDbLine
10
62.0258233282
20
-2.87803332907
11
69.9478834523
21
-3.50345912834
0
LINE
5
188
100
AcDbEntity
8
0
6
ByLayer
62
256
370
-1
100
AcDbLine
10
61.7110133866
20
-6.86562592369
11
69.6330735107
21
-7.49105172296
0
LINE
5
189
100
AcDbEntity
8
0
6
ByLayer
62
256
370
-1
100
AcDbLine
10
43.0308750566
20
-44.7001911984
11
48.4195934556
21
-50.580945397
0
LINE
5
18A
100
AcDbEntity
8
0
6
ByLayer
62
256
370
-1
100
AcDbLine
10
40.0817657094
20
-47.4025520288
11
45.4512028661
21
-53.2622644439
0
ARC
5
18B
100
AcDbEntity
8
0
6
ByLayer
62
256
370
-1
100
AcDbCircle
10
0.025624064658
20
0.0104962388377
40
70.0105009281
100
AcDbArc
50
175.45826326
51
310.4541626
0
ARC
5
18C
100
AcDbEntity
8
0
6
ByLayer
62
256
370
-1
100
AcDbCircle
10
0.025624064658
20
0.0104962388377
40
70.0105009281
100
AcDbArc
50
313.728244836
51
353.849012103
0
ARC
5
18D
100
AcDbEntity
8
0
6
ByLayer
62
256
370
-1
100
AcDbCircle
10
0.025624064658
20
0.0104962388377
40
70.0105009281
100
AcDbArc
50
357.123010981
51
4.54173678922
0
ENDBLK
5
72
330
70
100
AcDbEntity
8
0
100
AcDbBlockEnd
0
BLOCK
5
74
330
73
100
AcDbEntity
8
0
100
AcDbBlockBegin
2
Kupplungsbolzen-Montageplatte
70
0
10
0
20
0
3
Kupplungsbolzen-Montageplatte
1

0
LINE
5
18E
100
AcDbEntity
8
0
6
ByLayer
62
256
370
-1
100
AcDbLine
10
60.9743759353
20
-10.0104962388
11
60.9743759353
21
-14.0104962388
0
LINE
5
18F
100
AcDbEntity
8
0
6
ByLayer
62
256
370
-1
100
AcDbLine
10
60.9743759353
20
-14.0104962388
11
44.9743759353
21
-14.0104962388
0
LINE
5
190
100
AcDbEntity
8
0
6
ByLayer
62
256
370
-1
100
AcDbLine
10
44.9743759353
20
-14.0104962388
11
44.9743759353
21
-10.0104962388
0
LINE
5
191
100
AcDbEntity
8
0
6
ByLayer
62
256
370
-1
100
AcDbLine
10
-61.0256240647
20
-10.0104962388
11
-61.0256240647
21
-14.0104962388
0
LINE
5
192
100
AcDbEntity
8
0
6
ByLayer
62
256
370
-1
100
AcDbLine
10
-61.0256240647
20
-14.0104962388
11
-45.0256240647
21
-14.0104962388
0
LINE
5
193
100
AcDbEntity
8
0
6
ByLayer
62
256
370
-1
100
AcDbLine
10
-45.0256240647
20
-14.0104962388
11
-45.0256240647
21
-10.0104962388
0
LINE
5
194
100
AcDbEntity
8
0
6
ByLayer
62
256
370
-1
100
AcDbLine
10
-21.0256240647
20
-10.0104962388
11
-21.0256240647
21
-14.0104962388
0
LINE
5
195
100
AcDbEntity
8
0
6
ByLayer
62
256
370
-1
100
AcDbLine
10
-21.0256240647
20
-14.0104962388
11
-37.0256240647
21
-14.0104962388
0
LINE
5
196
100
AcDbEntity
8
0
6
ByLayer
62
256
370
-1
100
AcDbLine
10
-37.0256240647
20
-14.0104962388
11
-37.0256240647
21
-10.0104962388
0
LINE
5
197
100
AcDbEntity
8
0
6
ByLayer
62
256
370
-1
100
AcDbLine
10
20.9743759353
20
-10.0104962388
11
20.9743759353
21
-14.0104962388
0
LINE
5
198
100
AcDbEntity
8
0
6
ByLayer
62
256
370
-1
100
AcDbLine
10
20.9743759353
20
-14.0104962388
11
36.9743759353
21
-14.0104962388
0
LINE
5
199
100
AcDbEntity
8
0
6
ByLayer
62
256
370
-1
100
AcDbLine
10
36.9743759353
20
-14.0104962388
11
36.9743759353
21
-10.0104962388
0
LINE
5
19A
100
AcDbEntity
8
0
6
ByLayer
62
256
370
-1
100
AcDbLine
10
65
20
-10
11
65
21
10
0
LINE
5
19B
100
AcDbEntity
8
0
6
ByLayer
62
256
370
-1
100
AcDbLine
10
-65
20
10
11
-65
21
-10
0
LINE
5
19C
100
AcDbEntity
8
0
6
ByLayer
62
256
370
-1
100
AcDbLine
10
44.9743759353
20
13.9895037612
11
60.9743759353
21
13.9895037612
0
LINE
5
19D
100
AcDbEntity
8
0
6
ByLayer
62
256
370
-1
100
AcDbLine
10
60.9743759353
20
13.9895037612
11
60.9743759353
21
9.98950376116
0
LINE
5
19E
100
AcDbEntity
8
0
6
ByLayer
62
256
370
-1
100
AcDbLine
10
44.9743759353
20
9.98950376116
11
44.9743759353
21
13.9895037612
0
LINE
5
19F
100
AcDbEntity
8
0
6
ByLayer
62
256
370
-1
100
AcDbLine
10
-45.0256240647
20
13.9895037612
11
-61.0256240647
21
13.9895037612
0
LINE
5
1A0
100
AcDbEntity
8
0
6
ByLayer
62
256
370
-1
100
AcDbLine
10
-61.0256240647
20
13.9895037612
11
-61.0256240647
21
9.98950376116
0
LINE
5
1A1
100
AcDbEntity
8
0
6
ByLayer
62
256
370
-1
100
AcDbLine
10
-45.0256240647
20
9.98950376116
11
-45.0256240647
21
13.9895037612
0
LINE
5
1A2
100
AcDbEntity
8
0
6
ByLayer
62
256
370
-1
100
AcDbLine
10
-37.0256240647
20
13.9895037612
11
-21.0256240647
21
13.9895037612
0
LINE
5
1A3
100
AcDbEntity
8
0
6
ByLayer
62
256
370
-1
100
AcDbLine
10
-21.0256240647
20
13.9895037612
11
-21.0256240647
21
9.98950376116
0
LINE
5
1A4
100
AcDbEntity
8
0
6
ByLayer
62
256
370
-1
100
AcDbLine
10
-37.0256240647
20
9.98950376116
11
-37.0256240647
21
13.9895037612
0
LINE
5
1A5
100
AcDbEntity
8
0
6
ByLayer
62
256
370
-1
100
AcDbLine
10
36.9743759353
20
13.9895037612
11
20.9743759353
21
13.9895037612
0
LINE
5
1A6
100
AcDbEntity
8
0
6
ByLayer
62
256
370
-1
100
AcDbLine
10
20.9743759353
20
13.9895037612
11
20.9743759353
21
9.98950376116
0
LINE
5
1A7
100
AcDbEntity
8
0
6
ByLayer
62
256
370
-1
100
AcDbLine
10
36.9743759353
20
9.98950376116
11
36.9743759353
21
13.9895037612
0
LINE
5
1A8
100
AcDbEntity
8
0
6
ByLayer
62
256
370
-1
100
AcDbLine
10
-65
20
10
11
-61.0256240647
21
9.98950376116
0
LINE
5
1A9
100
AcDbEntity
8
0
6
ByLayer
62
256
370
-1
100
AcDbLine
10
-45.0256240647
20
9.98950376116
11
-37.0256240647
21
9.98950376116
0
LINE
5
1AA
100
AcDbEntity
8
0
6
ByLayer
62
256
370
-1
100
AcDbLine
10
-21.0256240647
20
9.98950376116
11
20.9743759353
21
9.98950376116
0
LINE
5
1AB
100
AcDbEntity
8
0
6
ByLayer
62
256
370
-1
100
AcDbLine
10
36.9743759353
20
9.98950376116
11
44.9743759353
21
9.98950376116
0
LINE
5
1AC
100
AcDbEntity
8
0
6
ByLayer
62
256
370
-1
100
AcDbLine
10
60.9743759353
20
9.98950376116
11
65
21
10
0
LINE
5
1AD
100
AcDbEntity
8
0
6
ByLayer
62
256
370
-1
100
AcDbLine
10
-65
20
-10
11
-61.0256240647
21
-10.0104962388
0
LINE
5
1AE
100
AcDbEntity
8
0
6
ByLayer
62
256
370
-1
100
AcDbLine
10
-45.0256240647
20
-10.0104962388
11
-37.0256240647
21
-10.0104962388
0
LINE
5
1AF
100
AcDbEntity
8
0
6
ByLayer
62
256
370
-1
100
AcDbLine
10
-21.0256240647
20
-10.0104962388
11
20.9743759353
21
-10.0104962388
0
LINE
5
1B0
100
AcDbEntity
8
0
6
ByLayer
62
256
370
-1
100
AcDbLine
10
36.9743759353
20
-10.0104962388
11
44.9743759353
21
-10.0104962388
0
LINE
5
1B1
100
AcDbEntity
8
0
6
ByLayer
62
256
370
-1
100
AcDbLine
10
60.9743759353
20
-10.0104962388
11
65
21
-10
0
CIRCLE
5
1B2
100
AcDbEntity
8
0
6
ByLayer
62
256
370
-1
100
AcDbCircle
10
1.66533453694e-16
20
4.5
40
1.5
0
ENDBLK
5
75
330
73
100
AcDbEntity
8
0
100
AcDbBlockEnd
0
BLOCK
5
77
330
76
100
AcDbEntity
8
0
100
AcDbBlockBegin
2
Querträger-rechts-0-0
70
0
10
0
20
0
3
Querträger-rechts-0-0
1

0
LINE
5
1B3
100
AcDbEntity
8
0
6
ByLayer
62
256
370
-1
100
AcDbLine
10
29
20
-8
11
25
21
-8
0
LINE
5
1B4
100
AcDbEntity
8
0
6
ByLayer
62
256
370
-1
100
AcDbLine
10
25
20
-8
11
25
21
21
0
LINE
5
1B5
100
AcDbEntity
8
0
6
ByLayer
62
256
370
-1
100
AcDbLine
10
25
20
21
11
29
21
21
0
LINE
5
1B6
100
AcDbEntity
8
0
6
ByLayer
62
256
370
-1
100
AcDbLine
10
29
20
21
11
29
21
-8
0
LINE
5
1B7
100
AcDbEntity
8
0
6
ByLayer
62
256
370
-1
100
AcDbLine
10
48
20
8
11
29
21
8
0
LINE
5
1B8
100
AcDbEntity
8
0
6
ByLayer
62
256
370
-1
100
AcDbLine
10
29
20
8
11
29
21
4
0
LINE
5
1B9
100
AcDbEntity
8
0
6
ByLayer
62
256
370
-1
100
AcDbLine
10
29
20
4
11
48
21
4
0
LINE
5
1BA
100
AcDbEntity
8
0
6
ByLayer
62
256
370
-1
100
AcDbLine
10
48
20
4
11
48
21
8
0
ENDBLK
5
78
330
76
100
AcDbEntity
8
0
100
AcDbBlockEnd
0
BLOCK
5
7A
330
79
100
AcDbEntity
8
0
100
AcDbBlockBegin
2
Querträger-rechts-0-0-0
70
0
10
0
20
0
3
Querträger-rechts-0-0-0
1

0
LINE
5
1BB
100
AcDbEntity
8
0
6
ByLayer
62
256
370
-1
100
AcDbLine
10
29
20
-8
11
25
21
-8
0
LINE
5
1BC
100
AcDbEntity
8
0
6
ByLayer
62
256
370
-1
100
AcDbLine
10
25
20
-8
11
25
21
21
0
LINE
5
1BD
100
AcDbEntity
8
0
6
ByLayer
62
256
370
-1
100
AcDbLine
10
25
20
21
11
29
21
21
0
LINE
5
1BE
100
AcDbEntity
8
0
6
ByLayer
62
256
370
-1
100
AcDbLine
10
29
20
21
11
29
21
-8
0
LINE
5
1BF
100
AcDbEntity
8
0
6
ByLayer
62
256
370
-1
100
AcDbLine
10
48
20
8
11
29
21
8
0
LINE
5
1C0
100
AcDbEntity
8
0
6
ByLayer
62
256
370
-1
100
AcDbLine
10
29
20
8
11
29
21
4
0
LINE
5
1C1
100
AcDbEntity
8
0
6
ByLayer
62
256
370
-1
100
AcDbLine
10
29
20
4
11
48
21
4
0
LINE
5
1C2
100
AcDbEntity
8
0
6
ByLayer
62
256
370
-1
100
AcDbLine
10
48
20
4
11
48
21
8
0
ENDBLK
5
7B
330
79
100
AcDbEntity
8
0
100
AcDbBlockEnd
0
BLOCK
5
7D
330
7C
100
AcDbEntity
8
0
100
AcDbBlockBegin
2
Tor-Stringer
70
0
10
0
20
0
3
Tor-Stringer
1

0
LINE
5
1C3
100
AcDbEntity
8
0
6
ByLayer
62
256
370
-1
100
AcDbLine
10
4
20
-14
11
42.33
21
-14
0
LINE
5
1C4
100
AcDbEntity
8
0
6
ByLayer
62
256
370
-1
100
AcDbLine
10
46.33
20
-14
11
89.66
21
-14
0
LINE
5
1C5
100
AcDbEntity
8
0
6
ByLayer
62
256
370
-1
100
AcDbLine
10
93.66
20
-14
11
136.99
21
-14
0
LINE
5
1C6
100
AcDbEntity
8
0
6
ByLayer
62
256
370
-1
100
AcDbLine
10
140.99
20
-14
11
184.32
21
-14
0
LINE
5
1C7
100
AcDbEntity
8
0
6
ByLayer
62
256
370
-1
100
AcDbLine
10
188.32
20
-14
11
231.65
21
-14
0
LINE
5
1C8
100
AcDbEntity
8
0
6
ByLayer
62
256
370
-1
100
AcDbLine
10
235.65
20
-14
11
273.98
21
-14
0
LINE
5
1C9
100
AcDbEntity
8
0
6
ByLayer
62
256
370
-1
100
AcDbLine
10
0
20
-6
11
4
21
-6
0
LINE
5
1CA
100
AcDbEntity
8
0
6
ByLayer
62
256
370
-1
100
AcDbLine
10
42.33
20
-6
11
46.33
21
-6
0
LINE
5
1CB
100
AcDbEntity
8
0
6
ByLayer
62
256
370
-1
100
AcDbLine
10
89.66
20
-6
11
93.66
21
-6
0
LINE
5
1CC
100
AcDbEntity
8
0
6
ByLayer
62
256
370
-1
100
AcDbLine
10
136.99
20
-6
11
140.99
21
-6
0
LINE
5
1CD
100
AcDbEntity
8
0
6
ByLayer
62
256
370
-1
100
AcDbLine
10
184.32
20
-6
11
188.32
21
-6
0
LINE
5
1CE
100
AcDbEntity
8
0
6
ByLayer
62
256
370
-1
100
AcDbLine
10
231.65
20
-6
11
235.65
21
-6
0
LINE
5
1CF
100
AcDbEntity
8
0
6
ByLayer
62
256
370
-1
100
AcDbLine
10
273.98
20
-6
11
277.98
21
-6
0
LINE
5
1D0
100
AcDbEntity
8
0
6
ByLayer
62
256
370
-1
100
AcDbLine
10
4
20
-14
11
4
21
-6
0
LINE
5
1D1
100
AcDbEntity
8
0
6
ByLayer
62
256
370
-1
100
AcDbLine
10
42.33
20
-14
11
42.33
21
-6
0
LINE
5
1D2
100
AcDbEntity
8
0
6
ByLayer
62
256
370
-1
100
AcDbLine
10
46.33
20
-14
11
46.33
21
-6
0
LINE
5
1D3
100
AcDbEntity
8
0
6
ByLayer
62
256
370
-1
100
AcDbLine
10
89.66
20
-14
11
89.66
21
-6
0
LINE
5
1D4
100
AcDbEntity
8
0
6
ByLayer
62
256
370
-1
100
AcDbLine
10
93.66
20
-14
11
93.66
21
-6
0
LINE
5
1D5
100
AcDbEntity
8
0
6
ByLayer
62
256
370
-1
100
AcDbLine
10
136.99
20
-14
11
136.99
21
-6
0
LINE
5
1D6
100
AcDbEntity
8
0
6
ByLayer
62
256
370
-1
100
AcDbLine
10
140.99
20
-14
11
140.99
21
-6
0
LINE
5
1D7
100
AcDbEntity
8
0
6
ByLayer
62
256
370
-1
100
AcDbLine
10
184.32
20
-14
11
184.32
21
-6
0
LINE
5
1D8
100
AcDbEntity
8
0
6
ByLayer
62
256
370
-1
100
AcDbLine
10
188.32
20
-14
11
188.32
21
-6
0
LINE
5
1D9
100
AcDbEntity
8
0
6
ByLayer
62
256
370
-1
100
AcDbLine
10
231.65
20
-14
11
231.65
21
-6
0
LINE
5
1DA
100
AcDbEntity
8
0
6
ByLayer
62
256
370
-1
100
AcDbLine
10
235.65
20
-14
11
235.65
21
-6
0
LINE
5
1DB
100
AcDbEntity
8
0
6
ByLayer
62
256
370
-1
100
AcDbLine
10
273.98
20
-14
11
273.98
21
-6
0
LINE
5
1DC
100
AcDbEntity
8
0
6
ByLayer
62
256
370
-1
100
AcDbLine
10
277.98
20
-6
11
277.98
21
0
0
LINE
5
1DD
100
AcDbEntity
8
0
6
ByLayer
62
256
370
-1
100
AcDbLine
10
0
20
0
11
277.98
21
0
0
LINE
5
1DE
100
AcDbEntity
8
0
6
ByLayer
62
256
370
-1
100
AcDbLine
10
0
20
0
11
0
21
-6
0
ENDBLK
5
7E
330
7C
100
AcDbEntity
8
0
100
AcDbBlockEnd
0
BLOCK
5
80
330
7F
100
AcDbEntity
8
0
100
AcDbBlockBegin
2
Stringer-Flaschenträger
70
0
10
0
20
0
3
Stringer-Flaschenträger
1

0
LINE
5
1DF
100
AcDbEntity
8
0
6
ByLayer
62
256
370
-1
100
AcDbLine
10
0
20
0
11
4
21
0
0
LINE
5
1E0
100
AcDbEntity
8
0
6
ByLayer
62
256
370
-1
100
AcDbLine
10
24
20
0
11
28
21
0
0
LINE
5
1E1
100
AcDbEntity
8
0
6
ByLayer
62
256
370
-1
100
AcDbLine
10
75.33
20
0
11
71.33
21
0
0
LINE
5
1E2
100
AcDbEntity
8
0
6
ByLayer
62
256
370
-1
100
AcDbLine
10
122.66
20
0
11
118.66
21
0
0
LINE
5
1E3
100
AcDbEntity
8
0
6
ByLayer
62
256
370
-1
100
AcDbLine
10
169.99
20
-4.26325641456e-14
11
165.99
21
-4.26325641456e-14
0
LINE
5
1E4
100
AcDbEntity
8
0
6
ByLayer
62
256
370
-1
100
AcDbLine
10
217.32
20
-5.68434188608e-14
11
213.32
21
-5.68434188608e-14
0
LINE
5
1E5
100
AcDbEntity
8
0
6
ByLayer
62
256
370
-1
100
AcDbLine
10
264.65
20
-7.1054273576e-14
11
260.65
21
-7.1054273576e-14
0
LINE
5
1E6
100
AcDbEntity
8
0
6
ByLayer
62
256
370
-1
100
AcDbLine
10
311.98
20
-8.52651282912e-14
11
307.98
21
-8.52651282912e-14
0
LINE
5
1E7
100
AcDbEntity
8
0
6
ByLayer
62
256
370
-1
100
AcDbLine
10
335.98
20
-8.52651282912e-14
11
331.98
21
-8.52651282912e-14
0
LINE
5
1E8
100
AcDbEntity
8
0
6
ByLayer
62
256
370
-1
100
AcDbLine
10
0
20
-8
11
4
21
-8
0
LINE
5
1E9
100
AcDbEntity
8
0
6
ByLayer
62
256
370
-1
100
AcDbLine
10
335.98
20
-8
11
331.98
21
-8
0
LINE
5
1EA
100
AcDbEntity
8
0
6
ByLayer
62
256
370
-1
100
AcDbLine
10
335.98
20
-8
11
0
21
-8
0
LINE
5
1EB
100
AcDbEntity
8
0
6
ByLayer
62
256
370
-1
100
AcDbLine
10
4
20
0
11
4
21
15.8
0
LINE
5
1EC
100
AcDbEntity
8
0
6
ByLayer
62
256
370
-1
100
AcDbLine
10
24
20
0
11
24
21
15.8
0
LINE
5
1ED
100
AcDbEntity
8
0
6
ByLayer
62
256
370
-1
100
AcDbLine
10
28
20
0
11
28
21
15.8
0
LINE
5
1EE
100
AcDbEntity
8
0
6
ByLayer
62
256
370
-1
100
AcDbLine
10
71.33
20
0
11
71.33
21
15.8
0
LINE
5
1EF
100
AcDbEntity
8
0
6
ByLayer
62
256
370
-1
100
AcDbLine
10
75.33
20
0
11
75.33
21
15.8
0
LINE
5
1F0
100
AcDbEntity
8
0
6
ByLayer
62
256
370
-1
100
AcDbLine
10
118.66
20
0
11
118.66
21
15.8
0
LINE
5
1F1
100
AcDbEntity
8
0
6
ByLayer
62
256
370
-1
100
AcDbLine
10
122.66
20
0
11
122.66
21
15.8
0
LINE
5
1F2
100
AcDbEntity
8
0
6
ByLayer
62
256
370
-1
100
AcDbLine
10
165.99
20
-4.26325641456e-14
11
165.99
21
15.8
0
LINE
5
1F3
100
AcDbEntity
8
0
6
ByLayer
62
256
370
-1
100
AcDbLine
10
169.99
20
-4.26325641456e-14
11
169.99
21
15.8
0
LINE
5
1F4
100
AcDbEntity
8
0
6
ByLayer
62
256
370
-1
100
AcDbLine
10
213.32
20
-5.68434188608e-14
11
213.32
21
15.8
0
LINE
5
1F5
100
AcDbEntity
8
0
6
ByLayer
62
256
370
-1
100
AcDbLine
10
217.32
20
-5.68434188608e-14
11
217.32
21
15.8
0
LINE
5
1F6
100
AcDbEntity
8
0
6
ByLayer
62
256
370
-1
100
AcDbLine
10
260.65
20
-7.1054273576e-14
11
260.65
21
15.8
0
LINE
5
1F7
100
AcDbEntity
8
0
6
ByLayer
62
256
370
-1
100
AcDbLine
10
264.65
20
-7.1054273576e-14
11
264.65
21
15.8
0
LINE
5
1F8
100
AcDbEntity
8
0
6
ByLayer
62
256
370
-1
100
AcDbLine
10
307.98
20
-8.52651282912e-14
11
307.98
21
15.8
0
LINE
5
1F9
100
AcDbEntity
8
0
6
ByLayer
62
256
370
-1
100
AcDbLine
10
311.98
20
-8.52651282912e-14
11
311.98
21
15.8
0
LINE
5
1FA
100
AcDbEntity
8
0
6
ByLayer
62
256
370
-1
100
AcDbLine
10
331.98
20
-8.52651282912e-14
11
331.98
21
15.8
0
LINE
5
1FB
100
AcDbEntity
8
0
6
ByLayer
62
256
370
-1
100
AcDbLine
10
331.98
20
15.8
11
311.98
21
15.8
0
LINE
5
1FC
100
AcDbEntity
8
0
6
ByLayer
62
256
370
-1
100
AcDbLine
10
307.98
20
15.8
11
264.65
21
15.8
0
LINE
5
1FD
100
AcDbEntity
8
0
6
ByLayer
62
256
370
-1
100
AcDbLine
10
260.65
20
15.8
11
217.32
21
15.8
0
LINE
5
1FE
100
AcDbEntity
8
0
6
ByLayer
62
256
370
-1
100
AcDbLine
10
213.32
20
15.8
11
169.99
21
15.8
0
LINE
5
1FF
100
AcDbEntity
8
0
6
ByLayer
62
256
370
-1
100
AcDbLine
10
165.99
20
15.8
11
122.66
21
15.8
0
LINE
5
200
100
AcDbEntity
8
0
6
ByLayer
62
256
370
-1
100
AcDbLine
10
118.66
20
15.8
11
75.33
21
15.8
0
LINE
5
201
100
AcDbEntity
8
0
6
ByLayer
62
256
370
-1
100
AcDbLine
10
71.33
20
15.8
11
28
21
15.8
0
LINE
5
202
100
AcDbEntity
8
0
6
ByLayer
62
256
370
-1
100
AcDbLine
10
24
20
15.8
11
4
21
15.8
0
LINE
5
203
100
AcDbEntity
8
0
6
ByLayer
62
256
370
-1
100
AcDbLine
10
0
20
0
11
0
21
-8
0
LINE
5
204
100
AcDbEntity
8
0
6
ByLayer
62
256
370
-1
100
AcDbLine
10
335.98
20
-8.52651282912e-14
11
335.98
21
-8
0
LINE
5
205
100
AcDbEntity
8
0
6
ByLayer
62
256
370
-1
100
AcDbLine
10
-1.42108547152e-14
20
-16
11
4
21
-16
0
LINE
5
206
100
AcDbEntity
8
0
6
ByLayer
62
256
370
-1
100
AcDbLine
10
24
20
-16
11
28
21
-16
0
LINE
5
207
100
AcDbEntity
8
0
6
ByLayer
62
256
370
-1
100
AcDbLine
10
75.33
20
-16
11
71.33
21
-16
0
LINE
5
208
100
AcDbEntity
8
0
6
ByLayer
62
256
370
-1
100
AcDbLine
10
122.66
20
-16
11
118.66
21
-16
0
LINE
5
209
100
AcDbEntity
8
0
6
ByLayer
62
256
370
-1
100
AcDbLine
10
169.99
20
-16
11
165.99
21
-16
0
LINE
5
20A
100
AcDbEntity
8
0
6
ByLayer
62
256
370
-1
100
AcDbLine
10
217.32
20
-16
11
213.32
21
-16
0
LINE
5
20B
100
AcDbEntity
8
0
6
ByLayer
62
256
370
-1
100
AcDbLine
10
264.65
20
-16
11
260.65
21
-16
0
LINE
5
20C
100
AcDbEntity
8
0
6
ByLayer
62
256
370
-1
100
AcDbLine
10
311.98
20
-16
11
307.98
21
-16
0
LINE
5
20D
100
AcDbEntity
8
0
6
ByLayer
62
256
370
-1
100
AcDbLine
10
335.98
20
-16
11
331.98
21
-16
0
LINE
5
20E
100
AcDbEntity
8
0
6
ByLayer
62
256
370
-1
100
AcDbLine
10
331.98
20
-26
11
335.98
21
-26
0
LINE
5
20F
100
AcDbEntity
8
0
6
ByLayer
62
256
370
-1
100
AcDbLine
10
4
20
-26
11
0
21
-26
0
LINE
5
210
100
AcDbEntity
8
0
6
ByLayer
62
256
370
-1
100
AcDbLine
10
0
20
-26
11
335.98
21
-26
0
LINE
5
211
100
AcDbEntity
8
0
6
ByLayer
62
256
370
-1
100
AcDbLine
10
4
20
-16
11
4
21
-9.3
0
LINE
5
212
100
AcDbEntity
8
0
6
ByLayer
62
256
370
-1
100
AcDbLine
10
24
20
-16
11
24
21
-9.3
0
LINE
5
213
100
AcDbEntity
8
0
6
ByLayer
62
256
370
-1
100
AcDbLine
10
28
20
-16
11
28
21
-9.3
0
LINE
5
214
100
AcDbEntity
8
0
6
ByLayer
62
256
370
-1
100
AcDbLine
10
71.33
20
-16
11
71.33
21
-9.3
0
LINE
5
215
100
AcDbEntity
8
0
6
ByLayer
62
256
370
-1
100
AcDbLine
10
75.33
20
-16
11
75.33
21
-9.3
0
LINE
5
216
100
AcDbEntity
8
0
6
ByLayer
62
256
370
-1
100
AcDbLine
10
118.66
20
-16
11
118.66
21
-9.3
0
LINE
5
217
100
AcDbEntity
8
0
6
ByLayer
62
256
370
-1
100
AcDbLine
10
122.66
20
-16
11
122.66
21
-9.3
0
LINE
5
218
100
AcDbEntity
8
0
6
ByLayer
62
256
370
-1
100
AcDbLine
10
165.99
20
-16
11
165.99
21
-9.3
0
LINE
5
219
100
AcDbEntity
8
0
6
ByLayer
62
256
370
-1
100
AcDbLine
10
169.99
20
-16
11
169.99
21
-9.3
0
LINE
5
21A
100
AcDbEntity
8
0
6
ByLayer
62
256
370
-1
100
AcDbLine
10
213.32
20
-16
11
213.32
21
-9.3
0
LINE
5
21B
100
AcDbEntity
8
0
6
ByLayer
62
256
370
-1
100
AcDbLine
10
217.32
20
-16
11
217.32
21
-9.3
0
LINE
5
21C
100
AcDbEntity
8
0
6
ByLayer
62
256
370
-1
100
AcDbLine
10
260.65
20
-16
11
260.65
21
-9.3
0
LINE
5
21D
100
AcDbEntity
8
0
6
ByLayer
62
256
370
-1
100
AcDbLine
10
264.65
20
-16
11
264.65
21
-9.3
0
LINE
5
21E
100
AcDbEntity
8
0
6
ByLayer
62
256
370
-1
100
AcDbLine
10
307.98
20
-16
11
307.98
21
-9.3
0
LINE
5
21F
100
AcDbEntity
8
0
6
ByLayer
62
256
370
-1
100
AcDbLine
10
311.98
20
-16
11
311.98
21
-9.3
0
LINE
5
220
100
AcDbEntity
8
0
6
ByLayer
62
256
370
-1
100
AcDbLine
10
331.98
20
-16
11
331.98
21
-9.3
0
LINE
5
221
100
AcDbEntity
8
0
6
ByLayer
62
256
370
-1
100
AcDbLine
10
331.98
20
-9.3
11
311.98
21
-9.3
0
LINE
5
222
100
AcDbEntity
8
0
6
ByLayer
62
256
370
-1
100
AcDbLine
10
307.98
20
-9.3
11
264.65
21
-9.3
0
LINE
5
223
100
AcDbEntity
8
0
6
ByLayer
62
256
370
-1
100
AcDbLine
10
260.65
20
-9.3
11
217.32
21
-9.3
0
LINE
5
224
100
AcDbEntity
8
0
6
ByLayer
62
256
370
-1
100
AcDbLine
10
213.32
20
-9.3
11
169.99
21
-9.3
0
LINE
5
225
100
AcDbEntity
8
0
6
ByLayer
62
256
370
-1
100
AcDbLine
10
165.99
20
-9.3
11
122.66
21
-9.3
0
LINE
5
226
100
AcDbEntity
8
0
6
ByLayer
62
256
370
-1
100
AcDbLine
10
118.66
20
-9.3
11
75.33
21
-9.3
0
LINE
5
227
100
AcDbEntity
8
0
6
ByLayer
62
256
370
-1
100
AcDbLine
10
71.33
20
-9.3
11
28
21
-9.3
0
LINE
5
228
100
AcDbEntity
8
0
6
ByLayer
62
256
370
-1
100
AcDbLine
10
24
20
-9.3
11
4
21
-9.3
0
LINE
5
229
100
AcDbEntity
8
0
6
ByLayer
62
256
370
-1
100
AcDbLine
10
335.98
20
-16
11
335.98
21
-26
0
LINE
5
22A
100
AcDbEntity
8
0
6
ByLayer
62
256
370
-1
100
AcDbLine
10
-1.42108547152e-14
20
-16
11
0
21
-26
0
ENDBLK
5
81
330
7F
100
AcDbEntity
8
0
100
AcDbBlockEnd
0
BLOCK
5
83
330
82
100
AcDbEntity
8
0
100
AcDbBlockBegin
2
Stringer-Kiel
70
0
10
0
20
0
3
Stringer-Kiel
1

0
LINE
5
22B
100
AcDbEntity
8
0
6
ByLayer
62
256
370
-1
100
AcDbLine
10
28
20
-16
11
71.33
21
-16
0
LINE
5
22C
100
AcDbEntity
8
0
6
ByLayer
62
256
370
-1
100
AcDbLine
10
75.33
20
-16
11
118.66
21
-16
0
LINE
5
22D
100
AcDbEntity
8
0
6
ByLayer
62
256
370
-1
100
AcDbLine
10
122.66
20
-16
11
165.99
21
-16
0
LINE
5
22E
100
AcDbEntity
8
0
6
ByLayer
62
256
370
-1
100
AcDbLine
10
169.99
20
-16
11
213.32
21
-16
0
LINE
5
22F
100
AcDbEntity
8
0
6
ByLayer
62
256
370
-1
100
AcDbLine
10
217.32
20
-16
11
260.65
21
-16
0
LINE
5
230
100
AcDbEntity
8
0
6
ByLayer
62
256
370
-1
100
AcDbLine
10
264.65
20
-16
11
307.98
21
-16
0
LINE
5
231
100
AcDbEntity
8
0
6
ByLayer
62
256
370
-1
100
AcDbLine
10
24
20
-12
11
28
21
-12
0
LINE
5
232
100
AcDbEntity
8
0
6
ByLayer
62
256
370
-1
100
AcDbLine
10
71.33
20
-12
11
75.33
21
-12
0
LINE
5
233
100
AcDbEntity
8
0
6
ByLayer
62
256
370
-1
100
AcDbLine
10
118.66
20
-12
11
122.66
21
-12
0
LINE
5
234
100
AcDbEntity
8
0
6
ByLayer
62
256
370
-1
100
AcDbLine
10
165.99
20
-12
11
169.99
21
-12
0
LINE
5
235
100
AcDbEntity
8
0
6
ByLayer
62
256
370
-1
100
AcDbLine
10
213.32
20
-12
11
217.32
21
-12
0
LINE
5
236
100
AcDbEntity
8
0
6
ByLayer
62
256
370
-1
100
AcDbLine
10
260.65
20
-12
11
264.65
21
-12
0
LINE
5
237
100
AcDbEntity
8
0
6
ByLayer
62
256
370
-1
100
AcDbLine
10
307.98
20
-12
11
311.98
21
-12
0
LINE
5
238
100
AcDbEntity
8
0
6
ByLayer
62
256
370
-1
100
AcDbLine
10
24
20
-12
11
24
21
-16
0
LINE
5
239
100
AcDbEntity
8
0
6
ByLayer
62
256
370
-1
100
AcDbLine
10
28
20
-12
11
28
21
-16
0
LINE
5
23A
100
AcDbEntity
8
0
6
ByLayer
62
256
370
-1
100
AcDbLine
10
71.33
20
-12
11
71.33
21
-16
0
LINE
5
23B
100
AcDbEntity
8
0
6
ByLayer
62
256
370
-1
100
AcDbLine
10
75.33
20
-12
11
75.33
21
-16
0
LINE
5
23C
100
AcDbEntity
8
0
6
ByLayer
62
256
370
-1
100
AcDbLine
10
118.66
20
-12
11
118.66
21
-16
0
LINE
5
23D
100
AcDbEntity
8
0
6
ByLayer
62
256
370
-1
100
AcDbLine
10
122.66
20
-12
11
122.66
21
-16
0
LINE
5
23E
100
AcDbEntity
8
0
6
ByLayer
62
256
370
-1
100
AcDbLine
10
165.99
20
-12
11
165.99
21
-16
0
LINE
5
23F
100
AcDbEntity
8
0
6
ByLayer
62
256
370
-1
100
AcDbLine
10
169.99
20
-12
11
169.99
21
-16
0
LINE
5
240
100
AcDbEntity
8
0
6
ByLayer
62
256
370
-1
100
AcDbLine
10
213.32
20
-12
11
213.32
21
-16
0
LINE
5
241
100
AcDbEntity
8
0
6
ByLayer
62
256
370
-1
100
AcDbLine
10
217.32
20
-12
11
217.32
21
-16
0
LINE
5
242
100
AcDbEntity
8
0
6
ByLayer
62
256
370
-1
100
AcDbLine
10
260.65
20
-12
11
260.65
21
-16
0
LINE
5
243
100
AcDbEntity
8
0
6
ByLayer
62
256
370
-1
100
AcDbLine
10
264.65
20
-12
11
264.65
21
-16
0
LINE
5
244
100
AcDbEntity
8
0
6
ByLayer
62
256
370
-1
100
AcDbLine
10
307.98
20
-12
11
307.98
21
-16
0
LINE
5
245
100
AcDbEntity
8
0
6
ByLayer
62
256
370
-1
100
AcDbLine
10
311.98
20
-12
11
311.98
21
-16
0
LINE
5
246
100
AcDbEntity
8
0
6
ByLayer
62
256
370
-1
100
AcDbLine
10
4
20
-8
11
4
21
-16
0
LINE
5
247
100
AcDbEntity
8
0
6
ByLayer
62
256
370
-1
100
AcDbLine
10
4
20
-8
11
0
21
-8
0
LINE
5
248
100
AcDbEntity
8
0
6
ByLayer
62
256
370
-1
100
AcDbLine
10
4
20
-16
11
24
21
-16
0
LINE
5
249
100
AcDbEntity
8
0
6
ByLayer
62
256
370
-1
100
AcDbLine
10
4
20
0
11
0
21
0
0
LINE
5
24A
100
AcDbEntity
8
0
6
ByLayer
62
256
370
-1
100
AcDbLine
10
4
20
8
11
24
21
8
0
LINE
5
24B
100
AcDbEntity
8
0
6
ByLayer
62
256
370
-1
100
AcDbLine
10
24
20
8
11
28
21
8
0
LINE
5
24C
100
AcDbEntity
8
0
6
ByLayer
62
256
370
-1
100
AcDbLine
10
28
20
-1
11
28
21
8
0
ARC
5
24D
100
AcDbEntity
8
0
6
ByLayer
62
256
370
-1
100
AcDbCircle
10
35
20
-1
40
7
100
AcDbArc
50
180
51
270
0
LINE
5
24E
100
AcDbEntity
8
0
6
ByLayer
62
256
370
-1
100
AcDbLine
10
0
20
0
11
0
21
-8
0
LINE
5
24F
100
AcDbEntity
8
0
6
ByLayer
62
256
370
-1
100
AcDbLine
10
4
20
8
11
4
21
0
0
LINE
5
250
100
AcDbEntity
8
0
6
ByLayer
62
256
370
-1
100
AcDbLine
10
331.98
20
-8
11
331.98
21
-16
0
LINE
5
251
100
AcDbEntity
8
0
6
ByLayer
62
256
370
-1
100
AcDbLine
10
331.98
20
-8
11
335.98
21
-8
0
LINE
5
252
100
AcDbEntity
8
0
6
ByLayer
62
256
370
-1
100
AcDbLine
10
331.98
20
-16
11
311.98
21
-16
0
LINE
5
253
100
AcDbEntity
8
0
6
ByLayer
62
256
370
-1
100
AcDbLine
10
331.98
20
0
11
335.98
21
0
0
LINE
5
254
100
AcDbEntity
8
0
6
ByLayer
62
256
370
-1
100
AcDbLine
10
331.98
20
8
11
311.98
21
8
0
LINE
5
255
100
AcDbEntity
8
0
6
ByLayer
62
256
370
-1
100
AcDbLine
10
311.98
20
8
11
307.98
21
8
0
LINE
5
256
100
AcDbEntity
8
0
6
ByLayer
62
256
370
-1
100
AcDbLine
10
307.98
20
-1
11
307.98
21
8
0
ARC
5
257
100
AcDbEntity
8
0
6
ByLayer
62
256
370
-1
100
AcDbCircle
10
300.98
20
-1
40
7
100
AcDbArc
50
270
51
360
0
LINE
5
258
100
AcDbEntity
8
0
6
ByLayer
62
256
370
-1
100
AcDbLine
10
335.98
20
0
11
335.98
21
-8
0
LINE
5
259
100
AcDbEntity
8
0
6
ByLayer
62
256
370
-1
100
AcDbLine
10
331.98
20
8
11
331.98
21
0
0
LINE
5
25A
100
AcDbEntity
8
0
6
ByLayer
62
256
370
-1
100
AcDbLine
10
311.98
20
-16
11
331.98
21
-16
0
LINE
5
25B
100
AcDbEntity
8
0
6
ByLayer
62
256
370
-1
100
AcDbLine
10
300.979992371
20
-8
11
35
21
-8
0
LINE
5
25C
100
AcDbEntity
8
0
6
ByLayer
62
256
370
-1
100
AcDbLine
10
24
20
-42
11
28
21
-42
0
LINE
5
25D
100
AcDbEntity
8
0
6
ByLayer
62
256
370
-1
100
AcDbLine
10
71.33
20
-42
11
75.33
21
-42
0
LINE
5
25E
100
AcDbEntity
8
0
6
ByLayer
62
256
370
-1
100
AcDbLine
10
118.66
20
-42
11
122.66
21
-42
0
LINE
5
25F
100
AcDbEntity
8
0
6
ByLayer
62
256
370
-1
100
AcDbLine
10
165.99
20
-42
11
169.99
21
-42
0
LINE
5
260
100
AcDbEntity
8
0
6
ByLayer
62
256
370
-1
100
AcDbLine
10
213.32
20
-42
11
217.32
21
-42
0
LINE
5
261
100
AcDbEntity
8
0
6
ByLayer
62
256
370
-1
100
AcDbLine
10
260.65
20
-42
11
264.65
21
-42
0
LINE
5
262
100
AcDbEntity
8
0
6
ByLayer
62
256
370
-1
100
AcDbLine
10
307.98
20
-42
11
311.98
21
-42
0
LINE
5
263
100
AcDbEntity
8
0
6
ByLayer
62
256
370
-1
100
AcDbLine
10
24
20
-42
11
24
21
-46
0
LINE
5
264
100
AcDbEntity
8
0
6
ByLayer
62
256
370
-1
100
AcDbLine
10
28
20
-42
11
28
21
-46
0
LINE
5
265
100
AcDbEntity
8
0
6
ByLayer
62
256
370
-1
100
AcDbLine
10
71.33
20
-42
11
71.33
21
-46
0
LINE
5
266
100
AcDbEntity
8
0
6
ByLayer
62
256
370
-1
100
AcDbLine
10
75.33
20
-42
11
75.33
21
-46
0
LINE
5
267
100
AcDbEntity
8
0
6
ByLayer
62
256
370
-1
100
AcDbLine
10
118.66
20
-42
11
118.66
21
-46
0
LINE
5
268
100
AcDbEntity
8
0
6
ByLayer
62
256
370
-1
100
AcDbLine
10
122.66
20
-42
11
122.66
21
-46
0
LINE
5
269
100
AcDbEntity
8
0
6
ByLayer
62
256
370
-1
100
AcDbLine
10
165.99
20
-42
11
165.99
21
-46
0
LINE
5
26A
100
AcDbEntity
8
0
6
ByLayer
62
256
370
-1
100
AcDbLine
10
169.99
20
-42
11
169.99
21
-46
0
LINE
5
26B
100
AcDbEntity
8
0
6
ByLayer
62
256
370
-1
100
AcDbLine
10
213.32
20
-42
11
213.32
21
-46
0
LINE
5
26C
100
AcDbEntity
8
0
6
ByLayer
62
256
370
-1
100
AcDbLine
10
217.32
20
-42
11
217.32
21
-46
0
LINE
5
26D
100
AcDbEntity
8
0
6
ByLayer
62
256
370
-1
100
AcDbLine
10
260.65
20
-42
11
260.65
21
-46
0
LINE
5
26E
100
AcDbEntity
8
0
6
ByLayer
62
256
370
-1
100
AcDbLine
10
264.65
20
-42
11
264.65
21
-46
0
LINE
5
26F
100
AcDbEntity
8
0
6
ByLayer
62
256
370
-1
100
AcDbLine
10
307.98
20
-42
11
307.98
21
-46
0
LINE
5
270
100
AcDbEntity
8
0
6
ByLayer
62
256
370
-1
100
AcDbLine
10
311.98
20
-42
11
311.98
21
-46
0
LINE
5
271
100
AcDbEntity
8
0
6
ByLayer
62
256
370
-1
100
AcDbLine
10
4
20
-38
11
4
21
-46
0
LINE
5
272
100
AcDbEntity
8
0
6
ByLayer
62
256
370
-1
100
AcDbLine
10
4
20
-38
11
0
21
-38
0
LINE
5
273
100
AcDbEntity
8
0
6
ByLayer
62
256
370
-1
100
AcDbLine
10
4
20
-30
11
0
21
-30
0
LINE
5
274
100
AcDbEntity
8
0
6
ByLayer
62
256
370
-1
100
AcDbLine
10
4
20
-22
11
24
21
-22
0
LINE
5
275
100
AcDbEntity
8
0
6
ByLayer
62
256
370
-1
100
AcDbLine
10
24
20
-22
11
28
21
-22
0
LINE
5
276
100
AcDbEntity
8
0
6
ByLayer
62
256
370
-1
100
AcDbLine
10
28
20
-31
11
28
21
-22
0
ARC
5
277
100
AcDbEntity
8
0
6
ByLayer
62
256
370
-1
100
AcDbCircle
10
35
20
-31
40
7
100
AcDbArc
50
180
51
270
0
LINE
5
278
100
AcDbEntity
8
0
6
ByLayer
62
256
370
-1
100
AcDbLine
10
0
20
-30
11
0
21
-38
0
LINE
5
279
100
AcDbEntity
8
0
6
ByLayer
62
256
370
-1
100
AcDbLine
10
4
20
-22
11
4
21
-30
0
LINE
5
27A
100
AcDbEntity
8
0
6
ByLayer
62
256
370
-1
100
AcDbLine
10
331.98
20
-38
11
331.98
21
-46
0
LINE
5
27B
100
AcDbEntity
8
0
6
ByLayer
62
256
370
-1
100
AcDbLine
10
331.98
20
-38
11
335.98
21
-38
0
LINE
5
27C
100
AcDbEntity
8
0
6
ByLayer
62
256
370
-1
100
AcDbLine
10
331.98
20
-30
11
335.98
21
-30
0
LINE
5
27D
100
AcDbEntity
8
0
6
ByLayer
62
256
370
-1
100
AcDbLine
10
331.98
20
-22
11
311.98
21
-22
0
LINE
5
27E
100
AcDbEntity
8
0
6
ByLayer
62
256
370
-1
100
AcDbLine
10
311.98
20
-22
11
307.98
21
-22
0
LINE
5
27F
100
AcDbEntity
8
0
6
ByLayer
62
256
370
-1
100
AcDbLine
10
307.98
20
-31
11
307.98
21
-22
0
ARC
5
280
100
AcDbEntity
8
0
6
ByLayer
62
256
370
-1
100
AcDbCircle
10
300.98
20
-31
40
7
100
AcDbArc
50
270
51
360
0
LINE
5
281
100
AcDbEntity
8
0
6
ByLayer
62
256
370
-1
100
AcDbLine
10
335.98
20
-30
11
335.98
21
-38
0
LINE
5
282
100
AcDbEntity
8
0
6
ByLayer
62
256
370
-1
100
AcDbLine
10
331.98
20
-22
11
331.98
21
-30
0
LINE
5
283
100
AcDbEntity
8
0
6
ByLayer
62
256
370
-1
100
AcDbLine
10
300.979992371
20
-38
11
35
21
-38
0
LINE
5
284
100
AcDbEntity
8
0
6
ByLayer
62
256
370
-1
100
AcDbLine
10
4
20
-49
11
24
21
-49
0
LINE
5
285
100
AcDbEntity
8
0
6
ByLayer
62
256
370
-1
100
AcDbLine
10
28
20
-49
11
71.33
21
-49
0
LINE
5
286
100
AcDbEntity
8
0
6
ByLayer
62
256
370
-1
100
AcDbLine
10
75.33
20
-49
11
118.66
21
-49
0
LINE
5
287
100
AcDbEntity
8
0
6
ByLayer
62
256
370
-1
100
AcDbLine
10
122.66
20
-49
11
165.99
21
-49
0
LINE
5
288
100
AcDbEntity
8
0
6
ByLayer
62
256
370
-1
100
AcDbLine
10
169.99
20
-49
11
213.32
21
-49
0
LINE
5
289
100
AcDbEntity
8
0
6
ByLayer
62
256
370
-1
100
AcDbLine
10
217.32
20
-49
11
260.65
21
-49
0
LINE
5
28A
100
AcDbEntity
8
0
6
ByLayer
62
256
370
-1
100
AcDbLine
10
264.65
20
-49
11
307.98
21
-49
0
LINE
5
28B
100
AcDbEntity
8
0
6
ByLayer
62
256
370
-1
100
AcDbLine
10
331.98
20
-49
11
311.98
21
-49
0
LINE
5
28C
100
AcDbEntity
8
0
6
ByLayer
62
256
370
-1
100
AcDbLine
10
4
20
-46
11
4
21
-49
0
LINE
5
28D
100
AcDbEntity
8
0
6
ByLayer
62
256
370
-1
100
AcDbLine
10
24
20
-46
11
24
21
-49
0
LINE
5
28E
100
AcDbEntity
8
0
6
ByLayer
62
256
370
-1
100
AcDbLine
10
28
20
-46
11
28
21
-49
0
LINE
5
28F
100
AcDbEntity
8
0
6
ByLayer
62
256
370
-1
100
AcDbLine
10
71.33
20
-46
11
71.33
21
-49
0
LINE
5
290
100
AcDbEntity
8
0
6
ByLayer
62
256
370
-1
100
AcDbLine
10
75.33
20
-46
11
75.33
21
-49
0
LINE
5
291
100
AcDbEntity
8
0
6
ByLayer
62
256
370
-1
100
AcDbLine
10
118.66
20
-46
11
118.66
21
-49
0
LINE
5
292
100
AcDbEntity
8
0
6
ByLayer
62
256
370
-1
100
AcDbLine
10
122.66
20
-46
11
122.66
21
-49
0
LINE
5
293
100
AcDbEntity
8
0
6
ByLayer
62
256
370
-1
100
AcDbLine
10
165.99
20
-46
11
165.99
21
-49
0
LINE
5
294
100
AcDbEntity
8
0
6
ByLayer
62
256
370
-1
100
AcDbLine
10
169.99
20
-46
11
169.99
21
-49
0
LINE
5
295
100
AcDbEntity
8
0
6
ByLayer
62
256
370
-1
100
AcDbLine
10
213.32
20
-46
11
213.32
21
-49
0
LINE
5
296
100
AcDbEntity
8
0
6
ByLayer
62
256
370
-1
100
AcDbLine
10
217.32
20
-46
11
217.32
21
-49
0
LINE
5
297
100
AcDbEntity
8
0
6
ByLayer
62
256
370
-1
100
AcDbLine
10
260.65
20
-46
11
260.65
21
-49
0
LINE
5
298
100
AcDbEntity
8
0
6
ByLayer
62
256
370
-1
100
AcDbLine
10
264.65
20
-46
11
264.65
21
-49
0
LINE
5
299
100
AcDbEntity
8
0
6
ByLayer
62
256
370
-1
100
AcDbLine
10
307.98
20
-46
11
307.98
21
-49
0
LINE
5
29A
100
AcDbEntity
8
0
6
ByLayer
62
256
370
-1
100
AcDbLine
10
311.98
20
-46
11
311.98
21
-49
0
LINE
5
29B
100
AcDbEntity
8
0
6
ByLayer
62
256
370
-1
100
AcDbLine
10
331.98
20
-46
11
331.98
21
-49
0
ENDBLK
5
84
330
82
100
AcDbEntity
8
0
100
AcDbBlockEnd
0
ENDSEC
0
SECTION
2
ENTITIES
0
INSERT
5
29C
100
AcDbEntity
8
0
6
ByLayer
62
256
370
-1
100
AcDbBlockReference
2
Sheet-A4-Horz
10
0
20
0
30
0
41
1
42
1
43
0
50
0
70
1
71
1
44
0
45
0
0
LINE
5
29D
100
AcDbEntity
8
0
6
ByLayer
62
0
370
-1
100
AcDbLine
10
257
20
15
11
257
21
18
0
LINE
5
29E
100
AcDbEntity
8
0
6
ByLayer
62
0
370
-1
100
AcDbLine
10
247
20
15
11
247
21
18
0
LINE
5
29F
100
AcDbEntity
8
0
6
ByLayer
62
0
370
-1
100
AcDbLine
10
237
20
15
11
237
21
18
0
LINE
5
2A0
100
AcDbEntity
8
0
6
ByLayer
62
0
370
-1
100
AcDbLine
10
227
20
15
11
227
21
18
0
LINE
5
2A1
100
AcDbEntity
8
0
6
ByLayer
62
0
370
-1
100
AcDbLine
10
217
20
15
11
217
21
18
0
LINE
5
2A2
100
AcDbEntity
8
0
6
ByLayer
62
0
370
-1
100
AcDbLine
10
207
20
15
11
207
21
18
0
LINE
5
2A3
100
AcDbEntity
8
0
6
ByLayer
62
0
370
-1
100
AcDbLine
10
197
20
15
11
197
21
18
0
LINE
5
2A4
100
AcDbEntity
8
0
6
ByLayer
62
0
370
-1
100
AcDbLine
10
187
20
15
11
187
21
18
0
LINE
5
2A5
100
AcDbEntity
8
0
6
ByLayer
62
0
370
-1
100
AcDbLine
10
177
20
15
11
177
21
18
0
LINE
5
2A6
100
AcDbEntity
8
0
6
ByLayer
62
0
370
-1
100
AcDbLine
10
167
20
15
11
167
21
18
0
LINE
5
2A7
100
AcDbEntity
8
0
6
ByLayer
62
0
370
-1
100
AcDbLine
10
168
20
15
11
168
21
16.8
0
LINE
5
2A8
100
AcDbEntity
8
0
6
ByLayer
62
0
370
-1
100
AcDbLine
10
169
20
15
11
169
21
16.8
0
LINE
5
2A9
100
AcDbEntity
8
0
6
ByLayer
62
0
370
-1
100
AcDbLine
10
170
20
15
11
170
21
16.8
0
LINE
5
2AA
100
AcDbEntity
8
0
6
ByLayer
62
0
370
-1
100
AcDbLine
10
171
20
15
11
171
21
16.8
0
LINE
5
2AB
100
AcDbEntity
8
0
6
ByLayer
62
0
370
-1
100
AcDbLine
10
172
20
15
11
172
21
16.8
0
LINE
5
2AC
100
AcDbEntity
8
0
6
ByLayer
62
0
370
-1
100
AcDbLine
10
173
20
15
11
173
21
16.8
0
LINE
5
2AD
100
AcDbEntity
8
0
6
ByLayer
62
0
370
-1
100
AcDbLine
10
174
20
15
11
174
21
16.8
0
LINE
5
2AE
100
AcDbEntity
8
0
6
ByLayer
62
0
370
-1
100
AcDbLine
10
175
20
15
11
175
21
16.8
0
LINE
5
2AF
100
AcDbEntity
8
0
6
ByLayer
62
0
370
-1
100
AcDbLine
10
176
20
15
11
176
21
16.8
0
LINE
5
2B0
100
AcDbEntity
8
0
6
ByLayer
62
0
370
-1
100
AcDbLine
10
178
20
15
11
178
21
16.8
0
LINE
5
2B1
100
AcDbEntity
8
0
6
ByLayer
62
0
370
-1
100
AcDbLine
10
179
20
15
11
179
21
16.8
0
LINE
5
2B2
100
AcDbEntity
8
0
6
ByLayer
62
0
370
-1
100
AcDbLine
10
180
20
15
11
180
21
16.8
0
LINE
5
2B3
100
AcDbEntity
8
0
6
ByLayer
62
0
370
-1
100
AcDbLine
10
181
20
15
11
181
21
16.8
0
LINE
5
2B4
100
AcDbEntity
8
0
6
ByLayer
62
0
370
-1
100
AcDbLine
10
182
20
15
11
182
21
16.8
0
LINE
5
2B5
100
AcDbEntity
8
0
6
ByLayer
62
0
370
-1
100
AcDbLine
10
183
20
15
11
183
21
16.8
0
LINE
5
2B6
100
AcDbEntity
8
0
6
ByLayer
62
0
370
-1
100
AcDbLine
10
184
20
15
11
184
21
16.8
0
LINE
5
2B7
100
AcDbEntity
8
0
6
ByLayer
62
0
370
-1
100
AcDbLine
10
185
20
15
11
185
21
16.8
0
LINE
5
2B8
100
AcDbEntity
8
0
6
ByLayer
62
0
370
-1
100
AcDbLine
10
186
20
15
11
186
21
16.8
0
LINE
5
2B9
100
AcDbEntity
8
0
6
ByLayer
62
0
370
-1
100
AcDbLine
10
188
20
15
11
188
21
16.8
0
LINE
5
2BA
100
AcDbEntity
8
0
6
ByLayer
62
0
370
-1
100
AcDbLine
10
189
20
15
11
189
21
16.8
0
LINE
5
2BB
100
AcDbEntity
8
0
6
ByLayer
62
0
370
-1
100
AcDbLine
10
190
20
15
11
190
21
16.8
0
LINE
5
2BC
100
AcDbEntity
8
0
6
ByLayer
62
0
370
-1
100
AcDbLine
10
191
20
15
11
191
21
16.8
0
LINE
5
2BD
100
AcDbEntity
8
0
6
ByLayer
62
0
370
-1
100
AcDbLine
10
192
20
15
11
192
21
16.8
0
LINE
5
2BE
100
AcDbEntity
8
0
6
ByLayer
62
0
370
-1
100
AcDbLine
10
193
20
15
11
193
21
16.8
0
LINE
5
2BF
100
AcDbEntity
8
0
6
ByLayer
62
0
370
-1
100
AcDbLine
10
194
20
15
11
194
21
16.8
0
LINE
5
2C0
100
AcDbEntity
8
0
6
ByLayer
62
0
370
-1
100
AcDbLine
10
195
20
15
11
195
21
16.8
0
LINE
5
2C1
100
AcDbEntity
8
0
6
ByLayer
62
0
370
-1
100
AcDbLine
10
196
20
15
11
196
21
16.8
0
LINE
5
2C2
100
AcDbEntity
8
0
6
ByLayer
62
0
370
-1
100
AcDbLine
10
198
20
15
11
198
21
16.8
0
LINE
5
2C3
100
AcDbEntity
8
0
6
ByLayer
62
0
370
-1
100
AcDbLine
10
199
20
15
11
199
21
16.8
0
LINE
5
2C4
100
AcDbEntity
8
0
6
ByLayer
62
0
370
-1
100
AcDbLine
10
200
20
15
11
200
21
16.8
0
LINE
5
2C5
100
AcDbEntity
8
0
6
ByLayer
62
0
370
-1
100
AcDbLine
10
201
20
15
11
201
21
16.8
0
LINE
5
2C6
100
AcDbEntity
8
0
6
ByLayer
62
0
370
-1
100
AcDbLine
10
202
20
15
11
202
21
16.8
0
LINE
5
2C7
100
AcDbEntity
8
0
6
ByLayer
62
0
370
-1
100
AcDbLine
10
203
20
15
11
203
21
16.8
0
LINE
5
2C8
100
AcDbEntity
8
0
6
ByLayer
62
0
370
-1
100
AcDbLine
10
204
20
15
11
204
21
16.8
0
LINE
5
2C9
100
AcDbEntity
8
0
6
ByLayer
62
0
370
-1
100
AcDbLine
10
205
20
15
11
205
21
16.8
0
LINE
5
2CA
100
AcDbEntity
8
0
6
ByLayer
62
0
370
-1
100
AcDbLine
10
206
20
15
11
206
21
16.8
0
LINE
5
2CB
100
AcDbEntity
8
0
6
ByLayer
62
0
370
-1
100
AcDbLine
10
208
20
15
11
208
21
16.8
0
LINE
5
2CC
100
AcDbEntity
8
0
6
ByLayer
62
0
370
-1
100
AcDbLine
10
209
20
15
11
209
21
16.8
0
LINE
5
2CD
100
AcDbEntity
8
0
6
ByLayer
62
0
370
-1
100
AcDbLine
10
210
20
15
11
210
21
16.8
0
LINE
5
2CE
100
AcDbEntity
8
0
6
ByLayer
62
0
370
-1
100
AcDbLine
10
211
20
15
11
211
21
16.8
0
LINE
5
2CF
100
AcDbEntity
8
0
6
ByLayer
62
0
370
-1
100
AcDbLine
10
212
20
15
11
212
21
16.8
0
LINE
5
2D0
100
AcDbEntity
8
0
6
ByLayer
62
0
370
-1
100
AcDbLine
10
213
20
15
11
213
21
16.8
0
LINE
5
2D1
100
AcDbEntity
8
0
6
ByLayer
62
0
370
-1
100
AcDbLine
10
214
20
15
11
214
21
16.8
0
LINE
5
2D2
100
AcDbEntity
8
0
6
ByLayer
62
0
370
-1
100
AcDbLine
10
215
20
15
11
215
21
16.8
0
LINE
5
2D3
100
AcDbEntity
8
0
6
ByLayer
62
0
370
-1
100
AcDbLine
10
216
20
15
11
216
21
16.8
0
LINE
5
2D4
100
AcDbEntity
8
0
6
ByLayer
62
0
370
-1
100
AcDbLine
10
218
20
15
11
218
21
16.8
0
LINE
5
2D5
100
AcDbEntity
8
0
6
ByLayer
62
0
370
-1
100
AcDbLine
10
219
20
15
11
219
21
16.8
0
LINE
5
2D6
100
AcDbEntity
8
0
6
ByLayer
62
0
370
-1
100
AcDbLine
10
220
20
15
11
220
21
16.8
0
LINE
5
2D7
100
AcDbEntity
8
0
6
ByLayer
62
0
370
-1
100
AcDbLine
10
221
20
15
11
221
21
16.8
0
LINE
5
2D8
100
AcDbEntity
8
0
6
ByLayer
62
0
370
-1
100
AcDbLine
10
222
20
15
11
222
21
16.8
0
LINE
5
2D9
100
AcDbEntity
8
0
6
ByLayer
62
0
370
-1
100
AcDbLine
10
223
20
15
11
223
21
16.8
0
LINE
5
2DA
100
AcDbEntity
8
0
6
ByLayer
62
0
370
-1
100
AcDbLine
10
224
20
15
11
224
21
16.8
0
LINE
5
2DB
100
AcDbEntity
8
0
6
ByLayer
62
0
370
-1
100
AcDbLine
10
225
20
15
11
225
21
16.8
0
LINE
5
2DC
100
AcDbEntity
8
0
6
ByLayer
62
0
370
-1
100
AcDbLine
10
226
20
15
11
226
21
16.8
0
LINE
5
2DD
100
AcDbEntity
8
0
6
ByLayer
62
0
370
-1
100
AcDbLine
10
228
20
15
11
228
21
16.8
0
LINE
5
2DE
100
AcDbEntity
8
0
6
ByLayer
62
0
370
-1
100
AcDbLine
10
229
20
15
11
229
21
16.8
0
LINE
5
2DF
100
AcDbEntity
8
0
6
ByLayer
62
0
370
-1
100
AcDbLine
10
230
20
15
11
230
21
16.8
0
LINE
5
2E0
100
AcDbEntity
8
0
6
ByLayer
62
0
370
-1
100
AcDbLine
10
231
20
15
11
231
21
16.8
0
LINE
5
2E1
100
AcDbEntity
8
0
6
ByLayer
62
0
370
-1
100
AcDbLine
10
232
20
15
11
232
21
16.8
0
LINE
5
2E2
100
AcDbEntity
8
0
6
ByLayer
62
0
370
-1
100
AcDbLine
10
233
20
15
11
233
21
16.8
0
LINE
5
2E3
100
AcDbEntity
8
0
6
ByLayer
62
0
370
-1
100
AcDbLine
10
234
20
15
11
234
21
16.8
0
LINE
5
2E4
100
AcDbEntity
8
0
6
ByLayer
62
0
370
-1
100
AcDbLine
10
235
20
15
11
235
21
16.8
0
LINE
5
2E5
100
AcDbEntity
8
0
6
ByLayer
62
0
370
-1
100
AcDbLine
10
236
20
15
11
236
21
16.8
0
LINE
5
2E6
100
AcDbEntity
8
0
6
ByLayer
62
0
370
-1
100
AcDbLine
10
238
20
15
11
238
21
16.8
0
LINE
5
2E7
100
AcDbEntity
8
0
6
ByLayer
62
0
370
-1
100
AcDbLine
10
239
20
15
11
239
21
16.8
0
LINE
5
2E8
100
AcDbEntity
8
0
6
ByLayer
62
0
370
-1
100
AcDbLine
10
240
20
15
11
240
21
16.8
0
LINE
5
2E9
100
AcDbEntity
8
0
6
ByLayer
62
0
370
-1
100
AcDbLine
10
241
20
15
11
241
21
16.8
0
LINE
5
2EA
100
AcDbEntity
8
0
6
ByLayer
62
0
370
-1
100
AcDbLine
10
242
20
15
11
242
21
16.8
0
LINE
5
2EB
100
AcDbEntity
8
0
6
ByLayer
62
0
370
-1
100
AcDbLine
10
243
20
15
11
243
21
16.8
0
LINE
5
2EC
100
AcDbEntity
8
0
6
ByLayer
62
0
370
-1
100
AcDbLine
10
244
20
15
11
244
21
16.8
0
LINE
5
2ED
100
AcDbEntity
8
0
6
ByLayer
62
0
370
-1
100
AcDbLine
10
245
20
15
11
245
21
16.8
0
LINE
5
2EE
100
AcDbEntity
8
0
6
ByLayer
62
0
370
-1
100
AcDbLine
10
246
20
15
11
246
21
16.8
0
LINE
5
2EF
100
AcDbEntity
8
0
6
ByLayer
62
0
370
-1
100
AcDbLine
10
248
20
15
11
248
21
16.8
0
LINE
5
2F0
100
AcDbEntity
8
0
6
ByLayer
62
0
370
-1
100
AcDbLine
10
249
20
15
11
249
21
16.8
0
LINE
5
2F1
100
AcDbEntity
8
0
6
ByLayer
62
0
370
-1
100
AcDbLine
10
250
20
15
11
250
21
16.8
0
LINE
5
2F2
100
AcDbEntity
8
0
6
ByLayer
62
0
370
-1
100
AcDbLine
10
251
20
15
11
251
21
16.8
0
LINE
5
2F3
100
AcDbEntity
8
0
6
ByLayer
62
0
370
-1
100
AcDbLine
10
252
20
15
11
252
21
16.8
0
LINE
5
2F4
100
AcDbEntity
8
0
6
ByLayer
62
0
370
-1
100
AcDbLine
10
253
20
15
11
253
21
16.8
0
LINE
5
2F5
100
AcDbEntity
8
0
6
ByLayer
62
0
370
-1
100
AcDbLine
10
254
20
15
11
254
21
16.8
0
LINE
5
2F6
100
AcDbEntity
8
0
6
ByLayer
62
0
370
-1
100
AcDbLine
10
255
20
15
11
255
21
16.8
0
LINE
5
2F7
100
AcDbEntity
8
0
6
ByLayer
62
0
370
-1
100
AcDbLine
10
256
20
15
11
256
21
16.8
0
LINE
5
2F8
100
AcDbEntity
8
0
6
ByLayer
62
0
370
-1
100
AcDbLine
10
258
20
15
11
258
21
16.8
0
LINE
5
2F9
100
AcDbEntity
8
0
6
ByLayer
62
0
370
-1
100
AcDbLine
10
259
20
15
11
259
21
16.8
0
LINE
5
2FA
100
AcDbEntity
8
0
6
ByLayer
62
0
370
-1
100
AcDbLine
10
260
20
15
11
260
21
16.8
0
LINE
5
2FB
100
AcDbEntity
8
0
6
ByLayer
62
0
370
-1
100
AcDbLine
10
261
20
15
11
261
21
16.8
0
LINE
5
2FC
100
AcDbEntity
8
0
6
ByLayer
62
0
370
-1
100
AcDbLine
10
262
20
15
11
262
21
16.8
0
LINE
5
2FD
100
AcDbEntity
8
0
6
ByLayer
62
0
370
-1
100
AcDbLine
10
263
20
15
11
263
21
16.8
0
LINE
5
2FE
100
AcDbEntity
8
0
6
ByLayer
62
0
370
-1
100
AcDbLine
10
264
20
15
11
264
21
16.8
0
LINE
5
2FF
100
AcDbEntity
8
0
6
ByLayer
62
0
370
-1
100
AcDbLine
10
265
20
15
11
265
21
16.8
0
LINE
5
300
100
AcDbEntity
8
0
6
ByLayer
62
0
370
-1
100
AcDbLine
10
266
20
15
11
266
21
16.8
0
LINE
5
301
100
AcDbEntity
8
0
6
ByLayer
62
0
370
-1
100
AcDbLine
10
172
20
16.8
11
172
21
17.4
0
LINE
5
302
100
AcDbEntity
8
0
6
ByLayer
62
0
370
-1
100
AcDbLine
10
182
20
16.8
11
182
21
17.4
0
LINE
5
303
100
AcDbEntity
8
0
6
ByLayer
62
0
370
-1
100
AcDbLine
10
192
20
16.8
11
192
21
17.4
0
LINE
5
304
100
AcDbEntity
8
0
6
ByLayer
62
0
370
-1
100
AcDbLine
10
202
20
16.8
11
202
21
17.4
0
LINE
5
305
100
AcDbEntity
8
0
6
ByLayer
62
0
370
-1
100
AcDbLine
10
212
20
16.8
11
212
21
17.4
0
LINE
5
306
100
AcDbEntity
8
0
6
ByLayer
62
0
370
-1
100
AcDbLine
10
222
20
16.8
11
222
21
17.4
0
LINE
5
307
100
AcDbEntity
8
0
6
ByLayer
62
0
370
-1
100
AcDbLine
10
232
20
16.8
11
232
21
17.4
0
LINE
5
308
100
AcDbEntity
8
0
6
ByLayer
62
0
370
-1
100
AcDbLine
10
242
20
16.8
11
242
21
17.4
0
LINE
5
309
100
AcDbEntity
8
0
6
ByLayer
62
0
370
-1
100
AcDbLine
10
252
20
16.8
11
252
21
17.4
0
LINE
5
30A
100
AcDbEntity
8
0
6
ByLayer
62
0
370
-1
100
AcDbLine
10
262
20
16.8
11
262
21
17.4
0
MTEXT
5
30B
100
AcDbEntity
8
0
6
ByLayer
62
0
370
-1
100
AcDbMText
10
218
20
13
30
0
40
3
41
18.3333333333
71
1
72
1
1
Millimeter
7
standard
210
0
220
0
230
1
50
0
73
2
44
1
0
MTEXT
5
30C
100
AcDbEntity
8
0
6
ByLayer
62
256
370
-1
100
AcDbMText
10
140
20
10
30
0
40
3
41
45.2500009069
71
1
72
1
1
Flaschenwagen Schnitt
7
standard
210
0
220
0
230
1
50
0
73
2
44
1
0
MTEXT
5
30D
100
AcDbEntity
8
0
6
ByLayer
62
256
370
-1
100
AcDbMText
10
120
20
10
30
0
40
6
41
13.999998728
71
1
72
1
1
FwS
7
standard
210
0
220
0
230
1
50
0
73
2
44
1
0
INSERT
5
30E
100
AcDbEntity
8
0
6
ByLayer
62
256
370
-1
100
AcDbBlockReference
2
Schiene
10
179.973944189
20
142.997934591
30
0
41
1
42
1
43
0
50
0
70
1
71
1
44
0
45
0
0
INSERT
5
30F
100
AcDbEntity
8
0
6
ByLayer
62
256
370
-1
100
AcDbBlockReference
2
Flaschentragspant
10
179.973944189
20
99.9979345915
30
0
41
1
42
1
43
0
50
0
70
1
71
1
44
0
45
0
0
INSERT
5
310
100
AcDbEntity
8
0
6
ByLayer
62
256
370
-1
100
AcDbBlockReference
2
Spant Laderaumtor
10
130.973944189
20
139.997934591
30
0
41
1
42
1
43
0
50
0
70
1
71
1
44
1
45
1
0
LINE
5
311
100
AcDbEntity
8
0
6
ByLayer
62
256
370
-1
100
AcDbLine
10
130.973944189
20
139.997934591
11
130.973944189
21
140.997934591
0
LINE
5
312
100
AcDbEntity
8
0
6
ByLayer
62
256
370
-1
100
AcDbLine
10
130.973944189
20
139.997934591
11
131.973944189
21
139.997934591
0
LINE
5
313
100
AcDbEntity
8
0
6
ByLayer
62
256
370
-1
100
AcDbLine
10
130.973944189
20
139.997934591
11
129.973944189
21
139.997934591
0
LINE
5
314
100
AcDbEntity
8
0
6
ByLayer
62
256
370
-1
100
AcDbLine
10
130.973944189
20
139.997934591
11
130.973944189
21
138.997934591
0
LINE
5
315
100
AcDbEntity
8
0
6
ByLayer
62
256
370
-1
100
AcDbLine
10
180
20
100
11
180
21
101
0
LINE
5
316
100
AcDbEntity
8
0
6
ByLayer
62
256
370
-1
100
AcDbLine
10
180
20
100
11
181
21
100
0
LINE
5
317
100
AcDbEntity
8
0
6
ByLayer
62
256
370
-1
100
AcDbLine
10
180
20
100
11
179
21
100
0
LINE
5
318
100
AcDbEntity
8
0
6
ByLayer
62
256
370
-1
100
AcDbLine
10
180
20
100
11
180
21
99
0
LINE
5
319
100
AcDbEntity
8
0
6
ByLayer
62
256
370
-1
100
AcDbLine
10
131
20
140
11
131
21
141
0
LINE
5
31A
100
AcDbEntity
8
0
6
ByLayer
62
256
370
-1
100
AcDbLine
10
131
20
140
11
132
21
140
0
LINE
5
31B
100
AcDbEntity
8
0
6
ByLayer
62
256
370
-1
100
AcDbLine
10
131
20
140
11
130
21
140
0
LINE
5
31C
100
AcDbEntity
8
0
6
ByLayer
62
256
370
-1
100
AcDbLine
10
131
20
140
11
131
21
139
0
CIRCLE
5
31D
100
AcDbEntity
8
0
6
ByLayer
62
256
370
-1
100
AcDbCircle
10
180
20
100
40
75
0
LINE
5
31E
100
AcDbEntity
8
0
6
ByLayer
62
256
370
-1
100
AcDbLine
10
80
20
60
11
80
21
75
0
LINE
5
31F
100
AcDbEntity
8
0
6
ByLayer
62
256
370
-1
100
AcDbLine
10
92
20
60
11
92
21
75
0
LINE
5
320
100
AcDbEntity
8
0
6
ByLayer
62
256
370
-1
100
AcDbLine
10
92
20
60
11
80
21
60
0
LINE
5
321
100
AcDbEntity
8
0
6
ByLayer
62
256
370
-1
100
AcDbLine
10
92
20
75
11
80
21
75
0
LINE
5
322
100
AcDbEntity
8
0
6
ByLayer
62
256
370
-1
100
AcDbLine
10
80
20
75
11
80
21
81
0
LINE
5
323
100
AcDbEntity
8
0
6
ByLayer
62
256
370
-1
100
AcDbLine
10
92
20
75
11
92
21
81
0
LINE
5
324
100
AcDbEntity
8
0
6
ByLayer
62
256
370
-1
100
AcDbLine
10
92
20
81
11
80
21
81
0
LINE
5
325
100
AcDbEntity
8
0
6
ByLayer
62
256
370
-1
100
AcDbLine
10
92
20
77
11
80
21
77
0
LINE
5
326
100
AcDbEntity
8
0
6
ByLayer
62
256
370
-1
100
AcDbLine
10
81
20
81
11
81
21
86
0
LINE
5
327
100
AcDbEntity
8
0
6
ByLayer
62
256
370
-1
100
AcDbLine
10
91
20
81
11
91
21
86
0
LINE
5
328
100
AcDbEntity
8
0
6
ByLayer
62
256
370
-1
100
AcDbLine
10
91
20
86
11
81
21
86
0
LINE
5
329
100
AcDbEntity
8
0
6
ByLayer
62
256
370
-1
100
AcDbLine
10
84
20
86
11
84
21
89
0
LINE
5
32A
100
AcDbEntity
8
0
6
ByLayer
62
256
370
-1
100
AcDbLine
10
88
20
86
11
88
21
89
0
LINE
5
32B
100
AcDbEntity
8
0
6
ByLayer
62
256
370
-1
100
AcDbLine
10
86
20
75
11
86
21
77
0
LINE
5
32C
100
AcDbEntity
8
0
6
ByLayer
62
256
370
-1
100
AcDbLine
10
84
20
89
11
88
21
89
0
LINE
5
32D
100
AcDbEntity
8
0
6
ByLayer
62
256
370
-1
100
AcDbLine
10
72
20
60
11
49
21
60
0
LINE
5
32E
100
AcDbEntity
8
0
6
ByLayer
62
256
370
-1
100
AcDbLine
10
49
20
60
11
49
21
77
0
LINE
5
32F
100
AcDbEntity
8
0
6
ByLayer
62
256
370
-1
100
AcDbLine
10
72
20
60
11
72
21
77
0
LINE
5
330
100
AcDbEntity
8
0
6
ByLayer
62
256
370
-1
100
AcDbLine
10
72
20
77
11
76
21
77
0
LINE
5
331
100
AcDbEntity
8
0
6
ByLayer
62
256
370
-1
100
AcDbLine
10
45
20
77
11
49
21
77
0
LINE
5
332
100
AcDbEntity
8
0
6
ByLayer
62
256
370
-1
100
AcDbLine
10
45
20
75
11
49
21
75
0
LINE
5
333
100
AcDbEntity
8
0
6
ByLayer
62
256
370
-1
100
AcDbLine
10
72
20
75
11
76
21
75
0
LINE
5
334
100
AcDbEntity
8
0
6
ByLayer
62
256
370
-1
100
AcDbLine
10
72
20
81
11
72
21
77
0
LINE
5
335
100
AcDbEntity
8
0
6
ByLayer
62
256
370
-1
100
AcDbLine
10
49
20
81
11
49
21
77
0
LINE
5
336
100
AcDbEntity
8
0
6
ByLayer
62
256
370
-1
100
AcDbLine
10
71
20
86
11
71
21
81
0
LINE
5
337
100
AcDbEntity
8
0
6
ByLayer
62
256
370
-1
100
AcDbLine
10
67
20
89
11
67
21
86
0
LINE
5
338
100
AcDbEntity
8
0
6
ByLayer
62
256
370
-1
100
AcDbLine
10
63
20
89
11
63
21
86
0
LINE
5
339
100
AcDbEntity
8
0
6
ByLayer
62
256
370
-1
100
AcDbLine
10
63
20
89
11
67
21
89
0
LINE
5
33A
100
AcDbEntity
8
0
6
ByLayer
62
256
370
-1
100
AcDbLine
10
59
20
86
11
59
21
81
0
LINE
5
33B
100
AcDbEntity
8
0
6
ByLayer
62
256
370
-1
100
AcDbLine
10
49
20
81
11
59
21
81
0
LINE
5
33C
100
AcDbEntity
8
0
6
ByLayer
62
256
370
-1
100
AcDbLine
10
71
20
81
11
72
21
81
0
LINE
5
33D
100
AcDbEntity
8
0
6
ByLayer
62
256
370
-1
100
AcDbLine
10
59
20
86
11
63
21
86
0
LINE
5
33E
100
AcDbEntity
8
0
6
ByLayer
62
256
370
-1
100
AcDbLine
10
67
20
86
11
71
21
86
0
LINE
5
33F
100
AcDbEntity
8
0
6
ByLayer
62
256
370
-1
100
AcDbLine
10
76
20
77
11
76
21
75
0
LINE
5
340
100
AcDbEntity
8
0
6
ByLayer
62
256
370
-1
100
AcDbLine
10
45
20
77
11
45
21
75
0
MTEXT
5
341
100
AcDbEntity
8
0
6
ByLayer
62
256
370
-1
100
AcDbMText
10
44
20
59
30
0
40
3
41
48.499999364
71
1
72
1
1
Hobbyking\PPRODUCT ID: HKSCM12-5 
7
standard
210
0
220
0
230
1
50
0
73
2
44
1
0
LINE
5
342
100
AcDbEntity
8
0
6
ByLayer
62
256
370
-1
100
AcDbLine
10
72
20
62
11
77
21
61
0
LINE
5
343
100
AcDbEntity
8
0
6
ByLayer
62
256
370
-1
100
AcDbLine
10
77
20
61
11
77
21
59
0
LINE
5
344
100
AcDbEntity
8
0
6
ByLayer
62
256
370
-1
100
AcDbLine
10
77
20
59
11
72
21
60
0
LINE
5
345
100
AcDbEntity
8
0
6
ByLayer
62
256
370
-1
100
AcDbLine
10
59
20
81
11
71
21
81
0
LINE
5
346
100
AcDbEntity
8
0
6
ByLayer
62
256
370
-1
100
AcDbLine
10
63
20
86
11
67
21
86
0
LINE
5
347
100
AcDbEntity
8
0
6
ByLayer
62
256
370
-1
100
AcDbLine
10
72
20
110
11
49
21
110
0
LINE
5
348
100
AcDbEntity
8
0
6
ByLayer
62
256
370
-1
100
AcDbLine
10
49
20
110
11
49
21
98
0
LINE
5
349
100
AcDbEntity
8
0
6
ByLayer
62
256
370
-1
100
AcDbLine
10
72
20
110
11
72
21
98
0
CIRCLE
5
34A
100
AcDbEntity
8
0
6
ByLayer
62
256
370
-1
100
AcDbCircle
10
46
20
104
40
0.75
0
CIRCLE
5
34B
100
AcDbEntity
8
0
6
ByLayer
62
256
370
-1
100
AcDbCircle
10
75
20
104
40
0.75
0
LINE
5
34C
100
AcDbEntity
8
0
6
ByLayer
62
256
370
-1
100
AcDbLine
10
49
20
98
11
47
21
98
0
LINE
5
34D
100
AcDbEntity
8
0
6
ByLayer
62
256
370
-1
100
AcDbLine
10
74
20
98
11
72
21
98
0
LINE
5
34E
100
AcDbEntity
8
0
6
ByLayer
62
256
370
-1
100
AcDbLine
10
47
20
98
11
47
21
94
0
LINE
5
34F
100
AcDbEntity
8
0
6
ByLayer
62
256
370
-1
100
AcDbLine
10
74
20
98
11
74
21
94
0
LINE
5
350
100
AcDbEntity
8
0
6
ByLayer
62
256
370
-1
100
AcDbLine
10
47
20
94
11
41
21
94
0
LINE
5
351
100
AcDbEntity
8
0
6
ByLayer
62
256
370
-1
100
AcDbLine
10
41
20
98
11
41
21
94
0
LINE
5
352
100
AcDbEntity
8
0
6
ByLayer
62
256
370
-1
100
AcDbLine
10
80
20
94
11
74
21
94
0
LINE
5
353
100
AcDbEntity
8
0
6
ByLayer
62
256
370
-1
100
AcDbLine
10
80
20
98
11
80
21
94
0
LINE
5
354
100
AcDbEntity
8
0
6
ByLayer
62
256
370
-1
100
AcDbLine
10
80
20
98
11
80
21
118
0
LINE
5
355
100
AcDbEntity
8
0
6
ByLayer
62
256
370
-1
100
AcDbLine
10
41
20
98
11
41
21
118
0
LINE
5
356
100
AcDbEntity
8
0
6
ByLayer
62
256
370
-1
100
AcDbLine
10
53
20
118
11
41
21
118
0
LINE
5
357
100
AcDbEntity
8
0
6
ByLayer
62
256
370
-1
100
AcDbLine
10
68
20
118
11
80
21
118
0
LINE
5
358
100
AcDbEntity
8
0
6
ByLayer
62
256
370
-1
100
AcDbLine
10
53
20
122
11
53
21
118
0
LINE
5
359
100
AcDbEntity
8
0
6
ByLayer
62
256
370
-1
100
AcDbLine
10
68
20
122
11
68
21
118
0
LINE
5
35A
100
AcDbEntity
8
0
6
ByLayer
62
256
370
-1
100
AcDbLine
10
53
20
128
11
53
21
124
0
LINE
5
35B
100
AcDbEntity
8
0
6
ByLayer
62
256
370
-1
100
AcDbLine
10
68
20
128
11
68
21
124
0
LINE
5
35C
100
AcDbEntity
8
0
6
ByLayer
62
256
370
-1
100
AcDbLine
10
47
20
133
11
47
21
129
0
LINE
5
35D
100
AcDbEntity
8
0
6
ByLayer
62
256
370
-1
100
AcDbLine
10
41
20
133
11
41
21
129
0
LINE
5
35E
100
AcDbEntity
8
0
6
ByLayer
62
256
370
-1
100
AcDbLine
10
74
20
133
11
74
21
129
0
LINE
5
35F
100
AcDbEntity
8
0
6
ByLayer
62
256
370
-1
100
AcDbLine
10
80
20
133
11
80
21
129
0
LINE
5
360
100
AcDbEntity
8
0
6
ByLayer
62
256
370
-1
100
AcDbLine
10
47
20
129
11
41
21
129
0
LINE
5
361
100
AcDbEntity
8
0
6
ByLayer
62
256
370
-1
100
AcDbLine
10
47
20
133
11
41
21
133
0
LINE
5
362
100
AcDbEntity
8
0
6
ByLayer
62
256
370
-1
100
AcDbLine
10
80
20
133
11
74
21
133
0
LINE
5
363
100
AcDbEntity
8
0
6
ByLayer
62
256
370
-1
100
AcDbLine
10
80
20
129
11
74
21
129
0
LINE
5
364
100
AcDbEntity
8
0
6
ByLayer
62
256
370
-1
100
AcDbLine
10
53
20
128
11
68
21
128
0
LINE
5
365
100
AcDbEntity
8
0
6
ByLayer
62
256
370
-1
100
AcDbLine
10
68
20
124
11
53
21
124
0
LINE
5
366
100
AcDbEntity
8
0
6
ByLayer
62
256
370
-1
100
AcDbLine
10
53
20
122
11
68
21
122
0
INSERT
5
367
100
AcDbEntity
8
0
6
ByLayer
62
256
370
-1
100
AcDbBlockReference
2
Sheet-A4-Horz-1
10
0
20
200
30
0
41
1
42
1
43
0
50
0
70
1
71
1
44
0
45
0
0
LINE
5
368
100
AcDbEntity
8
0
6
ByLayer
62
0
370
-1
100
AcDbLine
10
257
20
215
11
257
21
218
0
LINE
5
369
100
AcDbEntity
8
0
6
ByLayer
62
0
370
-1
100
AcDbLine
10
247
20
215
11
247
21
218
0
LINE
5
36A
100
AcDbEntity
8
0
6
ByLayer
62
0
370
-1
100
AcDbLine
10
237
20
215
11
237
21
218
0
LINE
5
36B
100
AcDbEntity
8
0
6
ByLayer
62
0
370
-1
100
AcDbLine
10
227
20
215
11
227
21
218
0
LINE
5
36C
100
AcDbEntity
8
0
6
ByLayer
62
0
370
-1
100
AcDbLine
10
217
20
215
11
217
21
218
0
LINE
5
36D
100
AcDbEntity
8
0
6
ByLayer
62
0
370
-1
100
AcDbLine
10
207
20
215
11
207
21
218
0
LINE
5
36E
100
AcDbEntity
8
0
6
ByLayer
62
0
370
-1
100
AcDbLine
10
197
20
215
11
197
21
218
0
LINE
5
36F
100
AcDbEntity
8
0
6
ByLayer
62
0
370
-1
100
AcDbLine
10
187
20
215
11
187
21
218
0
LINE
5
370
100
AcDbEntity
8
0
6
ByLayer
62
0
370
-1
100
AcDbLine
10
177
20
215
11
177
21
218
0
LINE
5
371
100
AcDbEntity
8
0
6
ByLayer
62
0
370
-1
100
AcDbLine
10
167
20
215
11
167
21
218
0
LINE
5
372
100
AcDbEntity
8
0
6
ByLayer
62
0
370
-1
100
AcDbLine
10
168
20
215
11
168
21
216.8
0
LINE
5
373
100
AcDbEntity
8
0
6
ByLayer
62
0
370
-1
100
AcDbLine
10
169
20
215
11
169
21
216.8
0
LINE
5
374
100
AcDbEntity
8
0
6
ByLayer
62
0
370
-1
100
AcDbLine
10
170
20
215
11
170
21
216.8
0
LINE
5
375
100
AcDbEntity
8
0
6
ByLayer
62
0
370
-1
100
AcDbLine
10
171
20
215
11
171
21
216.8
0
LINE
5
376
100
AcDbEntity
8
0
6
ByLayer
62
0
370
-1
100
AcDbLine
10
172
20
215
11
172
21
216.8
0
LINE
5
377
100
AcDbEntity
8
0
6
ByLayer
62
0
370
-1
100
AcDbLine
10
173
20
215
11
173
21
216.8
0
LINE
5
378
100
AcDbEntity
8
0
6
ByLayer
62
0
370
-1
100
AcDbLine
10
174
20
215
11
174
21
216.8
0
LINE
5
379
100
AcDbEntity
8
0
6
ByLayer
62
0
370
-1
100
AcDbLine
10
175
20
215
11
175
21
216.8
0
LINE
5
37A
100
AcDbEntity
8
0
6
ByLayer
62
0
370
-1
100
AcDbLine
10
176
20
215
11
176
21
216.8
0
LINE
5
37B
100
AcDbEntity
8
0
6
ByLayer
62
0
370
-1
100
AcDbLine
10
178
20
215
11
178
21
216.8
0
LINE
5
37C
100
AcDbEntity
8
0
6
ByLayer
62
0
370
-1
100
AcDbLine
10
179
20
215
11
179
21
216.8
0
LINE
5
37D
100
AcDbEntity
8
0
6
ByLayer
62
0
370
-1
100
AcDbLine
10
180
20
215
11
180
21
216.8
0
LINE
5
37E
100
AcDbEntity
8
0
6
ByLayer
62
0
370
-1
100
AcDbLine
10
181
20
215
11
181
21
216.8
0
LINE
5
37F
100
AcDbEntity
8
0
6
ByLayer
62
0
370
-1
100
AcDbLine
10
182
20
215
11
182
21
216.8
0
LINE
5
380
100
AcDbEntity
8
0
6
ByLayer
62
0
370
-1
100
AcDbLine
10
183
20
215
11
183
21
216.8
0
LINE
5
381
100
AcDbEntity
8
0
6
ByLayer
62
0
370
-1
100
AcDbLine
10
184
20
215
11
184
21
216.8
0
LINE
5
382
100
AcDbEntity
8
0
6
ByLayer
62
0
370
-1
100
AcDbLine
10
185
20
215
11
185
21
216.8
0
LINE
5
383
100
AcDbEntity
8
0
6
ByLayer
62
0
370
-1
100
AcDbLine
10
186
20
215
11
186
21
216.8
0
LINE
5
384
100
AcDbEntity
8
0
6
ByLayer
62
0
370
-1
100
AcDbLine
10
188
20
215
11
188
21
216.8
0
LINE
5
385
100
AcDbEntity
8
0
6
ByLayer
62
0
370
-1
100
AcDbLine
10
189
20
215
11
189
21
216.8
0
LINE
5
386
100
AcDbEntity
8
0
6
ByLayer
62
0
370
-1
100
AcDbLine
10
190
20
215
11
190
21
216.8
0
LINE
5
387
100
AcDbEntity
8
0
6
ByLayer
62
0
370
-1
100
AcDbLine
10
191
20
215
11
191
21
216.8
0
LINE
5
388
100
AcDbEntity
8
0
6
ByLayer
62
0
370
-1
100
AcDbLine
10
192
20
215
11
192
21
216.8
0
LINE
5
389
100
AcDbEntity
8
0
6
ByLayer
62
0
370
-1
100
AcDbLine
10
193
20
215
11
193
21
216.8
0
LINE
5
38A
100
AcDbEntity
8
0
6
ByLayer
62
0
370
-1
100
AcDbLine
10
194
20
215
11
194
21
216.8
0
LINE
5
38B
100
AcDbEntity
8
0
6
ByLayer
62
0
370
-1
100
AcDbLine
10
195
20
215
11
195
21
216.8
0
LINE
5
38C
100
AcDbEntity
8
0
6
ByLayer
62
0
370
-1
100
AcDbLine
10
196
20
215
11
196
21
216.8
0
LINE
5
38D
100
AcDbEntity
8
0
6
ByLayer
62
0
370
-1
100
AcDbLine
10
198
20
215
11
198
21
216.8
0
LINE
5
38E
100
AcDbEntity
8
0
6
ByLayer
62
0
370
-1
100
AcDbLine
10
199
20
215
11
199
21
216.8
0
LINE
5
38F
100
AcDbEntity
8
0
6
ByLayer
62
0
370
-1
100
AcDbLine
10
200
20
215
11
200
21
216.8
0
LINE
5
390
100
AcDbEntity
8
0
6
ByLayer
62
0
370
-1
100
AcDbLine
10
201
20
215
11
201
21
216.8
0
LINE
5
391
100
AcDbEntity
8
0
6
ByLayer
62
0
370
-1
100
AcDbLine
10
202
20
215
11
202
21
216.8
0
LINE
5
392
100
AcDbEntity
8
0
6
ByLayer
62
0
370
-1
100
AcDbLine
10
203
20
215
11
203
21
216.8
0
LINE
5
393
100
AcDbEntity
8
0
6
ByLayer
62
0
370
-1
100
AcDbLine
10
204
20
215
11
204
21
216.8
0
LINE
5
394
100
AcDbEntity
8
0
6
ByLayer
62
0
370
-1
100
AcDbLine
10
205
20
215
11
205
21
216.8
0
LINE
5
395
100
AcDbEntity
8
0
6
ByLayer
62
0
370
-1
100
AcDbLine
10
206
20
215
11
206
21
216.8
0
LINE
5
396
100
AcDbEntity
8
0
6
ByLayer
62
0
370
-1
100
AcDbLine
10
208
20
215
11
208
21
216.8
0
LINE
5
397
100
AcDbEntity
8
0
6
ByLayer
62
0
370
-1
100
AcDbLine
10
209
20
215
11
209
21
216.8
0
LINE
5
398
100
AcDbEntity
8
0
6
ByLayer
62
0
370
-1
100
AcDbLine
10
210
20
215
11
210
21
216.8
0
LINE
5
399
100
AcDbEntity
8
0
6
ByLayer
62
0
370
-1
100
AcDbLine
10
211
20
215
11
211
21
216.8
0
LINE
5
39A
100
AcDbEntity
8
0
6
ByLayer
62
0
370
-1
100
AcDbLine
10
212
20
215
11
212
21
216.8
0
LINE
5
39B
100
AcDbEntity
8
0
6
ByLayer
62
0
370
-1
100
AcDbLine
10
213
20
215
11
213
21
216.8
0
LINE
5
39C
100
AcDbEntity
8
0
6
ByLayer
62
0
370
-1
100
AcDbLine
10
214
20
215
11
214
21
216.8
0
LINE
5
39D
100
AcDbEntity
8
0
6
ByLayer
62
0
370
-1
100
AcDbLine
10
215
20
215
11
215
21
216.8
0
LINE
5
39E
100
AcDbEntity
8
0
6
ByLayer
62
0
370
-1
100
AcDbLine
10
216
20
215
11
216
21
216.8
0
LINE
5
39F
100
AcDbEntity
8
0
6
ByLayer
62
0
370
-1
100
AcDbLine
10
218
20
215
11
218
21
216.8
0
LINE
5
3A0
100
AcDbEntity
8
0
6
ByLayer
62
0
370
-1
100
AcDbLine
10
219
20
215
11
219
21
216.8
0
LINE
5
3A1
100
AcDbEntity
8
0
6
ByLayer
62
0
370
-1
100
AcDbLine
10
220
20
215
11
220
21
216.8
0
LINE
5
3A2
100
AcDbEntity
8
0
6
ByLayer
62
0
370
-1
100
AcDbLine
10
221
20
215
11
221
21
216.8
0
LINE
5
3A3
100
AcDbEntity
8
0
6
ByLayer
62
0
370
-1
100
AcDbLine
10
222
20
215
11
222
21
216.8
0
LINE
5
3A4
100
AcDbEntity
8
0
6
ByLayer
62
0
370
-1
100
AcDbLine
10
223
20
215
11
223
21
216.8
0
LINE
5
3A5
100
AcDbEntity
8
0
6
ByLayer
62
0
370
-1
100
AcDbLine
10
224
20
215
11
224
21
216.8
0
LINE
5
3A6
100
AcDbEntity
8
0
6
ByLayer
62
0
370
-1
100
AcDbLine
10
225
20
215
11
225
21
216.8
0
LINE
5
3A7
100
AcDbEntity
8
0
6
ByLayer
62
0
370
-1
100
AcDbLine
10
226
20
215
11
226
21
216.8
0
LINE
5
3A8
100
AcDbEntity
8
0
6
ByLayer
62
0
370
-1
100
AcDbLine
10
228
20
215
11
228
21
216.8
0
LINE
5
3A9
100
AcDbEntity
8
0
6
ByLayer
62
0
370
-1
100
AcDbLine
10
229
20
215
11
229
21
216.8
0
LINE
5
3AA
100
AcDbEntity
8
0
6
ByLayer
62
0
370
-1
100
AcDbLine
10
230
20
215
11
230
21
216.8
0
LINE
5
3AB
100
AcDbEntity
8
0
6
ByLayer
62
0
370
-1
100
AcDbLine
10
231
20
215
11
231
21
216.8
0
LINE
5
3AC
100
AcDbEntity
8
0
6
ByLayer
62
0
370
-1
100
AcDbLine
10
232
20
215
11
232
21
216.8
0
LINE
5
3AD
100
AcDbEntity
8
0
6
ByLayer
62
0
370
-1
100
AcDbLine
10
233
20
215
11
233
21
216.8
0
LINE
5
3AE
100
AcDbEntity
8
0
6
ByLayer
62
0
370
-1
100
AcDbLine
10
234
20
215
11
234
21
216.8
0
LINE
5
3AF
100
AcDbEntity
8
0
6
ByLayer
62
0
370
-1
100
AcDbLine
10
235
20
215
11
235
21
216.8
0
LINE
5
3B0
100
AcDbEntity
8
0
6
ByLayer
62
0
370
-1
100
AcDbLine
10
236
20
215
11
236
21
216.8
0
LINE
5
3B1
100
AcDbEntity
8
0
6
ByLayer
62
0
370
-1
100
AcDbLine
10
238
20
215
11
238
21
216.8
0
LINE
5
3B2
100
AcDbEntity
8
0
6
ByLayer
62
0
370
-1
100
AcDbLine
10
239
20
215
11
239
21
216.8
0
LINE
5
3B3
100
AcDbEntity
8
0
6
ByLayer
62
0
370
-1
100
AcDbLine
10
240
20
215
11
240
21
216.8
0
LINE
5
3B4
100
AcDbEntity
8
0
6
ByLayer
62
0
370
-1
100
AcDbLine
10
241
20
215
11
241
21
216.8
0
LINE
5
3B5
100
AcDbEntity
8
0
6
ByLayer
62
0
370
-1
100
AcDbLine
10
242
20
215
11
242
21
216.8
0
LINE
5
3B6
100
AcDbEntity
8
0
6
ByLayer
62
0
370
-1
100
AcDbLine
10
243
20
215
11
243
21
216.8
0
LINE
5
3B7
100
AcDbEntity
8
0
6
ByLayer
62
0
370
-1
100
AcDbLine
10
244
20
215
11
244
21
216.8
0
LINE
5
3B8
100
AcDbEntity
8
0
6
ByLayer
62
0
370
-1
100
AcDbLine
10
245
20
215
11
245
21
216.8
0
LINE
5
3B9
100
AcDbEntity
8
0
6
ByLayer
62
0
370
-1
100
AcDbLine
10
246
20
215
11
246
21
216.8
0
LINE
5
3BA
100
AcDbEntity
8
0
6
ByLayer
62
0
370
-1
100
AcDbLine
10
248
20
215
11
248
21
216.8
0
LINE
5
3BB
100
AcDbEntity
8
0
6
ByLayer
62
0
370
-1
100
AcDbLine
10
249
20
215
11
249
21
216.8
0
LINE
5
3BC
100
AcDbEntity
8
0
6
ByLayer
62
0
370
-1
100
AcDbLine
10
250
20
215
11
250
21
216.8
0
LINE
5
3BD
100
AcDbEntity
8
0
6
ByLayer
62
0
370
-1
100
AcDbLine
10
251
20
215
11
251
21
216.8
0
LINE
5
3BE
100
AcDbEntity
8
0
6
ByLayer
62
0
370
-1
100
AcDbLine
10
252
20
215
11
252
21
216.8
0
LINE
5
3BF
100
AcDbEntity
8
0
6
ByLayer
62
0
370
-1
100
AcDbLine
10
253
20
215
11
253
21
216.8
0
LINE
5
3C0
100
AcDbEntity
8
0
6
ByLayer
62
0
370
-1
100
AcDbLine
10
254
20
215
11
254
21
216.8
0
LINE
5
3C1
100
AcDbEntity
8
0
6
ByLayer
62
0
370
-1
100
AcDbLine
10
255
20
215
11
255
21
216.8
0
LINE
5
3C2
100
AcDbEntity
8
0
6
ByLayer
62
0
370
-1
100
AcDbLine
10
256
20
215
11
256
21
216.8
0
LINE
5
3C3
100
AcDbEntity
8
0
6
ByLayer
62
0
370
-1
100
AcDbLine
10
258
20
215
11
258
21
216.8
0
LINE
5
3C4
100
AcDbEntity
8
0
6
ByLayer
62
0
370
-1
100
AcDbLine
10
259
20
215
11
259
21
216.8
0
LINE
5
3C5
100
AcDbEntity
8
0
6
ByLayer
62
0
370
-1
100
AcDbLine
10
260
20
215
11
260
21
216.8
0
LINE
5
3C6
100
AcDbEntity
8
0
6
ByLayer
62
0
370
-1
100
AcDbLine
10
261
20
215
11
261
21
216.8
0
LINE
5
3C7
100
AcDbEntity
8
0
6
ByLayer
62
0
370
-1
100
AcDbLine
10
262
20
215
11
262
21
216.8
0
LINE
5
3C8
100
AcDbEntity
8
0
6
ByLayer
62
0
370
-1
100
AcDbLine
10
263
20
215
11
263
21
216.8
0
LINE
5
3C9
100
AcDbEntity
8
0
6
ByLayer
62
0
370
-1
100
AcDbLine
10
264
20
215
11
264
21
216.8
0
LINE
5
3CA
100
AcDbEntity
8
0
6
ByLayer
62
0
370
-1
100
AcDbLine
10
265
20
215
11
265
21
216.8
0
LINE
5
3CB
100
AcDbEntity
8
0
6
ByLayer
62
0
370
-1
100
AcDbLine
10
266
20
215
11
266
21
216.8
0
LINE
5
3CC
100
AcDbEntity
8
0
6
ByLayer
62
0
370
-1
100
AcDbLine
10
172
20
216.8
11
172
21
217.4
0
LINE
5
3CD
100
AcDbEntity
8
0
6
ByLayer
62
0
370
-1
100
AcDbLine
10
182
20
216.8
11
182
21
217.4
0
LINE
5
3CE
100
AcDbEntity
8
0
6
ByLayer
62
0
370
-1
100
AcDbLine
10
192
20
216.8
11
192
21
217.4
0
LINE
5
3CF
100
AcDbEntity
8
0
6
ByLayer
62
0
370
-1
100
AcDbLine
10
202
20
216.8
11
202
21
217.4
0
LINE
5
3D0
100
AcDbEntity
8
0
6
ByLayer
62
0
370
-1
100
AcDbLine
10
212
20
216.8
11
212
21
217.4
0
LINE
5
3D1
100
AcDbEntity
8
0
6
ByLayer
62
0
370
-1
100
AcDbLine
10
222
20
216.8
11
222
21
217.4
0
LINE
5
3D2
100
AcDbEntity
8
0
6
ByLayer
62
0
370
-1
100
AcDbLine
10
232
20
216.8
11
232
21
217.4
0
LINE
5
3D3
100
AcDbEntity
8
0
6
ByLayer
62
0
370
-1
100
AcDbLine
10
242
20
216.8
11
242
21
217.4
0
LINE
5
3D4
100
AcDbEntity
8
0
6
ByLayer
62
0
370
-1
100
AcDbLine
10
252
20
216.8
11
252
21
217.4
0
LINE
5
3D5
100
AcDbEntity
8
0
6
ByLayer
62
0
370
-1
100
AcDbLine
10
262
20
216.8
11
262
21
217.4
0
MTEXT
5
3D6
100
AcDbEntity
8
0
6
ByLayer
62
0
370
-1
100
AcDbMText
10
218
20
213
30
0
40
3
41
18.3333333333
71
1
72
1
1
Millimeter
7
standard
210
0
220
0
230
1
50
0
73
2
44
1
0
MTEXT
5
3D7
100
AcDbEntity
8
0
6
ByLayer
62
256
370
-1
100
AcDbMText
10
140
20
210
30
0
40
3
41
45.2500009069
71
1
72
1
1
Flaschenwagen Schnitt
7
standard
210
0
220
0
230
1
50
0
73
2
44
1
0
MTEXT
5
3D8
100
AcDbEntity
8
0
6
ByLayer
62
256
370
-1
100
AcDbMText
10
120
20
210
30
0
40
6
41
13.999998728
71
1
72
1
1
FwS
7
standard
210
0
220
0
230
1
50
0
73
2
44
1
0
INSERT
5
3D9
100
AcDbEntity
8
0
6
ByLayer
62
256
370
-1
100
AcDbBlockReference
2
Schiene-0
10
179.973944189
20
342.997934591
30
0
41
1
42
1
43
0
50
0
70
1
71
1
44
0
45
0
0
LINE
5
3DA
100
AcDbEntity
8
0
6
ByLayer
62
256
370
-1
100
AcDbLine
10
130.973944189
20
339.997934591
11
130.973944189
21
340.997934591
0
LINE
5
3DB
100
AcDbEntity
8
0
6
ByLayer
62
256
370
-1
100
AcDbLine
10
130.973944189
20
339.997934591
11
131.973944189
21
339.997934591
0
LINE
5
3DC
100
AcDbEntity
8
0
6
ByLayer
62
256
370
-1
100
AcDbLine
10
130.973944189
20
339.997934591
11
129.973944189
21
339.997934591
0
LINE
5
3DD
100
AcDbEntity
8
0
6
ByLayer
62
256
370
-1
100
AcDbLine
10
130.973944189
20
339.997934591
11
130.973944189
21
338.997934591
0
LINE
5
3DE
100
AcDbEntity
8
0
6
ByLayer
62
256
370
-1
100
AcDbLine
10
180
20
300
11
180
21
301
0
LINE
5
3DF
100
AcDbEntity
8
0
6
ByLayer
62
256
370
-1
100
AcDbLine
10
180
20
300
11
181
21
300
0
LINE
5
3E0
100
AcDbEntity
8
0
6
ByLayer
62
256
370
-1
100
AcDbLine
10
180
20
300
11
179
21
300
0
LINE
5
3E1
100
AcDbEntity
8
0
6
ByLayer
62
256
370
-1
100
AcDbLine
10
180
20
300
11
180
21
299
0
LINE
5
3E2
100
AcDbEntity
8
0
6
ByLayer
62
256
370
-1
100
AcDbLine
10
131
20
340
11
131
21
341
0
LINE
5
3E3
100
AcDbEntity
8
0
6
ByLayer
62
256
370
-1
100
AcDbLine
10
131
20
340
11
132
21
340
0
LINE
5
3E4
100
AcDbEntity
8
0
6
ByLayer
62
256
370
-1
100
AcDbLine
10
131
20
340
11
130
21
340
0
LINE
5
3E5
100
AcDbEntity
8
0
6
ByLayer
62
256
370
-1
100
AcDbLine
10
131
20
340
11
131
21
339
0
CIRCLE
5
3E6
100
AcDbEntity
8
0
6
ByLayer
62
256
370
-1
100
AcDbCircle
10
180
20
300
40
75
0
LINE
5
3E7
100
AcDbEntity
8
0
6
ByLayer
62
256
370
-1
100
AcDbLine
10
80
20
260
11
80
21
275
0
LINE
5
3E8
100
AcDbEntity
8
0
6
ByLayer
62
256
370
-1
100
AcDbLine
10
92
20
260
11
92
21
275
0
LINE
5
3E9
100
AcDbEntity
8
0
6
ByLayer
62
256
370
-1
100
AcDbLine
10
92
20
260
11
80
21
260
0
LINE
5
3EA
100
AcDbEntity
8
0
6
ByLayer
62
256
370
-1
100
AcDbLine
10
92
20
275
11
80
21
275
0
LINE
5
3EB
100
AcDbEntity
8
0
6
ByLayer
62
256
370
-1
100
AcDbLine
10
80
20
275
11
80
21
281
0
LINE
5
3EC
100
AcDbEntity
8
0
6
ByLayer
62
256
370
-1
100
AcDbLine
10
92
20
275
11
92
21
281
0
LINE
5
3ED
100
AcDbEntity
8
0
6
ByLayer
62
256
370
-1
100
AcDbLine
10
92
20
281
11
80
21
281
0
LINE
5
3EE
100
AcDbEntity
8
0
6
ByLayer
62
256
370
-1
100
AcDbLine
10
92
20
277
11
80
21
277
0
LINE
5
3EF
100
AcDbEntity
8
0
6
ByLayer
62
256
370
-1
100
AcDbLine
10
81
20
281
11
81
21
286
0
LINE
5
3F0
100
AcDbEntity
8
0
6
ByLayer
62
256
370
-1
100
AcDbLine
10
91
20
281
11
91
21
286
0
LINE
5
3F1
100
AcDbEntity
8
0
6
ByLayer
62
256
370
-1
100
AcDbLine
10
91
20
286
11
81
21
286
0
LINE
5
3F2
100
AcDbEntity
8
0
6
ByLayer
62
256
370
-1
100
AcDbLine
10
84
20
286
11
84
21
289
0
LINE
5
3F3
100
AcDbEntity
8
0
6
ByLayer
62
256
370
-1
100
AcDbLine
10
88
20
286
11
88
21
289
0
LINE
5
3F4
100
AcDbEntity
8
0
6
ByLayer
62
256
370
-1
100
AcDbLine
10
86
20
275
11
86
21
277
0
LINE
5
3F5
100
AcDbEntity
8
0
6
ByLayer
62
256
370
-1
100
AcDbLine
10
84
20
289
11
88
21
289
0
LINE
5
3F6
100
AcDbEntity
8
0
6
ByLayer
62
256
370
-1
100
AcDbLine
10
72
20
260
11
49
21
260
0
LINE
5
3F7
100
AcDbEntity
8
0
6
ByLayer
62
256
370
-1
100
AcDbLine
10
49
20
260
11
49
21
277
0
LINE
5
3F8
100
AcDbEntity
8
0
6
ByLayer
62
256
370
-1
100
AcDbLine
10
72
20
260
11
72
21
277
0
LINE
5
3F9
100
AcDbEntity
8
0
6
ByLayer
62
256
370
-1
100
AcDbLine
10
72
20
277
11
76
21
277
0
LINE
5
3FA
100
AcDbEntity
8
0
6
ByLayer
62
256
370
-1
100
AcDbLine
10
45
20
277
11
49
21
277
0
LINE
5
3FB
100
AcDbEntity
8
0
6
ByLayer
62
256
370
-1
100
AcDbLine
10
45
20
275
11
49
21
275
0
LINE
5
3FC
100
AcDbEntity
8
0
6
ByLayer
62
256
370
-1
100
AcDbLine
10
72
20
275
11
76
21
275
0
LINE
5
3FD
100
AcDbEntity
8
0
6
ByLayer
62
256
370
-1
100
AcDbLine
10
72
20
281
11
72
21
277
0
LINE
5
3FE
100
AcDbEntity
8
0
6
ByLayer
62
256
370
-1
100
AcDbLine
10
49
20
281
11
49
21
277
0
LINE
5
3FF
100
AcDbEntity
8
0
6
ByLayer
62
256
370
-1
100
AcDbLine
10
71
20
286
11
71
21
281
0
LINE
5
400
100
AcDbEntity
8
0
6
ByLayer
62
256
370
-1
100
AcDbLine
10
67
20
289
11
67
21
286
0
LINE
5
401
100
AcDbEntity
8
0
6
ByLayer
62
256
370
-1
100
AcDbLine
10
63
20
289
11
63
21
286
0
LINE
5
402
100
AcDbEntity
8
0
6
ByLayer
62
256
370
-1
100
AcDbLine
10
63
20
289
11
67
21
289
0
LINE
5
403
100
AcDbEntity
8
0
6
ByLayer
62
256
370
-1
100
AcDbLine
10
59
20
286
11
59
21
281
0
LINE
5
404
100
AcDbEntity
8
0
6
ByLayer
62
256
370
-1
100
AcDbLine
10
49
20
281
11
59
21
281
0
LINE
5
405
100
AcDbEntity
8
0
6
ByLayer
62
256
370
-1
100
AcDbLine
10
71
20
281
11
72
21
281
0
LINE
5
406
100
AcDbEntity
8
0
6
ByLayer
62
256
370
-1
100
AcDbLine
10
59
20
286
11
63
21
286
0
LINE
5
407
100
AcDbEntity
8
0
6
ByLayer
62
256
370
-1
100
AcDbLine
10
67
20
286
11
71
21
286
0
LINE
5
408
100
AcDbEntity
8
0
6
ByLayer
62
256
370
-1
100
AcDbLine
10
76
20
277
11
76
21
275
0
LINE
5
409
100
AcDbEntity
8
0
6
ByLayer
62
256
370
-1
100
AcDbLine
10
45
20
277
11
45
21
275
0
MTEXT
5
40A
100
AcDbEntity
8
0
6
ByLayer
62
256
370
-1
100
AcDbMText
10
44
20
259
30
0
40
3
41
48.499999364
71
1
72
1
1
Hobbyking\PPRODUCT ID: HKSCM12-5 
7
standard
210
0
220
0
230
1
50
0
73
2
44
1
0
LINE
5
40B
100
AcDbEntity
8
0
6
ByLayer
62
256
370
-1
100
AcDbLine
10
72
20
262
11
77
21
261
0
LINE
5
40C
100
AcDbEntity
8
0
6
ByLayer
62
256
370
-1
100
AcDbLine
10
77
20
261
11
77
21
259
0
LINE
5
40D
100
AcDbEntity
8
0
6
ByLayer
62
256
370
-1
100
AcDbLine
10
77
20
259
11
72
21
260
0
LINE
5
40E
100
AcDbEntity
8
0
6
ByLayer
62
256
370
-1
100
AcDbLine
10
59
20
281
11
71
21
281
0
LINE
5
40F
100
AcDbEntity
8
0
6
ByLayer
62
256
370
-1
100
AcDbLine
10
63
20
286
11
67
21
286
0
LINE
5
410
100
AcDbEntity
8
0
6
ByLayer
62
256
370
-1
100
AcDbLine
10
72
20
310
11
49
21
310
0
LINE
5
411
100
AcDbEntity
8
0
6
ByLayer
62
256
370
-1
100
AcDbLine
10
49
20
310
11
49
21
298
0
LINE
5
412
100
AcDbEntity
8
0
6
ByLayer
62
256
370
-1
100
AcDbLine
10
72
20
310
11
72
21
298
0
CIRCLE
5
413
100
AcDbEntity
8
0
6
ByLayer
62
256
370
-1
100
AcDbCircle
10
46
20
304
40
0.75
0
CIRCLE
5
414
100
AcDbEntity
8
0
6
ByLayer
62
256
370
-1
100
AcDbCircle
10
75
20
304
40
0.75
0
LINE
5
415
100
AcDbEntity
8
0
6
ByLayer
62
256
370
-1
100
AcDbLine
10
49
20
298
11
47
21
298
0
LINE
5
416
100
AcDbEntity
8
0
6
ByLayer
62
256
370
-1
100
AcDbLine
10
74
20
298
11
72
21
298
0
LINE
5
417
100
AcDbEntity
8
0
6
ByLayer
62
256
370
-1
100
AcDbLine
10
47
20
298
11
47
21
294
0
LINE
5
418
100
AcDbEntity
8
0
6
ByLayer
62
256
370
-1
100
AcDbLine
10
74
20
298
11
74
21
294
0
LINE
5
419
100
AcDbEntity
8
0
6
ByLayer
62
256
370
-1
100
AcDbLine
10
47
20
294
11
41
21
294
0
LINE
5
41A
100
AcDbEntity
8
0
6
ByLayer
62
256
370
-1
100
AcDbLine
10
41
20
298
11
41
21
294
0
LINE
5
41B
100
AcDbEntity
8
0
6
ByLayer
62
256
370
-1
100
AcDbLine
10
80
20
294
11
74
21
294
0
LINE
5
41C
100
AcDbEntity
8
0
6
ByLayer
62
256
370
-1
100
AcDbLine
10
80
20
298
11
80
21
294
0
LINE
5
41D
100
AcDbEntity
8
0
6
ByLayer
62
256
370
-1
100
AcDbLine
10
80
20
298
11
80
21
318
0
LINE
5
41E
100
AcDbEntity
8
0
6
ByLayer
62
256
370
-1
100
AcDbLine
10
41
20
298
11
41
21
318
0
LINE
5
41F
100
AcDbEntity
8
0
6
ByLayer
62
256
370
-1
100
AcDbLine
10
53
20
318
11
41
21
318
0
LINE
5
420
100
AcDbEntity
8
0
6
ByLayer
62
256
370
-1
100
AcDbLine
10
68
20
318
11
80
21
318
0
LINE
5
421
100
AcDbEntity
8
0
6
ByLayer
62
256
370
-1
100
AcDbLine
10
53
20
322
11
53
21
318
0
LINE
5
422
100
AcDbEntity
8
0
6
ByLayer
62
256
370
-1
100
AcDbLine
10
68
20
322
11
68
21
318
0
LINE
5
423
100
AcDbEntity
8
0
6
ByLayer
62
256
370
-1
100
AcDbLine
10
53
20
328
11
53
21
324
0
LINE
5
424
100
AcDbEntity
8
0
6
ByLayer
62
256
370
-1
100
AcDbLine
10
68
20
328
11
68
21
324
0
LINE
5
425
100
AcDbEntity
8
0
6
ByLayer
62
256
370
-1
100
AcDbLine
10
47
20
333
11
47
21
329
0
LINE
5
426
100
AcDbEntity
8
0
6
ByLayer
62
256
370
-1
100
AcDbLine
10
41
20
333
11
41
21
329
0
LINE
5
427
100
AcDbEntity
8
0
6
ByLayer
62
256
370
-1
100
AcDbLine
10
74
20
333
11
74
21
329
0
LINE
5
428
100
AcDbEntity
8
0
6
ByLayer
62
256
370
-1
100
AcDbLine
10
80
20
333
11
80
21
329
0
LINE
5
429
100
AcDbEntity
8
0
6
ByLayer
62
256
370
-1
100
AcDbLine
10
47
20
329
11
41
21
329
0
LINE
5
42A
100
AcDbEntity
8
0
6
ByLayer
62
256
370
-1
100
AcDbLine
10
47
20
333
11
41
21
333
0
LINE
5
42B
100
AcDbEntity
8
0
6
ByLayer
62
256
370
-1
100
AcDbLine
10
80
20
333
11
74
21
333
0
LINE
5
42C
100
AcDbEntity
8
0
6
ByLayer
62
256
370
-1
100
AcDbLine
10
80
20
329
11
74
21
329
0
LINE
5
42D
100
AcDbEntity
8
0
6
ByLayer
62
256
370
-1
100
AcDbLine
10
53
20
328
11
68
21
328
0
LINE
5
42E
100
AcDbEntity
8
0
6
ByLayer
62
256
370
-1
100
AcDbLine
10
68
20
324
11
53
21
324
0
LINE
5
42F
100
AcDbEntity
8
0
6
ByLayer
62
256
370
-1
100
AcDbLine
10
53
20
322
11
68
21
322
0
ARC
5
430
100
AcDbEntity
8
0
6
ByLayer
62
256
370
-1
100
AcDbCircle
10
141.291648633
20
331.611024485
40
7
100
AcDbArc
50
320.784060638
51
42.7353736159
0
CIRCLE
5
431
100
AcDbEntity
8
0
6
ByLayer
62
256
370
-1
100
AcDbCircle
10
131
20
340
40
2
0
LINE
5
432
100
AcDbEntity
8
0
6
ByLayer
62
256
370
-1
100
AcDbLine
10
137.526983838
20
346.000855693
11
146.433119014
21
336.361317352
0
ARC
5
433
100
AcDbEntity
8
0
6
ByLayer
62
256
370
-1
100
AcDbCircle
10
132.385513457
20
341.250562827
40
7
100
AcDbArc
50
42.7353736159
51
139.113081502
0
LINE
5
434
100
AcDbEntity
8
0
6
ByLayer
62
256
370
-1
100
AcDbLine
10
178
20
234
11
182
21
234
0
LINE
5
435
100
AcDbEntity
8
0
6
ByLayer
62
256
370
-1
100
AcDbLine
10
178
20
258
11
182
21
258
0
LINE
5
436
100
AcDbEntity
8
0
6
ByLayer
62
256
370
-1
100
AcDbLine
10
178
20
234
11
178
21
258
0
LINE
5
437
100
AcDbEntity
8
0
6
ByLayer
62
256
370
-1
100
AcDbLine
10
182
20
234
11
182
21
258
0
LINE
5
438
100
AcDbEntity
8
0
6
ByLayer
62
256
370
-1
100
AcDbLine
10
145.271160175
20
243.838706299
11
148.73526179
21
241.838706299
0
LINE
5
439
100
AcDbEntity
8
0
6
ByLayer
62
256
370
-1
100
AcDbLine
10
158.771160175
20
267.221392202
11
162.23526179
21
265.221392202
0
LINE
5
43A
100
AcDbEntity
8
0
6
ByLayer
62
256
370
-1
100
AcDbLine
10
145.271160175
20
243.838706299
11
158.771160175
21
267.221392202
0
LINE
5
43B
100
AcDbEntity
8
0
6
ByLayer
62
256
370
-1
100
AcDbLine
10
148.73526179
20
241.838706299
11
162.23526179
21
265.221392202
0
LINE
5
43C
100
AcDbEntity
8
0
6
ByLayer
62
256
370
-1
100
AcDbLine
10
224.974375935
20
307.989503761
11
240.974375935
21
307.989503761
0
LINE
5
43D
100
AcDbEntity
8
0
6
ByLayer
62
256
370
-1
100
AcDbLine
10
240.974375935
20
307.989503761
11
240.974375935
21
303.989503761
0
LINE
5
43E
100
AcDbEntity
8
0
6
ByLayer
62
256
370
-1
100
AcDbLine
10
240.974375935
20
303.989503761
11
224.974375935
21
303.989503761
0
LINE
5
43F
100
AcDbEntity
8
0
6
ByLayer
62
256
370
-1
100
AcDbLine
10
224.974375935
20
303.989503761
11
224.974375935
21
307.989503761
0
LINE
5
440
100
AcDbEntity
8
0
6
ByLayer
62
256
370
-1
100
AcDbLine
10
134.974375935
20
307.989503761
11
118.974375935
21
307.989503761
0
LINE
5
441
100
AcDbEntity
8
0
6
ByLayer
62
256
370
-1
100
AcDbLine
10
118.974375935
20
307.989503761
11
118.974375935
21
303.989503761
0
LINE
5
442
100
AcDbEntity
8
0
6
ByLayer
62
256
370
-1
100
AcDbLine
10
118.974375935
20
303.989503761
11
134.974375935
21
303.989503761
0
LINE
5
443
100
AcDbEntity
8
0
6
ByLayer
62
256
370
-1
100
AcDbLine
10
134.974375935
20
303.989503761
11
134.974375935
21
307.989503761
0
LINE
5
444
100
AcDbEntity
8
0
6
ByLayer
62
256
370
-1
100
AcDbLine
10
142.974375935
20
307.989503761
11
158.974375935
21
307.989503761
0
LINE
5
445
100
AcDbEntity
8
0
6
ByLayer
62
256
370
-1
100
AcDbLine
10
158.974375935
20
307.989503761
11
158.974375935
21
303.989503761
0
LINE
5
446
100
AcDbEntity
8
0
6
ByLayer
62
256
370
-1
100
AcDbLine
10
158.974375935
20
303.989503761
11
142.974375935
21
303.989503761
0
LINE
5
447
100
AcDbEntity
8
0
6
ByLayer
62
256
370
-1
100
AcDbLine
10
142.974375935
20
303.989503761
11
142.974375935
21
307.989503761
0
LINE
5
448
100
AcDbEntity
8
0
6
ByLayer
62
256
370
-1
100
AcDbLine
10
216.974375935
20
307.989503761
11
200.974375935
21
307.989503761
0
LINE
5
449
100
AcDbEntity
8
0
6
ByLayer
62
256
370
-1
100
AcDbLine
10
200.974375935
20
307.989503761
11
200.974375935
21
303.989503761
0
LINE
5
44A
100
AcDbEntity
8
0
6
ByLayer
62
256
370
-1
100
AcDbLine
10
200.974375935
20
303.989503761
11
216.974375935
21
303.989503761
0
LINE
5
44B
100
AcDbEntity
8
0
6
ByLayer
62
256
370
-1
100
AcDbLine
10
216.974375935
20
303.989503761
11
216.974375935
21
307.989503761
0
ARC
5
44C
100
AcDbEntity
8
0
6
ByLayer
62
256
370
-1
100
AcDbCircle
10
152.336327764
20
323
40
7
100
AcDbArc
50
140.288390375
51
270
0
ARC
5
44D
100
AcDbEntity
8
0
6
ByLayer
62
256
370
-1
100
AcDbCircle
10
167.671171994
20
323
40
7
100
AcDbArc
50
270
51
305.95056762
0
ARC
5
44E
100
AcDbEntity
8
0
6
ByLayer
62
256
370
-1
100
AcDbCircle
10
192.328828006
20
323
40
7
100
AcDbArc
50
234.04943238
51
270
0
LINE
5
44F
100
AcDbEntity
8
0
6
ByLayer
62
256
370
-1
100
AcDbLine
10
152.336327764
20
316
11
167.671171994
21
316
0
ARC
5
450
100
AcDbEntity
8
0
6
ByLayer
62
256
370
-1
100
AcDbCircle
10
180
20
306
40
14
100
AcDbArc
50
54.0494323804
51
125.950565958
0
LINE
5
451
100
AcDbEntity
8
0
6
ByLayer
62
256
370
-1
100
AcDbLine
10
192.328827669
20
316
11
207.715783857
21
316
0
LINE
5
452
100
AcDbEntity
8
0
6
ByLayer
62
256
370
-1
100
AcDbLine
10
220.056141645
20
252.586951732
11
223.005250992
21
255.289312563
0
LINE
5
453
100
AcDbEntity
8
0
6
ByLayer
62
256
370
-1
100
AcDbLine
10
241.685389322
20
293.123877837
11
242.000199264
21
297.111470432
0
LINE
5
454
100
AcDbEntity
8
0
6
ByLayer
62
256
370
-1
100
AcDbLine
10
241.685389322
20
293.123877837
11
249.63889356
21
292.495969608
0
LINE
5
455
100
AcDbEntity
8
0
6
ByLayer
62
256
370
-1
100
AcDbLine
10
242.000199264
20
297.111470432
11
249.953937652
21
296.483543717
0
LINE
5
456
100
AcDbEntity
8
0
6
ByLayer
62
256
370
-1
100
AcDbLine
10
223.005250992
20
255.289312563
11
228.409078982
21
249.392069139
0
LINE
5
457
100
AcDbEntity
8
0
6
ByLayer
62
256
370
-1
100
AcDbLine
10
220.056141645
20
252.586951732
11
225.439894314
21
246.711616676
0
ARC
5
458
100
AcDbEntity
8
0
6
ByLayer
62
256
370
-1
100
AcDbCircle
10
180.026055811
20
300.002065409
40
70.016345618
100
AcDbArc
50
139.113081502
51
310.437460529
0
ARC
5
459
100
AcDbEntity
8
0
6
ByLayer
62
256
370
-1
100
AcDbCircle
10
180.026055811
20
300.002065409
40
70.016345618
100
AcDbArc
50
313.711276389
51
353.845784398
0
LINE
5
45A
100
AcDbEntity
8
0
6
ByLayer
62
256
370
-1
100
AcDbLine
10
71
20
288
11
55
21
288
0
LINE
5
45B
100
AcDbEntity
8
0
6
ByLayer
62
256
370
-1
100
AcDbLine
10
71
20
292
11
55
21
292
0
LINE
5
45C
100
AcDbEntity
8
0
6
ByLayer
62
256
370
-1
100
AcDbLine
10
71
20
292
11
71
21
288
0
LINE
5
45D
100
AcDbEntity
8
0
6
ByLayer
62
256
370
-1
100
AcDbLine
10
236.794733192
20
71.7350889359
11
240.794733192
21
83.7350889359
0
LINE
5
45E
100
AcDbEntity
8
0
6
ByLayer
62
256
370
-1
100
AcDbLine
10
229.205266808
20
74.2649110641
11
233.205266808
21
86.2649110641
0
ARC
5
45F
100
AcDbEntity
8
0
6
ByLayer
62
256
370
-1
100
AcDbCircle
10
233
20
73
40
4
100
AcDbArc
50
161.565030813
51
341.565030813
0
ARC
5
460
100
AcDbEntity
8
0
6
ByLayer
62
256
370
-1
100
AcDbCircle
10
237
20
85
40
4
100
AcDbArc
50
341.565083375
51
521.565018979
0
LINE
5
461
100
AcDbEntity
8
0
6
ByLayer
62
256
370
-1
100
AcDbLine
10
236.794733192
20
271.735088936
11
240.794733192
21
283.735088936
0
LINE
5
462
100
AcDbEntity
8
0
6
ByLayer
62
256
370
-1
100
AcDbLine
10
229.205266808
20
274.264911064
11
233.205266808
21
286.264911064
0
ARC
5
463
100
AcDbEntity
8
0
6
ByLayer
62
256
370
-1
100
AcDbCircle
10
233
20
273
40
4
100
AcDbArc
50
161.565030813
51
341.565030813
0
ARC
5
464
100
AcDbEntity
8
0
6
ByLayer
62
256
370
-1
100
AcDbCircle
10
237
20
285
40
4
100
AcDbArc
50
341.565083375
51
521.565018979
0
ARC
5
465
100
AcDbEntity
8
0
6
ByLayer
62
256
370
-1
100
AcDbCircle
10
125
20
292
40
2.5
100
AcDbArc
50
0
51
180
0
ARC
5
466
100
AcDbEntity
8
0
6
ByLayer
62
256
370
-1
100
AcDbCircle
10
124.5
20
272.5
40
2
100
AcDbArc
50
180
51
270
0
ARC
5
467
100
AcDbEntity
8
0
6
ByLayer
62
256
370
-1
100
AcDbCircle
10
125.5
20
272.5
40
2
100
AcDbArc
50
270
51
0
0
LINE
5
468
100
AcDbEntity
8
0
6
ByLayer
62
256
370
-1
100
AcDbLine
10
122.5
20
272.5
11
122.5
21
292
0
LINE
5
469
100
AcDbEntity
8
0
6
ByLayer
62
256
370
-1
100
AcDbLine
10
124.500001907
20
270.5
11
125.500004863
21
270.5
0
LINE
5
46A
100
AcDbEntity
8
0
6
ByLayer
62
256
370
-1
100
AcDbLine
10
127.5
20
272.5
11
127.5
21
292
0
LINE
5
46B
100
AcDbEntity
8
0
6
ByLayer
62
256
370
-1
100
AcDbLine
10
144
20
295
11
140
21
295
0
LINE
5
46C
100
AcDbEntity
8
0
6
ByLayer
62
256
370
-1
100
AcDbLine
10
144
20
301
11
140
21
301
0
LINE
5
46D
100
AcDbEntity
8
0
6
ByLayer
62
256
370
-1
100
AcDbLine
10
144
20
268
11
140
21
268
0
LINE
5
46E
100
AcDbEntity
8
0
6
ByLayer
62
256
370
-1
100
AcDbLine
10
144
20
262
11
140
21
262
0
LINE
5
46F
100
AcDbEntity
8
0
6
ByLayer
62
256
370
-1
100
AcDbLine
10
140
20
295
11
140
21
301
0
LINE
5
470
100
AcDbEntity
8
0
6
ByLayer
62
256
370
-1
100
AcDbLine
10
144
20
295
11
144
21
301
0
LINE
5
471
100
AcDbEntity
8
0
6
ByLayer
62
256
370
-1
100
AcDbLine
10
144
20
262
11
144
21
268
0
LINE
5
472
100
AcDbEntity
8
0
6
ByLayer
62
256
370
-1
100
AcDbLine
10
140
20
262
11
140
21
268
0
INSERT
5
473
100
AcDbEntity
8
0
6
ByLayer
62
256
370
-1
100
AcDbBlockReference
2
Spant-Aussen
10
400
20
300
30
0
41
1
42
1
43
0
50
0
70
1
71
1
44
0
45
0
0
LINE
5
474
100
AcDbEntity
8
0
6
ByLayer
62
256
370
-1
100
AcDbLine
10
364
20
289
11
360
21
289
0
LINE
5
475
100
AcDbEntity
8
0
6
ByLayer
62
256
370
-1
100
AcDbLine
10
364
20
274
11
360
21
274
0
LINE
5
476
100
AcDbEntity
8
0
6
ByLayer
62
256
370
-1
100
AcDbLine
10
364
20
289
11
364
21
274
0
LINE
5
477
100
AcDbEntity
8
0
6
ByLayer
62
256
370
-1
100
AcDbLine
10
360
20
274
11
360
21
289
0
LINE
5
478
100
AcDbEntity
8
0
6
ByLayer
62
256
370
-1
100
AcDbLine
10
500
20
230
11
521
21
230
0
LINE
5
479
100
AcDbEntity
8
0
6
ByLayer
62
256
370
-1
100
AcDbLine
10
500
20
288
11
521
21
288
0
LINE
5
47A
100
AcDbEntity
8
0
6
ByLayer
62
256
370
-1
100
AcDbLine
10
500
20
279
11
521
21
279
0
LINE
5
47B
100
AcDbEntity
8
0
6
ByLayer
62
256
370
-1
100
AcDbLine
10
500
20
239
11
521
21
239
0
CIRCLE
5
47C
100
AcDbEntity
8
0
6
ByLayer
62
256
370
-1
100
AcDbCircle
10
510.5
20
249
40
9
0
CIRCLE
5
47D
100
AcDbEntity
8
0
6
ByLayer
62
256
370
-1
100
AcDbCircle
10
510.5
20
249
40
2
0
CIRCLE
5
47E
100
AcDbEntity
8
0
6
ByLayer
62
256
370
-1
100
AcDbCircle
10
505
20
283.5
40
1
0
CIRCLE
5
47F
100
AcDbEntity
8
0
6
ByLayer
62
256
370
-1
100
AcDbCircle
10
516
20
283.5
40
1
0
CIRCLE
5
480
100
AcDbEntity
8
0
6
ByLayer
62
256
370
-1
100
AcDbCircle
10
505
20
234.5
40
1
0
CIRCLE
5
481
100
AcDbEntity
8
0
6
ByLayer
62
256
370
-1
100
AcDbCircle
10
516
20
234.5
40
1
0
LINE
5
482
100
AcDbEntity
8
0
6
ByLayer
62
256
370
-1
100
AcDbLine
10
500
20
279
11
500
21
288
0
LINE
5
483
100
AcDbEntity
8
0
6
ByLayer
62
256
370
-1
100
AcDbLine
10
500
20
230
11
500
21
239
0
LINE
5
484
100
AcDbEntity
8
0
6
ByLayer
62
256
370
-1
100
AcDbLine
10
500
20
239
11
500
21
279
0
LINE
5
485
100
AcDbEntity
8
0
6
ByLayer
62
256
370
-1
100
AcDbLine
10
521
20
288
11
521
21
279
0
LINE
5
486
100
AcDbEntity
8
0
6
ByLayer
62
256
370
-1
100
AcDbLine
10
521
20
279
11
521
21
239
0
LINE
5
487
100
AcDbEntity
8
0
6
ByLayer
62
256
370
-1
100
AcDbLine
10
521
20
239
11
521
21
230
0
LINE
5
488
100
AcDbEntity
8
0
6
ByLayer
62
256
370
-1
100
AcDbLine
10
412
20
242
11
433
21
242
0
LINE
5
489
100
AcDbEntity
8
0
6
ByLayer
62
256
370
-1
100
AcDbLine
10
412
20
300
11
433
21
300
0
LINE
5
48A
100
AcDbEntity
8
0
6
ByLayer
62
256
370
-1
100
AcDbLine
10
412
20
291
11
433
21
291
0
LINE
5
48B
100
AcDbEntity
8
0
6
ByLayer
62
256
370
-1
100
AcDbLine
10
412
20
251
11
433
21
251
0
CIRCLE
5
48C
100
AcDbEntity
8
0
6
ByLayer
62
256
370
-1
100
AcDbCircle
10
422.5
20
261
40
9
0
CIRCLE
5
48D
100
AcDbEntity
8
0
6
ByLayer
62
256
370
-1
100
AcDbCircle
10
422.5
20
261
40
2
0
CIRCLE
5
48E
100
AcDbEntity
8
0
6
ByLayer
62
256
370
-1
100
AcDbCircle
10
417
20
295.5
40
1
0
CIRCLE
5
48F
100
AcDbEntity
8
0
6
ByLayer
62
256
370
-1
100
AcDbCircle
10
428
20
295.5
40
1
0
CIRCLE
5
490
100
AcDbEntity
8
0
6
ByLayer
62
256
370
-1
100
AcDbCircle
10
417
20
246.5
40
1
0
CIRCLE
5
491
100
AcDbEntity
8
0
6
ByLayer
62
256
370
-1
100
AcDbCircle
10
428
20
246.5
40
1
0
LINE
5
492
100
AcDbEntity
8
0
6
ByLayer
62
256
370
-1
100
AcDbLine
10
412
20
291
11
412
21
300
0
LINE
5
493
100
AcDbEntity
8
0
6
ByLayer
62
256
370
-1
100
AcDbLine
10
412
20
242
11
412
21
251
0
LINE
5
494
100
AcDbEntity
8
0
6
ByLayer
62
256
370
-1
100
AcDbLine
10
412
20
251
11
412
21
291
0
LINE
5
495
100
AcDbEntity
8
0
6
ByLayer
62
256
370
-1
100
AcDbLine
10
433
20
300
11
433
21
291
0
LINE
5
496
100
AcDbEntity
8
0
6
ByLayer
62
256
370
-1
100
AcDbLine
10
433
20
291
11
433
21
251
0
LINE
5
497
100
AcDbEntity
8
0
6
ByLayer
62
256
370
-1
100
AcDbLine
10
433
20
251
11
433
21
242
0
LINE
5
498
100
AcDbEntity
8
0
6
ByLayer
62
256
370
-1
100
AcDbLine
10
429.028103123
20
267.195471702
11
355.688685334
21
344.472441932
0
LINE
5
499
100
AcDbEntity
8
0
6
ByLayer
62
256
370
-1
100
AcDbLine
10
346.054512688
20
335.749500327
11
415.688479459
21
255.117552557
0
INSERT
5
49A
100
AcDbEntity
8
0
6
ByLayer
62
256
370
-1
100
AcDbBlockReference
2
Kupplungsbolzen-Montageplatte
10
400
20
355.5
30
0
41
1
42
1
43
0
50
0
70
1
71
1
44
0
45
0
0
ARC
5
49B
100
AcDbEntity
8
0
6
ByLayer
62
256
370
-1
100
AcDbCircle
10
368
20
354
40
2
100
AcDbArc
50
90
51
180
0
ARC
5
49C
100
AcDbEntity
8
0
6
ByLayer
62
256
370
-1
100
AcDbCircle
10
368
20
351
40
2
100
AcDbArc
50
180
51
270
0
ARC
5
49D
100
AcDbEntity
8
0
6
ByLayer
62
256
370
-1
100
AcDbCircle
10
392
20
354
40
2
100
AcDbArc
50
0
51
90
0
ARC
5
49E
100
AcDbEntity
8
0
6
ByLayer
62
256
370
-1
100
AcDbCircle
10
392
20
351
40
2
100
AcDbArc
50
270
51
0
0
LINE
5
49F
100
AcDbEntity
8
0
6
ByLayer
62
256
370
-1
100
AcDbLine
10
394
20
351
11
394
21
354
0
LINE
5
4A0
100
AcDbEntity
8
0
6
ByLayer
62
256
370
-1
100
AcDbLine
10
368
20
349
11
392
21
349
0
LINE
5
4A1
100
AcDbEntity
8
0
6
ByLayer
62
256
370
-1
100
AcDbLine
10
366
20
354
11
366
21
351
0
LINE
5
4A2
100
AcDbEntity
8
0
6
ByLayer
62
256
370
-1
100
AcDbLine
10
392
20
356
11
368
21
356
0
ARC
5
4A3
100
AcDbEntity
8
0
6
ByLayer
62
256
370
-1
100
AcDbCircle
10
125
20
92
40
2.5
100
AcDbArc
50
0
51
180
0
ARC
5
4A4
100
AcDbEntity
8
0
6
ByLayer
62
256
370
-1
100
AcDbCircle
10
124.5
20
72.5
40
2
100
AcDbArc
50
180
51
270
0
ARC
5
4A5
100
AcDbEntity
8
0
6
ByLayer
62
256
370
-1
100
AcDbCircle
10
125.5
20
72.5
40
2
100
AcDbArc
50
270
51
0
0
LINE
5
4A6
100
AcDbEntity
8
0
6
ByLayer
62
256
370
-1
100
AcDbLine
10
122.5
20
72.5
11
122.5
21
92
0
LINE
5
4A7
100
AcDbEntity
8
0
6
ByLayer
62
256
370
-1
100
AcDbLine
10
124.500001907
20
70.5
11
125.500004863
21
70.5
0
LINE
5
4A8
100
AcDbEntity
8
0
6
ByLayer
62
256
370
-1
100
AcDbLine
10
127.5
20
72.5
11
127.5
21
92
0
CIRCLE
5
4A9
100
AcDbEntity
8
0
6
ByLayer
62
256
370
-1
100
AcDbCircle
10
180
20
280
40
42
0
CIRCLE
5
4AA
100
AcDbEntity
8
0
6
ByLayer
62
256
370
-1
100
AcDbCircle
10
180
20
80
40
42
0
LINE
5
4AB
100
AcDbEntity
8
0
6
ByLayer
62
256
370
-1
100
AcDbLine
10
219.304608099
20
315.998471566
11
223.304608099
21
315.998471566
0
LINE
5
4AC
100
AcDbEntity
8
0
6
ByLayer
62
256
370
-1
100
AcDbLine
10
207.715783857
20
316
11
219.278552289
21
315.996406157
0
INSERT
5
4AD
100
AcDbEntity
8
0
6
ByLayer
62
256
370
-1
100
AcDbBlockReference
2
Querträger-rechts-0-0
10
196.147944189
20
123.997934591
30
0
41
1
42
1
43
0
50
0
70
1
71
1
44
0
45
0
0
LINE
5
4AE
100
AcDbEntity
8
0
6
ByLayer
62
256
370
-1
100
AcDbLine
10
221.174
20
116
11
225.174
21
116
0
LINE
5
4AF
100
AcDbEntity
8
0
6
ByLayer
62
256
370
-1
100
AcDbLine
10
225.174
20
116
11
225.174
21
120
0
LINE
5
4B0
100
AcDbEntity
8
0
6
ByLayer
62
256
370
-1
100
AcDbLine
10
225.174
20
120
11
221.174
21
120
0
LINE
5
4B1
100
AcDbEntity
8
0
6
ByLayer
62
256
370
-1
100
AcDbLine
10
221.174
20
120
11
221.174
21
127.991378029
0
LINE
5
4B2
100
AcDbEntity
8
0
6
ByLayer
62
256
370
-1
100
AcDbLine
10
221.174
20
127.991378029
11
229.174
21
128
0
LINE
5
4B3
100
AcDbEntity
8
0
6
ByLayer
62
256
370
-1
100
AcDbLine
10
229.174
20
128
11
229.174
21
132
0
LINE
5
4B4
100
AcDbEntity
8
0
6
ByLayer
62
256
370
-1
100
AcDbLine
10
229.174
20
132
11
237.174
21
132
0
LINE
5
4B5
100
AcDbEntity
8
0
6
ByLayer
62
256
370
-1
100
AcDbLine
10
237.174
20
132
11
237.174
21
128
0
LINE
5
4B6
100
AcDbEntity
8
0
6
ByLayer
62
256
370
-1
100
AcDbLine
10
237.174
20
128
11
244.174
21
128
0
LINE
5
4B7
100
AcDbEntity
8
0
6
ByLayer
62
256
370
-1
100
AcDbLine
10
244.174
20
128
11
244.174
21
132
0
INSERT
5
4B8
100
AcDbEntity
8
0
6
ByLayer
62
256
370
-1
100
AcDbBlockReference
2
Querträger-rechts-0-0-0
10
196.147944189
20
323.997934591
30
0
41
1
42
1
43
0
50
0
70
1
71
1
44
0
45
0
0
LINE
5
4B9
100
AcDbEntity
8
0
6
ByLayer
62
256
370
-1
100
AcDbLine
10
225.174
20
316
11
225.174
21
320
0
LINE
5
4BA
100
AcDbEntity
8
0
6
ByLayer
62
256
370
-1
100
AcDbLine
10
225.174
20
320
11
221.174
21
320
0
LINE
5
4BB
100
AcDbEntity
8
0
6
ByLayer
62
256
370
-1
100
AcDbLine
10
221.174
20
320
11
221.174
21
327.991378029
0
LINE
5
4BC
100
AcDbEntity
8
0
6
ByLayer
62
256
370
-1
100
AcDbLine
10
221.174
20
327.991378029
11
229.174
21
328
0
LINE
5
4BD
100
AcDbEntity
8
0
6
ByLayer
62
256
370
-1
100
AcDbLine
10
229.174
20
328
11
229.174
21
332
0
LINE
5
4BE
100
AcDbEntity
8
0
6
ByLayer
62
256
370
-1
100
AcDbLine
10
229.174
20
332
11
237.174
21
332
0
LINE
5
4BF
100
AcDbEntity
8
0
6
ByLayer
62
256
370
-1
100
AcDbLine
10
237.174
20
332
11
237.174
21
328
0
ARC
5
4C0
100
AcDbEntity
8
0
6
ByLayer
62
256
370
-1
100
AcDbCircle
10
180.026055811
20
300.002065409
40
70.016345618
100
AcDbArc
50
357.119509907
51
23.5704968392
0
LINE
5
4C1
100
AcDbEntity
8
0
6
ByLayer
62
256
370
-1
100
AcDbLine
10
237.174
20
328
11
244.2
21
328
0
LINE
5
4C2
100
AcDbEntity
8
0
6
ByLayer
62
256
370
-1
100
AcDbLine
10
320
20
29
11
324
21
29
0
LINE
5
4C3
100
AcDbEntity
8
0
6
ByLayer
62
256
370
-1
100
AcDbLine
10
367.33
20
29
11
371.33
21
29
0
LINE
5
4C4
100
AcDbEntity
8
0
6
ByLayer
62
256
370
-1
100
AcDbLine
10
414.66
20
29
11
418.66
21
29
0
LINE
5
4C5
100
AcDbEntity
8
0
6
ByLayer
62
256
370
-1
100
AcDbLine
10
461.99
20
29
11
465.99
21
29
0
LINE
5
4C6
100
AcDbEntity
8
0
6
ByLayer
62
256
370
-1
100
AcDbLine
10
509.32
20
29
11
513.32
21
29
0
LINE
5
4C7
100
AcDbEntity
8
0
6
ByLayer
62
256
370
-1
100
AcDbLine
10
556.65
20
29
11
560.65
21
29
0
LINE
5
4C8
100
AcDbEntity
8
0
6
ByLayer
62
256
370
-1
100
AcDbLine
10
603.98
20
29
11
607.98
21
29
0
LINE
5
4C9
100
AcDbEntity
8
0
6
ByLayer
62
256
370
-1
100
AcDbLine
10
367.33
20
37
11
371.33
21
37
0
LINE
5
4CA
100
AcDbEntity
8
0
6
ByLayer
62
256
370
-1
100
AcDbLine
10
367.33
20
29
11
367.33
21
37
0
LINE
5
4CB
100
AcDbEntity
8
0
6
ByLayer
62
256
370
-1
100
AcDbLine
10
371.33
20
29
11
371.33
21
37
0
LINE
5
4CC
100
AcDbEntity
8
0
6
ByLayer
62
256
370
-1
100
AcDbLine
10
418.66
20
29
11
418.66
21
37
0
LINE
5
4CD
100
AcDbEntity
8
0
6
ByLayer
62
256
370
-1
100
AcDbLine
10
414.66
20
29
11
414.66
21
37
0
LINE
5
4CE
100
AcDbEntity
8
0
6
ByLayer
62
256
370
-1
100
AcDbLine
10
414.66
20
37
11
418.66
21
37
0
LINE
5
4CF
100
AcDbEntity
8
0
6
ByLayer
62
256
370
-1
100
AcDbLine
10
461.99
20
37
11
465.99
21
37
0
LINE
5
4D0
100
AcDbEntity
8
0
6
ByLayer
62
256
370
-1
100
AcDbLine
10
465.99
20
29
11
465.99
21
37
0
LINE
5
4D1
100
AcDbEntity
8
0
6
ByLayer
62
256
370
-1
100
AcDbLine
10
461.99
20
29
11
461.99
21
37
0
LINE
5
4D2
100
AcDbEntity
8
0
6
ByLayer
62
256
370
-1
100
AcDbLine
10
509.32
20
37
11
513.32
21
37
0
LINE
5
4D3
100
AcDbEntity
8
0
6
ByLayer
62
256
370
-1
100
AcDbLine
10
513.32
20
29
11
513.32
21
37
0
LINE
5
4D4
100
AcDbEntity
8
0
6
ByLayer
62
256
370
-1
100
AcDbLine
10
509.32
20
29
11
509.32
21
37
0
LINE
5
4D5
100
AcDbEntity
8
0
6
ByLayer
62
256
370
-1
100
AcDbLine
10
556.65
20
37
11
560.65
21
37
0
LINE
5
4D6
100
AcDbEntity
8
0
6
ByLayer
62
256
370
-1
100
AcDbLine
10
556.65
20
29
11
556.65
21
37
0
LINE
5
4D7
100
AcDbEntity
8
0
6
ByLayer
62
256
370
-1
100
AcDbLine
10
560.65
20
29
11
560.65
21
37
0
LINE
5
4D8
100
AcDbEntity
8
0
6
ByLayer
62
256
370
-1
100
AcDbLine
10
603.98
20
29
11
603.98
21
37
0
LINE
5
4D9
100
AcDbEntity
8
0
6
ByLayer
62
256
370
-1
100
AcDbLine
10
603.98
20
37
11
607.98
21
37
0
LINE
5
4DA
100
AcDbEntity
8
0
6
ByLayer
62
256
370
-1
100
AcDbLine
10
320
20
37
11
324
21
37
0
LINE
5
4DB
100
AcDbEntity
8
0
6
ByLayer
62
256
370
-1
100
AcDbLine
10
324
20
29
11
324
21
37
0
LINE
5
4DC
100
AcDbEntity
8
0
6
ByLayer
62
256
370
-1
100
AcDbLine
10
320
20
37
11
320
21
54
0
LINE
5
4DD
100
AcDbEntity
8
0
6
ByLayer
62
256
370
-1
100
AcDbLine
10
320
20
25
11
320
21
29
0
LINE
5
4DE
100
AcDbEntity
8
0
6
ByLayer
62
256
370
-1
100
AcDbLine
10
607.98
20
37
11
607.98
21
54
0
LINE
5
4DF
100
AcDbEntity
8
0
6
ByLayer
62
256
370
-1
100
AcDbLine
10
320
20
54
11
607.98
21
54
0
LINE
5
4E0
100
AcDbEntity
8
0
6
ByLayer
62
256
370
-1
100
AcDbLine
10
320
20
25
11
607.98
21
25
0
LINE
5
4E1
100
AcDbEntity
8
0
6
ByLayer
62
256
370
-1
100
AcDbLine
10
607.98
20
25
11
607.98
21
29
0
LINE
5
4E2
100
AcDbEntity
8
0
6
ByLayer
62
256
370
-1
100
AcDbLine
10
336
20
37
11
336
21
41
0
LINE
5
4E3
100
AcDbEntity
8
0
6
ByLayer
62
256
370
-1
100
AcDbLine
10
355.33
20
37
11
355.33
21
41
0
LINE
5
4E4
100
AcDbEntity
8
0
6
ByLayer
62
256
370
-1
100
AcDbLine
10
383.33
20
37
11
383.33
21
41
0
LINE
5
4E5
100
AcDbEntity
8
0
6
ByLayer
62
256
370
-1
100
AcDbLine
10
402.66
20
37
11
402.66
21
41
0
LINE
5
4E6
100
AcDbEntity
8
0
6
ByLayer
62
256
370
-1
100
AcDbLine
10
430.66
20
37
11
430.66
21
41
0
LINE
5
4E7
100
AcDbEntity
8
0
6
ByLayer
62
256
370
-1
100
AcDbLine
10
449.99
20
37
11
449.99
21
41
0
LINE
5
4E8
100
AcDbEntity
8
0
6
ByLayer
62
256
370
-1
100
AcDbLine
10
477.99
20
37
11
477.99
21
41
0
LINE
5
4E9
100
AcDbEntity
8
0
6
ByLayer
62
256
370
-1
100
AcDbLine
10
497.32
20
37
11
497.32
21
41
0
LINE
5
4EA
100
AcDbEntity
8
0
6
ByLayer
62
256
370
-1
100
AcDbLine
10
525.32
20
37
11
525.32
21
41
0
LINE
5
4EB
100
AcDbEntity
8
0
6
ByLayer
62
256
370
-1
100
AcDbLine
10
544.65
20
37
11
544.65
21
41
0
LINE
5
4EC
100
AcDbEntity
8
0
6
ByLayer
62
256
370
-1
100
AcDbLine
10
572.65
20
37
11
572.65
21
41
0
LINE
5
4ED
100
AcDbEntity
8
0
6
ByLayer
62
256
370
-1
100
AcDbLine
10
591.98
20
37
11
591.98
21
41
0
LINE
5
4EE
100
AcDbEntity
8
0
6
ByLayer
62
256
370
-1
100
AcDbLine
10
336
20
41
11
355.33
21
41
0
LINE
5
4EF
100
AcDbEntity
8
0
6
ByLayer
62
256
370
-1
100
AcDbLine
10
383.33
20
41
11
402.66
21
41
0
LINE
5
4F0
100
AcDbEntity
8
0
6
ByLayer
62
256
370
-1
100
AcDbLine
10
336
20
37
11
355.33
21
37
0
LINE
5
4F1
100
AcDbEntity
8
0
6
ByLayer
62
256
370
-1
100
AcDbLine
10
383.33
20
37
11
402.66
21
37
0
LINE
5
4F2
100
AcDbEntity
8
0
6
ByLayer
62
256
370
-1
100
AcDbLine
10
430.66
20
41
11
449.99
21
41
0
LINE
5
4F3
100
AcDbEntity
8
0
6
ByLayer
62
256
370
-1
100
AcDbLine
10
430.66
20
37
11
449.99
21
37
0
LINE
5
4F4
100
AcDbEntity
8
0
6
ByLayer
62
256
370
-1
100
AcDbLine
10
477.99
20
41
11
497.32
21
41
0
LINE
5
4F5
100
AcDbEntity
8
0
6
ByLayer
62
256
370
-1
100
AcDbLine
10
477.99
20
37
11
497.32
21
37
0
LINE
5
4F6
100
AcDbEntity
8
0
6
ByLayer
62
256
370
-1
100
AcDbLine
10
525.32
20
41
11
544.65
21
41
0
LINE
5
4F7
100
AcDbEntity
8
0
6
ByLayer
62
256
370
-1
100
AcDbLine
10
525.32
20
37
11
544.65
21
37
0
LINE
5
4F8
100
AcDbEntity
8
0
6
ByLayer
62
256
370
-1
100
AcDbLine
10
572.65
20
41
11
591.98
21
41
0
LINE
5
4F9
100
AcDbEntity
8
0
6
ByLayer
62
256
370
-1
100
AcDbLine
10
572.65
20
37
11
591.98
21
37
0
LINE
5
4FA
100
AcDbEntity
8
0
6
ByLayer
62
256
370
-1
100
AcDbLine
10
336
20
56
11
336
21
60
0
LINE
5
4FB
100
AcDbEntity
8
0
6
ByLayer
62
256
370
-1
100
AcDbLine
10
355.33
20
56
11
355.33
21
60
0
LINE
5
4FC
100
AcDbEntity
8
0
6
ByLayer
62
256
370
-1
100
AcDbLine
10
383.33
20
56
11
383.33
21
60
0
LINE
5
4FD
100
AcDbEntity
8
0
6
ByLayer
62
256
370
-1
100
AcDbLine
10
402.66
20
56
11
402.66
21
60
0
LINE
5
4FE
100
AcDbEntity
8
0
6
ByLayer
62
256
370
-1
100
AcDbLine
10
430.66
20
56
11
430.66
21
60
0
LINE
5
4FF
100
AcDbEntity
8
0
6
ByLayer
62
256
370
-1
100
AcDbLine
10
449.99
20
56
11
449.99
21
60
0
LINE
5
500
100
AcDbEntity
8
0
6
ByLayer
62
256
370
-1
100
AcDbLine
10
477.99
20
56
11
477.99
21
60
0
LINE
5
501
100
AcDbEntity
8
0
6
ByLayer
62
256
370
-1
100
AcDbLine
10
497.32
20
56
11
497.32
21
60
0
LINE
5
502
100
AcDbEntity
8
0
6
ByLayer
62
256
370
-1
100
AcDbLine
10
525.32
20
56
11
525.32
21
60
0
LINE
5
503
100
AcDbEntity
8
0
6
ByLayer
62
256
370
-1
100
AcDbLine
10
544.65
20
56
11
544.65
21
60
0
LINE
5
504
100
AcDbEntity
8
0
6
ByLayer
62
256
370
-1
100
AcDbLine
10
572.65
20
56
11
572.65
21
60
0
LINE
5
505
100
AcDbEntity
8
0
6
ByLayer
62
256
370
-1
100
AcDbLine
10
591.98
20
56
11
591.98
21
60
0
LINE
5
506
100
AcDbEntity
8
0
6
ByLayer
62
256
370
-1
100
AcDbLine
10
336
20
56
11
355.33
21
56
0
LINE
5
507
100
AcDbEntity
8
0
6
ByLayer
62
256
370
-1
100
AcDbLine
10
383.33
20
56
11
402.66
21
56
0
LINE
5
508
100
AcDbEntity
8
0
6
ByLayer
62
256
370
-1
100
AcDbLine
10
430.66
20
56
11
449.99
21
56
0
LINE
5
509
100
AcDbEntity
8
0
6
ByLayer
62
256
370
-1
100
AcDbLine
10
477.99
20
56
11
497.32
21
56
0
LINE
5
50A
100
AcDbEntity
8
0
6
ByLayer
62
256
370
-1
100
AcDbLine
10
525.32
20
56
11
544.65
21
56
0
LINE
5
50B
100
AcDbEntity
8
0
6
ByLayer
62
256
370
-1
100
AcDbLine
10
572.65
20
56
11
591.98
21
56
0
LINE
5
50C
100
AcDbEntity
8
0
6
ByLayer
62
256
370
-1
100
AcDbLine
10
320
20
79
11
607.98
21
79
0
LINE
5
50D
100
AcDbEntity
8
0
6
ByLayer
62
256
370
-1
100
AcDbLine
10
320
20
60
11
336
21
60
0
LINE
5
50E
100
AcDbEntity
8
0
6
ByLayer
62
256
370
-1
100
AcDbLine
10
355.33
20
60
11
383.33
21
60
0
LINE
5
50F
100
AcDbEntity
8
0
6
ByLayer
62
256
370
-1
100
AcDbLine
10
591.98
20
60
11
607.98
21
60
0
LINE
5
510
100
AcDbEntity
8
0
6
ByLayer
62
256
370
-1
100
AcDbLine
10
544.65
20
60
11
572.65
21
60
0
LINE
5
511
100
AcDbEntity
8
0
6
ByLayer
62
256
370
-1
100
AcDbLine
10
497.32
20
60
11
525.32
21
60
0
LINE
5
512
100
AcDbEntity
8
0
6
ByLayer
62
256
370
-1
100
AcDbLine
10
449.99
20
60
11
477.99
21
60
0
LINE
5
513
100
AcDbEntity
8
0
6
ByLayer
62
256
370
-1
100
AcDbLine
10
402.66
20
60
11
430.66
21
60
0
LINE
5
514
100
AcDbEntity
8
0
6
ByLayer
62
256
370
-1
100
AcDbLine
10
320
20
64
11
324
21
64
0
LINE
5
515
100
AcDbEntity
8
0
6
ByLayer
62
256
370
-1
100
AcDbLine
10
367.33
20
64
11
371.33
21
64
0
LINE
5
516
100
AcDbEntity
8
0
6
ByLayer
62
256
370
-1
100
AcDbLine
10
414.66
20
64
11
418.66
21
64
0
LINE
5
517
100
AcDbEntity
8
0
6
ByLayer
62
256
370
-1
100
AcDbLine
10
461.99
20
64
11
465.99
21
64
0
LINE
5
518
100
AcDbEntity
8
0
6
ByLayer
62
256
370
-1
100
AcDbLine
10
509.32
20
64
11
513.32
21
64
0
LINE
5
519
100
AcDbEntity
8
0
6
ByLayer
62
256
370
-1
100
AcDbLine
10
556.65
20
64
11
560.65
21
64
0
LINE
5
51A
100
AcDbEntity
8
0
6
ByLayer
62
256
370
-1
100
AcDbLine
10
603.98
20
64
11
607.98
21
64
0
LINE
5
51B
100
AcDbEntity
8
0
6
ByLayer
62
256
370
-1
100
AcDbLine
10
367.33
20
72
11
371.33
21
72
0
LINE
5
51C
100
AcDbEntity
8
0
6
ByLayer
62
256
370
-1
100
AcDbLine
10
367.33
20
64
11
367.33
21
72
0
LINE
5
51D
100
AcDbEntity
8
0
6
ByLayer
62
256
370
-1
100
AcDbLine
10
371.33
20
64
11
371.33
21
72
0
LINE
5
51E
100
AcDbEntity
8
0
6
ByLayer
62
256
370
-1
100
AcDbLine
10
418.66
20
64
11
418.66
21
72
0
LINE
5
51F
100
AcDbEntity
8
0
6
ByLayer
62
256
370
-1
100
AcDbLine
10
414.66
20
64
11
414.66
21
72
0
LINE
5
520
100
AcDbEntity
8
0
6
ByLayer
62
256
370
-1
100
AcDbLine
10
414.66
20
72
11
418.66
21
72
0
LINE
5
521
100
AcDbEntity
8
0
6
ByLayer
62
256
370
-1
100
AcDbLine
10
461.99
20
72
11
465.99
21
72
0
LINE
5
522
100
AcDbEntity
8
0
6
ByLayer
62
256
370
-1
100
AcDbLine
10
465.99
20
64
11
465.99
21
72
0
LINE
5
523
100
AcDbEntity
8
0
6
ByLayer
62
256
370
-1
100
AcDbLine
10
461.99
20
64
11
461.99
21
72
0
LINE
5
524
100
AcDbEntity
8
0
6
ByLayer
62
256
370
-1
100
AcDbLine
10
509.32
20
72
11
513.32
21
72
0
LINE
5
525
100
AcDbEntity
8
0
6
ByLayer
62
256
370
-1
100
AcDbLine
10
513.32
20
64
11
513.32
21
72
0
LINE
5
526
100
AcDbEntity
8
0
6
ByLayer
62
256
370
-1
100
AcDbLine
10
509.32
20
64
11
509.32
21
72
0
LINE
5
527
100
AcDbEntity
8
0
6
ByLayer
62
256
370
-1
100
AcDbLine
10
556.65
20
72
11
560.65
21
72
0
LINE
5
528
100
AcDbEntity
8
0
6
ByLayer
62
256
370
-1
100
AcDbLine
10
556.65
20
64
11
556.65
21
72
0
LINE
5
529
100
AcDbEntity
8
0
6
ByLayer
62
256
370
-1
100
AcDbLine
10
560.65
20
64
11
560.65
21
72
0
LINE
5
52A
100
AcDbEntity
8
0
6
ByLayer
62
256
370
-1
100
AcDbLine
10
603.98
20
64
11
603.98
21
72
0
LINE
5
52B
100
AcDbEntity
8
0
6
ByLayer
62
256
370
-1
100
AcDbLine
10
603.98
20
72
11
607.98
21
72
0
LINE
5
52C
100
AcDbEntity
8
0
6
ByLayer
62
256
370
-1
100
AcDbLine
10
320
20
72
11
324
21
72
0
LINE
5
52D
100
AcDbEntity
8
0
6
ByLayer
62
256
370
-1
100
AcDbLine
10
324
20
64
11
324
21
72
0
LINE
5
52E
100
AcDbEntity
8
0
6
ByLayer
62
256
370
-1
100
AcDbLine
10
320
20
79
11
320
21
72
0
LINE
5
52F
100
AcDbEntity
8
0
6
ByLayer
62
256
370
-1
100
AcDbLine
10
320
20
64
11
320
21
60
0
LINE
5
530
100
AcDbEntity
8
0
6
ByLayer
62
256
370
-1
100
AcDbLine
10
607.98
20
79
11
607.98
21
72
0
LINE
5
531
100
AcDbEntity
8
0
6
ByLayer
62
256
370
-1
100
AcDbLine
10
607.98
20
64
11
607.98
21
60
0
INSERT
5
532
100
AcDbEntity
8
0
6
ByLayer
62
256
370
-1
100
AcDbBlockReference
2
Tor-Stringer
10
326
20
14
30
0
41
1
42
1
43
0
50
0
70
1
71
1
44
0
45
0
0
INSERT
5
533
100
AcDbEntity
8
0
6
ByLayer
62
256
370
-1
100
AcDbBlockReference
2
Stringer-Flaschenträger
10
296
20
114
30
0
41
1
42
1
43
0
50
0
70
1
71
1
44
0
45
0
0
INSERT
5
534
100
AcDbEntity
8
0
6
ByLayer
62
256
370
-1
100
AcDbBlockReference
2
Stringer-Kiel
10
296
20
184
30
0
41
1
42
1
43
0
50
0
70
1
71
1
44
0
45
0
0
MTEXT
5
535
100
AcDbEntity
8
0
6
ByLayer
62
256
370
-1
100
AcDbMText
10
646
20
184
30
0
40
8
41
8
71
1
72
1
1
1x
7
standard
210
0
220
0
230
1
50
0
73
2
44
1
0
MTEXT
5
536
100
AcDbEntity
8
0
6
ByLayer
62
256
370
-1
100
AcDbMText
10
646
20
154
30
0
40
8
41
8
71
1
72
1
1
1x
7
standard
210
0
220
0
230
1
50
0
73
2
44
1
0
MTEXT
5
537
100
AcDbEntity
8
0
6
ByLayer
62
256
370
-1
100
AcDbMText
10
646
20
124
30
0
40
8
41
8
71
1
72
1
1
1x
7
standard
210
0
220
0
230
1
50
0
73
2
44
1
0
MTEXT
5
538
100
AcDbEntity
8
0
6
ByLayer
62
256
370
-1
100
AcDbMText
10
646
20
104
30
0
40
8
41
8
71
1
72
1
1
1x
7
standard
210
0
220
0
230
1
50
0
73
2
44
1
0
MTEXT
5
539
100
AcDbEntity
8
0
6
ByLayer
62
256
370
-1
100
AcDbMText
10
646
20
74
30
0
40
8
41
8
71
1
72
1
1
1x
7
standard
210
0
220
0
230
1
50
0
73
2
44
1
0
MTEXT
5
53A
100
AcDbEntity
8
0
6
ByLayer
62
256
370
-1
100
AcDbMText
10
646
20
44
30
0
40
8
41
8
71
1
72
1
1
1x
7
standard
210
0
220
0
230
1
50
0
73
2
44
1
0
MTEXT
5
53B
100
AcDbEntity
8
0
6
ByLayer
62
256
370
-1
100
AcDbMText
10
616
20
14
30
0
40
8
41
9.77777777778
71
1
72
1
1
3x
7
standard
210
0
220
0
230
1
50
0
73
2
44
1
0
DIMENSION
5
53C
100
AcDbEntity
8
0
6
ByLayer
62
256
370
-1
100
AcDbDimension
2
*D1
10
324
20
0
30
0
11
322.125
21
4
31
0
70
32
71
5
72
0
3
Standard
53
0
210
0
220
0
230
1
100
AcDbAlignedDimension
13
330
23
8
33
0
14
330
24
0
34
0
50
90
100
AcDbRotatedDimension
0
DIMENSION
5
53D
100
AcDbEntity
8
0
6
ByLayer
62
256
370
-1
100
AcDbDimension
2
*D2
10
641.644800006
20
114
30
0
11
639.769800006
21
121.9
31
0
70
33
71
5
72
0
3
Standard
53
0
210
0
220
0
230
1
100
AcDbAlignedDimension
13
627.98
23
129.8
33
0
14
627.98
24
114
34
0
0
DIMENSION
5
53E
100
AcDbEntity
8
0
6
ByLayer
62
256
370
-1
100
AcDbDimension
2
*D3
10
609.810032645
20
0
30
0
11
607.935032645
21
4
31
0
70
32
71
5
72
0
3
Standard
53
0
210
0
220
0
230
1
100
AcDbAlignedDimension
13
599.98
23
8
33
0
14
599.98
24
0
34
0
50
90
100
AcDbRotatedDimension
0
MTEXT
5
53F
100
AcDbEntity
8
0
6
ByLayer
62
256
370
-1
100
AcDbMText
10
180
20
45
30
0
40
3
41
7
71
1
72
1
1
FwI1
7
standard
210
0
220
0
230
1
50
0
73
2
44
1
0
MTEXT
5
540
100
AcDbEntity
8
0
6
ByLayer
62
256
370
-1
100
AcDbMText
10
152
20
55
30
0
40
3
41
7.66666666667
71
1
72
1
1
FwI2
7
standard
210
0
220
0
230
1
50
0
73
2
44
1
0
MTEXT
5
541
100
AcDbEntity
8
0
6
ByLayer
62
256
370
-1
100
AcDbMText
10
232
20
43
30
0
40
3
41
7.66666666667
71
1
72
1
1
FwI3
7
standard
210
0
220
0
230
1
50
0
73
2
44
1
0
MTEXT
5
542
100
AcDbEntity
8
0
6
ByLayer
62
256
370
-1
100
AcDbMText
10
257
20
95
30
0
40
3
41
8
71
1
72
1
1
FwI4
7
standard
210
0
220
0
230
1
50
0
73
2
44
1
0
MTEXT
5
543
100
AcDbEntity
8
0
6
ByLayer
62
256
370
-1
100
AcDbMText
10
117
20
48
30
0
40
3
41
7.66666666667
71
1
72
1
1
FwI5
7
standard
210
0
220
0
230
1
50
0
73
2
44
1
0
MTEXT
5
544
100
AcDbEntity
8
0
6
ByLayer
62
256
370
-1
100
AcDbMText
10
96
20
92
30
0
40
3
41
7.66666666667
71
1
72
1
1
FwI5
7
standard
210
0
220
0
230
1
50
0
73
2
44
1
0
MTEXT
5
545
100
AcDbEntity
8
0
6
ByLayer
62
256
370
-1
100
AcDbMText
10
105
20
139
30
0
40
3
41
7.66666666667
71
1
72
1
1
FwI5
7
standard
210
0
220
0
230
1
50
0
73
2
44
1
0
MTEXT
5
546
100
AcDbEntity
8
0
6
ByLayer
62
256
370
-1
100
AcDbMText
10
360
20
220
30
0
40
3
41
84.25
71
1
72
1
1
LEGENDE\PTyp A# = Spant\PTyp I# = Stringer\PTyp D# = Deck-ähnliches Horizontalteil\PTyp V# = Verstärkung/Aussteiffung\PTyp E# = Montageteil für Elektronikteile\P
7
standard
210
0
220
0
230
1
50
0
73
2
44
1
0
MTEXT
5
547
100
AcDbEntity
8
0
6
ByLayer
62
256
370
-1
100
AcDbMText
10
450
20
220
30
0
40
3
41
52.5
71
1
72
1
1
Prefix\PFw = Flaschenwagen\PLo = Lokomotive\PKw = Kontroll/Akkuwagen\P
7
standard
210
0
220
0
230
1
50
0
73
2
44
1
0
MTEXT
5
548
100
AcDbEntity
8
0
6
ByLayer
62
256
370
-1
100
AcDbMText
10
660
20
120
30
0
40
3
41
8
71
1
72
1
1
FwI4
7
standard
210
0
220
0
230
1
50
0
73
2
44
1
0
MTEXT
5
549
100
AcDbEntity
8
0
6
ByLayer
62
256
370
-1
100
AcDbMText
10
660
20
100
30
0
40
3
41
7.66666666667
71
1
72
1
1
FwI3
7
standard
210
0
220
0
230
1
50
0
73
2
44
1
0
MTEXT
5
54A
100
AcDbEntity
8
0
6
ByLayer
62
256
370
-1
100
AcDbMText
10
660
20
180
30
0
40
3
41
7
71
1
72
1
1
FwI1
7
standard
210
0
220
0
230
1
50
0
73
2
44
1
0
MTEXT
5
54B
100
AcDbEntity
8
0
6
ByLayer
62
256
370
-1
100
AcDbMText
10
660
20
150
30
0
40
3
41
7.66666666667
71
1
72
1
1
FwI2
7
standard
210
0
220
0
230
1
50
0
73
2
44
1
0
MTEXT
5
54C
100
AcDbEntity
8
0
6
ByLayer
62
256
370
-1
100
AcDbMText
10
660
20
10
30
0
40
3
41
7.66666666667
71
1
72
1
1
FwI5
7
standard
210
0
220
0
230
1
50
0
73
2
44
1
0
ENDSEC
0
SECTION
2
OBJECTS
0
DICTIONARY
5
C
330
0
100
AcDbDictionary
281
1
3
ACAD_GROUP
350
D
0
DICTIONARY
5
D
330
C
100
AcDbDictionary
281
1
0
ENDSEC
0
EOF
