999
dxfrw 0.5.11
0
SECTION
2
HEADER
9
$ACADVER
1
AC1021
9
$HANDSEED
5
20000
9
$DWGCODEPAGE
3
ANSI_1252
9
$INSBASE
10
0
20
0
30
0
9
$EXTMIN
10
0
20
0
30
0
9
$EXTMAX
10
180
20
267
30
0
9
$LIMMIN
10
0
20
0
9
$LIMMAX
10
420
20
297
9
$ORTHOMODE
70
0
9
$LTSCALE
40
1
9
$TEXTSTYLE
7
STANDARD
9
$CLAYER
8
0
9
$DIMASZ
40
2.5
9
$DIMLFAC
40
1
9
$DIMSCALE
40
1
9
$DIMEXO
40
0.625
9
$DIMEXE
40
1.25
9
$DIMTXT
40
2.5
9
$DIMTSZ
40
0
9
$DIMAUNIT
70
0
9
$DIMADEC
70
2
9
$DIMLUNIT
70
2
9
$DIMSTYLE
2
STANDARD
9
$DIMGAP
40
0.625
9
$DIMTIH
70
0
9
$LUNITS
70
2
9
$LUPREC
70
4
9
$AUNITS
70
0
9
$AUPREC
70
2
9
$SPLINESEGS
70
8
9
$GRIDMODE
70
1
9
$SNAPSTYLE
70
0
9
$GRIDUNIT
10
0
20
0
9
$PINSBASE
10
15
20
15
30
0
9
$PLIMMIN
10
0
20
0
9
$PLIMMAX
10
210
20
297
9
$INSUNITS
70
4
9
$PSVPSCALE
40
1
0
ENDSEC
0
SECTION
2
CLASSES
0
ENDSEC
0
SECTION
2
TABLES
0
TABLE
2
VPORT
5
8
330
0
100
AcDbSymbolTable
70
1
0
VPORT
5
31
330
2
100
AcDbSymbolTableRecord
100
AcDbViewportTableRecord
2
*ACTIVE
70
0
10
0
20
0
11
1
21
1
12
200.5859375
22
133.203125
13
0
23
0
14
10
24
10
15
10
25
10
16
0
26
0
36
1
17
0
27
0
37
0
40
292.578125
41
2.10013351135
42
50
43
0
44
0
50
0
51
0
71
0
72
100
73
1
74
3
75
0
76
1
77
0
78
0
281
0
65
1
110
0
120
0
130
0
111
1
121
0
131
0
112
0
122
1
132
0
79
0
146
0
348
10020
60
7
61
5
292
1
282
1
141
0
142
0
63
250
421
3358443
0
ENDTAB
0
TABLE
2
LTYPE
5
5
330
0
100
AcDbSymbolTable
70
4
0
LTYPE
5
14
330
5
100
AcDbSymbolTableRecord
100
AcDbLinetypeTableRecord
2
ByBlock
70
0
3

72
65
73
0
40
0
0
LTYPE
5
15
330
5
100
AcDbSymbolTableRecord
100
AcDbLinetypeTableRecord
2
ByLayer
70
0
3

72
65
73
0
40
0
0
LTYPE
5
16
330
5
100
AcDbSymbolTableRecord
100
AcDbLinetypeTableRecord
2
Continuous
70
0
3
Solid line
72
65
73
0
40
0
0
LTYPE
5
32
330
5
100
AcDbSymbolTableRecord
100
AcDbLinetypeTableRecord
2
DOT
70
0
3
Dot . . . . . . . . . . . . . . . . . . . . . .
72
65
73
2
40
6.35
49
0
74
0
49
-6.35
74
0
0
LTYPE
5
33
330
5
100
AcDbSymbolTableRecord
100
AcDbLinetypeTableRecord
2
DOT2
70
0
3
Dot (.5x) .....................................
72
65
73
2
40
3.175
49
0
74
0
49
-3.175
74
0
0
LTYPE
5
34
330
5
100
AcDbSymbolTableRecord
100
AcDbLinetypeTableRecord
2
DOTX2
70
0
3
Dot (2x) .  .  .  .  .  .  .  .  .  .  .  .  .
72
65
73
2
40
12.7
49
0
74
0
49
-12.7
74
0
0
LTYPE
5
35
330
5
100
AcDbSymbolTableRecord
100
AcDbLinetypeTableRecord
2
DASHED
70
0
3
Dot . . . . . . . . . . . . . . . . . . . . . .
72
65
73
2
40
19.05
49
12.7
74
0
49
-6.35
74
0
0
LTYPE
5
36
330
5
100
AcDbSymbolTableRecord
100
AcDbLinetypeTableRecord
2
DASHED2
70
0
3
Dashed (.5x) _ _ _ _ _ _ _ _ _ _ _ _ _ _ _ _ _
72
65
73
2
40
9.525
49
6.35
74
0
49
-3.175
74
0
0
LTYPE
5
37
330
5
100
AcDbSymbolTableRecord
100
AcDbLinetypeTableRecord
2
DASHEDX2
70
0
3
Dashed (2x) ____  ____  ____  ____  ____  ___
72
65
73
2
40
38.1
49
25.4
74
0
49
-12.7
74
0
0
LTYPE
5
38
330
5
100
AcDbSymbolTableRecord
100
AcDbLinetypeTableRecord
2
DASHDOT
70
0
3
Dash dot __ . __ . __ . __ . __ . __ . __ . __
72
65
73
4
40
25.4
49
12.7
74
0
49
-6.35
74
0
49
0
74
0
49
-6.35
74
0
0
LTYPE
5
39
330
5
100
AcDbSymbolTableRecord
100
AcDbLinetypeTableRecord
2
DASHDOT2
70
0
3
Dash dot (.5x) _._._._._._._._._._._._._._._.
72
65
73
4
40
12.7
49
6.35
74
0
49
-3.175
74
0
49
0
74
0
49
-3.175
74
0
0
LTYPE
5
3A
330
5
100
AcDbSymbolTableRecord
100
AcDbLinetypeTableRecord
2
DASHDOTX2
70
0
3
Dash dot (2x) ____  .  ____  .  ____  .  ___
72
65
73
4
40
50.8
49
25.4
74
0
49
-12.7
74
0
49
0
74
0
49
-12.7
74
0
0
LTYPE
5
3B
330
5
100
AcDbSymbolTableRecord
100
AcDbLinetypeTableRecord
2
DIVIDE
70
0
3
Divide ____ . . ____ . . ____ . . ____ . . ____
72
65
73
6
40
31.75
49
12.7
74
0
49
-6.35
74
0
49
0
74
0
49
-6.35
74
0
49
0
74
0
49
-6.35
74
0
0
LTYPE
5
3C
330
5
100
AcDbSymbolTableRecord
100
AcDbLinetypeTableRecord
2
DIVIDE2
70
0
3
Divide (.5x) __..__..__..__..__..__..__..__.._
72
65
73
6
40
15.875
49
6.35
74
0
49
-3.175
74
0
49
0
74
0
49
-3.175
74
0
49
0
74
0
49
-3.175
74
0
0
LTYPE
5
3D
330
5
100
AcDbSymbolTableRecord
100
AcDbLinetypeTableRecord
2
DIVIDEX2
70
0
3
Divide (2x) ________  .  .  ________  .  .  _
72
65
73
6
40
63.5
49
25.4
74
0
49
-12.7
74
0
49
0
74
0
49
-12.7
74
0
49
0
74
0
49
-12.7
74
0
0
LTYPE
5
3E
330
5
100
AcDbSymbolTableRecord
100
AcDbLinetypeTableRecord
2
BORDER
70
0
3
Border __ __ . __ __ . __ __ . __ __ . __ __ .
72
65
73
6
40
44.45
49
12.7
74
0
49
-6.35
74
0
49
12.7
74
0
49
-6.35
74
0
49
0
74
0
49
-6.35
74
0
0
LTYPE
5
3F
330
5
100
AcDbSymbolTableRecord
100
AcDbLinetypeTableRecord
2
BORDER2
70
0
3
Border (.5x) __.__.__.__.__.__.__.__.__.__.__.
72
65
73
6
40
22.225
49
6.35
74
0
49
-3.175
74
0
49
6.35
74
0
49
-3.175
74
0
49
0
74
0
49
-3.175
74
0
0
LTYPE
5
40
330
5
100
AcDbSymbolTableRecord
100
AcDbLinetypeTableRecord
2
BORDERX2
70
0
3
Border (2x) ____  ____  .  ____  ____  .  ___
72
65
73
6
40
88.9
49
25.4
74
0
49
-12.7
74
0
49
25.4
74
0
49
-12.7
74
0
49
0
74
0
49
-12.7
74
0
0
LTYPE
5
41
330
5
100
AcDbSymbolTableRecord
100
AcDbLinetypeTableRecord
2
CENTER
70
0
3
Center ____ _ ____ _ ____ _ ____ _ ____ _ ____
72
65
73
4
40
50.8
49
31.75
74
0
49
-6.35
74
0
49
6.35
74
0
49
-6.35
74
0
0
LTYPE
5
42
330
5
100
AcDbSymbolTableRecord
100
AcDbLinetypeTableRecord
2
CENTER2
70
0
3
Center (.5x) ___ _ ___ _ ___ _ ___ _ ___ _ ___
72
65
73
4
40
28.575
49
19.05
74
0
49
-3.175
74
0
49
3.175
74
0
49
-3.175
74
0
0
LTYPE
5
43
330
5
100
AcDbSymbolTableRecord
100
AcDbLinetypeTableRecord
2
CENTERX2
70
0
3
Center (2x) ________  __  ________  __  _____
72
65
73
4
40
101.6
49
63.5
74
0
49
-12.7
74
0
49
12.7
74
0
49
-12.7
74
0
0
ENDTAB
0
TABLE
2
LAYER
5
2
330
0
100
AcDbSymbolTable
70
1
0
LAYER
5
10
330
2
100
AcDbSymbolTableRecord
100
AcDbLayerTableRecord
2
0
70
0
62
7
6
CONTINUOUS
370
0
390
F
0
ENDTAB
0
TABLE
2
STYLE
5
3
330
0
100
AcDbSymbolTable
70
3
0
STYLE
5
44
330
2
100
AcDbSymbolTableRecord
100
AcDbTextStyleTableRecord
2
standard
70
0
40
0
41
1
50
0
71
0
42
1
3
standard
4

0
ENDTAB
0
TABLE
2
VIEW
5
6
330
0
100
AcDbSymbolTable
70
0
0
ENDTAB
0
TABLE
2
UCS
5
7
330
0
100
AcDbSymbolTable
70
0
0
ENDTAB
0
TABLE
2
APPID
5
9
330
0
100
AcDbSymbolTable
70
1
0
APPID
5
12
330
9
100
AcDbSymbolTableRecord
100
AcDbRegAppTableRecord
2
ACAD
70
0
0
ENDTAB
0
TABLE
2
DIMSTYLE
5
A
330
0
100
AcDbSymbolTable
70
1
100
AcDbDimStyleTable
71
1
0
DIMSTYLE
105
45
330
A
100
AcDbSymbolTableRecord
100
AcDbDimStyleTableRecord
2
Standard
70
0
40
1
41
2.5
42
0.625
43
0.38
44
1.25
45
0
46
0
47
0
48
0
140
2.5
141
0.09
142
0
143
25.4
144
1
145
0
146
1
147
0.625
148
0
71
0
72
0
73
0
74
1
75
0
76
0
77
0
78
0
79
0
170
0
171
2
172
0
173
0
174
0
175
0
176
0
177
0
178
0
179
0
271
4
272
4
273
2
274
2
275
0
276
0
277
2
278
46
279
0
280
0
281
0
282
0
283
1
284
0
285
0
286
0
288
0
289
3
340
Standard
341

371
-2
372
-2
0
ENDTAB
0
TABLE
2
BLOCK_RECORD
5
1
330
0
100
AcDbSymbolTable
70
2
0
BLOCK_RECORD
5
1F
330
1
100
AcDbSymbolTableRecord
100
AcDbBlockTableRecord
2
*Model_Space
70
0
280
1
281
0
0
BLOCK_RECORD
5
1E
330
1
100
AcDbSymbolTableRecord
100
AcDbBlockTableRecord
2
*Paper_Space
70
0
280
1
281
0
0
BLOCK_RECORD
5
46
330
1
100
AcDbSymbolTableRecord
100
AcDbBlockTableRecord
2
*D4
70
0
280
1
281
0
0
BLOCK_RECORD
5
49
330
1
100
AcDbSymbolTableRecord
100
AcDbBlockTableRecord
2
*D1
70
0
280
1
281
0
0
BLOCK_RECORD
5
4C
330
1
100
AcDbSymbolTableRecord
100
AcDbBlockTableRecord
2
*D2
70
0
280
1
281
0
0
BLOCK_RECORD
5
4F
330
1
100
AcDbSymbolTableRecord
100
AcDbBlockTableRecord
2
*D5
70
0
280
1
281
0
0
BLOCK_RECORD
5
52
330
1
100
AcDbSymbolTableRecord
100
AcDbBlockTableRecord
2
*D3
70
0
280
1
281
0
0
BLOCK_RECORD
5
55
330
1
100
AcDbSymbolTableRecord
100
AcDbBlockTableRecord
2
Sheet-A4-Vert
70
0
280
1
281
0
0
ENDTAB
0
ENDSEC
0
SECTION
2
BLOCKS
0
BLOCK
5
20
330
1F
100
AcDbEntity
8
0
100
AcDbBlockBegin
2
*Model_Space
70
0
10
0
20
0
30
0
3
*Model_Space
1

0
ENDBLK
5
21
330
1F
100
AcDbEntity
8
0
100
AcDbBlockEnd
0
BLOCK
5
1C
330
1B
100
AcDbEntity
8
0
100
AcDbBlockBegin
2
*Paper_Space
70
0
10
0
20
0
30
0
3
*Paper_Space
1

0
ENDBLK
5
1D
330
1F
100
AcDbEntity
8
0
100
AcDbBlockEnd
0
BLOCK
5
47
330
46
100
AcDbEntity
8
0
100
AcDbBlockBegin
2
*D4
70
1
10
0
20
0
3
*D4
1

0
LINE
5
58
100
AcDbEntity
8
0
6
CONTINUOUS
62
7
370
0
100
AcDbLine
10
120
20
81
11
120
21
53
0
SOLID
5
59
100
AcDbEntity
8
0
6
CONTINUOUS
62
7
370
0
100
AcDbTrace
10
120
20
81
30
0
11
120.416284658
21
78.5
31
0
12
119.583715342
22
78.5
32
0
13
119.583715342
23
78.5
33
0
0
SOLID
5
5A
100
AcDbEntity
8
0
6
CONTINUOUS
62
7
370
0
100
AcDbTrace
10
120
20
53
30
0
11
119.583715342
21
55.5
31
0
12
120.416284658
22
55.5
32
0
13
120.416284658
23
55.5
33
0
0
MTEXT
5
5B
100
AcDbEntity
8
0
6
CONTINUOUS
62
7
370
0
100
AcDbMText
10
118.125
20
67
30
0
40
2.5
41
3.05555555556
71
5
72
1
1
28
7
standard
210
0
220
0
230
1
50
90
73
2
44
1
0
LINE
5
5C
100
AcDbEntity
8
0
6
CONTINUOUS
62
7
370
0
100
AcDbLine
10
115.625
20
81
11
121.25
21
81
0
LINE
5
5D
100
AcDbEntity
8
0
6
CONTINUOUS
62
7
370
0
100
AcDbLine
10
115.625
20
53
11
121.25
21
53
0
ENDBLK
5
48
330
46
100
AcDbEntity
8
0
100
AcDbBlockEnd
0
BLOCK
5
4A
330
49
100
AcDbEntity
8
0
100
AcDbBlockBegin
2
*D1
70
1
10
0
20
0
3
*D1
1

0
LINE
5
5E
100
AcDbEntity
8
0
6
CONTINUOUS
62
7
370
0
100
AcDbLine
10
13
20
140
11
13
21
100
0
SOLID
5
5F
100
AcDbEntity
8
0
6
CONTINUOUS
62
7
370
0
100
AcDbTrace
10
13
20
140
30
0
11
13.4162846578
21
137.5
31
0
12
12.5837153422
22
137.5
32
0
13
12.5837153422
23
137.5
33
0
0
ENDBLK
5
4B
330
49
100
AcDbEntity
8
0
100
AcDbBlockEnd
0
BLOCK
5
4D
330
4C
100
AcDbEntity
8
0
100
AcDbBlockBegin
2
*D2
70
1
10
0
20
0
3
*D2
1

0
LINE
5
60
100
AcDbEntity
8
0
6
CONTINUOUS
62
7
370
0
100
AcDbLine
10
39
20
220
11
141
21
220
0
SOLID
5
61
100
AcDbEntity
8
0
6
CONTINUOUS
62
7
370
0
100
AcDbTrace
10
39
20
220
30
0
11
41.5
21
220.416284658
31
0
12
41.5
22
219.583715342
32
0
13
41.5
23
219.583715342
33
0
0
SOLID
5
62
100
AcDbEntity
8
0
6
CONTINUOUS
62
7
370
0
100
AcDbTrace
10
141
20
220
30
0
11
138.5
21
219.583715342
31
0
12
138.5
22
220.416284658
32
0
13
138.5
23
220.416284658
33
0
0
MTEXT
5
63
100
AcDbEntity
8
0
6
CONTINUOUS
62
7
370
0
100
AcDbMText
10
90
20
221.875
30
0
40
2.5
41
4.44444444444
71
5
72
1
1
102
7
standard
210
0
220
0
230
1
50
0
73
2
44
1
0
LINE
5
64
100
AcDbEntity
8
0
6
CONTINUOUS
62
7
370
0
100
AcDbLine
10
39
20
178.625
11
39
21
221.25
0
LINE
5
65
100
AcDbEntity
8
0
6
CONTINUOUS
62
7
370
0
100
AcDbLine
10
141
20
178.625
11
141
21
221.25
0
ENDBLK
5
4E
330
4C
100
AcDbEntity
8
0
100
AcDbBlockEnd
0
BLOCK
5
50
330
4F
100
AcDbEntity
8
0
100
AcDbBlockBegin
2
*D5
70
1
10
0
20
0
3
*D5
1

0
LINE
5
66
100
AcDbEntity
8
0
6
CONTINUOUS
62
7
370
0
100
AcDbLine
10
65
20
46
11
115
21
46
0
SOLID
5
67
100
AcDbEntity
8
0
6
CONTINUOUS
62
7
370
0
100
AcDbTrace
10
65
20
46
30
0
11
67.5
21
46.4162846578
31
0
12
67.5
22
45.5837153422
32
0
13
67.5
23
45.5837153422
33
0
0
SOLID
5
68
100
AcDbEntity
8
0
6
CONTINUOUS
62
7
370
0
100
AcDbTrace
10
115
20
46
30
0
11
112.5
21
45.5837153422
31
0
12
112.5
22
46.4162846578
32
0
13
112.5
23
46.4162846578
33
0
0
MTEXT
5
69
100
AcDbEntity
8
0
6
CONTINUOUS
62
7
370
0
100
AcDbMText
10
90
20
47.875
30
0
40
2.5
41
3.05555555556
71
5
72
1
1
50
7
standard
210
0
220
0
230
1
50
0
73
2
44
1
0
LINE
5
6A
100
AcDbEntity
8
0
6
CONTINUOUS
62
7
370
0
100
AcDbLine
10
65
20
52.375
11
65
21
44.75
0
LINE
5
6B
100
AcDbEntity
8
0
6
CONTINUOUS
62
7
370
0
100
AcDbLine
10
115
20
52.375
11
115
21
44.75
0
ENDBLK
5
51
330
4F
100
AcDbEntity
8
0
100
AcDbBlockEnd
0
BLOCK
5
53
330
52
100
AcDbEntity
8
0
100
AcDbBlockBegin
2
*D3
70
1
10
0
20
0
3
*D3
1

0
LINE
5
6C
100
AcDbEntity
8
0
6
CONTINUOUS
62
7
370
0
100
AcDbLine
10
150
20
178
11
150
21
81
0
SOLID
5
6D
100
AcDbEntity
8
0
6
CONTINUOUS
62
7
370
0
100
AcDbTrace
10
150
20
178
30
0
11
150.416284658
21
175.5
31
0
12
149.583715342
22
175.5
32
0
13
149.583715342
23
175.5
33
0
0
SOLID
5
6E
100
AcDbEntity
8
0
6
CONTINUOUS
62
7
370
0
100
AcDbTrace
10
150
20
81
30
0
11
149.583715342
21
83.5
31
0
12
150.416284658
22
83.5
32
0
13
150.416284658
23
83.5
33
0
0
MTEXT
5
6F
100
AcDbEntity
8
0
6
CONTINUOUS
62
7
370
0
100
AcDbMText
10
148.125
20
129.5
30
0
40
2.5
41
3.05555555556
71
5
72
1
1
97
7
standard
210
0
220
0
230
1
50
90
73
2
44
1
0
LINE
5
70
100
AcDbEntity
8
0
6
CONTINUOUS
62
7
370
0
100
AcDbLine
10
141.625
20
178
11
151.25
21
178
0
LINE
5
71
100
AcDbEntity
8
0
6
CONTINUOUS
62
7
370
0
100
AcDbLine
10
141.625
20
81
11
151.25
21
81
0
ENDBLK
5
54
330
52
100
AcDbEntity
8
0
100
AcDbBlockEnd
0
BLOCK
5
56
330
55
100
AcDbEntity
8
0
100
AcDbBlockBegin
2
Sheet-A4-Vert
70
0
10
0
20
0
3
Sheet-A4-Vert
1

0
LINE
5
72
100
AcDbEntity
8
0
6
ByLayer
62
256
370
-1
100
AcDbLine
10
0
20
0
11
0
21
267
0
LINE
5
73
100
AcDbEntity
8
0
6
ByLayer
62
256
370
-1
100
AcDbLine
10
0
20
0
11
180
21
0
0
LINE
5
74
100
AcDbEntity
8
0
6
ByLayer
62
256
370
-1
100
AcDbLine
10
0
20
267
11
180
21
267
0
LINE
5
75
100
AcDbEntity
8
0
6
ByLayer
62
256
370
-1
100
AcDbLine
10
180
20
0
11
180
21
267
0
LINE
5
76
100
AcDbEntity
8
0
6
ByLayer
62
256
370
-1
100
AcDbLine
10
0
20
15
11
180
21
15
0
LINE
5
77
100
AcDbEntity
8
0
6
ByLayer
62
256
370
-1
100
AcDbLine
10
20
20
0
11
20
21
15
0
LINE
5
78
100
AcDbEntity
8
0
6
ByLayer
62
256
370
-1
100
AcDbLine
10
150
20
0
11
150
21
15
0
LINE
5
79
100
AcDbEntity
8
0
6
ByLayer
62
256
370
-1
100
AcDbLine
10
130
20
0
11
130
21
15
0
LINE
5
7A
100
AcDbEntity
8
0
6
ByLayer
62
256
370
-1
100
AcDbLine
10
130
20
7.5
11
180
21
7.5
0
LINE
5
7B
100
AcDbEntity
8
0
6
ByLayer
62
256
370
-1
100
AcDbLine
10
0
20
7.5
11
20
21
7.5
0
MTEXT
5
7C
100
AcDbEntity
8
0
6
ByLayer
62
256
370
-1
100
AcDbMText
10
7
20
14
30
0
40
5.5
41
6.11111111111
71
1
72
1
1
1:1
7
standard
210
0
220
0
230
1
50
0
73
2
44
1
0
MTEXT
5
7D
100
AcDbEntity
8
0
6
ByLayer
62
256
370
-1
100
AcDbMText
10
0.5
20
5
30
0
40
3
41
18.5833333333
71
1
72
1
1
4mm Holz
7
standard
210
0
220
0
230
1
50
0
73
2
44
1
0
MTEXT
5
7E
100
AcDbEntity
8
0
6
ByLayer
62
256
370
-1
100
AcDbMText
10
156
20
13
30
0
40
3
41
18.6666666667
71
1
72
1
1
16.08.2014
7
standard
210
0
220
0
230
1
50
0
73
2
44
1
0
MTEXT
5
7F
100
AcDbEntity
8
0
6
ByLayer
62
256
370
-1
100
AcDbMText
10
156
20
5
30
0
40
3
41
17.9166666667
71
1
72
1
1
Blatt 001
7
standard
210
0
220
0
230
1
50
0
73
2
44
1
0
MTEXT
5
80
100
AcDbEntity
8
0
6
ByLayer
62
256
370
-1
100
AcDbMText
10
137
20
5
30
0
40
3
41
6.33333333333
71
1
72
1
1
v1.0
7
standard
210
0
220
0
230
1
50
0
73
2
44
1
0
ENDBLK
5
57
330
55
100
AcDbEntity
8
0
100
AcDbBlockEnd
0
ENDSEC
0
SECTION
2
ENTITIES
0
INSERT
5
81
100
AcDbEntity
8
0
6
ByLayer
62
256
370
-1
100
AcDbBlockReference
2
Sheet-A4-Vert
10
0
20
0
30
0
41
1
42
1
43
0
50
0
70
1
71
1
44
0
45
0
0
LINE
5
82
100
AcDbEntity
8
0
6
ByLayer
62
0
370
-1
100
AcDbLine
10
170
20
15
11
170
21
18
0
LINE
5
83
100
AcDbEntity
8
0
6
ByLayer
62
0
370
-1
100
AcDbLine
10
160
20
15
11
160
21
18
0
LINE
5
84
100
AcDbEntity
8
0
6
ByLayer
62
0
370
-1
100
AcDbLine
10
150
20
15
11
150
21
18
0
LINE
5
85
100
AcDbEntity
8
0
6
ByLayer
62
0
370
-1
100
AcDbLine
10
140
20
15
11
140
21
18
0
LINE
5
86
100
AcDbEntity
8
0
6
ByLayer
62
0
370
-1
100
AcDbLine
10
130
20
15
11
130
21
18
0
LINE
5
87
100
AcDbEntity
8
0
6
ByLayer
62
0
370
-1
100
AcDbLine
10
120
20
15
11
120
21
18
0
LINE
5
88
100
AcDbEntity
8
0
6
ByLayer
62
0
370
-1
100
AcDbLine
10
110
20
15
11
110
21
18
0
LINE
5
89
100
AcDbEntity
8
0
6
ByLayer
62
0
370
-1
100
AcDbLine
10
100
20
15
11
100
21
18
0
LINE
5
8A
100
AcDbEntity
8
0
6
ByLayer
62
0
370
-1
100
AcDbLine
10
90
20
15
11
90
21
18
0
LINE
5
8B
100
AcDbEntity
8
0
6
ByLayer
62
0
370
-1
100
AcDbLine
10
80
20
15
11
80
21
18
0
LINE
5
8C
100
AcDbEntity
8
0
6
ByLayer
62
0
370
-1
100
AcDbLine
10
81
20
15
11
81
21
16.8
0
LINE
5
8D
100
AcDbEntity
8
0
6
ByLayer
62
0
370
-1
100
AcDbLine
10
82
20
15
11
82
21
16.8
0
LINE
5
8E
100
AcDbEntity
8
0
6
ByLayer
62
0
370
-1
100
AcDbLine
10
83
20
15
11
83
21
16.8
0
LINE
5
8F
100
AcDbEntity
8
0
6
ByLayer
62
0
370
-1
100
AcDbLine
10
84
20
15
11
84
21
16.8
0
LINE
5
90
100
AcDbEntity
8
0
6
ByLayer
62
0
370
-1
100
AcDbLine
10
85
20
15
11
85
21
16.8
0
LINE
5
91
100
AcDbEntity
8
0
6
ByLayer
62
0
370
-1
100
AcDbLine
10
86
20
15
11
86
21
16.8
0
LINE
5
92
100
AcDbEntity
8
0
6
ByLayer
62
0
370
-1
100
AcDbLine
10
87
20
15
11
87
21
16.8
0
LINE
5
93
100
AcDbEntity
8
0
6
ByLayer
62
0
370
-1
100
AcDbLine
10
88
20
15
11
88
21
16.8
0
LINE
5
94
100
AcDbEntity
8
0
6
ByLayer
62
0
370
-1
100
AcDbLine
10
89
20
15
11
89
21
16.8
0
LINE
5
95
100
AcDbEntity
8
0
6
ByLayer
62
0
370
-1
100
AcDbLine
10
91
20
15
11
91
21
16.8
0
LINE
5
96
100
AcDbEntity
8
0
6
ByLayer
62
0
370
-1
100
AcDbLine
10
92
20
15
11
92
21
16.8
0
LINE
5
97
100
AcDbEntity
8
0
6
ByLayer
62
0
370
-1
100
AcDbLine
10
93
20
15
11
93
21
16.8
0
LINE
5
98
100
AcDbEntity
8
0
6
ByLayer
62
0
370
-1
100
AcDbLine
10
94
20
15
11
94
21
16.8
0
LINE
5
99
100
AcDbEntity
8
0
6
ByLayer
62
0
370
-1
100
AcDbLine
10
95
20
15
11
95
21
16.8
0
LINE
5
9A
100
AcDbEntity
8
0
6
ByLayer
62
0
370
-1
100
AcDbLine
10
96
20
15
11
96
21
16.8
0
LINE
5
9B
100
AcDbEntity
8
0
6
ByLayer
62
0
370
-1
100
AcDbLine
10
97
20
15
11
97
21
16.8
0
LINE
5
9C
100
AcDbEntity
8
0
6
ByLayer
62
0
370
-1
100
AcDbLine
10
98
20
15
11
98
21
16.8
0
LINE
5
9D
100
AcDbEntity
8
0
6
ByLayer
62
0
370
-1
100
AcDbLine
10
99
20
15
11
99
21
16.8
0
LINE
5
9E
100
AcDbEntity
8
0
6
ByLayer
62
0
370
-1
100
AcDbLine
10
101
20
15
11
101
21
16.8
0
LINE
5
9F
100
AcDbEntity
8
0
6
ByLayer
62
0
370
-1
100
AcDbLine
10
102
20
15
11
102
21
16.8
0
LINE
5
A0
100
AcDbEntity
8
0
6
ByLayer
62
0
370
-1
100
AcDbLine
10
103
20
15
11
103
21
16.8
0
LINE
5
A1
100
AcDbEntity
8
0
6
ByLayer
62
0
370
-1
100
AcDbLine
10
104
20
15
11
104
21
16.8
0
LINE
5
A2
100
AcDbEntity
8
0
6
ByLayer
62
0
370
-1
100
AcDbLine
10
105
20
15
11
105
21
16.8
0
LINE
5
A3
100
AcDbEntity
8
0
6
ByLayer
62
0
370
-1
100
AcDbLine
10
106
20
15
11
106
21
16.8
0
LINE
5
A4
100
AcDbEntity
8
0
6
ByLayer
62
0
370
-1
100
AcDbLine
10
107
20
15
11
107
21
16.8
0
LINE
5
A5
100
AcDbEntity
8
0
6
ByLayer
62
0
370
-1
100
AcDbLine
10
108
20
15
11
108
21
16.8
0
LINE
5
A6
100
AcDbEntity
8
0
6
ByLayer
62
0
370
-1
100
AcDbLine
10
109
20
15
11
109
21
16.8
0
LINE
5
A7
100
AcDbEntity
8
0
6
ByLayer
62
0
370
-1
100
AcDbLine
10
111
20
15
11
111
21
16.8
0
LINE
5
A8
100
AcDbEntity
8
0
6
ByLayer
62
0
370
-1
100
AcDbLine
10
112
20
15
11
112
21
16.8
0
LINE
5
A9
100
AcDbEntity
8
0
6
ByLayer
62
0
370
-1
100
AcDbLine
10
113
20
15
11
113
21
16.8
0
LINE
5
AA
100
AcDbEntity
8
0
6
ByLayer
62
0
370
-1
100
AcDbLine
10
114
20
15
11
114
21
16.8
0
LINE
5
AB
100
AcDbEntity
8
0
6
ByLayer
62
0
370
-1
100
AcDbLine
10
115
20
15
11
115
21
16.8
0
LINE
5
AC
100
AcDbEntity
8
0
6
ByLayer
62
0
370
-1
100
AcDbLine
10
116
20
15
11
116
21
16.8
0
LINE
5
AD
100
AcDbEntity
8
0
6
ByLayer
62
0
370
-1
100
AcDbLine
10
117
20
15
11
117
21
16.8
0
LINE
5
AE
100
AcDbEntity
8
0
6
ByLayer
62
0
370
-1
100
AcDbLine
10
118
20
15
11
118
21
16.8
0
LINE
5
AF
100
AcDbEntity
8
0
6
ByLayer
62
0
370
-1
100
AcDbLine
10
119
20
15
11
119
21
16.8
0
LINE
5
B0
100
AcDbEntity
8
0
6
ByLayer
62
0
370
-1
100
AcDbLine
10
121
20
15
11
121
21
16.8
0
LINE
5
B1
100
AcDbEntity
8
0
6
ByLayer
62
0
370
-1
100
AcDbLine
10
122
20
15
11
122
21
16.8
0
LINE
5
B2
100
AcDbEntity
8
0
6
ByLayer
62
0
370
-1
100
AcDbLine
10
123
20
15
11
123
21
16.8
0
LINE
5
B3
100
AcDbEntity
8
0
6
ByLayer
62
0
370
-1
100
AcDbLine
10
124
20
15
11
124
21
16.8
0
LINE
5
B4
100
AcDbEntity
8
0
6
ByLayer
62
0
370
-1
100
AcDbLine
10
125
20
15
11
125
21
16.8
0
LINE
5
B5
100
AcDbEntity
8
0
6
ByLayer
62
0
370
-1
100
AcDbLine
10
126
20
15
11
126
21
16.8
0
LINE
5
B6
100
AcDbEntity
8
0
6
ByLayer
62
0
370
-1
100
AcDbLine
10
127
20
15
11
127
21
16.8
0
LINE
5
B7
100
AcDbEntity
8
0
6
ByLayer
62
0
370
-1
100
AcDbLine
10
128
20
15
11
128
21
16.8
0
LINE
5
B8
100
AcDbEntity
8
0
6
ByLayer
62
0
370
-1
100
AcDbLine
10
129
20
15
11
129
21
16.8
0
LINE
5
B9
100
AcDbEntity
8
0
6
ByLayer
62
0
370
-1
100
AcDbLine
10
131
20
15
11
131
21
16.8
0
LINE
5
BA
100
AcDbEntity
8
0
6
ByLayer
62
0
370
-1
100
AcDbLine
10
132
20
15
11
132
21
16.8
0
LINE
5
BB
100
AcDbEntity
8
0
6
ByLayer
62
0
370
-1
100
AcDbLine
10
133
20
15
11
133
21
16.8
0
LINE
5
BC
100
AcDbEntity
8
0
6
ByLayer
62
0
370
-1
100
AcDbLine
10
134
20
15
11
134
21
16.8
0
LINE
5
BD
100
AcDbEntity
8
0
6
ByLayer
62
0
370
-1
100
AcDbLine
10
135
20
15
11
135
21
16.8
0
LINE
5
BE
100
AcDbEntity
8
0
6
ByLayer
62
0
370
-1
100
AcDbLine
10
136
20
15
11
136
21
16.8
0
LINE
5
BF
100
AcDbEntity
8
0
6
ByLayer
62
0
370
-1
100
AcDbLine
10
137
20
15
11
137
21
16.8
0
LINE
5
C0
100
AcDbEntity
8
0
6
ByLayer
62
0
370
-1
100
AcDbLine
10
138
20
15
11
138
21
16.8
0
LINE
5
C1
100
AcDbEntity
8
0
6
ByLayer
62
0
370
-1
100
AcDbLine
10
139
20
15
11
139
21
16.8
0
LINE
5
C2
100
AcDbEntity
8
0
6
ByLayer
62
0
370
-1
100
AcDbLine
10
141
20
15
11
141
21
16.8
0
LINE
5
C3
100
AcDbEntity
8
0
6
ByLayer
62
0
370
-1
100
AcDbLine
10
142
20
15
11
142
21
16.8
0
LINE
5
C4
100
AcDbEntity
8
0
6
ByLayer
62
0
370
-1
100
AcDbLine
10
143
20
15
11
143
21
16.8
0
LINE
5
C5
100
AcDbEntity
8
0
6
ByLayer
62
0
370
-1
100
AcDbLine
10
144
20
15
11
144
21
16.8
0
LINE
5
C6
100
AcDbEntity
8
0
6
ByLayer
62
0
370
-1
100
AcDbLine
10
145
20
15
11
145
21
16.8
0
LINE
5
C7
100
AcDbEntity
8
0
6
ByLayer
62
0
370
-1
100
AcDbLine
10
146
20
15
11
146
21
16.8
0
LINE
5
C8
100
AcDbEntity
8
0
6
ByLayer
62
0
370
-1
100
AcDbLine
10
147
20
15
11
147
21
16.8
0
LINE
5
C9
100
AcDbEntity
8
0
6
ByLayer
62
0
370
-1
100
AcDbLine
10
148
20
15
11
148
21
16.8
0
LINE
5
CA
100
AcDbEntity
8
0
6
ByLayer
62
0
370
-1
100
AcDbLine
10
149
20
15
11
149
21
16.8
0
LINE
5
CB
100
AcDbEntity
8
0
6
ByLayer
62
0
370
-1
100
AcDbLine
10
151
20
15
11
151
21
16.8
0
LINE
5
CC
100
AcDbEntity
8
0
6
ByLayer
62
0
370
-1
100
AcDbLine
10
152
20
15
11
152
21
16.8
0
LINE
5
CD
100
AcDbEntity
8
0
6
ByLayer
62
0
370
-1
100
AcDbLine
10
153
20
15
11
153
21
16.8
0
LINE
5
CE
100
AcDbEntity
8
0
6
ByLayer
62
0
370
-1
100
AcDbLine
10
154
20
15
11
154
21
16.8
0
LINE
5
CF
100
AcDbEntity
8
0
6
ByLayer
62
0
370
-1
100
AcDbLine
10
155
20
15
11
155
21
16.8
0
LINE
5
D0
100
AcDbEntity
8
0
6
ByLayer
62
0
370
-1
100
AcDbLine
10
156
20
15
11
156
21
16.8
0
LINE
5
D1
100
AcDbEntity
8
0
6
ByLayer
62
0
370
-1
100
AcDbLine
10
157
20
15
11
157
21
16.8
0
LINE
5
D2
100
AcDbEntity
8
0
6
ByLayer
62
0
370
-1
100
AcDbLine
10
158
20
15
11
158
21
16.8
0
LINE
5
D3
100
AcDbEntity
8
0
6
ByLayer
62
0
370
-1
100
AcDbLine
10
159
20
15
11
159
21
16.8
0
LINE
5
D4
100
AcDbEntity
8
0
6
ByLayer
62
0
370
-1
100
AcDbLine
10
161
20
15
11
161
21
16.8
0
LINE
5
D5
100
AcDbEntity
8
0
6
ByLayer
62
0
370
-1
100
AcDbLine
10
162
20
15
11
162
21
16.8
0
LINE
5
D6
100
AcDbEntity
8
0
6
ByLayer
62
0
370
-1
100
AcDbLine
10
163
20
15
11
163
21
16.8
0
LINE
5
D7
100
AcDbEntity
8
0
6
ByLayer
62
0
370
-1
100
AcDbLine
10
164
20
15
11
164
21
16.8
0
LINE
5
D8
100
AcDbEntity
8
0
6
ByLayer
62
0
370
-1
100
AcDbLine
10
165
20
15
11
165
21
16.8
0
LINE
5
D9
100
AcDbEntity
8
0
6
ByLayer
62
0
370
-1
100
AcDbLine
10
166
20
15
11
166
21
16.8
0
LINE
5
DA
100
AcDbEntity
8
0
6
ByLayer
62
0
370
-1
100
AcDbLine
10
167
20
15
11
167
21
16.8
0
LINE
5
DB
100
AcDbEntity
8
0
6
ByLayer
62
0
370
-1
100
AcDbLine
10
168
20
15
11
168
21
16.8
0
LINE
5
DC
100
AcDbEntity
8
0
6
ByLayer
62
0
370
-1
100
AcDbLine
10
169
20
15
11
169
21
16.8
0
LINE
5
DD
100
AcDbEntity
8
0
6
ByLayer
62
0
370
-1
100
AcDbLine
10
171
20
15
11
171
21
16.8
0
LINE
5
DE
100
AcDbEntity
8
0
6
ByLayer
62
0
370
-1
100
AcDbLine
10
172
20
15
11
172
21
16.8
0
LINE
5
DF
100
AcDbEntity
8
0
6
ByLayer
62
0
370
-1
100
AcDbLine
10
173
20
15
11
173
21
16.8
0
LINE
5
E0
100
AcDbEntity
8
0
6
ByLayer
62
0
370
-1
100
AcDbLine
10
174
20
15
11
174
21
16.8
0
LINE
5
E1
100
AcDbEntity
8
0
6
ByLayer
62
0
370
-1
100
AcDbLine
10
175
20
15
11
175
21
16.8
0
LINE
5
E2
100
AcDbEntity
8
0
6
ByLayer
62
0
370
-1
100
AcDbLine
10
176
20
15
11
176
21
16.8
0
LINE
5
E3
100
AcDbEntity
8
0
6
ByLayer
62
0
370
-1
100
AcDbLine
10
177
20
15
11
177
21
16.8
0
LINE
5
E4
100
AcDbEntity
8
0
6
ByLayer
62
0
370
-1
100
AcDbLine
10
178
20
15
11
178
21
16.8
0
LINE
5
E5
100
AcDbEntity
8
0
6
ByLayer
62
0
370
-1
100
AcDbLine
10
179
20
15
11
179
21
16.8
0
LINE
5
E6
100
AcDbEntity
8
0
6
ByLayer
62
0
370
-1
100
AcDbLine
10
85
20
16.8
11
85
21
17.4
0
LINE
5
E7
100
AcDbEntity
8
0
6
ByLayer
62
0
370
-1
100
AcDbLine
10
95
20
16.8
11
95
21
17.4
0
LINE
5
E8
100
AcDbEntity
8
0
6
ByLayer
62
0
370
-1
100
AcDbLine
10
105
20
16.8
11
105
21
17.4
0
LINE
5
E9
100
AcDbEntity
8
0
6
ByLayer
62
0
370
-1
100
AcDbLine
10
115
20
16.8
11
115
21
17.4
0
LINE
5
EA
100
AcDbEntity
8
0
6
ByLayer
62
0
370
-1
100
AcDbLine
10
125
20
16.8
11
125
21
17.4
0
LINE
5
EB
100
AcDbEntity
8
0
6
ByLayer
62
0
370
-1
100
AcDbLine
10
135
20
16.8
11
135
21
17.4
0
LINE
5
EC
100
AcDbEntity
8
0
6
ByLayer
62
0
370
-1
100
AcDbLine
10
145
20
16.8
11
145
21
17.4
0
LINE
5
ED
100
AcDbEntity
8
0
6
ByLayer
62
0
370
-1
100
AcDbLine
10
155
20
16.8
11
155
21
17.4
0
LINE
5
EE
100
AcDbEntity
8
0
6
ByLayer
62
0
370
-1
100
AcDbLine
10
165
20
16.8
11
165
21
17.4
0
LINE
5
EF
100
AcDbEntity
8
0
6
ByLayer
62
0
370
-1
100
AcDbLine
10
175
20
16.8
11
175
21
17.4
0
MTEXT
5
F0
100
AcDbEntity
8
0
6
ByLayer
62
0
370
-1
100
AcDbMText
10
131
20
13
30
0
40
3
41
18.3333333333
71
1
72
1
1
Millimeter
7
standard
210
0
220
0
230
1
50
0
73
2
44
1
0
MTEXT
5
F1
100
AcDbEntity
8
0
6
ByLayer
62
256
370
-1
100
AcDbMText
10
30
20
10
30
0
40
6
41
18
71
1
72
1
1
KwD1
7
standard
210
0
220
0
230
1
50
0
73
2
44
1
0
MTEXT
5
F2
100
AcDbEntity
8
0
6
ByLayer
62
256
370
-1
100
AcDbMText
10
55
20
10
30
0
40
3
41
69.5833333333
71
1
72
1
1
Kontrollwagen Elektronikplattform
7
standard
210
0
220
0
230
1
50
0
73
2
44
1
0
LEADER
5
F3
100
AcDbEntity
8
0
6
ByLayer
62
0
370
-1
100
AcDbLeader
3
Standard
71
1
72
0
73
3
74
0
75
0
40
1
41
10
76
2
76
2
10
13
20
140
30
0
10
13
20
100
30
0
0
MTEXT
5
F4
100
AcDbEntity
8
0
6
ByLayer
62
0
370
-1
100
AcDbMText
10
10
20
100
30
0
40
2
41
25.1111111111
71
1
72
1
1
Hauptfahrtrichtung
7
standard
210
0
220
0
230
1
50
90
73
2
44
1
0
LINE
5
F5
100
AcDbEntity
8
0
6
ByLayer
62
0
370
-1
100
AcDbLine
10
115
20
206
11
111
21
206
0
LINE
5
F6
100
AcDbEntity
8
0
6
ByLayer
62
0
370
-1
100
AcDbLine
10
65
20
206
11
69
21
206
0
LINE
5
F7
100
AcDbEntity
8
0
6
ByLayer
62
0
370
-1
100
AcDbLine
10
111
20
206
11
111
21
202
0
LINE
5
F8
100
AcDbEntity
8
0
6
ByLayer
62
0
370
-1
100
AcDbLine
10
69
20
206
11
69
21
202
0
LINE
5
F9
100
AcDbEntity
8
0
6
ByLayer
62
0
370
-1
100
AcDbLine
10
111
20
202
11
100
21
202
0
LINE
5
FA
100
AcDbEntity
8
0
6
ByLayer
62
0
370
-1
100
AcDbLine
10
69
20
202
11
80
21
202
0
LINE
5
FB
100
AcDbEntity
8
0
6
ByLayer
62
0
370
-1
100
AcDbLine
10
100
20
202
11
100
21
206
0
LINE
5
FC
100
AcDbEntity
8
0
6
ByLayer
62
0
370
-1
100
AcDbLine
10
80
20
202
11
80
21
206
0
LINE
5
FD
100
AcDbEntity
8
0
6
ByLayer
62
0
370
-1
100
AcDbLine
10
100
20
206
11
80
21
206
0
LINE
5
FE
100
AcDbEntity
8
0
6
ByLayer
62
0
370
-1
100
AcDbLine
10
111
20
182
11
111
21
178
0
LINE
5
FF
100
AcDbEntity
8
0
6
ByLayer
62
0
370
-1
100
AcDbLine
10
69
20
182
11
69
21
178
0
LINE
5
100
100
AcDbEntity
8
0
6
ByLayer
62
0
370
-1
100
AcDbLine
10
111
20
178
11
100
21
178
0
LINE
5
101
100
AcDbEntity
8
0
6
ByLayer
62
0
370
-1
100
AcDbLine
10
69
20
178
11
80
21
178
0
LINE
5
102
100
AcDbEntity
8
0
6
ByLayer
62
0
370
-1
100
AcDbLine
10
100
20
178
11
100
21
182
0
LINE
5
103
100
AcDbEntity
8
0
6
ByLayer
62
0
370
-1
100
AcDbLine
10
80
20
178
11
80
21
182
0
LINE
5
104
100
AcDbEntity
8
0
6
ByLayer
62
0
370
-1
100
AcDbLine
10
111
20
81
11
111
21
77
0
LINE
5
105
100
AcDbEntity
8
0
6
ByLayer
62
0
370
-1
100
AcDbLine
10
69
20
81
11
69
21
77
0
LINE
5
106
100
AcDbEntity
8
0
6
ByLayer
62
0
370
-1
100
AcDbLine
10
111
20
77
11
100
21
77
0
LINE
5
107
100
AcDbEntity
8
0
6
ByLayer
62
0
370
-1
100
AcDbLine
10
69
20
77
11
80
21
77
0
LINE
5
108
100
AcDbEntity
8
0
6
ByLayer
62
0
370
-1
100
AcDbLine
10
100
20
77
11
100
21
81
0
LINE
5
109
100
AcDbEntity
8
0
6
ByLayer
62
0
370
-1
100
AcDbLine
10
80
20
77
11
80
21
81
0
LINE
5
10A
100
AcDbEntity
8
0
6
ByLayer
62
0
370
-1
100
AcDbLine
10
111
20
57
11
111
21
53
0
LINE
5
10B
100
AcDbEntity
8
0
6
ByLayer
62
0
370
-1
100
AcDbLine
10
69
20
57
11
69
21
53
0
LINE
5
10C
100
AcDbEntity
8
0
6
ByLayer
62
0
370
-1
100
AcDbLine
10
100
20
53
11
100
21
57
0
LINE
5
10D
100
AcDbEntity
8
0
6
ByLayer
62
0
370
-1
100
AcDbLine
10
80
20
53
11
80
21
57
0
LINE
5
10E
100
AcDbEntity
8
0
6
ByLayer
62
0
370
-1
100
AcDbLine
10
111
20
57
11
100
21
57
0
LINE
5
10F
100
AcDbEntity
8
0
6
ByLayer
62
0
370
-1
100
AcDbLine
10
69
20
57
11
80
21
57
0
LINE
5
110
100
AcDbEntity
8
0
6
ByLayer
62
0
370
-1
100
AcDbLine
10
111
20
81
11
100
21
81
0
LINE
5
111
100
AcDbEntity
8
0
6
ByLayer
62
0
370
-1
100
AcDbLine
10
69
20
81
11
80
21
81
0
LINE
5
112
100
AcDbEntity
8
0
6
ByLayer
62
0
370
-1
100
AcDbLine
10
111
20
182
11
100
21
182
0
LINE
5
113
100
AcDbEntity
8
0
6
ByLayer
62
0
370
-1
100
AcDbLine
10
69
20
182
11
80
21
182
0
LINE
5
114
100
AcDbEntity
8
0
6
ByLayer
62
0
370
-1
100
AcDbLine
10
115
20
53
11
111
21
53
0
LINE
5
115
100
AcDbEntity
8
0
6
ByLayer
62
0
370
-1
100
AcDbLine
10
100
20
53
11
80
21
53
0
LINE
5
116
100
AcDbEntity
8
0
6
ByLayer
62
0
370
-1
100
AcDbLine
10
69
20
53
11
65
21
53
0
LINE
5
117
100
AcDbEntity
8
0
6
ByLayer
62
0
370
-1
100
AcDbLine
10
115
20
178
11
141
21
178
0
LINE
5
118
100
AcDbEntity
8
0
6
ByLayer
62
0
370
-1
100
AcDbLine
10
115
20
81
11
141
21
81
0
LINE
5
119
100
AcDbEntity
8
0
6
ByLayer
62
0
370
-1
100
AcDbLine
10
141
20
178
11
141
21
81
0
LINE
5
11A
100
AcDbEntity
8
0
6
ByLayer
62
0
370
-1
100
AcDbLine
10
115
20
206
11
115
21
178
0
LINE
5
11B
100
AcDbEntity
8
0
6
ByLayer
62
0
370
-1
100
AcDbLine
10
115
20
81
11
115
21
53
0
LINE
5
11C
100
AcDbEntity
8
0
6
ByLayer
62
0
370
-1
100
AcDbLine
10
65
20
178
11
39
21
178
0
LINE
5
11D
100
AcDbEntity
8
0
6
ByLayer
62
0
370
-1
100
AcDbLine
10
65
20
81
11
39
21
81
0
LINE
5
11E
100
AcDbEntity
8
0
6
ByLayer
62
0
370
-1
100
AcDbLine
10
39
20
178
11
39
21
81
0
LINE
5
11F
100
AcDbEntity
8
0
6
ByLayer
62
0
370
-1
100
AcDbLine
10
65
20
206
11
65
21
178
0
LINE
5
120
100
AcDbEntity
8
0
6
ByLayer
62
0
370
-1
100
AcDbLine
10
65
20
81
11
65
21
53
0
LWPOLYLINE
5
121
100
AcDbEntity
8
0
6
ByLayer
62
0
370
-1
100
AcDbPolyline
90
4
70
1
43
0
10
108.5
20
194
10
108.5
20
190
10
104.5
20
190
10
104.5
20
194
0
LWPOLYLINE
5
122
100
AcDbEntity
8
0
6
ByLayer
62
0
370
-1
100
AcDbPolyline
90
4
70
1
43
0
10
97.5
20
194
10
97.5
20
190
10
93.5
20
190
10
93.5
20
194
0
LWPOLYLINE
5
123
100
AcDbEntity
8
0
6
ByLayer
62
0
370
-1
100
AcDbPolyline
90
4
70
1
43
0
10
86.5
20
194
10
86.5
20
190
10
82.5
20
190
10
82.5
20
194
0
LWPOLYLINE
5
124
100
AcDbEntity
8
0
6
ByLayer
62
0
370
-1
100
AcDbPolyline
90
4
70
1
43
0
10
75.5
20
194
10
75.5
20
190
10
71.5
20
190
10
71.5
20
194
0
LWPOLYLINE
5
125
100
AcDbEntity
8
0
6
ByLayer
62
0
370
-1
100
AcDbPolyline
90
4
70
1
43
0
10
108.5
20
69
10
108.5
20
65
10
104.5
20
65
10
104.5
20
69
0
LWPOLYLINE
5
126
100
AcDbEntity
8
0
6
ByLayer
62
0
370
-1
100
AcDbPolyline
90
4
70
1
43
0
10
97.5
20
69
10
97.5
20
65
10
93.5
20
65
10
93.5
20
69
0
LWPOLYLINE
5
127
100
AcDbEntity
8
0
6
ByLayer
62
0
370
-1
100
AcDbPolyline
90
4
70
1
43
0
10
86.5
20
69
10
86.5
20
65
10
82.5
20
65
10
82.5
20
69
0
LWPOLYLINE
5
128
100
AcDbEntity
8
0
6
ByLayer
62
0
370
-1
100
AcDbPolyline
90
4
70
1
43
0
10
75.5
20
69
10
75.5
20
65
10
71.5
20
65
10
71.5
20
69
0
LINE
5
129
100
AcDbEntity
8
0
6
ByLayer
62
256
370
-1
100
AcDbLine
10
94
20
136
11
94
21
132
0
LINE
5
12A
100
AcDbEntity
8
0
6
ByLayer
62
256
370
-1
100
AcDbLine
10
86
20
136
11
86
21
132
0
LINE
5
12B
100
AcDbEntity
8
0
6
ByLayer
62
256
370
-1
100
AcDbLine
10
75.3
20
136
11
75.3
21
132
0
LINE
5
12C
100
AcDbEntity
8
0
6
ByLayer
62
256
370
-1
100
AcDbLine
10
67.3
20
136
11
67.3
21
132
0
LINE
5
12D
100
AcDbEntity
8
0
6
ByLayer
62
256
370
-1
100
AcDbLine
10
104.7
20
136
11
104.7
21
132
0
LINE
5
12E
100
AcDbEntity
8
0
6
ByLayer
62
256
370
-1
100
AcDbLine
10
112.7
20
136
11
112.7
21
132
0
LINE
5
12F
100
AcDbEntity
8
0
6
ByLayer
62
256
370
-1
100
AcDbLine
10
56.6
20
136
11
56.6
21
132
0
LINE
5
130
100
AcDbEntity
8
0
6
ByLayer
62
256
370
-1
100
AcDbLine
10
123.4
20
136
11
123.4
21
132
0
LINE
5
131
100
AcDbEntity
8
0
6
ByLayer
62
256
370
-1
100
AcDbLine
10
51.7011833491
20
132
11
56.6
21
132
0
LINE
5
132
100
AcDbEntity
8
0
6
ByLayer
62
256
370
-1
100
AcDbLine
10
67.3
20
132
11
75.3
21
132
0
LINE
5
133
100
AcDbEntity
8
0
6
ByLayer
62
256
370
-1
100
AcDbLine
10
86
20
132
11
94
21
132
0
LINE
5
134
100
AcDbEntity
8
0
6
ByLayer
62
256
370
-1
100
AcDbLine
10
104.7
20
132
11
112.7
21
132
0
LINE
5
135
100
AcDbEntity
8
0
6
ByLayer
62
256
370
-1
100
AcDbLine
10
123.4
20
132
11
128.298816651
21
132
0
LINE
5
136
100
AcDbEntity
8
0
6
ByLayer
62
256
370
-1
100
AcDbLine
10
123.4
20
136
11
128.298816651
21
136
0
LINE
5
137
100
AcDbEntity
8
0
6
ByLayer
62
256
370
-1
100
AcDbLine
10
104.7
20
136
11
112.7
21
136
0
LINE
5
138
100
AcDbEntity
8
0
6
ByLayer
62
256
370
-1
100
AcDbLine
10
86
20
136
11
94
21
136
0
LINE
5
139
100
AcDbEntity
8
0
6
ByLayer
62
256
370
-1
100
AcDbLine
10
67.3
20
136
11
75.3
21
136
0
LINE
5
13A
100
AcDbEntity
8
0
6
ByLayer
62
256
370
-1
100
AcDbLine
10
51.7011833491
20
136
11
56.6
21
136
0
LINE
5
13B
100
AcDbEntity
8
0
6
ByLayer
62
256
370
-1
100
AcDbLine
10
51.7011833491
20
136
11
51.7011833491
21
132
0
LINE
5
13C
100
AcDbEntity
8
0
6
ByLayer
62
256
370
-1
100
AcDbLine
10
128.298816651
20
136
11
128.298816651
21
132
0
LINE
5
13D
100
AcDbEntity
8
0
6
ByLayer
62
256
370
-1
100
AcDbLine
10
94
20
100
11
94
21
96
0
LINE
5
13E
100
AcDbEntity
8
0
6
ByLayer
62
256
370
-1
100
AcDbLine
10
86
20
100
11
86
21
96
0
LINE
5
13F
100
AcDbEntity
8
0
6
ByLayer
62
256
370
-1
100
AcDbLine
10
75.3
20
100
11
75.3
21
96
0
LINE
5
140
100
AcDbEntity
8
0
6
ByLayer
62
256
370
-1
100
AcDbLine
10
67.3
20
100
11
67.3
21
96
0
LINE
5
141
100
AcDbEntity
8
0
6
ByLayer
62
256
370
-1
100
AcDbLine
10
104.7
20
100
11
104.7
21
96
0
LINE
5
142
100
AcDbEntity
8
0
6
ByLayer
62
256
370
-1
100
AcDbLine
10
112.7
20
100
11
112.7
21
96
0
LINE
5
143
100
AcDbEntity
8
0
6
ByLayer
62
256
370
-1
100
AcDbLine
10
56.6
20
100
11
56.6
21
96
0
LINE
5
144
100
AcDbEntity
8
0
6
ByLayer
62
256
370
-1
100
AcDbLine
10
123.4
20
100
11
123.4
21
96
0
LINE
5
145
100
AcDbEntity
8
0
6
ByLayer
62
256
370
-1
100
AcDbLine
10
51.7011833491
20
96
11
56.6
21
96
0
LINE
5
146
100
AcDbEntity
8
0
6
ByLayer
62
256
370
-1
100
AcDbLine
10
67.3
20
96
11
75.3
21
96
0
LINE
5
147
100
AcDbEntity
8
0
6
ByLayer
62
256
370
-1
100
AcDbLine
10
86
20
96
11
94
21
96
0
LINE
5
148
100
AcDbEntity
8
0
6
ByLayer
62
256
370
-1
100
AcDbLine
10
104.7
20
96
11
112.7
21
96
0
LINE
5
149
100
AcDbEntity
8
0
6
ByLayer
62
256
370
-1
100
AcDbLine
10
123.4
20
96
11
128.298816651
21
96
0
LINE
5
14A
100
AcDbEntity
8
0
6
ByLayer
62
256
370
-1
100
AcDbLine
10
123.4
20
100
11
128.298816651
21
100
0
LINE
5
14B
100
AcDbEntity
8
0
6
ByLayer
62
256
370
-1
100
AcDbLine
10
104.7
20
100
11
112.7
21
100
0
LINE
5
14C
100
AcDbEntity
8
0
6
ByLayer
62
256
370
-1
100
AcDbLine
10
86
20
100
11
94
21
100
0
LINE
5
14D
100
AcDbEntity
8
0
6
ByLayer
62
256
370
-1
100
AcDbLine
10
67.3
20
100
11
75.3
21
100
0
LINE
5
14E
100
AcDbEntity
8
0
6
ByLayer
62
256
370
-1
100
AcDbLine
10
51.7011833491
20
100
11
56.6
21
100
0
LINE
5
14F
100
AcDbEntity
8
0
6
ByLayer
62
256
370
-1
100
AcDbLine
10
51.7011833491
20
100
11
51.7011833491
21
96
0
LINE
5
150
100
AcDbEntity
8
0
6
ByLayer
62
256
370
-1
100
AcDbLine
10
128.298816651
20
100
11
128.298816651
21
96
0
ARC
5
151
100
AcDbEntity
8
0
6
ByLayer
62
256
370
-1
100
AcDbCircle
10
79
20
159
40
4
100
AcDbArc
50
180
51
270
0
ARC
5
152
100
AcDbEntity
8
0
6
ByLayer
62
256
370
-1
100
AcDbCircle
10
101
20
159
40
4
100
AcDbArc
50
270
51
0
0
LINE
5
153
100
AcDbEntity
8
0
6
ByLayer
62
256
370
-1
100
AcDbLine
10
79
20
155
11
101
21
155
0
ARC
5
154
100
AcDbEntity
8
0
6
ByLayer
62
256
370
-1
100
AcDbCircle
10
79
20
166
40
4
100
AcDbArc
50
90
51
180
0
ARC
5
155
100
AcDbEntity
8
0
6
ByLayer
62
256
370
-1
100
AcDbCircle
10
101
20
166
40
4
100
AcDbArc
50
0
51
90
0
LINE
5
156
100
AcDbEntity
8
0
6
ByLayer
62
256
370
-1
100
AcDbLine
10
90
20
170
11
79
21
170
0
LINE
5
157
100
AcDbEntity
8
0
6
ByLayer
62
256
370
-1
100
AcDbLine
10
90
20
170
11
101
21
170
0
LINE
5
158
100
AcDbEntity
8
0
6
ByLayer
62
256
370
-1
100
AcDbLine
10
75
20
166
11
75
21
159
0
LINE
5
159
100
AcDbEntity
8
0
6
ByLayer
62
256
370
-1
100
AcDbLine
10
105
20
166
11
105
21
159
0
LWPOLYLINE
5
15A
100
AcDbEntity
8
0
6
ByLayer
62
0
370
-1
100
AcDbPolyline
90
4
70
1
43
0
10
99.75
20
118
10
99.75
20
114
10
94.55
20
114
10
94.55
20
118
0
LWPOLYLINE
5
15B
100
AcDbEntity
8
0
6
ByLayer
62
0
370
-1
100
AcDbPolyline
90
4
70
1
43
0
10
85.45
20
118
10
85.45
20
114
10
80.25
20
114
10
80.25
20
118
0
LINE
5
15C
100
AcDbEntity
8
0
6
ByLayer
62
256
370
-1
100
AcDbLine
10
88
20
129.75
11
92
21
129.75
0
LINE
5
15D
100
AcDbEntity
8
0
6
ByLayer
62
256
370
-1
100
AcDbLine
10
90
20
131
11
90
21
128
0
DIMENSION
5
15E
100
AcDbEntity
8
0
6
ByLayer
62
256
370
-1
100
AcDbDimension
2
*D2
10
141
20
220
30
0
11
90
21
221.875
31
0
70
32
71
5
3
Standard
53
0
210
0
220
0
230
1
100
AcDbAlignedDimension
13
39
23
178
33
0
14
141
24
178
34
0
100
AcDbRotatedDimension
0
DIMENSION
5
15F
100
AcDbEntity
8
0
6
ByLayer
62
256
370
-1
100
AcDbDimension
2
*D3
10
150
20
81
30
0
11
148.125
21
129.5
31
0
70
32
71
5
3
Standard
53
0
210
0
220
0
230
1
100
AcDbAlignedDimension
13
141
23
178
33
0
14
141
24
81
34
0
50
90
100
AcDbRotatedDimension
0
DIMENSION
5
160
100
AcDbEntity
8
0
6
ByLayer
62
256
370
-1
100
AcDbDimension
2
*D4
10
120
20
53
30
0
11
118.125
21
67
31
0
70
32
71
5
3
Standard
53
0
210
0
220
0
230
1
100
AcDbAlignedDimension
13
115
23
81
33
0
14
115
24
53
34
0
50
90
100
AcDbRotatedDimension
0
DIMENSION
5
161
100
AcDbEntity
8
0
6
ByLayer
62
256
370
-1
100
AcDbDimension
2
*D5
10
115
20
46
30
0
11
90
21
47.875
31
0
70
32
71
5
3
Standard
53
0
210
0
220
0
230
1
100
AcDbAlignedDimension
13
65
23
53
33
0
14
115
24
53
34
0
100
AcDbRotatedDimension
0
ENDSEC
0
SECTION
2
OBJECTS
0
DICTIONARY
5
C
330
0
100
AcDbDictionary
281
1
3
ACAD_GROUP
350
D
0
DICTIONARY
5
D
330
C
100
AcDbDictionary
281
1
0
ENDSEC
0
EOF
