999
dxfrw 0.5.10
0
SECTION
2
HEADER
9
$ACADVER
1
AC1021
9
$HANDSEED
5
20000
9
$DWGCODEPAGE
3
ANSI_1252
9
$INSBASE
10
0
20
0
30
0
9
$EXTMIN
10
30
20
4
30
0
9
$EXTMAX
10
141.25
20
200
30
0
9
$LIMMIN
10
0
20
0
9
$LIMMAX
10
420
20
297
9
$ORTHOMODE
70
0
9
$LTSCALE
40
1
9
$TEXTSTYLE
7
STANDARD
9
$CLAYER
8
0
9
$DIMASZ
40
2.5
9
$DIMLFAC
40
1
9
$DIMSCALE
40
1
9
$DIMEXO
40
0.625
9
$DIMEXE
40
1.25
9
$DIMTXT
40
2.5
9
$DIMTSZ
40
0
9
$DIMAUNIT
70
0
9
$DIMADEC
70
0
9
$DIMLUNIT
70
2
9
$DIMSTYLE
2
STANDARD
9
$DIMGAP
40
0.625
9
$DIMTIH
70
0
9
$LUNITS
70
2
9
$LUPREC
70
4
9
$AUNITS
70
0
9
$AUPREC
70
2
9
$SPLINESEGS
70
8
9
$GRIDMODE
70
1
9
$SNAPSTYLE
70
0
9
$PINSBASE
10
0
20
0
30
0
9
$PLIMMIN
10
0
20
0
9
$PLIMMAX
10
210
20
297
9
$INSUNITS
70
4
9
$PSVPSCALE
40
1.19470824234e-311
0
ENDSEC
0
SECTION
2
CLASSES
0
ENDSEC
0
SECTION
2
TABLES
0
TABLE
2
VPORT
5
8
330
0
100
AcDbSymbolTable
70
1
0
VPORT
5
31
330
2
100
AcDbSymbolTableRecord
100
AcDbViewportTableRecord
2
*ACTIVE
70
0
10
0
20
0
11
1
21
1
12
-97.6562500001
22
-25.5584716797
13
0
23
0
14
10
24
10
15
10
25
10
16
0
26
0
36
1
17
0
27
0
37
0
40
48.828125
41
1.71875
42
50
43
0
44
0
50
0
51
0
71
0
72
100
73
1
74
3
75
0
76
1
77
0
78
0
281
0
65
1
110
0
120
0
130
0
111
1
121
0
131
0
112
0
122
1
132
0
79
0
146
0
348
10020
60
7
61
5
292
1
282
1
141
0
142
0
63
250
421
3358443
0
ENDTAB
0
TABLE
2
LTYPE
5
5
330
0
100
AcDbSymbolTable
70
4
0
LTYPE
5
14
330
5
100
AcDbSymbolTableRecord
100
AcDbLinetypeTableRecord
2
ByBlock
70
0
3

72
65
73
0
40
0
0
LTYPE
5
15
330
5
100
AcDbSymbolTableRecord
100
AcDbLinetypeTableRecord
2
ByLayer
70
0
3

72
65
73
0
40
0
0
LTYPE
5
16
330
5
100
AcDbSymbolTableRecord
100
AcDbLinetypeTableRecord
2
Continuous
70
0
3
Solid line
72
65
73
0
40
0
0
LTYPE
5
32
330
5
100
AcDbSymbolTableRecord
100
AcDbLinetypeTableRecord
2
DOT
70
0
3
Dot . . . . . . . . . . . . . . . . . . . . . .
72
65
73
2
40
6.35
49
0
74
0
49
-6.35
74
0
0
LTYPE
5
33
330
5
100
AcDbSymbolTableRecord
100
AcDbLinetypeTableRecord
2
DOT2
70
0
3
Dot (.5x) .....................................
72
65
73
2
40
3.175
49
0
74
0
49
-3.175
74
0
0
LTYPE
5
34
330
5
100
AcDbSymbolTableRecord
100
AcDbLinetypeTableRecord
2
DOTX2
70
0
3
Dot (2x) .  .  .  .  .  .  .  .  .  .  .  .  .
72
65
73
2
40
12.7
49
0
74
0
49
-12.7
74
0
0
LTYPE
5
35
330
5
100
AcDbSymbolTableRecord
100
AcDbLinetypeTableRecord
2
DASHED
70
0
3
Dot . . . . . . . . . . . . . . . . . . . . . .
72
65
73
2
40
19.05
49
12.7
74
0
49
-6.35
74
0
0
LTYPE
5
36
330
5
100
AcDbSymbolTableRecord
100
AcDbLinetypeTableRecord
2
DASHED2
70
0
3
Dashed (.5x) _ _ _ _ _ _ _ _ _ _ _ _ _ _ _ _ _
72
65
73
2
40
9.525
49
6.35
74
0
49
-3.175
74
0
0
LTYPE
5
37
330
5
100
AcDbSymbolTableRecord
100
AcDbLinetypeTableRecord
2
DASHEDX2
70
0
3
Dashed (2x) ____  ____  ____  ____  ____  ___
72
65
73
2
40
38.1
49
25.4
74
0
49
-12.7
74
0
0
LTYPE
5
38
330
5
100
AcDbSymbolTableRecord
100
AcDbLinetypeTableRecord
2
DASHDOT
70
0
3
Dash dot __ . __ . __ . __ . __ . __ . __ . __
72
65
73
4
40
25.4
49
12.7
74
0
49
-6.35
74
0
49
0
74
0
49
-6.35
74
0
0
LTYPE
5
39
330
5
100
AcDbSymbolTableRecord
100
AcDbLinetypeTableRecord
2
DASHDOT2
70
0
3
Dash dot (.5x) _._._._._._._._._._._._._._._.
72
65
73
4
40
12.7
49
6.35
74
0
49
-3.175
74
0
49
0
74
0
49
-3.175
74
0
0
LTYPE
5
3A
330
5
100
AcDbSymbolTableRecord
100
AcDbLinetypeTableRecord
2
DASHDOTX2
70
0
3
Dash dot (2x) ____  .  ____  .  ____  .  ___
72
65
73
4
40
50.8
49
25.4
74
0
49
-12.7
74
0
49
0
74
0
49
-12.7
74
0
0
LTYPE
5
3B
330
5
100
AcDbSymbolTableRecord
100
AcDbLinetypeTableRecord
2
DIVIDE
70
0
3
Divide ____ . . ____ . . ____ . . ____ . . ____
72
65
73
6
40
31.75
49
12.7
74
0
49
-6.35
74
0
49
0
74
0
49
-6.35
74
0
49
0
74
0
49
-6.35
74
0
0
LTYPE
5
3C
330
5
100
AcDbSymbolTableRecord
100
AcDbLinetypeTableRecord
2
DIVIDE2
70
0
3
Divide (.5x) __..__..__..__..__..__..__..__.._
72
65
73
6
40
15.875
49
6.35
74
0
49
-3.175
74
0
49
0
74
0
49
-3.175
74
0
49
0
74
0
49
-3.175
74
0
0
LTYPE
5
3D
330
5
100
AcDbSymbolTableRecord
100
AcDbLinetypeTableRecord
2
DIVIDEX2
70
0
3
Divide (2x) ________  .  .  ________  .  .  _
72
65
73
6
40
63.5
49
25.4
74
0
49
-12.7
74
0
49
0
74
0
49
-12.7
74
0
49
0
74
0
49
-12.7
74
0
0
LTYPE
5
3E
330
5
100
AcDbSymbolTableRecord
100
AcDbLinetypeTableRecord
2
BORDER
70
0
3
Border __ __ . __ __ . __ __ . __ __ . __ __ .
72
65
73
6
40
44.45
49
12.7
74
0
49
-6.35
74
0
49
12.7
74
0
49
-6.35
74
0
49
0
74
0
49
-6.35
74
0
0
LTYPE
5
3F
330
5
100
AcDbSymbolTableRecord
100
AcDbLinetypeTableRecord
2
BORDER2
70
0
3
Border (.5x) __.__.__.__.__.__.__.__.__.__.__.
72
65
73
6
40
22.225
49
6.35
74
0
49
-3.175
74
0
49
6.35
74
0
49
-3.175
74
0
49
0
74
0
49
-3.175
74
0
0
LTYPE
5
40
330
5
100
AcDbSymbolTableRecord
100
AcDbLinetypeTableRecord
2
BORDERX2
70
0
3
Border (2x) ____  ____  .  ____  ____  .  ___
72
65
73
6
40
88.9
49
25.4
74
0
49
-12.7
74
0
49
25.4
74
0
49
-12.7
74
0
49
0
74
0
49
-12.7
74
0
0
LTYPE
5
41
330
5
100
AcDbSymbolTableRecord
100
AcDbLinetypeTableRecord
2
CENTER
70
0
3
Center ____ _ ____ _ ____ _ ____ _ ____ _ ____
72
65
73
4
40
50.8
49
31.75
74
0
49
-6.35
74
0
49
6.35
74
0
49
-6.35
74
0
0
LTYPE
5
42
330
5
100
AcDbSymbolTableRecord
100
AcDbLinetypeTableRecord
2
CENTER2
70
0
3
Center (.5x) ___ _ ___ _ ___ _ ___ _ ___ _ ___
72
65
73
4
40
28.575
49
19.05
74
0
49
-3.175
74
0
49
3.175
74
0
49
-3.175
74
0
0
LTYPE
5
43
330
5
100
AcDbSymbolTableRecord
100
AcDbLinetypeTableRecord
2
CENTERX2
70
0
3
Center (2x) ________  __  ________  __  _____
72
65
73
4
40
101.6
49
63.5
74
0
49
-12.7
74
0
49
12.7
74
0
49
-12.7
74
0
0
ENDTAB
0
TABLE
2
LAYER
5
2
330
0
100
AcDbSymbolTable
70
1
0
LAYER
5
10
330
2
100
AcDbSymbolTableRecord
100
AcDbLayerTableRecord
2
0
70
0
62
7
6
CONTINUOUS
370
0
390
F
0
ENDTAB
0
TABLE
2
STYLE
5
3
330
0
100
AcDbSymbolTable
70
3
0
STYLE
5
44
330
2
100
AcDbSymbolTableRecord
100
AcDbTextStyleTableRecord
2
standard
70
0
40
0
41
1
50
0
71
0
42
1
3
standard
4

0
ENDTAB
0
TABLE
2
VIEW
5
6
330
0
100
AcDbSymbolTable
70
0
0
ENDTAB
0
TABLE
2
UCS
5
7
330
0
100
AcDbSymbolTable
70
0
0
ENDTAB
0
TABLE
2
APPID
5
9
330
0
100
AcDbSymbolTable
70
1
0
APPID
5
12
330
9
100
AcDbSymbolTableRecord
100
AcDbRegAppTableRecord
2
ACAD
70
0
0
ENDTAB
0
TABLE
2
DIMSTYLE
5
A
330
0
100
AcDbSymbolTable
70
1
100
AcDbDimStyleTable
71
1
0
DIMSTYLE
105
45
330
A
100
AcDbSymbolTableRecord
100
AcDbDimStyleTableRecord
2
Standard
70
0
40
1
41
2.5
42
0.625
43
0.38
44
1.25
45
0
46
0
47
0
48
0
140
2.5
141
0.09
142
0
143
25.4
144
1
145
0
146
1
147
0.625
148
0
71
0
72
0
73
0
74
1
75
0
76
0
77
0
78
0
79
0
170
0
171
2
172
0
173
0
174
0
175
0
176
0
177
0
178
0
179
0
271
4
272
4
273
2
274
2
275
0
276
0
277
2
278
46
279
0
280
0
281
0
282
0
283
1
284
0
285
0
286
0
288
0
289
3
340
Standard
341

371
-2
372
-2
0
ENDTAB
0
TABLE
2
BLOCK_RECORD
5
1
330
0
100
AcDbSymbolTable
70
2
0
BLOCK_RECORD
5
1F
330
1
100
AcDbSymbolTableRecord
100
AcDbBlockTableRecord
2
*Model_Space
70
0
280
1
281
0
0
BLOCK_RECORD
5
1E
330
1
100
AcDbSymbolTableRecord
100
AcDbBlockTableRecord
2
*Paper_Space
70
0
280
1
281
0
0
BLOCK_RECORD
5
46
330
1
100
AcDbSymbolTableRecord
100
AcDbBlockTableRecord
2
*D4
70
0
280
1
281
0
0
BLOCK_RECORD
5
49
330
1
100
AcDbSymbolTableRecord
100
AcDbBlockTableRecord
2
*D3
70
0
280
1
281
0
0
BLOCK_RECORD
5
4C
330
1
100
AcDbSymbolTableRecord
100
AcDbBlockTableRecord
2
*D1
70
0
280
1
281
0
0
BLOCK_RECORD
5
4F
330
1
100
AcDbSymbolTableRecord
100
AcDbBlockTableRecord
2
*D2
70
0
280
1
281
0
0
BLOCK_RECORD
5
52
330
1
100
AcDbSymbolTableRecord
100
AcDbBlockTableRecord
2
Sheet-A4-Vert
70
0
280
1
281
0
0
ENDTAB
0
ENDSEC
0
SECTION
2
BLOCKS
0
BLOCK
5
20
330
1F
100
AcDbEntity
8
0
100
AcDbBlockBegin
2
*Model_Space
70
0
10
0
20
0
30
0
3
*Model_Space
1

0
ENDBLK
5
21
330
1F
100
AcDbEntity
8
0
100
AcDbBlockEnd
0
BLOCK
5
1C
330
1B
100
AcDbEntity
8
0
100
AcDbBlockBegin
2
*Paper_Space
70
0
10
0
20
0
30
0
3
*Paper_Space
1

0
ENDBLK
5
1D
330
1F
100
AcDbEntity
8
0
100
AcDbBlockEnd
0
BLOCK
5
47
330
46
100
AcDbEntity
8
0
100
AcDbBlockBegin
2
*D4
70
1
10
0
20
0
3
*D4
1

0
LINE
5
55
100
AcDbEntity
8
0
6
CONTINUOUS
62
7
370
0
100
AcDbLine
10
140
20
95
11
140
21
80
0
SOLID
5
56
100
AcDbEntity
8
0
6
CONTINUOUS
62
7
370
0
100
AcDbTrace
10
140
20
95
30
0
11
140.416284658
21
92.5
31
0
12
139.583715342
22
92.5
32
0
13
139.583715342
23
92.5
33
0
0
SOLID
5
57
100
AcDbEntity
8
0
6
CONTINUOUS
62
7
370
0
100
AcDbTrace
10
140
20
80
30
0
11
139.583715342
21
82.5
31
0
12
140.416284658
22
82.5
32
0
13
140.416284658
23
82.5
33
0
0
MTEXT
5
58
100
AcDbEntity
8
0
6
CONTINUOUS
62
7
370
0
100
AcDbMText
10
138.125
20
87.5
30
0
40
2.5
41
2.5
71
5
72
1
1
15
7
standard
210
0
220
0
230
1
50
90
73
2
44
1
0
LINE
5
59
100
AcDbEntity
8
0
6
CONTINUOUS
62
7
370
0
100
AcDbLine
10
130.625
20
95
11
141.25
21
95
0
LINE
5
5A
100
AcDbEntity
8
0
6
CONTINUOUS
62
7
370
0
100
AcDbLine
10
130.625
20
80
11
141.25
21
80
0
ENDBLK
5
48
330
46
100
AcDbEntity
8
0
100
AcDbBlockEnd
0
BLOCK
5
4A
330
49
100
AcDbEntity
8
0
100
AcDbBlockBegin
2
*D3
70
1
10
0
20
0
3
*D3
1

0
LINE
5
5B
100
AcDbEntity
8
0
6
CONTINUOUS
62
7
370
0
100
AcDbLine
10
50
20
100
11
130
21
100
0
SOLID
5
5C
100
AcDbEntity
8
0
6
CONTINUOUS
62
7
370
0
100
AcDbTrace
10
50
20
100
30
0
11
52.5
21
100.416284658
31
0
12
52.5
22
99.5837153422
32
0
13
52.5
23
99.5837153422
33
0
0
SOLID
5
5D
100
AcDbEntity
8
0
6
CONTINUOUS
62
7
370
0
100
AcDbTrace
10
130
20
100
30
0
11
127.5
21
99.5837153422
31
0
12
127.5
22
100.416284658
32
0
13
127.5
23
100.416284658
33
0
0
MTEXT
5
5E
100
AcDbEntity
8
0
6
CONTINUOUS
62
7
370
0
100
AcDbMText
10
90
20
101.875
30
0
40
2.5
41
3.05555555556
71
5
72
1
1
80
7
standard
210
0
220
0
230
1
50
0
73
2
44
1
0
LINE
5
5F
100
AcDbEntity
8
0
6
CONTINUOUS
62
7
370
0
100
AcDbLine
10
50
20
95.625
11
50
21
101.25
0
LINE
5
60
100
AcDbEntity
8
0
6
CONTINUOUS
62
7
370
0
100
AcDbLine
10
130
20
95.625
11
130
21
101.25
0
ENDBLK
5
4B
330
49
100
AcDbEntity
8
0
100
AcDbBlockEnd
0
BLOCK
5
4D
330
4C
100
AcDbEntity
8
0
100
AcDbBlockBegin
2
*D1
70
1
10
0
20
0
3
*D1
1

0
LINE
5
61
100
AcDbEntity
8
0
6
CONTINUOUS
62
7
370
0
100
AcDbLine
10
70
20
175
11
108
21
175
0
SOLID
5
62
100
AcDbEntity
8
0
6
CONTINUOUS
62
7
370
0
100
AcDbTrace
10
70
20
175
30
0
11
72.5
21
175.416284658
31
0
12
72.5
22
174.583715342
32
0
13
72.5
23
174.583715342
33
0
0
SOLID
5
63
100
AcDbEntity
8
0
6
CONTINUOUS
62
7
370
0
100
AcDbTrace
10
108
20
175
30
0
11
105.5
21
174.583715342
31
0
12
105.5
22
175.416284658
32
0
13
105.5
23
175.416284658
33
0
0
MTEXT
5
64
100
AcDbEntity
8
0
6
CONTINUOUS
62
7
370
0
100
AcDbMText
10
89
20
176.875
30
0
40
2.5
41
3.05555555556
71
5
72
1
1
38
7
standard
210
0
220
0
230
1
50
0
73
2
44
1
0
LINE
5
65
100
AcDbEntity
8
0
6
CONTINUOUS
62
7
370
0
100
AcDbLine
10
70
20
179.375
11
70
21
173.75
0
LINE
5
66
100
AcDbEntity
8
0
6
CONTINUOUS
62
7
370
0
100
AcDbLine
10
108
20
179.375
11
108
21
173.75
0
ENDBLK
5
4E
330
4C
100
AcDbEntity
8
0
100
AcDbBlockEnd
0
BLOCK
5
50
330
4F
100
AcDbEntity
8
0
100
AcDbBlockBegin
2
*D2
70
1
10
0
20
0
3
*D2
1

0
LINE
5
67
100
AcDbEntity
8
0
6
CONTINUOUS
62
7
370
0
100
AcDbLine
10
114
20
180
11
114
21
200
0
SOLID
5
68
100
AcDbEntity
8
0
6
CONTINUOUS
62
7
370
0
100
AcDbTrace
10
114
20
180
30
0
11
113.583715342
21
182.5
31
0
12
114.416284658
22
182.5
32
0
13
114.416284658
23
182.5
33
0
0
SOLID
5
69
100
AcDbEntity
8
0
6
CONTINUOUS
62
7
370
0
100
AcDbTrace
10
114
20
200
30
0
11
114.416284658
21
197.5
31
0
12
113.583715342
22
197.5
32
0
13
113.583715342
23
197.5
33
0
0
MTEXT
5
6A
100
AcDbEntity
8
0
6
CONTINUOUS
62
7
370
0
100
AcDbMText
10
112.125
20
190
30
0
40
2.5
41
3.05555555556
71
5
72
1
1
20
7
standard
210
0
220
0
230
1
50
90
73
2
44
1
0
LINE
5
6B
100
AcDbEntity
8
0
6
CONTINUOUS
62
7
370
0
100
AcDbLine
10
108.625
20
180
11
115.25
21
180
0
LINE
5
6C
100
AcDbEntity
8
0
6
CONTINUOUS
62
7
370
0
100
AcDbLine
10
108.625
20
200
11
115.25
21
200
0
ENDBLK
5
51
330
4F
100
AcDbEntity
8
0
100
AcDbBlockEnd
0
BLOCK
5
53
330
52
100
AcDbEntity
8
0
100
AcDbBlockBegin
2
Sheet-A4-Vert
70
0
10
0
20
0
3
Sheet-A4-Vert
1

0
LINE
5
6D
100
AcDbEntity
8
0
6
ByLayer
62
256
370
-1
100
AcDbLine
10
0
20
0
11
0
21
267
0
LINE
5
6E
100
AcDbEntity
8
0
6
ByLayer
62
256
370
-1
100
AcDbLine
10
0
20
0
11
180
21
0
0
LINE
5
6F
100
AcDbEntity
8
0
6
ByLayer
62
256
370
-1
100
AcDbLine
10
0
20
267
11
180
21
267
0
LINE
5
70
100
AcDbEntity
8
0
6
ByLayer
62
256
370
-1
100
AcDbLine
10
180
20
0
11
180
21
267
0
LINE
5
71
100
AcDbEntity
8
0
6
ByLayer
62
256
370
-1
100
AcDbLine
10
0
20
15
11
180
21
15
0
LINE
5
72
100
AcDbEntity
8
0
6
ByLayer
62
256
370
-1
100
AcDbLine
10
20
20
0
11
20
21
15
0
LINE
5
73
100
AcDbEntity
8
0
6
ByLayer
62
256
370
-1
100
AcDbLine
10
150
20
0
11
150
21
15
0
LINE
5
74
100
AcDbEntity
8
0
6
ByLayer
62
256
370
-1
100
AcDbLine
10
130
20
0
11
130
21
15
0
LINE
5
75
100
AcDbEntity
8
0
6
ByLayer
62
256
370
-1
100
AcDbLine
10
130
20
7.5
11
180
21
7.5
0
LINE
5
76
100
AcDbEntity
8
0
6
ByLayer
62
256
370
-1
100
AcDbLine
10
0
20
7.5
11
20
21
7.5
0
MTEXT
5
77
100
AcDbEntity
8
0
6
ByLayer
62
256
370
-1
100
AcDbMText
10
7
20
14
30
0
40
5.5
41
6.11111111111
71
1
72
1
1
1:1
7
standard
210
0
220
0
230
1
50
0
73
2
44
1
0
MTEXT
5
78
100
AcDbEntity
8
0
6
ByLayer
62
256
370
-1
100
AcDbMText
10
0.5
20
5
30
0
40
3
41
18.5833333333
71
1
72
1
1
4mm Holz
7
standard
210
0
220
0
230
1
50
0
73
2
44
1
0
MTEXT
5
79
100
AcDbEntity
8
0
6
ByLayer
62
256
370
-1
100
AcDbMText
10
156
20
5
30
0
40
3
41
17.9166666667
71
1
72
1
1
Blatt 001
7
standard
210
0
220
0
230
1
50
0
73
2
44
1
0
MTEXT
5
7A
100
AcDbEntity
8
0
6
ByLayer
62
256
370
-1
100
AcDbMText
10
137
20
5
30
0
40
3
41
6.33333333333
71
1
72
1
1
v1.0
7
standard
210
0
220
0
230
1
50
0
73
2
44
1
0
LINE
5
7B
100
AcDbEntity
8
0
6
ByLayer
62
0
370
-1
100
AcDbLine
10
170
20
15
11
170
21
18
0
LINE
5
7C
100
AcDbEntity
8
0
6
ByLayer
62
0
370
-1
100
AcDbLine
10
160
20
15
11
160
21
18
0
LINE
5
7D
100
AcDbEntity
8
0
6
ByLayer
62
0
370
-1
100
AcDbLine
10
150
20
15
11
150
21
18
0
LINE
5
7E
100
AcDbEntity
8
0
6
ByLayer
62
0
370
-1
100
AcDbLine
10
140
20
15
11
140
21
18
0
LINE
5
7F
100
AcDbEntity
8
0
6
ByLayer
62
0
370
-1
100
AcDbLine
10
130
20
15
11
130
21
18
0
LINE
5
80
100
AcDbEntity
8
0
6
ByLayer
62
0
370
-1
100
AcDbLine
10
120
20
15
11
120
21
18
0
LINE
5
81
100
AcDbEntity
8
0
6
ByLayer
62
0
370
-1
100
AcDbLine
10
110
20
15
11
110
21
18
0
LINE
5
82
100
AcDbEntity
8
0
6
ByLayer
62
0
370
-1
100
AcDbLine
10
100
20
15
11
100
21
18
0
LINE
5
83
100
AcDbEntity
8
0
6
ByLayer
62
0
370
-1
100
AcDbLine
10
90
20
15
11
90
21
18
0
LINE
5
84
100
AcDbEntity
8
0
6
ByLayer
62
0
370
-1
100
AcDbLine
10
80
20
15
11
80
21
18
0
LINE
5
85
100
AcDbEntity
8
0
6
ByLayer
62
0
370
-1
100
AcDbLine
10
81
20
15
11
81
21
16.8
0
LINE
5
86
100
AcDbEntity
8
0
6
ByLayer
62
0
370
-1
100
AcDbLine
10
82
20
15
11
82
21
16.8
0
LINE
5
87
100
AcDbEntity
8
0
6
ByLayer
62
0
370
-1
100
AcDbLine
10
83
20
15
11
83
21
16.8
0
LINE
5
88
100
AcDbEntity
8
0
6
ByLayer
62
0
370
-1
100
AcDbLine
10
84
20
15
11
84
21
16.8
0
LINE
5
89
100
AcDbEntity
8
0
6
ByLayer
62
0
370
-1
100
AcDbLine
10
85
20
15
11
85
21
16.8
0
LINE
5
8A
100
AcDbEntity
8
0
6
ByLayer
62
0
370
-1
100
AcDbLine
10
86
20
15
11
86
21
16.8
0
LINE
5
8B
100
AcDbEntity
8
0
6
ByLayer
62
0
370
-1
100
AcDbLine
10
87
20
15
11
87
21
16.8
0
LINE
5
8C
100
AcDbEntity
8
0
6
ByLayer
62
0
370
-1
100
AcDbLine
10
88
20
15
11
88
21
16.8
0
LINE
5
8D
100
AcDbEntity
8
0
6
ByLayer
62
0
370
-1
100
AcDbLine
10
89
20
15
11
89
21
16.8
0
LINE
5
8E
100
AcDbEntity
8
0
6
ByLayer
62
0
370
-1
100
AcDbLine
10
91
20
15
11
91
21
16.8
0
LINE
5
8F
100
AcDbEntity
8
0
6
ByLayer
62
0
370
-1
100
AcDbLine
10
92
20
15
11
92
21
16.8
0
LINE
5
90
100
AcDbEntity
8
0
6
ByLayer
62
0
370
-1
100
AcDbLine
10
93
20
15
11
93
21
16.8
0
LINE
5
91
100
AcDbEntity
8
0
6
ByLayer
62
0
370
-1
100
AcDbLine
10
94
20
15
11
94
21
16.8
0
LINE
5
92
100
AcDbEntity
8
0
6
ByLayer
62
0
370
-1
100
AcDbLine
10
95
20
15
11
95
21
16.8
0
LINE
5
93
100
AcDbEntity
8
0
6
ByLayer
62
0
370
-1
100
AcDbLine
10
96
20
15
11
96
21
16.8
0
LINE
5
94
100
AcDbEntity
8
0
6
ByLayer
62
0
370
-1
100
AcDbLine
10
97
20
15
11
97
21
16.8
0
LINE
5
95
100
AcDbEntity
8
0
6
ByLayer
62
0
370
-1
100
AcDbLine
10
98
20
15
11
98
21
16.8
0
LINE
5
96
100
AcDbEntity
8
0
6
ByLayer
62
0
370
-1
100
AcDbLine
10
99
20
15
11
99
21
16.8
0
LINE
5
97
100
AcDbEntity
8
0
6
ByLayer
62
0
370
-1
100
AcDbLine
10
101
20
15
11
101
21
16.8
0
LINE
5
98
100
AcDbEntity
8
0
6
ByLayer
62
0
370
-1
100
AcDbLine
10
102
20
15
11
102
21
16.8
0
LINE
5
99
100
AcDbEntity
8
0
6
ByLayer
62
0
370
-1
100
AcDbLine
10
103
20
15
11
103
21
16.8
0
LINE
5
9A
100
AcDbEntity
8
0
6
ByLayer
62
0
370
-1
100
AcDbLine
10
104
20
15
11
104
21
16.8
0
LINE
5
9B
100
AcDbEntity
8
0
6
ByLayer
62
0
370
-1
100
AcDbLine
10
105
20
15
11
105
21
16.8
0
LINE
5
9C
100
AcDbEntity
8
0
6
ByLayer
62
0
370
-1
100
AcDbLine
10
106
20
15
11
106
21
16.8
0
LINE
5
9D
100
AcDbEntity
8
0
6
ByLayer
62
0
370
-1
100
AcDbLine
10
107
20
15
11
107
21
16.8
0
LINE
5
9E
100
AcDbEntity
8
0
6
ByLayer
62
0
370
-1
100
AcDbLine
10
108
20
15
11
108
21
16.8
0
LINE
5
9F
100
AcDbEntity
8
0
6
ByLayer
62
0
370
-1
100
AcDbLine
10
109
20
15
11
109
21
16.8
0
LINE
5
A0
100
AcDbEntity
8
0
6
ByLayer
62
0
370
-1
100
AcDbLine
10
111
20
15
11
111
21
16.8
0
LINE
5
A1
100
AcDbEntity
8
0
6
ByLayer
62
0
370
-1
100
AcDbLine
10
112
20
15
11
112
21
16.8
0
LINE
5
A2
100
AcDbEntity
8
0
6
ByLayer
62
0
370
-1
100
AcDbLine
10
113
20
15
11
113
21
16.8
0
LINE
5
A3
100
AcDbEntity
8
0
6
ByLayer
62
0
370
-1
100
AcDbLine
10
114
20
15
11
114
21
16.8
0
LINE
5
A4
100
AcDbEntity
8
0
6
ByLayer
62
0
370
-1
100
AcDbLine
10
115
20
15
11
115
21
16.8
0
LINE
5
A5
100
AcDbEntity
8
0
6
ByLayer
62
0
370
-1
100
AcDbLine
10
116
20
15
11
116
21
16.8
0
LINE
5
A6
100
AcDbEntity
8
0
6
ByLayer
62
0
370
-1
100
AcDbLine
10
117
20
15
11
117
21
16.8
0
LINE
5
A7
100
AcDbEntity
8
0
6
ByLayer
62
0
370
-1
100
AcDbLine
10
118
20
15
11
118
21
16.8
0
LINE
5
A8
100
AcDbEntity
8
0
6
ByLayer
62
0
370
-1
100
AcDbLine
10
119
20
15
11
119
21
16.8
0
LINE
5
A9
100
AcDbEntity
8
0
6
ByLayer
62
0
370
-1
100
AcDbLine
10
121
20
15
11
121
21
16.8
0
LINE
5
AA
100
AcDbEntity
8
0
6
ByLayer
62
0
370
-1
100
AcDbLine
10
122
20
15
11
122
21
16.8
0
LINE
5
AB
100
AcDbEntity
8
0
6
ByLayer
62
0
370
-1
100
AcDbLine
10
123
20
15
11
123
21
16.8
0
LINE
5
AC
100
AcDbEntity
8
0
6
ByLayer
62
0
370
-1
100
AcDbLine
10
124
20
15
11
124
21
16.8
0
LINE
5
AD
100
AcDbEntity
8
0
6
ByLayer
62
0
370
-1
100
AcDbLine
10
125
20
15
11
125
21
16.8
0
LINE
5
AE
100
AcDbEntity
8
0
6
ByLayer
62
0
370
-1
100
AcDbLine
10
126
20
15
11
126
21
16.8
0
LINE
5
AF
100
AcDbEntity
8
0
6
ByLayer
62
0
370
-1
100
AcDbLine
10
127
20
15
11
127
21
16.8
0
LINE
5
B0
100
AcDbEntity
8
0
6
ByLayer
62
0
370
-1
100
AcDbLine
10
128
20
15
11
128
21
16.8
0
LINE
5
B1
100
AcDbEntity
8
0
6
ByLayer
62
0
370
-1
100
AcDbLine
10
129
20
15
11
129
21
16.8
0
LINE
5
B2
100
AcDbEntity
8
0
6
ByLayer
62
0
370
-1
100
AcDbLine
10
131
20
15
11
131
21
16.8
0
LINE
5
B3
100
AcDbEntity
8
0
6
ByLayer
62
0
370
-1
100
AcDbLine
10
132
20
15
11
132
21
16.8
0
LINE
5
B4
100
AcDbEntity
8
0
6
ByLayer
62
0
370
-1
100
AcDbLine
10
133
20
15
11
133
21
16.8
0
LINE
5
B5
100
AcDbEntity
8
0
6
ByLayer
62
0
370
-1
100
AcDbLine
10
134
20
15
11
134
21
16.8
0
LINE
5
B6
100
AcDbEntity
8
0
6
ByLayer
62
0
370
-1
100
AcDbLine
10
135
20
15
11
135
21
16.8
0
LINE
5
B7
100
AcDbEntity
8
0
6
ByLayer
62
0
370
-1
100
AcDbLine
10
136
20
15
11
136
21
16.8
0
LINE
5
B8
100
AcDbEntity
8
0
6
ByLayer
62
0
370
-1
100
AcDbLine
10
137
20
15
11
137
21
16.8
0
LINE
5
B9
100
AcDbEntity
8
0
6
ByLayer
62
0
370
-1
100
AcDbLine
10
138
20
15
11
138
21
16.8
0
LINE
5
BA
100
AcDbEntity
8
0
6
ByLayer
62
0
370
-1
100
AcDbLine
10
139
20
15
11
139
21
16.8
0
LINE
5
BB
100
AcDbEntity
8
0
6
ByLayer
62
0
370
-1
100
AcDbLine
10
141
20
15
11
141
21
16.8
0
LINE
5
BC
100
AcDbEntity
8
0
6
ByLayer
62
0
370
-1
100
AcDbLine
10
142
20
15
11
142
21
16.8
0
LINE
5
BD
100
AcDbEntity
8
0
6
ByLayer
62
0
370
-1
100
AcDbLine
10
143
20
15
11
143
21
16.8
0
LINE
5
BE
100
AcDbEntity
8
0
6
ByLayer
62
0
370
-1
100
AcDbLine
10
144
20
15
11
144
21
16.8
0
LINE
5
BF
100
AcDbEntity
8
0
6
ByLayer
62
0
370
-1
100
AcDbLine
10
145
20
15
11
145
21
16.8
0
LINE
5
C0
100
AcDbEntity
8
0
6
ByLayer
62
0
370
-1
100
AcDbLine
10
146
20
15
11
146
21
16.8
0
LINE
5
C1
100
AcDbEntity
8
0
6
ByLayer
62
0
370
-1
100
AcDbLine
10
147
20
15
11
147
21
16.8
0
LINE
5
C2
100
AcDbEntity
8
0
6
ByLayer
62
0
370
-1
100
AcDbLine
10
148
20
15
11
148
21
16.8
0
LINE
5
C3
100
AcDbEntity
8
0
6
ByLayer
62
0
370
-1
100
AcDbLine
10
149
20
15
11
149
21
16.8
0
LINE
5
C4
100
AcDbEntity
8
0
6
ByLayer
62
0
370
-1
100
AcDbLine
10
151
20
15
11
151
21
16.8
0
LINE
5
C5
100
AcDbEntity
8
0
6
ByLayer
62
0
370
-1
100
AcDbLine
10
152
20
15
11
152
21
16.8
0
LINE
5
C6
100
AcDbEntity
8
0
6
ByLayer
62
0
370
-1
100
AcDbLine
10
153
20
15
11
153
21
16.8
0
LINE
5
C7
100
AcDbEntity
8
0
6
ByLayer
62
0
370
-1
100
AcDbLine
10
154
20
15
11
154
21
16.8
0
LINE
5
C8
100
AcDbEntity
8
0
6
ByLayer
62
0
370
-1
100
AcDbLine
10
155
20
15
11
155
21
16.8
0
LINE
5
C9
100
AcDbEntity
8
0
6
ByLayer
62
0
370
-1
100
AcDbLine
10
156
20
15
11
156
21
16.8
0
LINE
5
CA
100
AcDbEntity
8
0
6
ByLayer
62
0
370
-1
100
AcDbLine
10
157
20
15
11
157
21
16.8
0
LINE
5
CB
100
AcDbEntity
8
0
6
ByLayer
62
0
370
-1
100
AcDbLine
10
158
20
15
11
158
21
16.8
0
LINE
5
CC
100
AcDbEntity
8
0
6
ByLayer
62
0
370
-1
100
AcDbLine
10
159
20
15
11
159
21
16.8
0
LINE
5
CD
100
AcDbEntity
8
0
6
ByLayer
62
0
370
-1
100
AcDbLine
10
161
20
15
11
161
21
16.8
0
LINE
5
CE
100
AcDbEntity
8
0
6
ByLayer
62
0
370
-1
100
AcDbLine
10
162
20
15
11
162
21
16.8
0
LINE
5
CF
100
AcDbEntity
8
0
6
ByLayer
62
0
370
-1
100
AcDbLine
10
163
20
15
11
163
21
16.8
0
LINE
5
D0
100
AcDbEntity
8
0
6
ByLayer
62
0
370
-1
100
AcDbLine
10
164
20
15
11
164
21
16.8
0
LINE
5
D1
100
AcDbEntity
8
0
6
ByLayer
62
0
370
-1
100
AcDbLine
10
165
20
15
11
165
21
16.8
0
LINE
5
D2
100
AcDbEntity
8
0
6
ByLayer
62
0
370
-1
100
AcDbLine
10
166
20
15
11
166
21
16.8
0
LINE
5
D3
100
AcDbEntity
8
0
6
ByLayer
62
0
370
-1
100
AcDbLine
10
167
20
15
11
167
21
16.8
0
LINE
5
D4
100
AcDbEntity
8
0
6
ByLayer
62
0
370
-1
100
AcDbLine
10
168
20
15
11
168
21
16.8
0
LINE
5
D5
100
AcDbEntity
8
0
6
ByLayer
62
0
370
-1
100
AcDbLine
10
169
20
15
11
169
21
16.8
0
LINE
5
D6
100
AcDbEntity
8
0
6
ByLayer
62
0
370
-1
100
AcDbLine
10
171
20
15
11
171
21
16.8
0
LINE
5
D7
100
AcDbEntity
8
0
6
ByLayer
62
0
370
-1
100
AcDbLine
10
172
20
15
11
172
21
16.8
0
LINE
5
D8
100
AcDbEntity
8
0
6
ByLayer
62
0
370
-1
100
AcDbLine
10
173
20
15
11
173
21
16.8
0
LINE
5
D9
100
AcDbEntity
8
0
6
ByLayer
62
0
370
-1
100
AcDbLine
10
174
20
15
11
174
21
16.8
0
LINE
5
DA
100
AcDbEntity
8
0
6
ByLayer
62
0
370
-1
100
AcDbLine
10
175
20
15
11
175
21
16.8
0
LINE
5
DB
100
AcDbEntity
8
0
6
ByLayer
62
0
370
-1
100
AcDbLine
10
176
20
15
11
176
21
16.8
0
LINE
5
DC
100
AcDbEntity
8
0
6
ByLayer
62
0
370
-1
100
AcDbLine
10
177
20
15
11
177
21
16.8
0
LINE
5
DD
100
AcDbEntity
8
0
6
ByLayer
62
0
370
-1
100
AcDbLine
10
178
20
15
11
178
21
16.8
0
LINE
5
DE
100
AcDbEntity
8
0
6
ByLayer
62
0
370
-1
100
AcDbLine
10
179
20
15
11
179
21
16.8
0
LINE
5
DF
100
AcDbEntity
8
0
6
ByLayer
62
0
370
-1
100
AcDbLine
10
85
20
16.8
11
85
21
17.4
0
LINE
5
E0
100
AcDbEntity
8
0
6
ByLayer
62
0
370
-1
100
AcDbLine
10
95
20
16.8
11
95
21
17.4
0
LINE
5
E1
100
AcDbEntity
8
0
6
ByLayer
62
0
370
-1
100
AcDbLine
10
105
20
16.8
11
105
21
17.4
0
LINE
5
E2
100
AcDbEntity
8
0
6
ByLayer
62
0
370
-1
100
AcDbLine
10
115
20
16.8
11
115
21
17.4
0
LINE
5
E3
100
AcDbEntity
8
0
6
ByLayer
62
0
370
-1
100
AcDbLine
10
125
20
16.8
11
125
21
17.4
0
LINE
5
E4
100
AcDbEntity
8
0
6
ByLayer
62
0
370
-1
100
AcDbLine
10
135
20
16.8
11
135
21
17.4
0
LINE
5
E5
100
AcDbEntity
8
0
6
ByLayer
62
0
370
-1
100
AcDbLine
10
145
20
16.8
11
145
21
17.4
0
LINE
5
E6
100
AcDbEntity
8
0
6
ByLayer
62
0
370
-1
100
AcDbLine
10
155
20
16.8
11
155
21
17.4
0
LINE
5
E7
100
AcDbEntity
8
0
6
ByLayer
62
0
370
-1
100
AcDbLine
10
165
20
16.8
11
165
21
17.4
0
LINE
5
E8
100
AcDbEntity
8
0
6
ByLayer
62
0
370
-1
100
AcDbLine
10
175
20
16.8
11
175
21
17.4
0
MTEXT
5
E9
100
AcDbEntity
8
0
6
ByLayer
62
0
370
-1
100
AcDbMText
10
131
20
13
30
0
40
3
41
18.3333333333
71
1
72
1
1
Millimeter
7
standard
210
0
220
0
230
1
50
0
73
2
44
1
0
ENDBLK
5
54
330
52
100
AcDbEntity
8
0
100
AcDbBlockEnd
0
ENDSEC
0
SECTION
2
ENTITIES
0
INSERT
5
EA
100
AcDbEntity
8
0
6
ByLayer
62
256
370
-1
100
AcDbBlockReference
2
Sheet-A4-Vert
10
0
20
0
30
0
41
1
42
1
43
0
50
0
70
1
71
1
44
0
45
0
0
LINE
5
EB
100
AcDbEntity
8
0
6
ByLayer
62
256
370
-1
100
AcDbLine
10
90
20
80
11
130
21
80
0
LINE
5
EC
100
AcDbEntity
8
0
6
ByLayer
62
256
370
-1
100
AcDbLine
10
130
20
80
11
130
21
95
0
LINE
5
ED
100
AcDbEntity
8
0
6
ByLayer
62
256
370
-1
100
AcDbLine
10
130
20
95
11
90
21
95
0
LINE
5
EE
100
AcDbEntity
8
0
6
ByLayer
62
256
370
-1
100
AcDbLine
10
90
20
80
11
50
21
80
0
LINE
5
EF
100
AcDbEntity
8
0
6
ByLayer
62
256
370
-1
100
AcDbLine
10
50
20
80
11
50
21
95
0
LINE
5
F0
100
AcDbEntity
8
0
6
ByLayer
62
256
370
-1
100
AcDbLine
10
50
20
95
11
90
21
95
0
CIRCLE
5
F1
100
AcDbEntity
8
0
6
ByLayer
62
256
370
-1
100
AcDbCircle
10
126
20
91
40
1.5
0
CIRCLE
5
F2
100
AcDbEntity
8
0
6
ByLayer
62
256
370
-1
100
AcDbCircle
10
126
20
84
40
1.5
0
CIRCLE
5
F3
100
AcDbEntity
8
0
6
ByLayer
62
256
370
-1
100
AcDbCircle
10
54
20
91
40
1.5
0
CIRCLE
5
F4
100
AcDbEntity
8
0
6
ByLayer
62
256
370
-1
100
AcDbCircle
10
54
20
84
40
1.5
0
MTEXT
5
F5
100
AcDbEntity
8
0
6
ByLayer
62
256
370
-1
100
AcDbMText
10
60
20
120
30
0
40
3
41
80.5000012095
71
1
72
1
1
Platine f체r Frontbeleuchtung \Pund Ladebuchse (Pogo-Pin-Fl채che/Loch)
7
standard
210
0
220
0
230
1
50
0
73
2
44
1
0
LINE
5
F6
100
AcDbEntity
8
0
6
ByLayer
62
256
370
-1
100
AcDbLine
10
75
20
77.795
11
75
21
88
0
LINE
5
F7
100
AcDbEntity
8
0
6
ByLayer
62
256
370
-1
100
AcDbLine
10
80
20
93
11
90
21
93
0
ARC
5
F8
100
AcDbEntity
8
0
6
ByLayer
62
256
370
-1
100
AcDbCircle
10
80
20
88
40
5
100
AcDbArc
50
90
51
180
0
LINE
5
F9
100
AcDbEntity
8
0
6
ByLayer
62
256
370
-1
100
AcDbLine
10
90
20
93
11
100
21
93
0
LINE
5
FA
100
AcDbEntity
8
0
6
ByLayer
62
256
370
-1
100
AcDbLine
10
105
20
88
11
105
21
77.795
0
ARC
5
FB
100
AcDbEntity
8
0
6
ByLayer
62
256
370
-1
100
AcDbCircle
10
100
20
88
40
5
100
AcDbArc
50
0
51
90
0
MTEXT
5
FC
100
AcDbEntity
8
0
6
ByLayer
62
256
370
-1
100
AcDbMText
10
70
20
70
30
0
40
3
41
50.2500046286
71
1
72
1
1
Holzausschnitt R체ckseite\PAnschl체sse hier
7
standard
210
0
220
0
230
1
50
0
73
2
44
1
0
LINE
5
FD
100
AcDbEntity
8
0
6
ByLayer
62
256
370
-1
100
AcDbLine
10
70
20
200
11
108
21
200
0
LINE
5
FE
100
AcDbEntity
8
0
6
ByLayer
62
256
370
-1
100
AcDbLine
10
108
20
200
11
108
21
180
0
LINE
5
FF
100
AcDbEntity
8
0
6
ByLayer
62
256
370
-1
100
AcDbLine
10
108
20
180
11
70
21
180
0
LINE
5
100
100
AcDbEntity
8
0
6
ByLayer
62
256
370
-1
100
AcDbLine
10
70
20
180
11
70
21
200
0
CIRCLE
5
101
100
AcDbEntity
8
0
6
ByLayer
62
256
370
-1
100
AcDbCircle
10
73
20
183
40
1.5
0
CIRCLE
5
102
100
AcDbEntity
8
0
6
ByLayer
62
256
370
-1
100
AcDbCircle
10
105
20
183
40
1.5
0
CIRCLE
5
103
100
AcDbEntity
8
0
6
ByLayer
62
256
370
-1
100
AcDbCircle
10
73
20
194
40
1.5
0
CIRCLE
5
104
100
AcDbEntity
8
0
6
ByLayer
62
256
370
-1
100
AcDbCircle
10
105
20
194
40
1.5
0
MTEXT
5
105
100
AcDbEntity
8
0
6
ByLayer
62
256
370
-1
100
AcDbMText
10
70
20
170
30
0
40
3
41
41
71
1
72
1
1
Motortreiber-Platine
7
standard
210
0
220
0
230
1
50
0
73
2
44
1
0
MTEXT
5
106
100
AcDbEntity
8
0
6
ByLayer
62
256
370
-1
100
AcDbMText
10
30
20
10
30
0
40
6
41
22.6666666667
71
1
72
1
1
LoPCB
7
standard
210
0
220
0
230
1
50
0
73
2
44
1
0
DIMENSION
5
107
100
AcDbEntity
8
0
6
ByLayer
62
256
370
-1
100
AcDbDimension
2
*D1
10
108
20
175
30
0
11
89
21
176.875
31
0
70
32
71
5
3
Standard
53
0
210
0
220
0
230
1
100
AcDbAlignedDimension
13
70
23
180
33
0
14
108
24
180
34
0
100
AcDbRotatedDimension
0
DIMENSION
5
108
100
AcDbEntity
8
0
6
ByLayer
62
256
370
-1
100
AcDbDimension
2
*D2
10
114
20
200
30
0
11
112.125
21
190
31
0
70
32
71
5
3
Standard
53
0
210
0
220
0
230
1
100
AcDbAlignedDimension
13
108
23
180
33
0
14
108
24
200
34
0
50
90
100
AcDbRotatedDimension
0
DIMENSION
5
109
100
AcDbEntity
8
0
6
ByLayer
62
256
370
-1
100
AcDbDimension
2
*D3
10
130
20
100
30
0
11
90
21
101.875
31
0
70
32
71
5
3
Standard
53
0
210
0
220
0
230
1
100
AcDbAlignedDimension
13
50
23
95
33
0
14
130
24
95
34
0
100
AcDbRotatedDimension
0
DIMENSION
5
10A
100
AcDbEntity
8
0
6
ByLayer
62
256
370
-1
100
AcDbDimension
2
*D4
10
140
20
80
30
0
11
138.125
21
87.5
31
0
70
32
71
5
3
Standard
53
0
210
0
220
0
230
1
100
AcDbAlignedDimension
13
130
23
95
33
0
14
130
24
80
34
0
50
90
100
AcDbRotatedDimension
0
ENDSEC
0
SECTION
2
OBJECTS
0
DICTIONARY
5
C
330
0
100
AcDbDictionary
281
1
3
ACAD_GROUP
350
D
0
DICTIONARY
5
D
330
C
100
AcDbDictionary
281
1
0
ENDSEC
0
EOF
