999
dxfrw 0.5.11
0
SECTION
2
HEADER
9
$ACADVER
1
AC1021
9
$HANDSEED
5
20000
9
$DWGCODEPAGE
3
ANSI_1252
9
$INSBASE
10
0
20
0
30
0
9
$EXTMIN
10
290
20
10
30
0
9
$EXTMAX
10
876
20
18
30
0
9
$LIMMIN
10
0
20
0
9
$LIMMAX
10
420
20
297
9
$ORTHOMODE
70
0
9
$LTSCALE
40
1
9
$TEXTSTYLE
7
STANDARD
9
$CLAYER
8
0
9
$DIMASZ
40
2.5
9
$DIMLFAC
40
1
9
$DIMSCALE
40
1
9
$DIMEXO
40
0.625
9
$DIMEXE
40
1.25
9
$DIMTXT
40
2.5
9
$DIMTSZ
40
0
9
$DIMAUNIT
70
0
9
$DIMADEC
70
2
9
$DIMLUNIT
70
2
9
$DIMSTYLE
2
STANDARD
9
$DIMGAP
40
0.625
9
$DIMTIH
70
0
9
$LUNITS
70
2
9
$LUPREC
70
4
9
$AUNITS
70
0
9
$AUPREC
70
2
9
$SPLINESEGS
70
8
9
$GRIDMODE
70
1
9
$SNAPSTYLE
70
0
9
$GRIDUNIT
10
0
20
0
9
$PINSBASE
10
12.5
20
88.3717217788
30
0
9
$PLIMMIN
10
0
20
0
9
$PLIMMAX
10
420
20
297
9
$INSUNITS
70
4
9
$PSVPSCALE
40
0.450399087799
0
ENDSEC
0
SECTION
2
CLASSES
0
ENDSEC
0
SECTION
2
TABLES
0
TABLE
2
VPORT
5
8
330
0
100
AcDbSymbolTable
70
1
0
VPORT
5
31
330
2
100
AcDbSymbolTableRecord
100
AcDbViewportTableRecord
2
*ACTIVE
70
0
10
0
20
0
11
1
21
1
12
580.978393555
22
238.037109375
13
0
23
0
14
10
24
10
15
10
25
10
16
0
26
0
36
1
17
0
27
0
37
0
40
575.256347656
41
2.08620689655
42
50
43
0
44
0
50
0
51
0
71
0
72
100
73
1
74
3
75
0
76
1
77
0
78
0
281
0
65
1
110
0
120
0
130
0
111
1
121
0
131
0
112
0
122
1
132
0
79
0
146
0
348
10020
60
7
61
5
292
1
282
1
141
0
142
0
63
250
421
3358443
0
ENDTAB
0
TABLE
2
LTYPE
5
5
330
0
100
AcDbSymbolTable
70
4
0
LTYPE
5
14
330
5
100
AcDbSymbolTableRecord
100
AcDbLinetypeTableRecord
2
ByBlock
70
0
3

72
65
73
0
40
0
0
LTYPE
5
15
330
5
100
AcDbSymbolTableRecord
100
AcDbLinetypeTableRecord
2
ByLayer
70
0
3

72
65
73
0
40
0
0
LTYPE
5
16
330
5
100
AcDbSymbolTableRecord
100
AcDbLinetypeTableRecord
2
Continuous
70
0
3
Solid line
72
65
73
0
40
0
0
LTYPE
5
32
330
5
100
AcDbSymbolTableRecord
100
AcDbLinetypeTableRecord
2
DOT
70
0
3
Dot . . . . . . . . . . . . . . . . . . . . . .
72
65
73
2
40
6.35
49
0
74
0
49
-6.35
74
0
0
LTYPE
5
33
330
5
100
AcDbSymbolTableRecord
100
AcDbLinetypeTableRecord
2
DOT2
70
0
3
Dot (.5x) .....................................
72
65
73
2
40
3.175
49
0
74
0
49
-3.175
74
0
0
LTYPE
5
34
330
5
100
AcDbSymbolTableRecord
100
AcDbLinetypeTableRecord
2
DOTX2
70
0
3
Dot (2x) .  .  .  .  .  .  .  .  .  .  .  .  .
72
65
73
2
40
12.7
49
0
74
0
49
-12.7
74
0
0
LTYPE
5
35
330
5
100
AcDbSymbolTableRecord
100
AcDbLinetypeTableRecord
2
DASHED
70
0
3
Dot . . . . . . . . . . . . . . . . . . . . . .
72
65
73
2
40
19.05
49
12.7
74
0
49
-6.35
74
0
0
LTYPE
5
36
330
5
100
AcDbSymbolTableRecord
100
AcDbLinetypeTableRecord
2
DASHED2
70
0
3
Dashed (.5x) _ _ _ _ _ _ _ _ _ _ _ _ _ _ _ _ _
72
65
73
2
40
9.525
49
6.35
74
0
49
-3.175
74
0
0
LTYPE
5
37
330
5
100
AcDbSymbolTableRecord
100
AcDbLinetypeTableRecord
2
DASHEDX2
70
0
3
Dashed (2x) ____  ____  ____  ____  ____  ___
72
65
73
2
40
38.1
49
25.4
74
0
49
-12.7
74
0
0
LTYPE
5
38
330
5
100
AcDbSymbolTableRecord
100
AcDbLinetypeTableRecord
2
DASHDOT
70
0
3
Dash dot __ . __ . __ . __ . __ . __ . __ . __
72
65
73
4
40
25.4
49
12.7
74
0
49
-6.35
74
0
49
0
74
0
49
-6.35
74
0
0
LTYPE
5
39
330
5
100
AcDbSymbolTableRecord
100
AcDbLinetypeTableRecord
2
DASHDOT2
70
0
3
Dash dot (.5x) _._._._._._._._._._._._._._._.
72
65
73
4
40
12.7
49
6.35
74
0
49
-3.175
74
0
49
0
74
0
49
-3.175
74
0
0
LTYPE
5
3A
330
5
100
AcDbSymbolTableRecord
100
AcDbLinetypeTableRecord
2
DASHDOTX2
70
0
3
Dash dot (2x) ____  .  ____  .  ____  .  ___
72
65
73
4
40
50.8
49
25.4
74
0
49
-12.7
74
0
49
0
74
0
49
-12.7
74
0
0
LTYPE
5
3B
330
5
100
AcDbSymbolTableRecord
100
AcDbLinetypeTableRecord
2
DIVIDE
70
0
3
Divide ____ . . ____ . . ____ . . ____ . . ____
72
65
73
6
40
31.75
49
12.7
74
0
49
-6.35
74
0
49
0
74
0
49
-6.35
74
0
49
0
74
0
49
-6.35
74
0
0
LTYPE
5
3C
330
5
100
AcDbSymbolTableRecord
100
AcDbLinetypeTableRecord
2
DIVIDE2
70
0
3
Divide (.5x) __..__..__..__..__..__..__..__.._
72
65
73
6
40
15.875
49
6.35
74
0
49
-3.175
74
0
49
0
74
0
49
-3.175
74
0
49
0
74
0
49
-3.175
74
0
0
LTYPE
5
3D
330
5
100
AcDbSymbolTableRecord
100
AcDbLinetypeTableRecord
2
DIVIDEX2
70
0
3
Divide (2x) ________  .  .  ________  .  .  _
72
65
73
6
40
63.5
49
25.4
74
0
49
-12.7
74
0
49
0
74
0
49
-12.7
74
0
49
0
74
0
49
-12.7
74
0
0
LTYPE
5
3E
330
5
100
AcDbSymbolTableRecord
100
AcDbLinetypeTableRecord
2
BORDER
70
0
3
Border __ __ . __ __ . __ __ . __ __ . __ __ .
72
65
73
6
40
44.45
49
12.7
74
0
49
-6.35
74
0
49
12.7
74
0
49
-6.35
74
0
49
0
74
0
49
-6.35
74
0
0
LTYPE
5
3F
330
5
100
AcDbSymbolTableRecord
100
AcDbLinetypeTableRecord
2
BORDER2
70
0
3
Border (.5x) __.__.__.__.__.__.__.__.__.__.__.
72
65
73
6
40
22.225
49
6.35
74
0
49
-3.175
74
0
49
6.35
74
0
49
-3.175
74
0
49
0
74
0
49
-3.175
74
0
0
LTYPE
5
40
330
5
100
AcDbSymbolTableRecord
100
AcDbLinetypeTableRecord
2
BORDERX2
70
0
3
Border (2x) ____  ____  .  ____  ____  .  ___
72
65
73
6
40
88.9
49
25.4
74
0
49
-12.7
74
0
49
25.4
74
0
49
-12.7
74
0
49
0
74
0
49
-12.7
74
0
0
LTYPE
5
41
330
5
100
AcDbSymbolTableRecord
100
AcDbLinetypeTableRecord
2
CENTER
70
0
3
Center ____ _ ____ _ ____ _ ____ _ ____ _ ____
72
65
73
4
40
50.8
49
31.75
74
0
49
-6.35
74
0
49
6.35
74
0
49
-6.35
74
0
0
LTYPE
5
42
330
5
100
AcDbSymbolTableRecord
100
AcDbLinetypeTableRecord
2
CENTER2
70
0
3
Center (.5x) ___ _ ___ _ ___ _ ___ _ ___ _ ___
72
65
73
4
40
28.575
49
19.05
74
0
49
-3.175
74
0
49
3.175
74
0
49
-3.175
74
0
0
LTYPE
5
43
330
5
100
AcDbSymbolTableRecord
100
AcDbLinetypeTableRecord
2
CENTERX2
70
0
3
Center (2x) ________  __  ________  __  _____
72
65
73
4
40
101.6
49
63.5
74
0
49
-12.7
74
0
49
12.7
74
0
49
-12.7
74
0
0
ENDTAB
0
TABLE
2
LAYER
5
2
330
0
100
AcDbSymbolTable
70
1
0
LAYER
5
10
330
2
100
AcDbSymbolTableRecord
100
AcDbLayerTableRecord
2
0
70
0
62
7
6
CONTINUOUS
370
0
390
F
0
ENDTAB
0
TABLE
2
STYLE
5
3
330
0
100
AcDbSymbolTable
70
3
0
STYLE
5
44
330
2
100
AcDbSymbolTableRecord
100
AcDbTextStyleTableRecord
2
standard
70
0
40
0
41
1
50
0
71
0
42
1
3
standard
4

0
ENDTAB
0
TABLE
2
VIEW
5
6
330
0
100
AcDbSymbolTable
70
0
0
ENDTAB
0
TABLE
2
UCS
5
7
330
0
100
AcDbSymbolTable
70
0
0
ENDTAB
0
TABLE
2
APPID
5
9
330
0
100
AcDbSymbolTable
70
1
0
APPID
5
12
330
9
100
AcDbSymbolTableRecord
100
AcDbRegAppTableRecord
2
ACAD
70
0
0
ENDTAB
0
TABLE
2
DIMSTYLE
5
A
330
0
100
AcDbSymbolTable
70
1
100
AcDbDimStyleTable
71
1
0
DIMSTYLE
105
45
330
A
100
AcDbSymbolTableRecord
100
AcDbDimStyleTableRecord
2
Standard
70
0
40
1
41
2.5
42
0.625
43
0.38
44
1.25
45
0
46
0
47
0
48
0
140
2.5
141
0.09
142
0
143
25.4
144
1
145
0
146
1
147
0.625
148
0
71
0
72
0
73
0
74
1
75
0
76
0
77
0
78
0
79
0
170
0
171
2
172
0
173
0
174
0
175
0
176
0
177
0
178
0
179
0
271
4
272
4
273
2
274
2
275
0
276
0
277
2
278
46
279
0
280
0
281
0
282
0
283
1
284
0
285
0
286
0
288
0
289
3
340
Standard
341

371
-2
372
-2
0
ENDTAB
0
TABLE
2
BLOCK_RECORD
5
1
330
0
100
AcDbSymbolTable
70
2
0
BLOCK_RECORD
5
1F
330
1
100
AcDbSymbolTableRecord
100
AcDbBlockTableRecord
2
*Model_Space
70
0
280
1
281
0
0
BLOCK_RECORD
5
1E
330
1
100
AcDbSymbolTableRecord
100
AcDbBlockTableRecord
2
*Paper_Space
70
0
280
1
281
0
0
BLOCK_RECORD
5
46
330
1
100
AcDbSymbolTableRecord
100
AcDbBlockTableRecord
2
Sheet-A3
70
0
280
1
281
0
0
BLOCK_RECORD
5
49
330
1
100
AcDbSymbolTableRecord
100
AcDbBlockTableRecord
2
Sheet-A4-Vert
70
0
280
1
281
0
0
BLOCK_RECORD
5
4C
330
1
100
AcDbSymbolTableRecord
100
AcDbBlockTableRecord
2
Sheet-A4-Horz
70
0
280
1
281
0
0
ENDTAB
0
ENDSEC
0
SECTION
2
BLOCKS
0
BLOCK
5
20
330
1F
100
AcDbEntity
8
0
100
AcDbBlockBegin
2
*Model_Space
70
0
10
0
20
0
30
0
3
*Model_Space
1

0
ENDBLK
5
21
330
1F
100
AcDbEntity
8
0
100
AcDbBlockEnd
0
BLOCK
5
1C
330
1B
100
AcDbEntity
8
0
100
AcDbBlockBegin
2
*Paper_Space
70
0
10
0
20
0
30
0
3
*Paper_Space
1

0
ENDBLK
5
1D
330
1F
100
AcDbEntity
8
0
100
AcDbBlockEnd
0
BLOCK
5
47
330
46
100
AcDbEntity
8
0
100
AcDbBlockBegin
2
Sheet-A3
70
0
10
0
20
0
3
Sheet-A3
1

0
LINE
5
4F
100
AcDbEntity
8
0
6
ByLayer
62
256
370
-1
100
AcDbLine
10
0
20
0
11
390
21
0
0
LINE
5
50
100
AcDbEntity
8
0
6
ByLayer
62
256
370
-1
100
AcDbLine
10
0
20
0
11
1.63490347686e-14
21
267
0
LINE
5
51
100
AcDbEntity
8
0
6
ByLayer
62
256
370
-1
100
AcDbLine
10
390
20
0
11
390
21
267
0
LINE
5
52
100
AcDbEntity
8
0
6
ByLayer
62
256
370
-1
100
AcDbLine
10
1.63490347686e-14
20
267
11
390
21
267
0
LINE
5
53
100
AcDbEntity
8
0
6
ByLayer
62
256
370
-1
100
AcDbLine
10
210
20
15
11
390
21
15
0
LINE
5
54
100
AcDbEntity
8
0
6
ByLayer
62
256
370
-1
100
AcDbLine
10
230
20
0
11
230
21
15
0
LINE
5
55
100
AcDbEntity
8
0
6
ByLayer
62
256
370
-1
100
AcDbLine
10
360
20
0
11
360
21
15
0
LINE
5
56
100
AcDbEntity
8
0
6
ByLayer
62
256
370
-1
100
AcDbLine
10
340
20
0
11
340
21
15
0
LINE
5
57
100
AcDbEntity
8
0
6
ByLayer
62
256
370
-1
100
AcDbLine
10
340
20
7.5
11
390
21
7.5
0
LINE
5
58
100
AcDbEntity
8
0
6
ByLayer
62
256
370
-1
100
AcDbLine
10
210
20
7.5
11
230
21
7.5
0
MTEXT
5
59
100
AcDbEntity
8
0
6
ByLayer
62
256
370
-1
100
AcDbMText
10
217
20
14
30
0
40
5.5
41
6.11111111111
71
1
72
1
1
1:1
7
standard
210
0
220
0
230
1
50
0
73
2
44
1
0
MTEXT
5
5A
100
AcDbEntity
8
0
6
ByLayer
62
256
370
-1
100
AcDbMText
10
210.5
20
5
30
0
40
3
41
18.5833333333
71
1
72
1
1
4mm Holz
7
standard
210
0
220
0
230
1
50
0
73
2
44
1
0
MTEXT
5
5B
100
AcDbEntity
8
0
6
ByLayer
62
256
370
-1
100
AcDbMText
10
366
20
5
30
0
40
3
41
17.9166666667
71
1
72
1
1
Blatt 001
7
standard
210
0
220
0
230
1
50
0
73
2
44
1
0
MTEXT
5
5C
100
AcDbEntity
8
0
6
ByLayer
62
256
370
-1
100
AcDbMText
10
347
20
5
30
0
40
3
41
6.33333333333
71
1
72
1
1
v1.0
7
standard
210
0
220
0
230
1
50
0
73
2
44
1
0
LINE
5
5D
100
AcDbEntity
8
0
6
ByLayer
62
256
370
-1
100
AcDbLine
10
210
20
15
11
210
21
0
0
LINE
5
5E
100
AcDbEntity
8
0
6
ByLayer
62
0
370
-1
100
AcDbLine
10
380
20
15
11
380
21
18
0
LINE
5
5F
100
AcDbEntity
8
0
6
ByLayer
62
0
370
-1
100
AcDbLine
10
370
20
15
11
370
21
18
0
LINE
5
60
100
AcDbEntity
8
0
6
ByLayer
62
0
370
-1
100
AcDbLine
10
360
20
15
11
360
21
18
0
LINE
5
61
100
AcDbEntity
8
0
6
ByLayer
62
0
370
-1
100
AcDbLine
10
350
20
15
11
350
21
18
0
LINE
5
62
100
AcDbEntity
8
0
6
ByLayer
62
0
370
-1
100
AcDbLine
10
340
20
15
11
340
21
18
0
LINE
5
63
100
AcDbEntity
8
0
6
ByLayer
62
0
370
-1
100
AcDbLine
10
330
20
15
11
330
21
18
0
LINE
5
64
100
AcDbEntity
8
0
6
ByLayer
62
0
370
-1
100
AcDbLine
10
320
20
15
11
320
21
18
0
LINE
5
65
100
AcDbEntity
8
0
6
ByLayer
62
0
370
-1
100
AcDbLine
10
310
20
15
11
310
21
18
0
LINE
5
66
100
AcDbEntity
8
0
6
ByLayer
62
0
370
-1
100
AcDbLine
10
300
20
15
11
300
21
18
0
LINE
5
67
100
AcDbEntity
8
0
6
ByLayer
62
0
370
-1
100
AcDbLine
10
290
20
15
11
290
21
18
0
LINE
5
68
100
AcDbEntity
8
0
6
ByLayer
62
0
370
-1
100
AcDbLine
10
291
20
15
11
291
21
16.8
0
LINE
5
69
100
AcDbEntity
8
0
6
ByLayer
62
0
370
-1
100
AcDbLine
10
292
20
15
11
292
21
16.8
0
LINE
5
6A
100
AcDbEntity
8
0
6
ByLayer
62
0
370
-1
100
AcDbLine
10
293
20
15
11
293
21
16.8
0
LINE
5
6B
100
AcDbEntity
8
0
6
ByLayer
62
0
370
-1
100
AcDbLine
10
294
20
15
11
294
21
16.8
0
LINE
5
6C
100
AcDbEntity
8
0
6
ByLayer
62
0
370
-1
100
AcDbLine
10
295
20
15
11
295
21
16.8
0
LINE
5
6D
100
AcDbEntity
8
0
6
ByLayer
62
0
370
-1
100
AcDbLine
10
296
20
15
11
296
21
16.8
0
LINE
5
6E
100
AcDbEntity
8
0
6
ByLayer
62
0
370
-1
100
AcDbLine
10
297
20
15
11
297
21
16.8
0
LINE
5
6F
100
AcDbEntity
8
0
6
ByLayer
62
0
370
-1
100
AcDbLine
10
298
20
15
11
298
21
16.8
0
LINE
5
70
100
AcDbEntity
8
0
6
ByLayer
62
0
370
-1
100
AcDbLine
10
299
20
15
11
299
21
16.8
0
LINE
5
71
100
AcDbEntity
8
0
6
ByLayer
62
0
370
-1
100
AcDbLine
10
301
20
15
11
301
21
16.8
0
LINE
5
72
100
AcDbEntity
8
0
6
ByLayer
62
0
370
-1
100
AcDbLine
10
302
20
15
11
302
21
16.8
0
LINE
5
73
100
AcDbEntity
8
0
6
ByLayer
62
0
370
-1
100
AcDbLine
10
303
20
15
11
303
21
16.8
0
LINE
5
74
100
AcDbEntity
8
0
6
ByLayer
62
0
370
-1
100
AcDbLine
10
304
20
15
11
304
21
16.8
0
LINE
5
75
100
AcDbEntity
8
0
6
ByLayer
62
0
370
-1
100
AcDbLine
10
305
20
15
11
305
21
16.8
0
LINE
5
76
100
AcDbEntity
8
0
6
ByLayer
62
0
370
-1
100
AcDbLine
10
306
20
15
11
306
21
16.8
0
LINE
5
77
100
AcDbEntity
8
0
6
ByLayer
62
0
370
-1
100
AcDbLine
10
307
20
15
11
307
21
16.8
0
LINE
5
78
100
AcDbEntity
8
0
6
ByLayer
62
0
370
-1
100
AcDbLine
10
308
20
15
11
308
21
16.8
0
LINE
5
79
100
AcDbEntity
8
0
6
ByLayer
62
0
370
-1
100
AcDbLine
10
309
20
15
11
309
21
16.8
0
LINE
5
7A
100
AcDbEntity
8
0
6
ByLayer
62
0
370
-1
100
AcDbLine
10
311
20
15
11
311
21
16.8
0
LINE
5
7B
100
AcDbEntity
8
0
6
ByLayer
62
0
370
-1
100
AcDbLine
10
312
20
15
11
312
21
16.8
0
LINE
5
7C
100
AcDbEntity
8
0
6
ByLayer
62
0
370
-1
100
AcDbLine
10
313
20
15
11
313
21
16.8
0
LINE
5
7D
100
AcDbEntity
8
0
6
ByLayer
62
0
370
-1
100
AcDbLine
10
314
20
15
11
314
21
16.8
0
LINE
5
7E
100
AcDbEntity
8
0
6
ByLayer
62
0
370
-1
100
AcDbLine
10
315
20
15
11
315
21
16.8
0
LINE
5
7F
100
AcDbEntity
8
0
6
ByLayer
62
0
370
-1
100
AcDbLine
10
316
20
15
11
316
21
16.8
0
LINE
5
80
100
AcDbEntity
8
0
6
ByLayer
62
0
370
-1
100
AcDbLine
10
317
20
15
11
317
21
16.8
0
LINE
5
81
100
AcDbEntity
8
0
6
ByLayer
62
0
370
-1
100
AcDbLine
10
318
20
15
11
318
21
16.8
0
LINE
5
82
100
AcDbEntity
8
0
6
ByLayer
62
0
370
-1
100
AcDbLine
10
319
20
15
11
319
21
16.8
0
LINE
5
83
100
AcDbEntity
8
0
6
ByLayer
62
0
370
-1
100
AcDbLine
10
321
20
15
11
321
21
16.8
0
LINE
5
84
100
AcDbEntity
8
0
6
ByLayer
62
0
370
-1
100
AcDbLine
10
322
20
15
11
322
21
16.8
0
LINE
5
85
100
AcDbEntity
8
0
6
ByLayer
62
0
370
-1
100
AcDbLine
10
323
20
15
11
323
21
16.8
0
LINE
5
86
100
AcDbEntity
8
0
6
ByLayer
62
0
370
-1
100
AcDbLine
10
324
20
15
11
324
21
16.8
0
LINE
5
87
100
AcDbEntity
8
0
6
ByLayer
62
0
370
-1
100
AcDbLine
10
325
20
15
11
325
21
16.8
0
LINE
5
88
100
AcDbEntity
8
0
6
ByLayer
62
0
370
-1
100
AcDbLine
10
326
20
15
11
326
21
16.8
0
LINE
5
89
100
AcDbEntity
8
0
6
ByLayer
62
0
370
-1
100
AcDbLine
10
327
20
15
11
327
21
16.8
0
LINE
5
8A
100
AcDbEntity
8
0
6
ByLayer
62
0
370
-1
100
AcDbLine
10
328
20
15
11
328
21
16.8
0
LINE
5
8B
100
AcDbEntity
8
0
6
ByLayer
62
0
370
-1
100
AcDbLine
10
329
20
15
11
329
21
16.8
0
LINE
5
8C
100
AcDbEntity
8
0
6
ByLayer
62
0
370
-1
100
AcDbLine
10
331
20
15
11
331
21
16.8
0
LINE
5
8D
100
AcDbEntity
8
0
6
ByLayer
62
0
370
-1
100
AcDbLine
10
332
20
15
11
332
21
16.8
0
LINE
5
8E
100
AcDbEntity
8
0
6
ByLayer
62
0
370
-1
100
AcDbLine
10
333
20
15
11
333
21
16.8
0
LINE
5
8F
100
AcDbEntity
8
0
6
ByLayer
62
0
370
-1
100
AcDbLine
10
334
20
15
11
334
21
16.8
0
LINE
5
90
100
AcDbEntity
8
0
6
ByLayer
62
0
370
-1
100
AcDbLine
10
335
20
15
11
335
21
16.8
0
LINE
5
91
100
AcDbEntity
8
0
6
ByLayer
62
0
370
-1
100
AcDbLine
10
336
20
15
11
336
21
16.8
0
LINE
5
92
100
AcDbEntity
8
0
6
ByLayer
62
0
370
-1
100
AcDbLine
10
337
20
15
11
337
21
16.8
0
LINE
5
93
100
AcDbEntity
8
0
6
ByLayer
62
0
370
-1
100
AcDbLine
10
338
20
15
11
338
21
16.8
0
LINE
5
94
100
AcDbEntity
8
0
6
ByLayer
62
0
370
-1
100
AcDbLine
10
339
20
15
11
339
21
16.8
0
LINE
5
95
100
AcDbEntity
8
0
6
ByLayer
62
0
370
-1
100
AcDbLine
10
341
20
15
11
341
21
16.8
0
LINE
5
96
100
AcDbEntity
8
0
6
ByLayer
62
0
370
-1
100
AcDbLine
10
342
20
15
11
342
21
16.8
0
LINE
5
97
100
AcDbEntity
8
0
6
ByLayer
62
0
370
-1
100
AcDbLine
10
343
20
15
11
343
21
16.8
0
LINE
5
98
100
AcDbEntity
8
0
6
ByLayer
62
0
370
-1
100
AcDbLine
10
344
20
15
11
344
21
16.8
0
LINE
5
99
100
AcDbEntity
8
0
6
ByLayer
62
0
370
-1
100
AcDbLine
10
345
20
15
11
345
21
16.8
0
LINE
5
9A
100
AcDbEntity
8
0
6
ByLayer
62
0
370
-1
100
AcDbLine
10
346
20
15
11
346
21
16.8
0
LINE
5
9B
100
AcDbEntity
8
0
6
ByLayer
62
0
370
-1
100
AcDbLine
10
347
20
15
11
347
21
16.8
0
LINE
5
9C
100
AcDbEntity
8
0
6
ByLayer
62
0
370
-1
100
AcDbLine
10
348
20
15
11
348
21
16.8
0
LINE
5
9D
100
AcDbEntity
8
0
6
ByLayer
62
0
370
-1
100
AcDbLine
10
349
20
15
11
349
21
16.8
0
LINE
5
9E
100
AcDbEntity
8
0
6
ByLayer
62
0
370
-1
100
AcDbLine
10
351
20
15
11
351
21
16.8
0
LINE
5
9F
100
AcDbEntity
8
0
6
ByLayer
62
0
370
-1
100
AcDbLine
10
352
20
15
11
352
21
16.8
0
LINE
5
A0
100
AcDbEntity
8
0
6
ByLayer
62
0
370
-1
100
AcDbLine
10
353
20
15
11
353
21
16.8
0
LINE
5
A1
100
AcDbEntity
8
0
6
ByLayer
62
0
370
-1
100
AcDbLine
10
354
20
15
11
354
21
16.8
0
LINE
5
A2
100
AcDbEntity
8
0
6
ByLayer
62
0
370
-1
100
AcDbLine
10
355
20
15
11
355
21
16.8
0
LINE
5
A3
100
AcDbEntity
8
0
6
ByLayer
62
0
370
-1
100
AcDbLine
10
356
20
15
11
356
21
16.8
0
LINE
5
A4
100
AcDbEntity
8
0
6
ByLayer
62
0
370
-1
100
AcDbLine
10
357
20
15
11
357
21
16.8
0
LINE
5
A5
100
AcDbEntity
8
0
6
ByLayer
62
0
370
-1
100
AcDbLine
10
358
20
15
11
358
21
16.8
0
LINE
5
A6
100
AcDbEntity
8
0
6
ByLayer
62
0
370
-1
100
AcDbLine
10
359
20
15
11
359
21
16.8
0
LINE
5
A7
100
AcDbEntity
8
0
6
ByLayer
62
0
370
-1
100
AcDbLine
10
361
20
15
11
361
21
16.8
0
LINE
5
A8
100
AcDbEntity
8
0
6
ByLayer
62
0
370
-1
100
AcDbLine
10
362
20
15
11
362
21
16.8
0
LINE
5
A9
100
AcDbEntity
8
0
6
ByLayer
62
0
370
-1
100
AcDbLine
10
363
20
15
11
363
21
16.8
0
LINE
5
AA
100
AcDbEntity
8
0
6
ByLayer
62
0
370
-1
100
AcDbLine
10
364
20
15
11
364
21
16.8
0
LINE
5
AB
100
AcDbEntity
8
0
6
ByLayer
62
0
370
-1
100
AcDbLine
10
365
20
15
11
365
21
16.8
0
LINE
5
AC
100
AcDbEntity
8
0
6
ByLayer
62
0
370
-1
100
AcDbLine
10
366
20
15
11
366
21
16.8
0
LINE
5
AD
100
AcDbEntity
8
0
6
ByLayer
62
0
370
-1
100
AcDbLine
10
367
20
15
11
367
21
16.8
0
LINE
5
AE
100
AcDbEntity
8
0
6
ByLayer
62
0
370
-1
100
AcDbLine
10
368
20
15
11
368
21
16.8
0
LINE
5
AF
100
AcDbEntity
8
0
6
ByLayer
62
0
370
-1
100
AcDbLine
10
369
20
15
11
369
21
16.8
0
LINE
5
B0
100
AcDbEntity
8
0
6
ByLayer
62
0
370
-1
100
AcDbLine
10
371
20
15
11
371
21
16.8
0
LINE
5
B1
100
AcDbEntity
8
0
6
ByLayer
62
0
370
-1
100
AcDbLine
10
372
20
15
11
372
21
16.8
0
LINE
5
B2
100
AcDbEntity
8
0
6
ByLayer
62
0
370
-1
100
AcDbLine
10
373
20
15
11
373
21
16.8
0
LINE
5
B3
100
AcDbEntity
8
0
6
ByLayer
62
0
370
-1
100
AcDbLine
10
374
20
15
11
374
21
16.8
0
LINE
5
B4
100
AcDbEntity
8
0
6
ByLayer
62
0
370
-1
100
AcDbLine
10
375
20
15
11
375
21
16.8
0
LINE
5
B5
100
AcDbEntity
8
0
6
ByLayer
62
0
370
-1
100
AcDbLine
10
376
20
15
11
376
21
16.8
0
LINE
5
B6
100
AcDbEntity
8
0
6
ByLayer
62
0
370
-1
100
AcDbLine
10
377
20
15
11
377
21
16.8
0
LINE
5
B7
100
AcDbEntity
8
0
6
ByLayer
62
0
370
-1
100
AcDbLine
10
378
20
15
11
378
21
16.8
0
LINE
5
B8
100
AcDbEntity
8
0
6
ByLayer
62
0
370
-1
100
AcDbLine
10
379
20
15
11
379
21
16.8
0
LINE
5
B9
100
AcDbEntity
8
0
6
ByLayer
62
0
370
-1
100
AcDbLine
10
381
20
15
11
381
21
16.8
0
LINE
5
BA
100
AcDbEntity
8
0
6
ByLayer
62
0
370
-1
100
AcDbLine
10
382
20
15
11
382
21
16.8
0
LINE
5
BB
100
AcDbEntity
8
0
6
ByLayer
62
0
370
-1
100
AcDbLine
10
383
20
15
11
383
21
16.8
0
LINE
5
BC
100
AcDbEntity
8
0
6
ByLayer
62
0
370
-1
100
AcDbLine
10
384
20
15
11
384
21
16.8
0
LINE
5
BD
100
AcDbEntity
8
0
6
ByLayer
62
0
370
-1
100
AcDbLine
10
385
20
15
11
385
21
16.8
0
LINE
5
BE
100
AcDbEntity
8
0
6
ByLayer
62
0
370
-1
100
AcDbLine
10
386
20
15
11
386
21
16.8
0
LINE
5
BF
100
AcDbEntity
8
0
6
ByLayer
62
0
370
-1
100
AcDbLine
10
387
20
15
11
387
21
16.8
0
LINE
5
C0
100
AcDbEntity
8
0
6
ByLayer
62
0
370
-1
100
AcDbLine
10
388
20
15
11
388
21
16.8
0
LINE
5
C1
100
AcDbEntity
8
0
6
ByLayer
62
0
370
-1
100
AcDbLine
10
389
20
15
11
389
21
16.8
0
LINE
5
C2
100
AcDbEntity
8
0
6
ByLayer
62
0
370
-1
100
AcDbLine
10
295
20
16.8
11
295
21
17.4
0
LINE
5
C3
100
AcDbEntity
8
0
6
ByLayer
62
0
370
-1
100
AcDbLine
10
305
20
16.8
11
305
21
17.4
0
LINE
5
C4
100
AcDbEntity
8
0
6
ByLayer
62
0
370
-1
100
AcDbLine
10
315
20
16.8
11
315
21
17.4
0
LINE
5
C5
100
AcDbEntity
8
0
6
ByLayer
62
0
370
-1
100
AcDbLine
10
325
20
16.8
11
325
21
17.4
0
LINE
5
C6
100
AcDbEntity
8
0
6
ByLayer
62
0
370
-1
100
AcDbLine
10
335
20
16.8
11
335
21
17.4
0
LINE
5
C7
100
AcDbEntity
8
0
6
ByLayer
62
0
370
-1
100
AcDbLine
10
345
20
16.8
11
345
21
17.4
0
LINE
5
C8
100
AcDbEntity
8
0
6
ByLayer
62
0
370
-1
100
AcDbLine
10
355
20
16.8
11
355
21
17.4
0
LINE
5
C9
100
AcDbEntity
8
0
6
ByLayer
62
0
370
-1
100
AcDbLine
10
365
20
16.8
11
365
21
17.4
0
LINE
5
CA
100
AcDbEntity
8
0
6
ByLayer
62
0
370
-1
100
AcDbLine
10
375
20
16.8
11
375
21
17.4
0
LINE
5
CB
100
AcDbEntity
8
0
6
ByLayer
62
0
370
-1
100
AcDbLine
10
385
20
16.8
11
385
21
17.4
0
MTEXT
5
CC
100
AcDbEntity
8
0
6
ByLayer
62
0
370
-1
100
AcDbMText
10
341
20
13
30
0
40
3
41
18.3333333333
71
1
72
1
1
Millimeter
7
standard
210
0
220
0
230
1
50
0
73
2
44
1
0
ENDBLK
5
48
330
46
100
AcDbEntity
8
0
100
AcDbBlockEnd
0
BLOCK
5
4A
330
49
100
AcDbEntity
8
0
100
AcDbBlockBegin
2
Sheet-A4-Vert
70
0
10
0
20
0
3
Sheet-A4-Vert
1

0
LINE
5
CD
100
AcDbEntity
8
0
6
ByLayer
62
256
370
-1
100
AcDbLine
10
0
20
0
11
0
21
267
0
LINE
5
CE
100
AcDbEntity
8
0
6
ByLayer
62
256
370
-1
100
AcDbLine
10
0
20
0
11
180
21
0
0
LINE
5
CF
100
AcDbEntity
8
0
6
ByLayer
62
256
370
-1
100
AcDbLine
10
0
20
267
11
180
21
267
0
LINE
5
D0
100
AcDbEntity
8
0
6
ByLayer
62
256
370
-1
100
AcDbLine
10
180
20
0
11
180
21
267
0
LINE
5
D1
100
AcDbEntity
8
0
6
ByLayer
62
256
370
-1
100
AcDbLine
10
0
20
15
11
180
21
15
0
LINE
5
D2
100
AcDbEntity
8
0
6
ByLayer
62
256
370
-1
100
AcDbLine
10
20
20
0
11
20
21
15
0
LINE
5
D3
100
AcDbEntity
8
0
6
ByLayer
62
256
370
-1
100
AcDbLine
10
150
20
0
11
150
21
15
0
LINE
5
D4
100
AcDbEntity
8
0
6
ByLayer
62
256
370
-1
100
AcDbLine
10
130
20
0
11
130
21
15
0
LINE
5
D5
100
AcDbEntity
8
0
6
ByLayer
62
256
370
-1
100
AcDbLine
10
130
20
7.5
11
180
21
7.5
0
LINE
5
D6
100
AcDbEntity
8
0
6
ByLayer
62
256
370
-1
100
AcDbLine
10
0
20
7.5
11
20
21
7.5
0
MTEXT
5
D7
100
AcDbEntity
8
0
6
ByLayer
62
256
370
-1
100
AcDbMText
10
7
20
14
30
0
40
5.5
41
6.11111111111
71
1
72
1
1
1:1
7
standard
210
0
220
0
230
1
50
0
73
2
44
1
0
MTEXT
5
D8
100
AcDbEntity
8
0
6
ByLayer
62
256
370
-1
100
AcDbMText
10
0.5
20
5
30
0
40
3
41
18.5833333333
71
1
72
1
1
4mm Holz
7
standard
210
0
220
0
230
1
50
0
73
2
44
1
0
MTEXT
5
D9
100
AcDbEntity
8
0
6
ByLayer
62
256
370
-1
100
AcDbMText
10
156
20
5
30
0
40
3
41
17.9166666667
71
1
72
1
1
Blatt 001
7
standard
210
0
220
0
230
1
50
0
73
2
44
1
0
MTEXT
5
DA
100
AcDbEntity
8
0
6
ByLayer
62
256
370
-1
100
AcDbMText
10
137
20
5
30
0
40
3
41
6.33333333333
71
1
72
1
1
v1.0
7
standard
210
0
220
0
230
1
50
0
73
2
44
1
0
LINE
5
DB
100
AcDbEntity
8
0
6
ByLayer
62
0
370
-1
100
AcDbLine
10
170
20
15
11
170
21
18
0
LINE
5
DC
100
AcDbEntity
8
0
6
ByLayer
62
0
370
-1
100
AcDbLine
10
160
20
15
11
160
21
18
0
LINE
5
DD
100
AcDbEntity
8
0
6
ByLayer
62
0
370
-1
100
AcDbLine
10
150
20
15
11
150
21
18
0
LINE
5
DE
100
AcDbEntity
8
0
6
ByLayer
62
0
370
-1
100
AcDbLine
10
140
20
15
11
140
21
18
0
LINE
5
DF
100
AcDbEntity
8
0
6
ByLayer
62
0
370
-1
100
AcDbLine
10
130
20
15
11
130
21
18
0
LINE
5
E0
100
AcDbEntity
8
0
6
ByLayer
62
0
370
-1
100
AcDbLine
10
120
20
15
11
120
21
18
0
LINE
5
E1
100
AcDbEntity
8
0
6
ByLayer
62
0
370
-1
100
AcDbLine
10
110
20
15
11
110
21
18
0
LINE
5
E2
100
AcDbEntity
8
0
6
ByLayer
62
0
370
-1
100
AcDbLine
10
100
20
15
11
100
21
18
0
LINE
5
E3
100
AcDbEntity
8
0
6
ByLayer
62
0
370
-1
100
AcDbLine
10
90
20
15
11
90
21
18
0
LINE
5
E4
100
AcDbEntity
8
0
6
ByLayer
62
0
370
-1
100
AcDbLine
10
80
20
15
11
80
21
18
0
LINE
5
E5
100
AcDbEntity
8
0
6
ByLayer
62
0
370
-1
100
AcDbLine
10
81
20
15
11
81
21
16.8
0
LINE
5
E6
100
AcDbEntity
8
0
6
ByLayer
62
0
370
-1
100
AcDbLine
10
82
20
15
11
82
21
16.8
0
LINE
5
E7
100
AcDbEntity
8
0
6
ByLayer
62
0
370
-1
100
AcDbLine
10
83
20
15
11
83
21
16.8
0
LINE
5
E8
100
AcDbEntity
8
0
6
ByLayer
62
0
370
-1
100
AcDbLine
10
84
20
15
11
84
21
16.8
0
LINE
5
E9
100
AcDbEntity
8
0
6
ByLayer
62
0
370
-1
100
AcDbLine
10
85
20
15
11
85
21
16.8
0
LINE
5
EA
100
AcDbEntity
8
0
6
ByLayer
62
0
370
-1
100
AcDbLine
10
86
20
15
11
86
21
16.8
0
LINE
5
EB
100
AcDbEntity
8
0
6
ByLayer
62
0
370
-1
100
AcDbLine
10
87
20
15
11
87
21
16.8
0
LINE
5
EC
100
AcDbEntity
8
0
6
ByLayer
62
0
370
-1
100
AcDbLine
10
88
20
15
11
88
21
16.8
0
LINE
5
ED
100
AcDbEntity
8
0
6
ByLayer
62
0
370
-1
100
AcDbLine
10
89
20
15
11
89
21
16.8
0
LINE
5
EE
100
AcDbEntity
8
0
6
ByLayer
62
0
370
-1
100
AcDbLine
10
91
20
15
11
91
21
16.8
0
LINE
5
EF
100
AcDbEntity
8
0
6
ByLayer
62
0
370
-1
100
AcDbLine
10
92
20
15
11
92
21
16.8
0
LINE
5
F0
100
AcDbEntity
8
0
6
ByLayer
62
0
370
-1
100
AcDbLine
10
93
20
15
11
93
21
16.8
0
LINE
5
F1
100
AcDbEntity
8
0
6
ByLayer
62
0
370
-1
100
AcDbLine
10
94
20
15
11
94
21
16.8
0
LINE
5
F2
100
AcDbEntity
8
0
6
ByLayer
62
0
370
-1
100
AcDbLine
10
95
20
15
11
95
21
16.8
0
LINE
5
F3
100
AcDbEntity
8
0
6
ByLayer
62
0
370
-1
100
AcDbLine
10
96
20
15
11
96
21
16.8
0
LINE
5
F4
100
AcDbEntity
8
0
6
ByLayer
62
0
370
-1
100
AcDbLine
10
97
20
15
11
97
21
16.8
0
LINE
5
F5
100
AcDbEntity
8
0
6
ByLayer
62
0
370
-1
100
AcDbLine
10
98
20
15
11
98
21
16.8
0
LINE
5
F6
100
AcDbEntity
8
0
6
ByLayer
62
0
370
-1
100
AcDbLine
10
99
20
15
11
99
21
16.8
0
LINE
5
F7
100
AcDbEntity
8
0
6
ByLayer
62
0
370
-1
100
AcDbLine
10
101
20
15
11
101
21
16.8
0
LINE
5
F8
100
AcDbEntity
8
0
6
ByLayer
62
0
370
-1
100
AcDbLine
10
102
20
15
11
102
21
16.8
0
LINE
5
F9
100
AcDbEntity
8
0
6
ByLayer
62
0
370
-1
100
AcDbLine
10
103
20
15
11
103
21
16.8
0
LINE
5
FA
100
AcDbEntity
8
0
6
ByLayer
62
0
370
-1
100
AcDbLine
10
104
20
15
11
104
21
16.8
0
LINE
5
FB
100
AcDbEntity
8
0
6
ByLayer
62
0
370
-1
100
AcDbLine
10
105
20
15
11
105
21
16.8
0
LINE
5
FC
100
AcDbEntity
8
0
6
ByLayer
62
0
370
-1
100
AcDbLine
10
106
20
15
11
106
21
16.8
0
LINE
5
FD
100
AcDbEntity
8
0
6
ByLayer
62
0
370
-1
100
AcDbLine
10
107
20
15
11
107
21
16.8
0
LINE
5
FE
100
AcDbEntity
8
0
6
ByLayer
62
0
370
-1
100
AcDbLine
10
108
20
15
11
108
21
16.8
0
LINE
5
FF
100
AcDbEntity
8
0
6
ByLayer
62
0
370
-1
100
AcDbLine
10
109
20
15
11
109
21
16.8
0
LINE
5
100
100
AcDbEntity
8
0
6
ByLayer
62
0
370
-1
100
AcDbLine
10
111
20
15
11
111
21
16.8
0
LINE
5
101
100
AcDbEntity
8
0
6
ByLayer
62
0
370
-1
100
AcDbLine
10
112
20
15
11
112
21
16.8
0
LINE
5
102
100
AcDbEntity
8
0
6
ByLayer
62
0
370
-1
100
AcDbLine
10
113
20
15
11
113
21
16.8
0
LINE
5
103
100
AcDbEntity
8
0
6
ByLayer
62
0
370
-1
100
AcDbLine
10
114
20
15
11
114
21
16.8
0
LINE
5
104
100
AcDbEntity
8
0
6
ByLayer
62
0
370
-1
100
AcDbLine
10
115
20
15
11
115
21
16.8
0
LINE
5
105
100
AcDbEntity
8
0
6
ByLayer
62
0
370
-1
100
AcDbLine
10
116
20
15
11
116
21
16.8
0
LINE
5
106
100
AcDbEntity
8
0
6
ByLayer
62
0
370
-1
100
AcDbLine
10
117
20
15
11
117
21
16.8
0
LINE
5
107
100
AcDbEntity
8
0
6
ByLayer
62
0
370
-1
100
AcDbLine
10
118
20
15
11
118
21
16.8
0
LINE
5
108
100
AcDbEntity
8
0
6
ByLayer
62
0
370
-1
100
AcDbLine
10
119
20
15
11
119
21
16.8
0
LINE
5
109
100
AcDbEntity
8
0
6
ByLayer
62
0
370
-1
100
AcDbLine
10
121
20
15
11
121
21
16.8
0
LINE
5
10A
100
AcDbEntity
8
0
6
ByLayer
62
0
370
-1
100
AcDbLine
10
122
20
15
11
122
21
16.8
0
LINE
5
10B
100
AcDbEntity
8
0
6
ByLayer
62
0
370
-1
100
AcDbLine
10
123
20
15
11
123
21
16.8
0
LINE
5
10C
100
AcDbEntity
8
0
6
ByLayer
62
0
370
-1
100
AcDbLine
10
124
20
15
11
124
21
16.8
0
LINE
5
10D
100
AcDbEntity
8
0
6
ByLayer
62
0
370
-1
100
AcDbLine
10
125
20
15
11
125
21
16.8
0
LINE
5
10E
100
AcDbEntity
8
0
6
ByLayer
62
0
370
-1
100
AcDbLine
10
126
20
15
11
126
21
16.8
0
LINE
5
10F
100
AcDbEntity
8
0
6
ByLayer
62
0
370
-1
100
AcDbLine
10
127
20
15
11
127
21
16.8
0
LINE
5
110
100
AcDbEntity
8
0
6
ByLayer
62
0
370
-1
100
AcDbLine
10
128
20
15
11
128
21
16.8
0
LINE
5
111
100
AcDbEntity
8
0
6
ByLayer
62
0
370
-1
100
AcDbLine
10
129
20
15
11
129
21
16.8
0
LINE
5
112
100
AcDbEntity
8
0
6
ByLayer
62
0
370
-1
100
AcDbLine
10
131
20
15
11
131
21
16.8
0
LINE
5
113
100
AcDbEntity
8
0
6
ByLayer
62
0
370
-1
100
AcDbLine
10
132
20
15
11
132
21
16.8
0
LINE
5
114
100
AcDbEntity
8
0
6
ByLayer
62
0
370
-1
100
AcDbLine
10
133
20
15
11
133
21
16.8
0
LINE
5
115
100
AcDbEntity
8
0
6
ByLayer
62
0
370
-1
100
AcDbLine
10
134
20
15
11
134
21
16.8
0
LINE
5
116
100
AcDbEntity
8
0
6
ByLayer
62
0
370
-1
100
AcDbLine
10
135
20
15
11
135
21
16.8
0
LINE
5
117
100
AcDbEntity
8
0
6
ByLayer
62
0
370
-1
100
AcDbLine
10
136
20
15
11
136
21
16.8
0
LINE
5
118
100
AcDbEntity
8
0
6
ByLayer
62
0
370
-1
100
AcDbLine
10
137
20
15
11
137
21
16.8
0
LINE
5
119
100
AcDbEntity
8
0
6
ByLayer
62
0
370
-1
100
AcDbLine
10
138
20
15
11
138
21
16.8
0
LINE
5
11A
100
AcDbEntity
8
0
6
ByLayer
62
0
370
-1
100
AcDbLine
10
139
20
15
11
139
21
16.8
0
LINE
5
11B
100
AcDbEntity
8
0
6
ByLayer
62
0
370
-1
100
AcDbLine
10
141
20
15
11
141
21
16.8
0
LINE
5
11C
100
AcDbEntity
8
0
6
ByLayer
62
0
370
-1
100
AcDbLine
10
142
20
15
11
142
21
16.8
0
LINE
5
11D
100
AcDbEntity
8
0
6
ByLayer
62
0
370
-1
100
AcDbLine
10
143
20
15
11
143
21
16.8
0
LINE
5
11E
100
AcDbEntity
8
0
6
ByLayer
62
0
370
-1
100
AcDbLine
10
144
20
15
11
144
21
16.8
0
LINE
5
11F
100
AcDbEntity
8
0
6
ByLayer
62
0
370
-1
100
AcDbLine
10
145
20
15
11
145
21
16.8
0
LINE
5
120
100
AcDbEntity
8
0
6
ByLayer
62
0
370
-1
100
AcDbLine
10
146
20
15
11
146
21
16.8
0
LINE
5
121
100
AcDbEntity
8
0
6
ByLayer
62
0
370
-1
100
AcDbLine
10
147
20
15
11
147
21
16.8
0
LINE
5
122
100
AcDbEntity
8
0
6
ByLayer
62
0
370
-1
100
AcDbLine
10
148
20
15
11
148
21
16.8
0
LINE
5
123
100
AcDbEntity
8
0
6
ByLayer
62
0
370
-1
100
AcDbLine
10
149
20
15
11
149
21
16.8
0
LINE
5
124
100
AcDbEntity
8
0
6
ByLayer
62
0
370
-1
100
AcDbLine
10
151
20
15
11
151
21
16.8
0
LINE
5
125
100
AcDbEntity
8
0
6
ByLayer
62
0
370
-1
100
AcDbLine
10
152
20
15
11
152
21
16.8
0
LINE
5
126
100
AcDbEntity
8
0
6
ByLayer
62
0
370
-1
100
AcDbLine
10
153
20
15
11
153
21
16.8
0
LINE
5
127
100
AcDbEntity
8
0
6
ByLayer
62
0
370
-1
100
AcDbLine
10
154
20
15
11
154
21
16.8
0
LINE
5
128
100
AcDbEntity
8
0
6
ByLayer
62
0
370
-1
100
AcDbLine
10
155
20
15
11
155
21
16.8
0
LINE
5
129
100
AcDbEntity
8
0
6
ByLayer
62
0
370
-1
100
AcDbLine
10
156
20
15
11
156
21
16.8
0
LINE
5
12A
100
AcDbEntity
8
0
6
ByLayer
62
0
370
-1
100
AcDbLine
10
157
20
15
11
157
21
16.8
0
LINE
5
12B
100
AcDbEntity
8
0
6
ByLayer
62
0
370
-1
100
AcDbLine
10
158
20
15
11
158
21
16.8
0
LINE
5
12C
100
AcDbEntity
8
0
6
ByLayer
62
0
370
-1
100
AcDbLine
10
159
20
15
11
159
21
16.8
0
LINE
5
12D
100
AcDbEntity
8
0
6
ByLayer
62
0
370
-1
100
AcDbLine
10
161
20
15
11
161
21
16.8
0
LINE
5
12E
100
AcDbEntity
8
0
6
ByLayer
62
0
370
-1
100
AcDbLine
10
162
20
15
11
162
21
16.8
0
LINE
5
12F
100
AcDbEntity
8
0
6
ByLayer
62
0
370
-1
100
AcDbLine
10
163
20
15
11
163
21
16.8
0
LINE
5
130
100
AcDbEntity
8
0
6
ByLayer
62
0
370
-1
100
AcDbLine
10
164
20
15
11
164
21
16.8
0
LINE
5
131
100
AcDbEntity
8
0
6
ByLayer
62
0
370
-1
100
AcDbLine
10
165
20
15
11
165
21
16.8
0
LINE
5
132
100
AcDbEntity
8
0
6
ByLayer
62
0
370
-1
100
AcDbLine
10
166
20
15
11
166
21
16.8
0
LINE
5
133
100
AcDbEntity
8
0
6
ByLayer
62
0
370
-1
100
AcDbLine
10
167
20
15
11
167
21
16.8
0
LINE
5
134
100
AcDbEntity
8
0
6
ByLayer
62
0
370
-1
100
AcDbLine
10
168
20
15
11
168
21
16.8
0
LINE
5
135
100
AcDbEntity
8
0
6
ByLayer
62
0
370
-1
100
AcDbLine
10
169
20
15
11
169
21
16.8
0
LINE
5
136
100
AcDbEntity
8
0
6
ByLayer
62
0
370
-1
100
AcDbLine
10
171
20
15
11
171
21
16.8
0
LINE
5
137
100
AcDbEntity
8
0
6
ByLayer
62
0
370
-1
100
AcDbLine
10
172
20
15
11
172
21
16.8
0
LINE
5
138
100
AcDbEntity
8
0
6
ByLayer
62
0
370
-1
100
AcDbLine
10
173
20
15
11
173
21
16.8
0
LINE
5
139
100
AcDbEntity
8
0
6
ByLayer
62
0
370
-1
100
AcDbLine
10
174
20
15
11
174
21
16.8
0
LINE
5
13A
100
AcDbEntity
8
0
6
ByLayer
62
0
370
-1
100
AcDbLine
10
175
20
15
11
175
21
16.8
0
LINE
5
13B
100
AcDbEntity
8
0
6
ByLayer
62
0
370
-1
100
AcDbLine
10
176
20
15
11
176
21
16.8
0
LINE
5
13C
100
AcDbEntity
8
0
6
ByLayer
62
0
370
-1
100
AcDbLine
10
177
20
15
11
177
21
16.8
0
LINE
5
13D
100
AcDbEntity
8
0
6
ByLayer
62
0
370
-1
100
AcDbLine
10
178
20
15
11
178
21
16.8
0
LINE
5
13E
100
AcDbEntity
8
0
6
ByLayer
62
0
370
-1
100
AcDbLine
10
179
20
15
11
179
21
16.8
0
LINE
5
13F
100
AcDbEntity
8
0
6
ByLayer
62
0
370
-1
100
AcDbLine
10
85
20
16.8
11
85
21
17.4
0
LINE
5
140
100
AcDbEntity
8
0
6
ByLayer
62
0
370
-1
100
AcDbLine
10
95
20
16.8
11
95
21
17.4
0
LINE
5
141
100
AcDbEntity
8
0
6
ByLayer
62
0
370
-1
100
AcDbLine
10
105
20
16.8
11
105
21
17.4
0
LINE
5
142
100
AcDbEntity
8
0
6
ByLayer
62
0
370
-1
100
AcDbLine
10
115
20
16.8
11
115
21
17.4
0
LINE
5
143
100
AcDbEntity
8
0
6
ByLayer
62
0
370
-1
100
AcDbLine
10
125
20
16.8
11
125
21
17.4
0
LINE
5
144
100
AcDbEntity
8
0
6
ByLayer
62
0
370
-1
100
AcDbLine
10
135
20
16.8
11
135
21
17.4
0
LINE
5
145
100
AcDbEntity
8
0
6
ByLayer
62
0
370
-1
100
AcDbLine
10
145
20
16.8
11
145
21
17.4
0
LINE
5
146
100
AcDbEntity
8
0
6
ByLayer
62
0
370
-1
100
AcDbLine
10
155
20
16.8
11
155
21
17.4
0
LINE
5
147
100
AcDbEntity
8
0
6
ByLayer
62
0
370
-1
100
AcDbLine
10
165
20
16.8
11
165
21
17.4
0
LINE
5
148
100
AcDbEntity
8
0
6
ByLayer
62
0
370
-1
100
AcDbLine
10
175
20
16.8
11
175
21
17.4
0
MTEXT
5
149
100
AcDbEntity
8
0
6
ByLayer
62
0
370
-1
100
AcDbMText
10
131
20
13
30
0
40
3
41
18.3333333333
71
1
72
1
1
Millimeter
7
standard
210
0
220
0
230
1
50
0
73
2
44
1
0
ENDBLK
5
4B
330
49
100
AcDbEntity
8
0
100
AcDbBlockEnd
0
BLOCK
5
4D
330
4C
100
AcDbEntity
8
0
100
AcDbBlockBegin
2
Sheet-A4-Horz
70
0
10
0
20
0
3
Sheet-A4-Horz
1

0
LINE
5
14A
100
AcDbEntity
8
0
6
ByLayer
62
256
370
-1
100
AcDbLine
10
0
20
180
11
267
21
180
0
LINE
5
14B
100
AcDbEntity
8
0
6
ByLayer
62
256
370
-1
100
AcDbLine
10
0
20
180
11
0
21
0
0
LINE
5
14C
100
AcDbEntity
8
0
6
ByLayer
62
256
370
-1
100
AcDbLine
10
267
20
180
11
267
21
-4.90471043059e-14
0
LINE
5
14D
100
AcDbEntity
8
0
6
ByLayer
62
256
370
-1
100
AcDbLine
10
0
20
0
11
267
21
-4.90471043059e-14
0
LINE
5
14E
100
AcDbEntity
8
0
6
ByLayer
62
256
370
-1
100
AcDbLine
10
87
20
15
11
267
21
15
0
LINE
5
14F
100
AcDbEntity
8
0
6
ByLayer
62
256
370
-1
100
AcDbLine
10
107
20
-4.90471043059e-14
11
107
21
15
0
LINE
5
150
100
AcDbEntity
8
0
6
ByLayer
62
256
370
-1
100
AcDbLine
10
237
20
-4.90471043059e-14
11
237
21
15
0
LINE
5
151
100
AcDbEntity
8
0
6
ByLayer
62
256
370
-1
100
AcDbLine
10
217
20
-4.90471043059e-14
11
217
21
15
0
LINE
5
152
100
AcDbEntity
8
0
6
ByLayer
62
256
370
-1
100
AcDbLine
10
217
20
7.5
11
267
21
7.5
0
LINE
5
153
100
AcDbEntity
8
0
6
ByLayer
62
256
370
-1
100
AcDbLine
10
87
20
7.5
11
107
21
7.5
0
MTEXT
5
154
100
AcDbEntity
8
0
6
ByLayer
62
256
370
-1
100
AcDbMText
10
94
20
14
30
0
40
5.5
41
6.11111111111
71
1
72
1
1
1:1
7
standard
210
0
220
0
230
1
50
0
73
2
44
1
0
MTEXT
5
155
100
AcDbEntity
8
0
6
ByLayer
62
256
370
-1
100
AcDbMText
10
87.5
20
5
30
0
40
3
41
18.5833333333
71
1
72
1
1
4mm Holz
7
standard
210
0
220
0
230
1
50
0
73
2
44
1
0
MTEXT
5
156
100
AcDbEntity
8
0
6
ByLayer
62
256
370
-1
100
AcDbMText
10
243
20
5
30
0
40
3
41
17.9166666667
71
1
72
1
1
Blatt 001
7
standard
210
0
220
0
230
1
50
0
73
2
44
1
0
MTEXT
5
157
100
AcDbEntity
8
0
6
ByLayer
62
256
370
-1
100
AcDbMText
10
224
20
5
30
0
40
3
41
6.33333333333
71
1
72
1
1
v1.0
7
standard
210
0
220
0
230
1
50
0
73
2
44
1
0
LINE
5
158
100
AcDbEntity
8
0
6
ByLayer
62
256
370
-1
100
AcDbLine
10
87
20
15
11
87
21
-4.90471043059e-14
0
LINE
5
159
100
AcDbEntity
8
0
6
ByLayer
62
0
370
-1
100
AcDbLine
10
257
20
15
11
257
21
18
0
LINE
5
15A
100
AcDbEntity
8
0
6
ByLayer
62
0
370
-1
100
AcDbLine
10
247
20
15
11
247
21
18
0
LINE
5
15B
100
AcDbEntity
8
0
6
ByLayer
62
0
370
-1
100
AcDbLine
10
237
20
15
11
237
21
18
0
LINE
5
15C
100
AcDbEntity
8
0
6
ByLayer
62
0
370
-1
100
AcDbLine
10
227
20
15
11
227
21
18
0
LINE
5
15D
100
AcDbEntity
8
0
6
ByLayer
62
0
370
-1
100
AcDbLine
10
217
20
15
11
217
21
18
0
LINE
5
15E
100
AcDbEntity
8
0
6
ByLayer
62
0
370
-1
100
AcDbLine
10
207
20
15
11
207
21
18
0
LINE
5
15F
100
AcDbEntity
8
0
6
ByLayer
62
0
370
-1
100
AcDbLine
10
197
20
15
11
197
21
18
0
LINE
5
160
100
AcDbEntity
8
0
6
ByLayer
62
0
370
-1
100
AcDbLine
10
187
20
15
11
187
21
18
0
LINE
5
161
100
AcDbEntity
8
0
6
ByLayer
62
0
370
-1
100
AcDbLine
10
177
20
15
11
177
21
18
0
LINE
5
162
100
AcDbEntity
8
0
6
ByLayer
62
0
370
-1
100
AcDbLine
10
167
20
15
11
167
21
18
0
LINE
5
163
100
AcDbEntity
8
0
6
ByLayer
62
0
370
-1
100
AcDbLine
10
168
20
15
11
168
21
16.8
0
LINE
5
164
100
AcDbEntity
8
0
6
ByLayer
62
0
370
-1
100
AcDbLine
10
169
20
15
11
169
21
16.8
0
LINE
5
165
100
AcDbEntity
8
0
6
ByLayer
62
0
370
-1
100
AcDbLine
10
170
20
15
11
170
21
16.8
0
LINE
5
166
100
AcDbEntity
8
0
6
ByLayer
62
0
370
-1
100
AcDbLine
10
171
20
15
11
171
21
16.8
0
LINE
5
167
100
AcDbEntity
8
0
6
ByLayer
62
0
370
-1
100
AcDbLine
10
172
20
15
11
172
21
16.8
0
LINE
5
168
100
AcDbEntity
8
0
6
ByLayer
62
0
370
-1
100
AcDbLine
10
173
20
15
11
173
21
16.8
0
LINE
5
169
100
AcDbEntity
8
0
6
ByLayer
62
0
370
-1
100
AcDbLine
10
174
20
15
11
174
21
16.8
0
LINE
5
16A
100
AcDbEntity
8
0
6
ByLayer
62
0
370
-1
100
AcDbLine
10
175
20
15
11
175
21
16.8
0
LINE
5
16B
100
AcDbEntity
8
0
6
ByLayer
62
0
370
-1
100
AcDbLine
10
176
20
15
11
176
21
16.8
0
LINE
5
16C
100
AcDbEntity
8
0
6
ByLayer
62
0
370
-1
100
AcDbLine
10
178
20
15
11
178
21
16.8
0
LINE
5
16D
100
AcDbEntity
8
0
6
ByLayer
62
0
370
-1
100
AcDbLine
10
179
20
15
11
179
21
16.8
0
LINE
5
16E
100
AcDbEntity
8
0
6
ByLayer
62
0
370
-1
100
AcDbLine
10
180
20
15
11
180
21
16.8
0
LINE
5
16F
100
AcDbEntity
8
0
6
ByLayer
62
0
370
-1
100
AcDbLine
10
181
20
15
11
181
21
16.8
0
LINE
5
170
100
AcDbEntity
8
0
6
ByLayer
62
0
370
-1
100
AcDbLine
10
182
20
15
11
182
21
16.8
0
LINE
5
171
100
AcDbEntity
8
0
6
ByLayer
62
0
370
-1
100
AcDbLine
10
183
20
15
11
183
21
16.8
0
LINE
5
172
100
AcDbEntity
8
0
6
ByLayer
62
0
370
-1
100
AcDbLine
10
184
20
15
11
184
21
16.8
0
LINE
5
173
100
AcDbEntity
8
0
6
ByLayer
62
0
370
-1
100
AcDbLine
10
185
20
15
11
185
21
16.8
0
LINE
5
174
100
AcDbEntity
8
0
6
ByLayer
62
0
370
-1
100
AcDbLine
10
186
20
15
11
186
21
16.8
0
LINE
5
175
100
AcDbEntity
8
0
6
ByLayer
62
0
370
-1
100
AcDbLine
10
188
20
15
11
188
21
16.8
0
LINE
5
176
100
AcDbEntity
8
0
6
ByLayer
62
0
370
-1
100
AcDbLine
10
189
20
15
11
189
21
16.8
0
LINE
5
177
100
AcDbEntity
8
0
6
ByLayer
62
0
370
-1
100
AcDbLine
10
190
20
15
11
190
21
16.8
0
LINE
5
178
100
AcDbEntity
8
0
6
ByLayer
62
0
370
-1
100
AcDbLine
10
191
20
15
11
191
21
16.8
0
LINE
5
179
100
AcDbEntity
8
0
6
ByLayer
62
0
370
-1
100
AcDbLine
10
192
20
15
11
192
21
16.8
0
LINE
5
17A
100
AcDbEntity
8
0
6
ByLayer
62
0
370
-1
100
AcDbLine
10
193
20
15
11
193
21
16.8
0
LINE
5
17B
100
AcDbEntity
8
0
6
ByLayer
62
0
370
-1
100
AcDbLine
10
194
20
15
11
194
21
16.8
0
LINE
5
17C
100
AcDbEntity
8
0
6
ByLayer
62
0
370
-1
100
AcDbLine
10
195
20
15
11
195
21
16.8
0
LINE
5
17D
100
AcDbEntity
8
0
6
ByLayer
62
0
370
-1
100
AcDbLine
10
196
20
15
11
196
21
16.8
0
LINE
5
17E
100
AcDbEntity
8
0
6
ByLayer
62
0
370
-1
100
AcDbLine
10
198
20
15
11
198
21
16.8
0
LINE
5
17F
100
AcDbEntity
8
0
6
ByLayer
62
0
370
-1
100
AcDbLine
10
199
20
15
11
199
21
16.8
0
LINE
5
180
100
AcDbEntity
8
0
6
ByLayer
62
0
370
-1
100
AcDbLine
10
200
20
15
11
200
21
16.8
0
LINE
5
181
100
AcDbEntity
8
0
6
ByLayer
62
0
370
-1
100
AcDbLine
10
201
20
15
11
201
21
16.8
0
LINE
5
182
100
AcDbEntity
8
0
6
ByLayer
62
0
370
-1
100
AcDbLine
10
202
20
15
11
202
21
16.8
0
LINE
5
183
100
AcDbEntity
8
0
6
ByLayer
62
0
370
-1
100
AcDbLine
10
203
20
15
11
203
21
16.8
0
LINE
5
184
100
AcDbEntity
8
0
6
ByLayer
62
0
370
-1
100
AcDbLine
10
204
20
15
11
204
21
16.8
0
LINE
5
185
100
AcDbEntity
8
0
6
ByLayer
62
0
370
-1
100
AcDbLine
10
205
20
15
11
205
21
16.8
0
LINE
5
186
100
AcDbEntity
8
0
6
ByLayer
62
0
370
-1
100
AcDbLine
10
206
20
15
11
206
21
16.8
0
LINE
5
187
100
AcDbEntity
8
0
6
ByLayer
62
0
370
-1
100
AcDbLine
10
208
20
15
11
208
21
16.8
0
LINE
5
188
100
AcDbEntity
8
0
6
ByLayer
62
0
370
-1
100
AcDbLine
10
209
20
15
11
209
21
16.8
0
LINE
5
189
100
AcDbEntity
8
0
6
ByLayer
62
0
370
-1
100
AcDbLine
10
210
20
15
11
210
21
16.8
0
LINE
5
18A
100
AcDbEntity
8
0
6
ByLayer
62
0
370
-1
100
AcDbLine
10
211
20
15
11
211
21
16.8
0
LINE
5
18B
100
AcDbEntity
8
0
6
ByLayer
62
0
370
-1
100
AcDbLine
10
212
20
15
11
212
21
16.8
0
LINE
5
18C
100
AcDbEntity
8
0
6
ByLayer
62
0
370
-1
100
AcDbLine
10
213
20
15
11
213
21
16.8
0
LINE
5
18D
100
AcDbEntity
8
0
6
ByLayer
62
0
370
-1
100
AcDbLine
10
214
20
15
11
214
21
16.8
0
LINE
5
18E
100
AcDbEntity
8
0
6
ByLayer
62
0
370
-1
100
AcDbLine
10
215
20
15
11
215
21
16.8
0
LINE
5
18F
100
AcDbEntity
8
0
6
ByLayer
62
0
370
-1
100
AcDbLine
10
216
20
15
11
216
21
16.8
0
LINE
5
190
100
AcDbEntity
8
0
6
ByLayer
62
0
370
-1
100
AcDbLine
10
218
20
15
11
218
21
16.8
0
LINE
5
191
100
AcDbEntity
8
0
6
ByLayer
62
0
370
-1
100
AcDbLine
10
219
20
15
11
219
21
16.8
0
LINE
5
192
100
AcDbEntity
8
0
6
ByLayer
62
0
370
-1
100
AcDbLine
10
220
20
15
11
220
21
16.8
0
LINE
5
193
100
AcDbEntity
8
0
6
ByLayer
62
0
370
-1
100
AcDbLine
10
221
20
15
11
221
21
16.8
0
LINE
5
194
100
AcDbEntity
8
0
6
ByLayer
62
0
370
-1
100
AcDbLine
10
222
20
15
11
222
21
16.8
0
LINE
5
195
100
AcDbEntity
8
0
6
ByLayer
62
0
370
-1
100
AcDbLine
10
223
20
15
11
223
21
16.8
0
LINE
5
196
100
AcDbEntity
8
0
6
ByLayer
62
0
370
-1
100
AcDbLine
10
224
20
15
11
224
21
16.8
0
LINE
5
197
100
AcDbEntity
8
0
6
ByLayer
62
0
370
-1
100
AcDbLine
10
225
20
15
11
225
21
16.8
0
LINE
5
198
100
AcDbEntity
8
0
6
ByLayer
62
0
370
-1
100
AcDbLine
10
226
20
15
11
226
21
16.8
0
LINE
5
199
100
AcDbEntity
8
0
6
ByLayer
62
0
370
-1
100
AcDbLine
10
228
20
15
11
228
21
16.8
0
LINE
5
19A
100
AcDbEntity
8
0
6
ByLayer
62
0
370
-1
100
AcDbLine
10
229
20
15
11
229
21
16.8
0
LINE
5
19B
100
AcDbEntity
8
0
6
ByLayer
62
0
370
-1
100
AcDbLine
10
230
20
15
11
230
21
16.8
0
LINE
5
19C
100
AcDbEntity
8
0
6
ByLayer
62
0
370
-1
100
AcDbLine
10
231
20
15
11
231
21
16.8
0
LINE
5
19D
100
AcDbEntity
8
0
6
ByLayer
62
0
370
-1
100
AcDbLine
10
232
20
15
11
232
21
16.8
0
LINE
5
19E
100
AcDbEntity
8
0
6
ByLayer
62
0
370
-1
100
AcDbLine
10
233
20
15
11
233
21
16.8
0
LINE
5
19F
100
AcDbEntity
8
0
6
ByLayer
62
0
370
-1
100
AcDbLine
10
234
20
15
11
234
21
16.8
0
LINE
5
1A0
100
AcDbEntity
8
0
6
ByLayer
62
0
370
-1
100
AcDbLine
10
235
20
15
11
235
21
16.8
0
LINE
5
1A1
100
AcDbEntity
8
0
6
ByLayer
62
0
370
-1
100
AcDbLine
10
236
20
15
11
236
21
16.8
0
LINE
5
1A2
100
AcDbEntity
8
0
6
ByLayer
62
0
370
-1
100
AcDbLine
10
238
20
15
11
238
21
16.8
0
LINE
5
1A3
100
AcDbEntity
8
0
6
ByLayer
62
0
370
-1
100
AcDbLine
10
239
20
15
11
239
21
16.8
0
LINE
5
1A4
100
AcDbEntity
8
0
6
ByLayer
62
0
370
-1
100
AcDbLine
10
240
20
15
11
240
21
16.8
0
LINE
5
1A5
100
AcDbEntity
8
0
6
ByLayer
62
0
370
-1
100
AcDbLine
10
241
20
15
11
241
21
16.8
0
LINE
5
1A6
100
AcDbEntity
8
0
6
ByLayer
62
0
370
-1
100
AcDbLine
10
242
20
15
11
242
21
16.8
0
LINE
5
1A7
100
AcDbEntity
8
0
6
ByLayer
62
0
370
-1
100
AcDbLine
10
243
20
15
11
243
21
16.8
0
LINE
5
1A8
100
AcDbEntity
8
0
6
ByLayer
62
0
370
-1
100
AcDbLine
10
244
20
15
11
244
21
16.8
0
LINE
5
1A9
100
AcDbEntity
8
0
6
ByLayer
62
0
370
-1
100
AcDbLine
10
245
20
15
11
245
21
16.8
0
LINE
5
1AA
100
AcDbEntity
8
0
6
ByLayer
62
0
370
-1
100
AcDbLine
10
246
20
15
11
246
21
16.8
0
LINE
5
1AB
100
AcDbEntity
8
0
6
ByLayer
62
0
370
-1
100
AcDbLine
10
248
20
15
11
248
21
16.8
0
LINE
5
1AC
100
AcDbEntity
8
0
6
ByLayer
62
0
370
-1
100
AcDbLine
10
249
20
15
11
249
21
16.8
0
LINE
5
1AD
100
AcDbEntity
8
0
6
ByLayer
62
0
370
-1
100
AcDbLine
10
250
20
15
11
250
21
16.8
0
LINE
5
1AE
100
AcDbEntity
8
0
6
ByLayer
62
0
370
-1
100
AcDbLine
10
251
20
15
11
251
21
16.8
0
LINE
5
1AF
100
AcDbEntity
8
0
6
ByLayer
62
0
370
-1
100
AcDbLine
10
252
20
15
11
252
21
16.8
0
LINE
5
1B0
100
AcDbEntity
8
0
6
ByLayer
62
0
370
-1
100
AcDbLine
10
253
20
15
11
253
21
16.8
0
LINE
5
1B1
100
AcDbEntity
8
0
6
ByLayer
62
0
370
-1
100
AcDbLine
10
254
20
15
11
254
21
16.8
0
LINE
5
1B2
100
AcDbEntity
8
0
6
ByLayer
62
0
370
-1
100
AcDbLine
10
255
20
15
11
255
21
16.8
0
LINE
5
1B3
100
AcDbEntity
8
0
6
ByLayer
62
0
370
-1
100
AcDbLine
10
256
20
15
11
256
21
16.8
0
LINE
5
1B4
100
AcDbEntity
8
0
6
ByLayer
62
0
370
-1
100
AcDbLine
10
258
20
15
11
258
21
16.8
0
LINE
5
1B5
100
AcDbEntity
8
0
6
ByLayer
62
0
370
-1
100
AcDbLine
10
259
20
15
11
259
21
16.8
0
LINE
5
1B6
100
AcDbEntity
8
0
6
ByLayer
62
0
370
-1
100
AcDbLine
10
260
20
15
11
260
21
16.8
0
LINE
5
1B7
100
AcDbEntity
8
0
6
ByLayer
62
0
370
-1
100
AcDbLine
10
261
20
15
11
261
21
16.8
0
LINE
5
1B8
100
AcDbEntity
8
0
6
ByLayer
62
0
370
-1
100
AcDbLine
10
262
20
15
11
262
21
16.8
0
LINE
5
1B9
100
AcDbEntity
8
0
6
ByLayer
62
0
370
-1
100
AcDbLine
10
263
20
15
11
263
21
16.8
0
LINE
5
1BA
100
AcDbEntity
8
0
6
ByLayer
62
0
370
-1
100
AcDbLine
10
264
20
15
11
264
21
16.8
0
LINE
5
1BB
100
AcDbEntity
8
0
6
ByLayer
62
0
370
-1
100
AcDbLine
10
265
20
15
11
265
21
16.8
0
LINE
5
1BC
100
AcDbEntity
8
0
6
ByLayer
62
0
370
-1
100
AcDbLine
10
266
20
15
11
266
21
16.8
0
LINE
5
1BD
100
AcDbEntity
8
0
6
ByLayer
62
0
370
-1
100
AcDbLine
10
172
20
16.8
11
172
21
17.4
0
LINE
5
1BE
100
AcDbEntity
8
0
6
ByLayer
62
0
370
-1
100
AcDbLine
10
182
20
16.8
11
182
21
17.4
0
LINE
5
1BF
100
AcDbEntity
8
0
6
ByLayer
62
0
370
-1
100
AcDbLine
10
192
20
16.8
11
192
21
17.4
0
LINE
5
1C0
100
AcDbEntity
8
0
6
ByLayer
62
0
370
-1
100
AcDbLine
10
202
20
16.8
11
202
21
17.4
0
LINE
5
1C1
100
AcDbEntity
8
0
6
ByLayer
62
0
370
-1
100
AcDbLine
10
212
20
16.8
11
212
21
17.4
0
LINE
5
1C2
100
AcDbEntity
8
0
6
ByLayer
62
0
370
-1
100
AcDbLine
10
222
20
16.8
11
222
21
17.4
0
LINE
5
1C3
100
AcDbEntity
8
0
6
ByLayer
62
0
370
-1
100
AcDbLine
10
232
20
16.8
11
232
21
17.4
0
LINE
5
1C4
100
AcDbEntity
8
0
6
ByLayer
62
0
370
-1
100
AcDbLine
10
242
20
16.8
11
242
21
17.4
0
LINE
5
1C5
100
AcDbEntity
8
0
6
ByLayer
62
0
370
-1
100
AcDbLine
10
252
20
16.8
11
252
21
17.4
0
LINE
5
1C6
100
AcDbEntity
8
0
6
ByLayer
62
0
370
-1
100
AcDbLine
10
262
20
16.8
11
262
21
17.4
0
MTEXT
5
1C7
100
AcDbEntity
8
0
6
ByLayer
62
0
370
-1
100
AcDbMText
10
218
20
13
30
0
40
3
41
18.3333333333
71
1
72
1
1
Millimeter
7
standard
210
0
220
0
230
1
50
0
73
2
44
1
0
ENDBLK
5
4E
330
4C
100
AcDbEntity
8
0
100
AcDbBlockEnd
0
ENDSEC
0
SECTION
2
ENTITIES
0
INSERT
5
1C8
100
AcDbEntity
8
0
6
ByLayer
62
256
370
-1
100
AcDbBlockReference
2
Sheet-A3
10
0
20
0
30
0
41
1
42
1
43
0
50
0
70
1
71
1
44
0
45
0
0
INSERT
5
1C9
100
AcDbEntity
8
0
6
ByLayer
62
256
370
-1
100
AcDbBlockReference
2
Sheet-A4-Vert
10
410
20
0
30
0
41
1
42
1
43
0
50
0
70
1
71
1
44
0
45
0
0
INSERT
5
1CA
100
AcDbEntity
8
0
6
ByLayer
62
256
370
-1
100
AcDbBlockReference
2
Sheet-A4-Horz
10
610
20
0
30
0
41
1
42
1
43
0
50
0
70
1
71
1
44
0
45
0
0
LINE
5
1CB
100
AcDbEntity
8
0
6
ByLayer
62
0
370
-1
100
AcDbLine
10
380
20
15
11
380
21
18
0
LINE
5
1CC
100
AcDbEntity
8
0
6
ByLayer
62
0
370
-1
100
AcDbLine
10
370
20
15
11
370
21
18
0
LINE
5
1CD
100
AcDbEntity
8
0
6
ByLayer
62
0
370
-1
100
AcDbLine
10
360
20
15
11
360
21
18
0
LINE
5
1CE
100
AcDbEntity
8
0
6
ByLayer
62
0
370
-1
100
AcDbLine
10
350
20
15
11
350
21
18
0
LINE
5
1CF
100
AcDbEntity
8
0
6
ByLayer
62
0
370
-1
100
AcDbLine
10
340
20
15
11
340
21
18
0
LINE
5
1D0
100
AcDbEntity
8
0
6
ByLayer
62
0
370
-1
100
AcDbLine
10
330
20
15
11
330
21
18
0
LINE
5
1D1
100
AcDbEntity
8
0
6
ByLayer
62
0
370
-1
100
AcDbLine
10
320
20
15
11
320
21
18
0
LINE
5
1D2
100
AcDbEntity
8
0
6
ByLayer
62
0
370
-1
100
AcDbLine
10
310
20
15
11
310
21
18
0
LINE
5
1D3
100
AcDbEntity
8
0
6
ByLayer
62
0
370
-1
100
AcDbLine
10
300
20
15
11
300
21
18
0
LINE
5
1D4
100
AcDbEntity
8
0
6
ByLayer
62
0
370
-1
100
AcDbLine
10
290
20
15
11
290
21
18
0
LINE
5
1D5
100
AcDbEntity
8
0
6
ByLayer
62
0
370
-1
100
AcDbLine
10
291
20
15
11
291
21
16.8
0
LINE
5
1D6
100
AcDbEntity
8
0
6
ByLayer
62
0
370
-1
100
AcDbLine
10
292
20
15
11
292
21
16.8
0
LINE
5
1D7
100
AcDbEntity
8
0
6
ByLayer
62
0
370
-1
100
AcDbLine
10
293
20
15
11
293
21
16.8
0
LINE
5
1D8
100
AcDbEntity
8
0
6
ByLayer
62
0
370
-1
100
AcDbLine
10
294
20
15
11
294
21
16.8
0
LINE
5
1D9
100
AcDbEntity
8
0
6
ByLayer
62
0
370
-1
100
AcDbLine
10
295
20
15
11
295
21
16.8
0
LINE
5
1DA
100
AcDbEntity
8
0
6
ByLayer
62
0
370
-1
100
AcDbLine
10
296
20
15
11
296
21
16.8
0
LINE
5
1DB
100
AcDbEntity
8
0
6
ByLayer
62
0
370
-1
100
AcDbLine
10
297
20
15
11
297
21
16.8
0
LINE
5
1DC
100
AcDbEntity
8
0
6
ByLayer
62
0
370
-1
100
AcDbLine
10
298
20
15
11
298
21
16.8
0
LINE
5
1DD
100
AcDbEntity
8
0
6
ByLayer
62
0
370
-1
100
AcDbLine
10
299
20
15
11
299
21
16.8
0
LINE
5
1DE
100
AcDbEntity
8
0
6
ByLayer
62
0
370
-1
100
AcDbLine
10
301
20
15
11
301
21
16.8
0
LINE
5
1DF
100
AcDbEntity
8
0
6
ByLayer
62
0
370
-1
100
AcDbLine
10
302
20
15
11
302
21
16.8
0
LINE
5
1E0
100
AcDbEntity
8
0
6
ByLayer
62
0
370
-1
100
AcDbLine
10
303
20
15
11
303
21
16.8
0
LINE
5
1E1
100
AcDbEntity
8
0
6
ByLayer
62
0
370
-1
100
AcDbLine
10
304
20
15
11
304
21
16.8
0
LINE
5
1E2
100
AcDbEntity
8
0
6
ByLayer
62
0
370
-1
100
AcDbLine
10
305
20
15
11
305
21
16.8
0
LINE
5
1E3
100
AcDbEntity
8
0
6
ByLayer
62
0
370
-1
100
AcDbLine
10
306
20
15
11
306
21
16.8
0
LINE
5
1E4
100
AcDbEntity
8
0
6
ByLayer
62
0
370
-1
100
AcDbLine
10
307
20
15
11
307
21
16.8
0
LINE
5
1E5
100
AcDbEntity
8
0
6
ByLayer
62
0
370
-1
100
AcDbLine
10
308
20
15
11
308
21
16.8
0
LINE
5
1E6
100
AcDbEntity
8
0
6
ByLayer
62
0
370
-1
100
AcDbLine
10
309
20
15
11
309
21
16.8
0
LINE
5
1E7
100
AcDbEntity
8
0
6
ByLayer
62
0
370
-1
100
AcDbLine
10
311
20
15
11
311
21
16.8
0
LINE
5
1E8
100
AcDbEntity
8
0
6
ByLayer
62
0
370
-1
100
AcDbLine
10
312
20
15
11
312
21
16.8
0
LINE
5
1E9
100
AcDbEntity
8
0
6
ByLayer
62
0
370
-1
100
AcDbLine
10
313
20
15
11
313
21
16.8
0
LINE
5
1EA
100
AcDbEntity
8
0
6
ByLayer
62
0
370
-1
100
AcDbLine
10
314
20
15
11
314
21
16.8
0
LINE
5
1EB
100
AcDbEntity
8
0
6
ByLayer
62
0
370
-1
100
AcDbLine
10
315
20
15
11
315
21
16.8
0
LINE
5
1EC
100
AcDbEntity
8
0
6
ByLayer
62
0
370
-1
100
AcDbLine
10
316
20
15
11
316
21
16.8
0
LINE
5
1ED
100
AcDbEntity
8
0
6
ByLayer
62
0
370
-1
100
AcDbLine
10
317
20
15
11
317
21
16.8
0
LINE
5
1EE
100
AcDbEntity
8
0
6
ByLayer
62
0
370
-1
100
AcDbLine
10
318
20
15
11
318
21
16.8
0
LINE
5
1EF
100
AcDbEntity
8
0
6
ByLayer
62
0
370
-1
100
AcDbLine
10
319
20
15
11
319
21
16.8
0
LINE
5
1F0
100
AcDbEntity
8
0
6
ByLayer
62
0
370
-1
100
AcDbLine
10
321
20
15
11
321
21
16.8
0
LINE
5
1F1
100
AcDbEntity
8
0
6
ByLayer
62
0
370
-1
100
AcDbLine
10
322
20
15
11
322
21
16.8
0
LINE
5
1F2
100
AcDbEntity
8
0
6
ByLayer
62
0
370
-1
100
AcDbLine
10
323
20
15
11
323
21
16.8
0
LINE
5
1F3
100
AcDbEntity
8
0
6
ByLayer
62
0
370
-1
100
AcDbLine
10
324
20
15
11
324
21
16.8
0
LINE
5
1F4
100
AcDbEntity
8
0
6
ByLayer
62
0
370
-1
100
AcDbLine
10
325
20
15
11
325
21
16.8
0
LINE
5
1F5
100
AcDbEntity
8
0
6
ByLayer
62
0
370
-1
100
AcDbLine
10
326
20
15
11
326
21
16.8
0
LINE
5
1F6
100
AcDbEntity
8
0
6
ByLayer
62
0
370
-1
100
AcDbLine
10
327
20
15
11
327
21
16.8
0
LINE
5
1F7
100
AcDbEntity
8
0
6
ByLayer
62
0
370
-1
100
AcDbLine
10
328
20
15
11
328
21
16.8
0
LINE
5
1F8
100
AcDbEntity
8
0
6
ByLayer
62
0
370
-1
100
AcDbLine
10
329
20
15
11
329
21
16.8
0
LINE
5
1F9
100
AcDbEntity
8
0
6
ByLayer
62
0
370
-1
100
AcDbLine
10
331
20
15
11
331
21
16.8
0
LINE
5
1FA
100
AcDbEntity
8
0
6
ByLayer
62
0
370
-1
100
AcDbLine
10
332
20
15
11
332
21
16.8
0
LINE
5
1FB
100
AcDbEntity
8
0
6
ByLayer
62
0
370
-1
100
AcDbLine
10
333
20
15
11
333
21
16.8
0
LINE
5
1FC
100
AcDbEntity
8
0
6
ByLayer
62
0
370
-1
100
AcDbLine
10
334
20
15
11
334
21
16.8
0
LINE
5
1FD
100
AcDbEntity
8
0
6
ByLayer
62
0
370
-1
100
AcDbLine
10
335
20
15
11
335
21
16.8
0
LINE
5
1FE
100
AcDbEntity
8
0
6
ByLayer
62
0
370
-1
100
AcDbLine
10
336
20
15
11
336
21
16.8
0
LINE
5
1FF
100
AcDbEntity
8
0
6
ByLayer
62
0
370
-1
100
AcDbLine
10
337
20
15
11
337
21
16.8
0
LINE
5
200
100
AcDbEntity
8
0
6
ByLayer
62
0
370
-1
100
AcDbLine
10
338
20
15
11
338
21
16.8
0
LINE
5
201
100
AcDbEntity
8
0
6
ByLayer
62
0
370
-1
100
AcDbLine
10
339
20
15
11
339
21
16.8
0
LINE
5
202
100
AcDbEntity
8
0
6
ByLayer
62
0
370
-1
100
AcDbLine
10
341
20
15
11
341
21
16.8
0
LINE
5
203
100
AcDbEntity
8
0
6
ByLayer
62
0
370
-1
100
AcDbLine
10
342
20
15
11
342
21
16.8
0
LINE
5
204
100
AcDbEntity
8
0
6
ByLayer
62
0
370
-1
100
AcDbLine
10
343
20
15
11
343
21
16.8
0
LINE
5
205
100
AcDbEntity
8
0
6
ByLayer
62
0
370
-1
100
AcDbLine
10
344
20
15
11
344
21
16.8
0
LINE
5
206
100
AcDbEntity
8
0
6
ByLayer
62
0
370
-1
100
AcDbLine
10
345
20
15
11
345
21
16.8
0
LINE
5
207
100
AcDbEntity
8
0
6
ByLayer
62
0
370
-1
100
AcDbLine
10
346
20
15
11
346
21
16.8
0
LINE
5
208
100
AcDbEntity
8
0
6
ByLayer
62
0
370
-1
100
AcDbLine
10
347
20
15
11
347
21
16.8
0
LINE
5
209
100
AcDbEntity
8
0
6
ByLayer
62
0
370
-1
100
AcDbLine
10
348
20
15
11
348
21
16.8
0
LINE
5
20A
100
AcDbEntity
8
0
6
ByLayer
62
0
370
-1
100
AcDbLine
10
349
20
15
11
349
21
16.8
0
LINE
5
20B
100
AcDbEntity
8
0
6
ByLayer
62
0
370
-1
100
AcDbLine
10
351
20
15
11
351
21
16.8
0
LINE
5
20C
100
AcDbEntity
8
0
6
ByLayer
62
0
370
-1
100
AcDbLine
10
352
20
15
11
352
21
16.8
0
LINE
5
20D
100
AcDbEntity
8
0
6
ByLayer
62
0
370
-1
100
AcDbLine
10
353
20
15
11
353
21
16.8
0
LINE
5
20E
100
AcDbEntity
8
0
6
ByLayer
62
0
370
-1
100
AcDbLine
10
354
20
15
11
354
21
16.8
0
LINE
5
20F
100
AcDbEntity
8
0
6
ByLayer
62
0
370
-1
100
AcDbLine
10
355
20
15
11
355
21
16.8
0
LINE
5
210
100
AcDbEntity
8
0
6
ByLayer
62
0
370
-1
100
AcDbLine
10
356
20
15
11
356
21
16.8
0
LINE
5
211
100
AcDbEntity
8
0
6
ByLayer
62
0
370
-1
100
AcDbLine
10
357
20
15
11
357
21
16.8
0
LINE
5
212
100
AcDbEntity
8
0
6
ByLayer
62
0
370
-1
100
AcDbLine
10
358
20
15
11
358
21
16.8
0
LINE
5
213
100
AcDbEntity
8
0
6
ByLayer
62
0
370
-1
100
AcDbLine
10
359
20
15
11
359
21
16.8
0
LINE
5
214
100
AcDbEntity
8
0
6
ByLayer
62
0
370
-1
100
AcDbLine
10
361
20
15
11
361
21
16.8
0
LINE
5
215
100
AcDbEntity
8
0
6
ByLayer
62
0
370
-1
100
AcDbLine
10
362
20
15
11
362
21
16.8
0
LINE
5
216
100
AcDbEntity
8
0
6
ByLayer
62
0
370
-1
100
AcDbLine
10
363
20
15
11
363
21
16.8
0
LINE
5
217
100
AcDbEntity
8
0
6
ByLayer
62
0
370
-1
100
AcDbLine
10
364
20
15
11
364
21
16.8
0
LINE
5
218
100
AcDbEntity
8
0
6
ByLayer
62
0
370
-1
100
AcDbLine
10
365
20
15
11
365
21
16.8
0
LINE
5
219
100
AcDbEntity
8
0
6
ByLayer
62
0
370
-1
100
AcDbLine
10
366
20
15
11
366
21
16.8
0
LINE
5
21A
100
AcDbEntity
8
0
6
ByLayer
62
0
370
-1
100
AcDbLine
10
367
20
15
11
367
21
16.8
0
LINE
5
21B
100
AcDbEntity
8
0
6
ByLayer
62
0
370
-1
100
AcDbLine
10
368
20
15
11
368
21
16.8
0
LINE
5
21C
100
AcDbEntity
8
0
6
ByLayer
62
0
370
-1
100
AcDbLine
10
369
20
15
11
369
21
16.8
0
LINE
5
21D
100
AcDbEntity
8
0
6
ByLayer
62
0
370
-1
100
AcDbLine
10
371
20
15
11
371
21
16.8
0
LINE
5
21E
100
AcDbEntity
8
0
6
ByLayer
62
0
370
-1
100
AcDbLine
10
372
20
15
11
372
21
16.8
0
LINE
5
21F
100
AcDbEntity
8
0
6
ByLayer
62
0
370
-1
100
AcDbLine
10
373
20
15
11
373
21
16.8
0
LINE
5
220
100
AcDbEntity
8
0
6
ByLayer
62
0
370
-1
100
AcDbLine
10
374
20
15
11
374
21
16.8
0
LINE
5
221
100
AcDbEntity
8
0
6
ByLayer
62
0
370
-1
100
AcDbLine
10
375
20
15
11
375
21
16.8
0
LINE
5
222
100
AcDbEntity
8
0
6
ByLayer
62
0
370
-1
100
AcDbLine
10
376
20
15
11
376
21
16.8
0
LINE
5
223
100
AcDbEntity
8
0
6
ByLayer
62
0
370
-1
100
AcDbLine
10
377
20
15
11
377
21
16.8
0
LINE
5
224
100
AcDbEntity
8
0
6
ByLayer
62
0
370
-1
100
AcDbLine
10
378
20
15
11
378
21
16.8
0
LINE
5
225
100
AcDbEntity
8
0
6
ByLayer
62
0
370
-1
100
AcDbLine
10
379
20
15
11
379
21
16.8
0
LINE
5
226
100
AcDbEntity
8
0
6
ByLayer
62
0
370
-1
100
AcDbLine
10
381
20
15
11
381
21
16.8
0
LINE
5
227
100
AcDbEntity
8
0
6
ByLayer
62
0
370
-1
100
AcDbLine
10
382
20
15
11
382
21
16.8
0
LINE
5
228
100
AcDbEntity
8
0
6
ByLayer
62
0
370
-1
100
AcDbLine
10
383
20
15
11
383
21
16.8
0
LINE
5
229
100
AcDbEntity
8
0
6
ByLayer
62
0
370
-1
100
AcDbLine
10
384
20
15
11
384
21
16.8
0
LINE
5
22A
100
AcDbEntity
8
0
6
ByLayer
62
0
370
-1
100
AcDbLine
10
385
20
15
11
385
21
16.8
0
LINE
5
22B
100
AcDbEntity
8
0
6
ByLayer
62
0
370
-1
100
AcDbLine
10
386
20
15
11
386
21
16.8
0
LINE
5
22C
100
AcDbEntity
8
0
6
ByLayer
62
0
370
-1
100
AcDbLine
10
387
20
15
11
387
21
16.8
0
LINE
5
22D
100
AcDbEntity
8
0
6
ByLayer
62
0
370
-1
100
AcDbLine
10
388
20
15
11
388
21
16.8
0
LINE
5
22E
100
AcDbEntity
8
0
6
ByLayer
62
0
370
-1
100
AcDbLine
10
389
20
15
11
389
21
16.8
0
LINE
5
22F
100
AcDbEntity
8
0
6
ByLayer
62
0
370
-1
100
AcDbLine
10
295
20
16.8
11
295
21
17.4
0
LINE
5
230
100
AcDbEntity
8
0
6
ByLayer
62
0
370
-1
100
AcDbLine
10
305
20
16.8
11
305
21
17.4
0
LINE
5
231
100
AcDbEntity
8
0
6
ByLayer
62
0
370
-1
100
AcDbLine
10
315
20
16.8
11
315
21
17.4
0
LINE
5
232
100
AcDbEntity
8
0
6
ByLayer
62
0
370
-1
100
AcDbLine
10
325
20
16.8
11
325
21
17.4
0
LINE
5
233
100
AcDbEntity
8
0
6
ByLayer
62
0
370
-1
100
AcDbLine
10
335
20
16.8
11
335
21
17.4
0
LINE
5
234
100
AcDbEntity
8
0
6
ByLayer
62
0
370
-1
100
AcDbLine
10
345
20
16.8
11
345
21
17.4
0
LINE
5
235
100
AcDbEntity
8
0
6
ByLayer
62
0
370
-1
100
AcDbLine
10
355
20
16.8
11
355
21
17.4
0
LINE
5
236
100
AcDbEntity
8
0
6
ByLayer
62
0
370
-1
100
AcDbLine
10
365
20
16.8
11
365
21
17.4
0
LINE
5
237
100
AcDbEntity
8
0
6
ByLayer
62
0
370
-1
100
AcDbLine
10
375
20
16.8
11
375
21
17.4
0
LINE
5
238
100
AcDbEntity
8
0
6
ByLayer
62
0
370
-1
100
AcDbLine
10
385
20
16.8
11
385
21
17.4
0
MTEXT
5
239
100
AcDbEntity
8
0
6
ByLayer
62
0
370
-1
100
AcDbMText
10
341
20
13
30
0
40
3
41
18.3333333333
71
1
72
1
1
Millimeter
7
standard
210
0
220
0
230
1
50
0
73
2
44
1
0
LINE
5
23A
100
AcDbEntity
8
0
6
ByLayer
62
0
370
-1
100
AcDbLine
10
867
20
15
11
867
21
18
0
LINE
5
23B
100
AcDbEntity
8
0
6
ByLayer
62
0
370
-1
100
AcDbLine
10
857
20
15
11
857
21
18
0
LINE
5
23C
100
AcDbEntity
8
0
6
ByLayer
62
0
370
-1
100
AcDbLine
10
847
20
15
11
847
21
18
0
LINE
5
23D
100
AcDbEntity
8
0
6
ByLayer
62
0
370
-1
100
AcDbLine
10
837
20
15
11
837
21
18
0
LINE
5
23E
100
AcDbEntity
8
0
6
ByLayer
62
0
370
-1
100
AcDbLine
10
827
20
15
11
827
21
18
0
LINE
5
23F
100
AcDbEntity
8
0
6
ByLayer
62
0
370
-1
100
AcDbLine
10
817
20
15
11
817
21
18
0
LINE
5
240
100
AcDbEntity
8
0
6
ByLayer
62
0
370
-1
100
AcDbLine
10
807
20
15
11
807
21
18
0
LINE
5
241
100
AcDbEntity
8
0
6
ByLayer
62
0
370
-1
100
AcDbLine
10
797
20
15
11
797
21
18
0
LINE
5
242
100
AcDbEntity
8
0
6
ByLayer
62
0
370
-1
100
AcDbLine
10
787
20
15
11
787
21
18
0
LINE
5
243
100
AcDbEntity
8
0
6
ByLayer
62
0
370
-1
100
AcDbLine
10
777
20
15
11
777
21
18
0
LINE
5
244
100
AcDbEntity
8
0
6
ByLayer
62
0
370
-1
100
AcDbLine
10
778
20
15
11
778
21
16.8
0
LINE
5
245
100
AcDbEntity
8
0
6
ByLayer
62
0
370
-1
100
AcDbLine
10
779
20
15
11
779
21
16.8
0
LINE
5
246
100
AcDbEntity
8
0
6
ByLayer
62
0
370
-1
100
AcDbLine
10
780
20
15
11
780
21
16.8
0
LINE
5
247
100
AcDbEntity
8
0
6
ByLayer
62
0
370
-1
100
AcDbLine
10
781
20
15
11
781
21
16.8
0
LINE
5
248
100
AcDbEntity
8
0
6
ByLayer
62
0
370
-1
100
AcDbLine
10
782
20
15
11
782
21
16.8
0
LINE
5
249
100
AcDbEntity
8
0
6
ByLayer
62
0
370
-1
100
AcDbLine
10
783
20
15
11
783
21
16.8
0
LINE
5
24A
100
AcDbEntity
8
0
6
ByLayer
62
0
370
-1
100
AcDbLine
10
784
20
15
11
784
21
16.8
0
LINE
5
24B
100
AcDbEntity
8
0
6
ByLayer
62
0
370
-1
100
AcDbLine
10
785
20
15
11
785
21
16.8
0
LINE
5
24C
100
AcDbEntity
8
0
6
ByLayer
62
0
370
-1
100
AcDbLine
10
786
20
15
11
786
21
16.8
0
LINE
5
24D
100
AcDbEntity
8
0
6
ByLayer
62
0
370
-1
100
AcDbLine
10
788
20
15
11
788
21
16.8
0
LINE
5
24E
100
AcDbEntity
8
0
6
ByLayer
62
0
370
-1
100
AcDbLine
10
789
20
15
11
789
21
16.8
0
LINE
5
24F
100
AcDbEntity
8
0
6
ByLayer
62
0
370
-1
100
AcDbLine
10
790
20
15
11
790
21
16.8
0
LINE
5
250
100
AcDbEntity
8
0
6
ByLayer
62
0
370
-1
100
AcDbLine
10
791
20
15
11
791
21
16.8
0
LINE
5
251
100
AcDbEntity
8
0
6
ByLayer
62
0
370
-1
100
AcDbLine
10
792
20
15
11
792
21
16.8
0
LINE
5
252
100
AcDbEntity
8
0
6
ByLayer
62
0
370
-1
100
AcDbLine
10
793
20
15
11
793
21
16.8
0
LINE
5
253
100
AcDbEntity
8
0
6
ByLayer
62
0
370
-1
100
AcDbLine
10
794
20
15
11
794
21
16.8
0
LINE
5
254
100
AcDbEntity
8
0
6
ByLayer
62
0
370
-1
100
AcDbLine
10
795
20
15
11
795
21
16.8
0
LINE
5
255
100
AcDbEntity
8
0
6
ByLayer
62
0
370
-1
100
AcDbLine
10
796
20
15
11
796
21
16.8
0
LINE
5
256
100
AcDbEntity
8
0
6
ByLayer
62
0
370
-1
100
AcDbLine
10
798
20
15
11
798
21
16.8
0
LINE
5
257
100
AcDbEntity
8
0
6
ByLayer
62
0
370
-1
100
AcDbLine
10
799
20
15
11
799
21
16.8
0
LINE
5
258
100
AcDbEntity
8
0
6
ByLayer
62
0
370
-1
100
AcDbLine
10
800
20
15
11
800
21
16.8
0
LINE
5
259
100
AcDbEntity
8
0
6
ByLayer
62
0
370
-1
100
AcDbLine
10
801
20
15
11
801
21
16.8
0
LINE
5
25A
100
AcDbEntity
8
0
6
ByLayer
62
0
370
-1
100
AcDbLine
10
802
20
15
11
802
21
16.8
0
LINE
5
25B
100
AcDbEntity
8
0
6
ByLayer
62
0
370
-1
100
AcDbLine
10
803
20
15
11
803
21
16.8
0
LINE
5
25C
100
AcDbEntity
8
0
6
ByLayer
62
0
370
-1
100
AcDbLine
10
804
20
15
11
804
21
16.8
0
LINE
5
25D
100
AcDbEntity
8
0
6
ByLayer
62
0
370
-1
100
AcDbLine
10
805
20
15
11
805
21
16.8
0
LINE
5
25E
100
AcDbEntity
8
0
6
ByLayer
62
0
370
-1
100
AcDbLine
10
806
20
15
11
806
21
16.8
0
LINE
5
25F
100
AcDbEntity
8
0
6
ByLayer
62
0
370
-1
100
AcDbLine
10
808
20
15
11
808
21
16.8
0
LINE
5
260
100
AcDbEntity
8
0
6
ByLayer
62
0
370
-1
100
AcDbLine
10
809
20
15
11
809
21
16.8
0
LINE
5
261
100
AcDbEntity
8
0
6
ByLayer
62
0
370
-1
100
AcDbLine
10
810
20
15
11
810
21
16.8
0
LINE
5
262
100
AcDbEntity
8
0
6
ByLayer
62
0
370
-1
100
AcDbLine
10
811
20
15
11
811
21
16.8
0
LINE
5
263
100
AcDbEntity
8
0
6
ByLayer
62
0
370
-1
100
AcDbLine
10
812
20
15
11
812
21
16.8
0
LINE
5
264
100
AcDbEntity
8
0
6
ByLayer
62
0
370
-1
100
AcDbLine
10
813
20
15
11
813
21
16.8
0
LINE
5
265
100
AcDbEntity
8
0
6
ByLayer
62
0
370
-1
100
AcDbLine
10
814
20
15
11
814
21
16.8
0
LINE
5
266
100
AcDbEntity
8
0
6
ByLayer
62
0
370
-1
100
AcDbLine
10
815
20
15
11
815
21
16.8
0
LINE
5
267
100
AcDbEntity
8
0
6
ByLayer
62
0
370
-1
100
AcDbLine
10
816
20
15
11
816
21
16.8
0
LINE
5
268
100
AcDbEntity
8
0
6
ByLayer
62
0
370
-1
100
AcDbLine
10
818
20
15
11
818
21
16.8
0
LINE
5
269
100
AcDbEntity
8
0
6
ByLayer
62
0
370
-1
100
AcDbLine
10
819
20
15
11
819
21
16.8
0
LINE
5
26A
100
AcDbEntity
8
0
6
ByLayer
62
0
370
-1
100
AcDbLine
10
820
20
15
11
820
21
16.8
0
LINE
5
26B
100
AcDbEntity
8
0
6
ByLayer
62
0
370
-1
100
AcDbLine
10
821
20
15
11
821
21
16.8
0
LINE
5
26C
100
AcDbEntity
8
0
6
ByLayer
62
0
370
-1
100
AcDbLine
10
822
20
15
11
822
21
16.8
0
LINE
5
26D
100
AcDbEntity
8
0
6
ByLayer
62
0
370
-1
100
AcDbLine
10
823
20
15
11
823
21
16.8
0
LINE
5
26E
100
AcDbEntity
8
0
6
ByLayer
62
0
370
-1
100
AcDbLine
10
824
20
15
11
824
21
16.8
0
LINE
5
26F
100
AcDbEntity
8
0
6
ByLayer
62
0
370
-1
100
AcDbLine
10
825
20
15
11
825
21
16.8
0
LINE
5
270
100
AcDbEntity
8
0
6
ByLayer
62
0
370
-1
100
AcDbLine
10
826
20
15
11
826
21
16.8
0
LINE
5
271
100
AcDbEntity
8
0
6
ByLayer
62
0
370
-1
100
AcDbLine
10
828
20
15
11
828
21
16.8
0
LINE
5
272
100
AcDbEntity
8
0
6
ByLayer
62
0
370
-1
100
AcDbLine
10
829
20
15
11
829
21
16.8
0
LINE
5
273
100
AcDbEntity
8
0
6
ByLayer
62
0
370
-1
100
AcDbLine
10
830
20
15
11
830
21
16.8
0
LINE
5
274
100
AcDbEntity
8
0
6
ByLayer
62
0
370
-1
100
AcDbLine
10
831
20
15
11
831
21
16.8
0
LINE
5
275
100
AcDbEntity
8
0
6
ByLayer
62
0
370
-1
100
AcDbLine
10
832
20
15
11
832
21
16.8
0
LINE
5
276
100
AcDbEntity
8
0
6
ByLayer
62
0
370
-1
100
AcDbLine
10
833
20
15
11
833
21
16.8
0
LINE
5
277
100
AcDbEntity
8
0
6
ByLayer
62
0
370
-1
100
AcDbLine
10
834
20
15
11
834
21
16.8
0
LINE
5
278
100
AcDbEntity
8
0
6
ByLayer
62
0
370
-1
100
AcDbLine
10
835
20
15
11
835
21
16.8
0
LINE
5
279
100
AcDbEntity
8
0
6
ByLayer
62
0
370
-1
100
AcDbLine
10
836
20
15
11
836
21
16.8
0
LINE
5
27A
100
AcDbEntity
8
0
6
ByLayer
62
0
370
-1
100
AcDbLine
10
838
20
15
11
838
21
16.8
0
LINE
5
27B
100
AcDbEntity
8
0
6
ByLayer
62
0
370
-1
100
AcDbLine
10
839
20
15
11
839
21
16.8
0
LINE
5
27C
100
AcDbEntity
8
0
6
ByLayer
62
0
370
-1
100
AcDbLine
10
840
20
15
11
840
21
16.8
0
LINE
5
27D
100
AcDbEntity
8
0
6
ByLayer
62
0
370
-1
100
AcDbLine
10
841
20
15
11
841
21
16.8
0
LINE
5
27E
100
AcDbEntity
8
0
6
ByLayer
62
0
370
-1
100
AcDbLine
10
842
20
15
11
842
21
16.8
0
LINE
5
27F
100
AcDbEntity
8
0
6
ByLayer
62
0
370
-1
100
AcDbLine
10
843
20
15
11
843
21
16.8
0
LINE
5
280
100
AcDbEntity
8
0
6
ByLayer
62
0
370
-1
100
AcDbLine
10
844
20
15
11
844
21
16.8
0
LINE
5
281
100
AcDbEntity
8
0
6
ByLayer
62
0
370
-1
100
AcDbLine
10
845
20
15
11
845
21
16.8
0
LINE
5
282
100
AcDbEntity
8
0
6
ByLayer
62
0
370
-1
100
AcDbLine
10
846
20
15
11
846
21
16.8
0
LINE
5
283
100
AcDbEntity
8
0
6
ByLayer
62
0
370
-1
100
AcDbLine
10
848
20
15
11
848
21
16.8
0
LINE
5
284
100
AcDbEntity
8
0
6
ByLayer
62
0
370
-1
100
AcDbLine
10
849
20
15
11
849
21
16.8
0
LINE
5
285
100
AcDbEntity
8
0
6
ByLayer
62
0
370
-1
100
AcDbLine
10
850
20
15
11
850
21
16.8
0
LINE
5
286
100
AcDbEntity
8
0
6
ByLayer
62
0
370
-1
100
AcDbLine
10
851
20
15
11
851
21
16.8
0
LINE
5
287
100
AcDbEntity
8
0
6
ByLayer
62
0
370
-1
100
AcDbLine
10
852
20
15
11
852
21
16.8
0
LINE
5
288
100
AcDbEntity
8
0
6
ByLayer
62
0
370
-1
100
AcDbLine
10
853
20
15
11
853
21
16.8
0
LINE
5
289
100
AcDbEntity
8
0
6
ByLayer
62
0
370
-1
100
AcDbLine
10
854
20
15
11
854
21
16.8
0
LINE
5
28A
100
AcDbEntity
8
0
6
ByLayer
62
0
370
-1
100
AcDbLine
10
855
20
15
11
855
21
16.8
0
LINE
5
28B
100
AcDbEntity
8
0
6
ByLayer
62
0
370
-1
100
AcDbLine
10
856
20
15
11
856
21
16.8
0
LINE
5
28C
100
AcDbEntity
8
0
6
ByLayer
62
0
370
-1
100
AcDbLine
10
858
20
15
11
858
21
16.8
0
LINE
5
28D
100
AcDbEntity
8
0
6
ByLayer
62
0
370
-1
100
AcDbLine
10
859
20
15
11
859
21
16.8
0
LINE
5
28E
100
AcDbEntity
8
0
6
ByLayer
62
0
370
-1
100
AcDbLine
10
860
20
15
11
860
21
16.8
0
LINE
5
28F
100
AcDbEntity
8
0
6
ByLayer
62
0
370
-1
100
AcDbLine
10
861
20
15
11
861
21
16.8
0
LINE
5
290
100
AcDbEntity
8
0
6
ByLayer
62
0
370
-1
100
AcDbLine
10
862
20
15
11
862
21
16.8
0
LINE
5
291
100
AcDbEntity
8
0
6
ByLayer
62
0
370
-1
100
AcDbLine
10
863
20
15
11
863
21
16.8
0
LINE
5
292
100
AcDbEntity
8
0
6
ByLayer
62
0
370
-1
100
AcDbLine
10
864
20
15
11
864
21
16.8
0
LINE
5
293
100
AcDbEntity
8
0
6
ByLayer
62
0
370
-1
100
AcDbLine
10
865
20
15
11
865
21
16.8
0
LINE
5
294
100
AcDbEntity
8
0
6
ByLayer
62
0
370
-1
100
AcDbLine
10
866
20
15
11
866
21
16.8
0
LINE
5
295
100
AcDbEntity
8
0
6
ByLayer
62
0
370
-1
100
AcDbLine
10
868
20
15
11
868
21
16.8
0
LINE
5
296
100
AcDbEntity
8
0
6
ByLayer
62
0
370
-1
100
AcDbLine
10
869
20
15
11
869
21
16.8
0
LINE
5
297
100
AcDbEntity
8
0
6
ByLayer
62
0
370
-1
100
AcDbLine
10
870
20
15
11
870
21
16.8
0
LINE
5
298
100
AcDbEntity
8
0
6
ByLayer
62
0
370
-1
100
AcDbLine
10
871
20
15
11
871
21
16.8
0
LINE
5
299
100
AcDbEntity
8
0
6
ByLayer
62
0
370
-1
100
AcDbLine
10
872
20
15
11
872
21
16.8
0
LINE
5
29A
100
AcDbEntity
8
0
6
ByLayer
62
0
370
-1
100
AcDbLine
10
873
20
15
11
873
21
16.8
0
LINE
5
29B
100
AcDbEntity
8
0
6
ByLayer
62
0
370
-1
100
AcDbLine
10
874
20
15
11
874
21
16.8
0
LINE
5
29C
100
AcDbEntity
8
0
6
ByLayer
62
0
370
-1
100
AcDbLine
10
875
20
15
11
875
21
16.8
0
LINE
5
29D
100
AcDbEntity
8
0
6
ByLayer
62
0
370
-1
100
AcDbLine
10
876
20
15
11
876
21
16.8
0
LINE
5
29E
100
AcDbEntity
8
0
6
ByLayer
62
0
370
-1
100
AcDbLine
10
782
20
16.8
11
782
21
17.4
0
LINE
5
29F
100
AcDbEntity
8
0
6
ByLayer
62
0
370
-1
100
AcDbLine
10
792
20
16.8
11
792
21
17.4
0
LINE
5
2A0
100
AcDbEntity
8
0
6
ByLayer
62
0
370
-1
100
AcDbLine
10
802
20
16.8
11
802
21
17.4
0
LINE
5
2A1
100
AcDbEntity
8
0
6
ByLayer
62
0
370
-1
100
AcDbLine
10
812
20
16.8
11
812
21
17.4
0
LINE
5
2A2
100
AcDbEntity
8
0
6
ByLayer
62
0
370
-1
100
AcDbLine
10
822
20
16.8
11
822
21
17.4
0
LINE
5
2A3
100
AcDbEntity
8
0
6
ByLayer
62
0
370
-1
100
AcDbLine
10
832
20
16.8
11
832
21
17.4
0
LINE
5
2A4
100
AcDbEntity
8
0
6
ByLayer
62
0
370
-1
100
AcDbLine
10
842
20
16.8
11
842
21
17.4
0
LINE
5
2A5
100
AcDbEntity
8
0
6
ByLayer
62
0
370
-1
100
AcDbLine
10
852
20
16.8
11
852
21
17.4
0
LINE
5
2A6
100
AcDbEntity
8
0
6
ByLayer
62
0
370
-1
100
AcDbLine
10
862
20
16.8
11
862
21
17.4
0
LINE
5
2A7
100
AcDbEntity
8
0
6
ByLayer
62
0
370
-1
100
AcDbLine
10
872
20
16.8
11
872
21
17.4
0
MTEXT
5
2A8
100
AcDbEntity
8
0
6
ByLayer
62
0
370
-1
100
AcDbMText
10
828
20
13
30
0
40
3
41
18.3333333333
71
1
72
1
1
Millimeter
7
standard
210
0
220
0
230
1
50
0
73
2
44
1
0
ENDSEC
0
SECTION
2
OBJECTS
0
DICTIONARY
5
C
330
0
100
AcDbDictionary
281
1
3
ACAD_GROUP
350
D
0
DICTIONARY
5
D
330
C
100
AcDbDictionary
281
1
0
ENDSEC
0
EOF
